<svg width="24" height="24" viewBox="0 0 24 24" fill="none" xmlns="http://www.w3.org/2000/svg">
<g id="Frame">
<path id="Vector" d="M14.2753 3.55593C14.3008 3.46075 14.3447 3.37151 14.4047 3.29333C14.4647 3.21514 14.5394 3.14954 14.6247 3.10026C14.7101 3.05098 14.8043 3.019 14.9019 3.00614C14.9996 2.99328 15.0989 2.99979 15.1941 3.02531C16.5844 3.38807 17.853 4.11491 18.869 5.13096C19.8851 6.14702 20.6119 7.41556 20.9747 8.80593C21.0002 8.9011 21.0067 9.00036 20.9939 9.09805C20.981 9.19573 20.949 9.28993 20.8997 9.37525C20.8505 9.46057 20.7849 9.53534 20.7067 9.5953C20.6285 9.65526 20.5392 9.69922 20.4441 9.72468C20.3807 9.74132 20.3155 9.74983 20.25 9.74999C20.0849 9.75004 19.9243 9.69558 19.7933 9.59506C19.6622 9.49454 19.568 9.35358 19.5253 9.19406C19.2296 8.05887 18.6365 7.0231 17.8071 6.19353C16.9777 5.36397 15.942 4.77062 14.8069 4.47468C14.7116 4.44932 14.6223 4.40543 14.544 4.34552C14.4657 4.2856 14.4 4.21084 14.3506 4.12551C14.3012 4.04018 14.2692 3.94595 14.2563 3.84822C14.2433 3.75048 14.2498 3.65116 14.2753 3.55593ZM14.0569 7.47468C15.3497 7.81968 16.1803 8.65124 16.5253 9.94406C16.568 10.1036 16.6622 10.2445 16.7933 10.3451C16.9243 10.4456 17.0849 10.5 17.25 10.5C17.3155 10.4998 17.3807 10.4913 17.4441 10.4747C17.5392 10.4492 17.6285 10.4053 17.7067 10.3453C17.7849 10.2853 17.8505 10.2106 17.8997 10.1252C17.949 10.0399 17.981 9.94573 17.9939 9.84805C18.0067 9.75036 18.0002 9.6511 17.9747 9.55593C17.4947 7.75968 16.2403 6.50531 14.4441 6.02531C14.3489 5.99988 14.2497 5.99345 14.152 6.00638C14.0543 6.01932 13.9602 6.05135 13.8749 6.10067C13.7897 6.14999 13.7149 6.21562 13.655 6.29381C13.5951 6.372 13.5512 6.46123 13.5258 6.5564C13.5004 6.65157 13.4939 6.75081 13.5069 6.84846C13.5198 6.94611 13.5518 7.04026 13.6011 7.12553C13.6505 7.2108 13.7161 7.28553 13.7943 7.34543C13.8725 7.40534 13.9617 7.44926 14.0569 7.47468ZM20.8472 14.8556L16.4306 12.8766L16.4184 12.8709C16.1892 12.7729 15.939 12.7335 15.6907 12.7564C15.4424 12.7793 15.2037 12.8638 14.9963 13.0022C14.9718 13.0183 14.9483 13.0358 14.9259 13.0547L12.6441 15C11.1984 14.2978 9.70594 12.8166 9.00375 11.3897L10.9519 9.07312C10.9706 9.04968 10.9884 9.02624 11.0053 9.00093C11.1407 8.79403 11.2229 8.55686 11.2445 8.31053C11.266 8.0642 11.2264 7.81636 11.1291 7.58906V7.57781L9.14438 3.15374C9.01569 2.8568 8.79443 2.60944 8.51361 2.44859C8.2328 2.28774 7.90749 2.22202 7.58625 2.26124C6.31591 2.42841 5.14986 3.05228 4.30588 4.01633C3.4619 4.98039 2.9977 6.2187 3 7.49999C3 14.9437 9.05625 21 16.5 21C17.7813 21.0023 19.0196 20.5381 19.9837 19.6941C20.9477 18.8501 21.5716 17.6841 21.7388 16.4137C21.778 16.0926 21.7125 15.7674 21.5518 15.4866C21.3911 15.2058 21.144 14.9845 20.8472 14.8556Z" fill="#329993"/>
</g>
</svg>
