<svg width="25" height="25" viewBox="0 0 25 25" fill="none" xmlns="http://www.w3.org/2000/svg">
<g id="Frame">
<path id="Vector" d="M20.5306 7.77891L15.2806 2.52892C15.2109 2.45929 15.1282 2.40408 15.0371 2.36644C14.9461 2.3288 14.8485 2.30946 14.75 2.30954H5.75C5.35218 2.30954 4.97064 2.46758 4.68934 2.74888C4.40804 3.03018 4.25 3.41172 4.25 3.80954V20.3095C4.25 20.7074 4.40804 21.0889 4.68934 21.3702C4.97064 21.6515 5.35218 21.8095 5.75 21.8095H19.25C19.6478 21.8095 20.0294 21.6515 20.3107 21.3702C20.592 21.0889 20.75 20.7074 20.75 20.3095V8.30954C20.7501 8.21102 20.7307 8.11345 20.6931 8.0224C20.6555 7.93136 20.6003 7.84862 20.5306 7.77891ZM15.5 4.86985L18.1897 7.55954H15.5V4.86985ZM19.25 20.3095H5.75V3.80954H14V8.30954C14 8.50845 14.079 8.69922 14.2197 8.83987C14.3603 8.98052 14.5511 9.05954 14.75 9.05954H19.25V20.3095ZM16.25 12.8095C16.25 13.0085 16.171 13.1992 16.0303 13.3399C15.8897 13.4805 15.6989 13.5595 15.5 13.5595H9.5C9.30109 13.5595 9.11032 13.4805 8.96967 13.3399C8.82902 13.1992 8.75 13.0085 8.75 12.8095C8.75 12.6106 8.82902 12.4199 8.96967 12.2792C9.11032 12.1386 9.30109 12.0595 9.5 12.0595H15.5C15.6989 12.0595 15.8897 12.1386 16.0303 12.2792C16.171 12.4199 16.25 12.6106 16.25 12.8095ZM16.25 15.8095C16.25 16.0085 16.171 16.1992 16.0303 16.3399C15.8897 16.4805 15.6989 16.5595 15.5 16.5595H9.5C9.30109 16.5595 9.11032 16.4805 8.96967 16.3399C8.82902 16.1992 8.75 16.0085 8.75 15.8095C8.75 15.6106 8.82902 15.4199 8.96967 15.2792C9.11032 15.1386 9.30109 15.0595 9.5 15.0595H15.5C15.6989 15.0595 15.8897 15.1386 16.0303 15.2792C16.171 15.4199 16.25 15.6106 16.25 15.8095Z" fill="#5D6F6D"/>
</g>
</svg>
