<svg width="20" height="20" viewBox="0 0 20 20" fill="none" xmlns="http://www.w3.org/2000/svg">
<g id="Frame">
<path id="Vector" d="M15.625 2.49999H12.7922C12.441 2.10681 12.0108 1.79223 11.5296 1.57684C11.0484 1.36145 10.5272 1.25011 10 1.25011C9.47282 1.25011 8.95158 1.36145 8.47041 1.57684C7.98924 1.79223 7.55899 2.10681 7.20781 2.49999H4.375C4.04348 2.49999 3.72554 2.63169 3.49112 2.86611C3.2567 3.10053 3.125 3.41847 3.125 3.74999V16.875C3.125 17.2065 3.2567 17.5245 3.49112 17.7589C3.72554 17.9933 4.04348 18.125 4.375 18.125H15.625C15.9565 18.125 16.2745 17.9933 16.5089 17.7589C16.7433 17.5245 16.875 17.2065 16.875 16.875V3.74999C16.875 3.41847 16.7433 3.10053 16.5089 2.86611C16.2745 2.63169 15.9565 2.49999 15.625 2.49999ZM10 2.49999C10.663 2.49999 11.2989 2.76339 11.7678 3.23223C12.2366 3.70107 12.5 4.33695 12.5 4.99999H7.5C7.5 4.33695 7.76339 3.70107 8.23223 3.23223C8.70107 2.76339 9.33696 2.49999 10 2.49999ZM15.625 16.875H4.375V3.74999H6.46484C6.32267 4.15141 6.25001 4.57414 6.25 4.99999V5.62499C6.25 5.79075 6.31585 5.94973 6.43306 6.06694C6.55027 6.18415 6.70924 6.24999 6.875 6.24999H13.125C13.2908 6.24999 13.4497 6.18415 13.5669 6.06694C13.6842 5.94973 13.75 5.79075 13.75 5.62499V4.99999C13.75 4.57414 13.6773 4.15141 13.5352 3.74999H15.625V16.875Z" fill="#758A89"/>
</g>
</svg>
