<svg width="24" height="24" viewBox="0 0 24 24" fill="none" xmlns="http://www.w3.org/2000/svg">
<g id="Frame">
<path id="Vector" d="M21.5306 20.4694L16.8365 15.7763C18.1971 14.1429 18.8755 12.0478 18.7307 9.92697C18.5859 7.8061 17.629 5.82271 16.0591 4.38938C14.4892 2.95605 12.4271 2.18314 10.3019 2.23144C8.17663 2.27974 6.15181 3.14553 4.64864 4.6487C3.14547 6.15187 2.27968 8.17669 2.23138 10.3019C2.18308 12.4272 2.95599 14.4893 4.38932 16.0592C5.82265 17.6291 7.80604 18.586 9.92691 18.7308C12.0478 18.8756 14.1428 18.1971 15.7762 16.8366L20.4693 21.5307C20.539 21.6003 20.6218 21.6556 20.7128 21.6933C20.8038 21.731 20.9014 21.7504 21 21.7504C21.0985 21.7504 21.1961 21.731 21.2871 21.6933C21.3782 21.6556 21.4609 21.6003 21.5306 21.5307C21.6003 21.461 21.6556 21.3782 21.6933 21.2872C21.731 21.1962 21.7504 21.0986 21.7504 21C21.7504 20.9015 21.731 20.8039 21.6933 20.7129C21.6556 20.6218 21.6003 20.5391 21.5306 20.4694ZM3.74997 10.5C3.74997 9.16501 4.14585 7.85996 4.88755 6.74993C5.62925 5.6399 6.68345 4.77474 7.91686 4.26384C9.15026 3.75295 10.5075 3.61928 11.8168 3.87973C13.1262 4.14018 14.3289 4.78306 15.2729 5.72706C16.2169 6.67106 16.8598 7.8738 17.1203 9.18317C17.3807 10.4925 17.247 11.8497 16.7362 13.0831C16.2253 14.3165 15.3601 15.3708 14.2501 16.1125C13.14 16.8541 11.835 17.25 10.5 17.25C8.71037 17.248 6.99463 16.5362 5.72919 15.2708C4.46375 14.0054 3.75195 12.2896 3.74997 10.5Z" fill="#758A88"/>
</g>
</svg>
