<svg width="20" height="20" viewBox="0 0 20 20" fill="none" xmlns="http://www.w3.org/2000/svg">
<g id="Frame">
<path id="Vector" d="M18.125 9.9914C18.1256 10.2141 18.0666 10.4329 17.9543 10.6252C17.8419 10.8175 17.6802 10.9763 17.4859 11.0851L4.36797 18.5859C4.1795 18.6928 3.96667 18.7493 3.75 18.75C3.5502 18.7496 3.3534 18.7013 3.1761 18.6091C2.99881 18.517 2.84619 18.3837 2.73103 18.2204C2.61588 18.0571 2.54154 17.8686 2.51426 17.6707C2.48697 17.4727 2.50754 17.2712 2.57422 17.0828L4.71094 10.8367C4.732 10.7749 4.77187 10.7213 4.82498 10.6833C4.87809 10.6453 4.94175 10.6249 5.00703 10.625H10.625C10.7107 10.6252 10.7955 10.6078 10.8741 10.5738C10.9528 10.5398 11.0236 10.49 11.0823 10.4275C11.1409 10.3651 11.186 10.2912 11.2149 10.2105C11.2437 10.1298 11.2557 10.0441 11.25 9.95859C11.2358 9.79787 11.1615 9.64844 11.0418 9.54023C10.9221 9.43201 10.766 9.37299 10.6047 9.37499H5.0125C4.94731 9.37511 4.88372 9.35484 4.83063 9.31701C4.77753 9.27919 4.7376 9.22571 4.71641 9.16406L2.57266 2.91406C2.48918 2.67456 2.48052 2.41534 2.54784 2.17082C2.61516 1.92629 2.75528 1.70803 2.94957 1.54501C3.14387 1.38199 3.38316 1.28194 3.63566 1.25813C3.88817 1.23432 4.14194 1.28789 4.36328 1.41171L17.4883 8.90312C17.6813 9.01182 17.842 9.16987 17.9539 9.3611C18.0658 9.55232 18.1248 9.76985 18.125 9.9914Z" fill="#329993"/>
</g>
</svg>
