<svg width="21" height="21" viewBox="0 0 21 21" fill="none" xmlns="http://www.w3.org/2000/svg">
<g id="Frame">
<path id="Vector" d="M17.1791 12.1167L10.9303 5.86557C10.8722 5.80745 10.8033 5.76134 10.7274 5.72987C10.6516 5.69841 10.5703 5.6822 10.4881 5.68219C10.406 5.68217 10.3246 5.69835 10.2488 5.72979C10.1729 5.76122 10.104 5.80731 10.0459 5.86541L3.79475 12.1143C3.67745 12.2315 3.61153 12.3906 3.6115 12.5564C3.61147 12.7223 3.67733 12.8813 3.79458 12.9986C3.91184 13.1159 4.07088 13.1818 4.23674 13.1819C4.40259 13.1819 4.56166 13.1161 4.67896 12.9988L10.4878 7.19127L16.2946 13.0009C16.3526 13.059 16.4216 13.1051 16.4974 13.1365C16.5733 13.168 16.6546 13.1842 16.7367 13.1842C16.8189 13.1842 16.9002 13.168 16.9761 13.1366C17.0519 13.1052 17.1209 13.0592 17.179 13.0011C17.237 12.943 17.2831 12.8741 17.3146 12.7982C17.346 12.7224 17.3622 12.6411 17.3622 12.5589C17.3622 12.4768 17.3461 12.3955 17.3146 12.3196C17.2832 12.2438 17.2372 12.1748 17.1791 12.1167Z" fill="#329993"/>
</g>
</svg>
