<svg width="253" height="374" viewBox="0 0 253 374" fill="none" xmlns="http://www.w3.org/2000/svg">
<path d="M64.0278 367.99H64.7418V369.766H66.7218V367.99H67.4298V372.19H66.7218V370.36H64.7418V372.19H64.0278V367.99ZM70.129 368.584H69.913L68.653 372.19H67.921L69.409 367.99H70.621L72.115 372.19H71.383L70.129 368.584ZM68.737 370.576H71.185V371.164H68.737V370.576ZM73.8825 372.19H73.0785L71.8725 367.99H72.6405L73.4805 371.374L74.3745 367.99H75.1725L76.0545 371.362L76.9065 367.99H77.6625L76.4685 372.19H75.6525L74.7705 369.052L73.8825 372.19ZM79.633 368.584H79.417L78.157 372.19H77.425L78.913 367.99H80.125L81.619 372.19H80.887L79.633 368.584ZM78.241 370.576H80.689V371.164H78.241V370.576ZM82.0982 367.99H82.8122V372.19H82.0982V367.99ZM83.6919 367.99H84.4059V372.19H83.6919V367.99Z" fill="#47178E"/>
<path d="M45.4713 46.1504H44.7573V41.9504H45.5553L46.9713 45.2144L48.3873 41.9504H49.1793V46.1504H48.4713V43.3124L47.2413 46.1504H46.7013L45.4713 43.3124V46.1504ZM51.9801 46.1924C51.6841 46.1924 51.4061 46.1404 51.1461 46.0364C50.8861 45.9324 50.6581 45.7864 50.4621 45.5984C50.2701 45.4064 50.1181 45.1804 50.0061 44.9204C49.8981 44.6564 49.8441 44.3664 49.8441 44.0504C49.8441 43.7384 49.8981 43.4524 50.0061 43.1924C50.1181 42.9284 50.2701 42.7004 50.4621 42.5084C50.6581 42.3164 50.8861 42.1684 51.1461 42.0644C51.4061 41.9604 51.6841 41.9084 51.9801 41.9084C52.2761 41.9084 52.5521 41.9604 52.8081 42.0644C53.0681 42.1684 53.2941 42.3164 53.4861 42.5084C53.6821 42.7004 53.8341 42.9284 53.9421 43.1924C54.0541 43.4524 54.1101 43.7384 54.1101 44.0504C54.1101 44.3664 54.0541 44.6564 53.9421 44.9204C53.8341 45.1804 53.6821 45.4064 53.4861 45.5984C53.2941 45.7864 53.0681 45.9324 52.8081 46.0364C52.5521 46.1404 52.2761 46.1924 51.9801 46.1924ZM51.9801 45.5864C52.2521 45.5864 52.4941 45.5244 52.7061 45.4004C52.9181 45.2724 53.0841 45.0944 53.2041 44.8664C53.3241 44.6344 53.3841 44.3624 53.3841 44.0504C53.3841 43.7344 53.3241 43.4624 53.2041 43.2344C53.0841 43.0064 52.9181 42.8304 52.7061 42.7064C52.4941 42.5784 52.2521 42.5144 51.9801 42.5144C51.7081 42.5144 51.4661 42.5784 51.2541 42.7064C51.0421 42.8304 50.8741 43.0064 50.7501 43.2344C50.6301 43.4624 50.5701 43.7344 50.5701 44.0504C50.5701 44.3624 50.6301 44.6344 50.7501 44.8664C50.8741 45.0944 51.0421 45.2724 51.2541 45.4004C51.4661 45.5244 51.7081 45.5864 51.9801 45.5864ZM58.1611 41.9504V46.1504H57.4351L55.4791 43.0724V46.1504H54.7651V41.9504H55.4971L57.4531 45.0164V41.9504H58.1611ZM58.8265 41.9504H62.1265V42.5444H60.8365V46.1504H60.1225V42.5444H58.8265V41.9504ZM64.1945 42.5444H63.9785L62.7185 46.1504H61.9865L63.4745 41.9504H64.6865L66.1805 46.1504H65.4485L64.1945 42.5444ZM62.8025 44.5364H65.2505V45.1244H62.8025V44.5364ZM70.0557 41.9504V46.1504H69.3297L67.3737 43.0724V46.1504H66.6597V41.9504H67.3917L69.3477 45.0164V41.9504H70.0557ZM72.755 42.5444H72.539L71.279 46.1504H70.547L72.035 41.9504H73.247L74.741 46.1504H74.009L72.755 42.5444ZM71.363 44.5364H73.811V45.1244H71.363V44.5364Z" fill="white"/>
<path d="M56.3435 107H55.5395L54.3335 102.8H55.1015L55.9415 106.184L56.8355 102.8H57.6335L58.5155 106.172L59.3675 102.8H60.1235L58.9295 107H58.1135L57.2315 103.862L56.3435 107ZM63.4576 102.8H64.2556L62.6836 105.488V107H61.9756V105.494L60.4096 102.8H61.2016L62.3296 104.84L63.4576 102.8ZM66.6021 107.042C66.3061 107.042 66.0281 106.99 65.7681 106.886C65.5081 106.782 65.2801 106.636 65.0841 106.448C64.8921 106.256 64.7401 106.03 64.6281 105.77C64.5201 105.506 64.4661 105.216 64.4661 104.9C64.4661 104.588 64.5201 104.302 64.6281 104.042C64.7401 103.778 64.8921 103.55 65.0841 103.358C65.2801 103.166 65.5081 103.018 65.7681 102.914C66.0281 102.81 66.3061 102.758 66.6021 102.758C66.8981 102.758 67.1741 102.81 67.4301 102.914C67.6901 103.018 67.9161 103.166 68.1081 103.358C68.3041 103.55 68.4561 103.778 68.5641 104.042C68.6761 104.302 68.7321 104.588 68.7321 104.9C68.7321 105.216 68.6761 105.506 68.5641 105.77C68.4561 106.03 68.3041 106.256 68.1081 106.448C67.9161 106.636 67.6901 106.782 67.4301 106.886C67.1741 106.99 66.8981 107.042 66.6021 107.042ZM66.6021 106.436C66.8741 106.436 67.1161 106.374 67.3281 106.25C67.5401 106.122 67.7061 105.944 67.8261 105.716C67.9461 105.484 68.0061 105.212 68.0061 104.9C68.0061 104.584 67.9461 104.312 67.8261 104.084C67.7061 103.856 67.5401 103.68 67.3281 103.556C67.1161 103.428 66.8741 103.364 66.6021 103.364C66.3301 103.364 66.0881 103.428 65.8761 103.556C65.6641 103.68 65.4961 103.856 65.3721 104.084C65.2521 104.312 65.1921 104.584 65.1921 104.9C65.1921 105.212 65.2521 105.484 65.3721 105.716C65.4961 105.944 65.6641 106.122 65.8761 106.25C66.0881 106.374 66.3301 106.436 66.6021 106.436ZM70.1012 107H69.3872V102.8H70.1852L71.6012 106.064L73.0172 102.8H73.8092V107H73.1012V104.162L71.8712 107H71.3312L70.1012 104.162V107ZM74.69 102.8H75.404V107H74.69V102.8ZM79.6797 102.8V107H78.9537L76.9977 103.922V107H76.2837V102.8H77.0157L78.9717 105.866V102.8H79.6797ZM83.735 104.108C83.587 103.844 83.405 103.654 83.189 103.538C82.973 103.422 82.743 103.364 82.499 103.364C82.235 103.364 81.993 103.43 81.773 103.562C81.557 103.69 81.385 103.87 81.257 104.102C81.133 104.33 81.071 104.596 81.071 104.9C81.071 105.204 81.133 105.472 81.257 105.704C81.381 105.932 81.549 106.112 81.761 106.244C81.977 106.372 82.217 106.436 82.481 106.436C82.669 106.436 82.845 106.404 83.009 106.34C83.173 106.276 83.317 106.188 83.441 106.076C83.565 105.96 83.663 105.828 83.735 105.68V105.26H82.529V104.678H84.449V105.722C84.353 105.97 84.209 106.194 84.017 106.394C83.829 106.594 83.603 106.752 83.339 106.868C83.079 106.984 82.791 107.042 82.475 107.042C82.179 107.042 81.901 106.99 81.641 106.886C81.385 106.782 81.159 106.636 80.963 106.448C80.771 106.256 80.619 106.03 80.507 105.77C80.399 105.506 80.345 105.216 80.345 104.9C80.345 104.588 80.399 104.302 80.507 104.042C80.619 103.778 80.771 103.55 80.963 103.358C81.159 103.166 81.385 103.018 81.641 102.914C81.901 102.81 82.179 102.758 82.475 102.758C82.743 102.758 83.001 102.802 83.249 102.89C83.497 102.974 83.719 103.1 83.915 103.268C84.111 103.436 84.261 103.642 84.365 103.886L83.735 104.108Z" fill="white"/>
<path d="M183.872 57.6704H183.158V53.4704H183.956L185.372 56.7344L186.788 53.4704H187.58V57.6704H186.872V54.8324L185.642 57.6704H185.102L183.872 54.8324V57.6704ZM188.46 53.4704H189.174V57.6704H188.46V53.4704ZM193.45 53.4704V57.6704H192.724L190.768 54.5924V57.6704H190.054V53.4704H190.786L192.742 56.5364V53.4704H193.45ZM197.728 53.4704V57.6704H197.002L195.046 54.5924V57.6704H194.332V53.4704H195.064L197.02 56.5364V53.4704H197.728ZM201.477 54.0644H199.323V55.2464H200.937V55.8404H199.323V57.0764H201.477V57.6704H198.609V53.4704H201.477V54.0644ZM202.722 56.5184C202.746 56.6304 202.792 56.7324 202.86 56.8244C202.932 56.9124 203.026 56.9824 203.142 57.0344C203.262 57.0864 203.404 57.1124 203.568 57.1124C203.82 57.1124 204.008 57.0544 204.132 56.9384C204.256 56.8184 204.318 56.6784 204.318 56.5184C204.318 56.3864 204.278 56.2764 204.198 56.1884C204.122 56.1004 204.014 56.0264 203.874 55.9664C203.734 55.9024 203.574 55.8424 203.394 55.7864C203.23 55.7384 203.072 55.6884 202.92 55.6364C202.768 55.5804 202.63 55.5124 202.506 55.4324C202.386 55.3484 202.29 55.2424 202.218 55.1144C202.146 54.9824 202.112 54.8184 202.116 54.6224C202.116 54.3664 202.176 54.1504 202.296 53.9744C202.416 53.7944 202.584 53.6584 202.8 53.5664C203.016 53.4744 203.264 53.4284 203.544 53.4284C203.78 53.4284 203.992 53.4624 204.18 53.5304C204.372 53.5944 204.534 53.6904 204.666 53.8184C204.798 53.9424 204.896 54.0964 204.96 54.2804L204.306 54.4964C204.282 54.4084 204.234 54.3304 204.162 54.2624C204.09 54.1904 204 54.1344 203.892 54.0944C203.788 54.0544 203.674 54.0324 203.55 54.0284C203.414 54.0244 203.292 54.0444 203.184 54.0884C203.08 54.1324 202.996 54.1964 202.932 54.2804C202.868 54.3604 202.836 54.4544 202.836 54.5624C202.836 54.6864 202.872 54.7844 202.944 54.8564C203.016 54.9244 203.11 54.9824 203.226 55.0304C203.346 55.0744 203.478 55.1204 203.622 55.1684C203.79 55.2164 203.956 55.2724 204.12 55.3364C204.288 55.3964 204.44 55.4744 204.576 55.5704C204.716 55.6624 204.828 55.7804 204.912 55.9244C204.996 56.0684 205.038 56.2484 205.038 56.4644C205.038 56.6964 204.984 56.9064 204.876 57.0944C204.772 57.2824 204.612 57.4324 204.396 57.5444C204.18 57.6564 203.912 57.7124 203.592 57.7124C203.332 57.7124 203.094 57.6744 202.878 57.5984C202.666 57.5184 202.488 57.4064 202.344 57.2624C202.204 57.1144 202.112 56.9404 202.068 56.7404L202.722 56.5184ZM207.66 57.7124C207.364 57.7124 207.086 57.6604 206.826 57.5564C206.566 57.4524 206.338 57.3064 206.142 57.1184C205.95 56.9264 205.798 56.7004 205.686 56.4404C205.578 56.1764 205.524 55.8864 205.524 55.5704C205.524 55.2584 205.578 54.9724 205.686 54.7124C205.798 54.4484 205.95 54.2204 206.142 54.0284C206.338 53.8364 206.566 53.6884 206.826 53.5844C207.086 53.4804 207.364 53.4284 207.66 53.4284C207.956 53.4284 208.232 53.4804 208.488 53.5844C208.748 53.6884 208.974 53.8364 209.166 54.0284C209.362 54.2204 209.514 54.4484 209.622 54.7124C209.734 54.9724 209.79 55.2584 209.79 55.5704C209.79 55.8864 209.734 56.1764 209.622 56.4404C209.514 56.7004 209.362 56.9264 209.166 57.1184C208.974 57.3064 208.748 57.4524 208.488 57.5564C208.232 57.6604 207.956 57.7124 207.66 57.7124ZM207.66 57.1064C207.932 57.1064 208.174 57.0444 208.386 56.9204C208.598 56.7924 208.764 56.6144 208.884 56.3864C209.004 56.1544 209.064 55.8824 209.064 55.5704C209.064 55.2544 209.004 54.9824 208.884 54.7544C208.764 54.5264 208.598 54.3504 208.386 54.2264C208.174 54.0984 207.932 54.0344 207.66 54.0344C207.388 54.0344 207.146 54.0984 206.934 54.2264C206.722 54.3504 206.554 54.5264 206.43 54.7544C206.31 54.9824 206.25 55.2544 206.25 55.5704C206.25 55.8824 206.31 56.1544 206.43 56.3864C206.554 56.6144 206.722 56.7924 206.934 56.9204C207.146 57.0444 207.388 57.1064 207.66 57.1064ZM210.112 53.4704H213.412V54.0644H212.122V57.6704H211.408V54.0644H210.112V53.4704ZM215.48 54.0644H215.264L214.004 57.6704H213.272L214.76 53.4704H215.972L217.466 57.6704H216.734L215.48 54.0644ZM214.088 56.0564H216.536V56.6444H214.088V56.0564Z" fill="white"/>
<path d="M233.883 81.8301H233.079L231.873 77.6301H232.641L233.481 81.0141L234.375 77.6301H235.173L236.055 81.0021L236.907 77.6301H237.663L236.469 81.8301H235.653L234.771 78.6921L233.883 81.8301ZM238.244 77.6301H238.958V81.8301H238.244V77.6301ZM240.317 80.6781C240.341 80.7901 240.387 80.8921 240.455 80.9841C240.527 81.0721 240.621 81.1421 240.737 81.1941C240.857 81.2461 240.999 81.2721 241.163 81.2721C241.415 81.2721 241.603 81.2141 241.727 81.0981C241.851 80.9781 241.913 80.8381 241.913 80.6781C241.913 80.5461 241.873 80.4361 241.793 80.3481C241.717 80.2601 241.609 80.1861 241.469 80.1261C241.329 80.0621 241.169 80.0021 240.989 79.9461C240.825 79.8981 240.667 79.8481 240.515 79.7961C240.363 79.7401 240.225 79.6721 240.101 79.5921C239.981 79.5081 239.885 79.4021 239.813 79.2741C239.741 79.1421 239.707 78.9781 239.711 78.7821C239.711 78.5261 239.771 78.3101 239.891 78.1341C240.011 77.9541 240.179 77.8181 240.395 77.7261C240.611 77.6341 240.859 77.5881 241.139 77.5881C241.375 77.5881 241.587 77.6221 241.775 77.6901C241.967 77.7541 242.129 77.8501 242.261 77.9781C242.393 78.1021 242.491 78.2561 242.555 78.4401L241.901 78.6561C241.877 78.5681 241.829 78.4901 241.757 78.4221C241.685 78.3501 241.595 78.2941 241.487 78.2541C241.383 78.2141 241.269 78.1921 241.145 78.1881C241.009 78.1841 240.887 78.2041 240.779 78.2481C240.675 78.2921 240.591 78.3561 240.527 78.4401C240.463 78.5201 240.431 78.6141 240.431 78.7221C240.431 78.8461 240.467 78.9441 240.539 79.0161C240.611 79.0841 240.705 79.1421 240.821 79.1901C240.941 79.2341 241.073 79.2801 241.217 79.3281C241.385 79.3761 241.551 79.4321 241.715 79.4961C241.883 79.5561 242.035 79.6341 242.171 79.7301C242.311 79.8221 242.423 79.9401 242.507 80.0841C242.591 80.2281 242.633 80.4081 242.633 80.6241C242.633 80.8561 242.579 81.0661 242.471 81.2541C242.367 81.4421 242.207 81.5921 241.991 81.7041C241.775 81.8161 241.507 81.8721 241.187 81.8721C240.927 81.8721 240.689 81.8341 240.473 81.7581C240.261 81.6781 240.083 81.5661 239.939 81.4221C239.799 81.2741 239.707 81.1001 239.663 80.9001L240.317 80.6781ZM243.119 79.7301C243.119 79.4141 243.173 79.1261 243.281 78.8661C243.393 78.6021 243.545 78.3761 243.737 78.1881C243.933 77.9961 244.159 77.8481 244.415 77.7441C244.675 77.6401 244.953 77.5881 245.249 77.5881C245.661 77.5881 246.033 77.6861 246.365 77.8821C246.701 78.0781 246.957 78.3601 247.133 78.7281L246.551 78.9261C246.459 78.7501 246.341 78.6081 246.197 78.5001C246.053 78.3921 245.901 78.3141 245.741 78.2661C245.581 78.2181 245.423 78.1941 245.267 78.1941C244.995 78.1941 244.751 78.2581 244.535 78.3861C244.319 78.5101 244.149 78.6881 244.025 78.9201C243.905 79.1481 243.845 79.4181 243.845 79.7301C243.845 80.0381 243.905 80.3081 244.025 80.5401C244.149 80.7681 244.319 80.9461 244.535 81.0741C244.751 81.2021 244.995 81.2661 245.267 81.2661C245.427 81.2661 245.589 81.2421 245.753 81.1941C245.921 81.1421 246.079 81.0541 246.227 80.9301C246.379 80.8021 246.505 80.6321 246.605 80.4201L247.181 80.6061C246.997 81.0381 246.735 81.3581 246.395 81.5661C246.055 81.7701 245.673 81.8721 245.249 81.8721C244.953 81.8721 244.675 81.8201 244.415 81.7161C244.159 81.6121 243.933 81.4641 243.737 81.2721C243.545 81.0801 243.393 80.8541 243.281 80.5941C243.173 80.3301 243.119 80.0421 243.119 79.7301ZM249.826 81.8721C249.53 81.8721 249.252 81.8201 248.992 81.7161C248.732 81.6121 248.504 81.4661 248.308 81.2781C248.116 81.0861 247.964 80.8601 247.852 80.6001C247.744 80.3361 247.69 80.0461 247.69 79.7301C247.69 79.4181 247.744 79.1321 247.852 78.8721C247.964 78.6081 248.116 78.3801 248.308 78.1881C248.504 77.9961 248.732 77.8481 248.992 77.7441C249.252 77.6401 249.53 77.5881 249.826 77.5881C250.122 77.5881 250.398 77.6401 250.654 77.7441C250.914 77.8481 251.14 77.9961 251.332 78.1881C251.528 78.3801 251.68 78.6081 251.788 78.8721C251.9 79.1321 251.956 79.4181 251.956 79.7301C251.956 80.0461 251.9 80.3361 251.788 80.6001C251.68 80.8601 251.528 81.0861 251.332 81.2781C251.14 81.4661 250.914 81.6121 250.654 81.7161C250.398 81.8201 250.122 81.8721 249.826 81.8721ZM249.826 81.2661C250.098 81.2661 250.34 81.2041 250.552 81.0801C250.764 80.9521 250.93 80.7741 251.05 80.5461C251.17 80.3141 251.23 80.0421 251.23 79.7301C251.23 79.4141 251.17 79.1421 251.05 78.9141C250.93 78.6861 250.764 78.5101 250.552 78.3861C250.34 78.2581 250.098 78.1941 249.826 78.1941C249.554 78.1941 249.312 78.2581 249.1 78.3861C248.888 78.5101 248.72 78.6861 248.596 78.9141C248.476 79.1421 248.416 79.4141 248.416 79.7301C248.416 80.0421 248.476 80.3141 248.596 80.5461C248.72 80.7741 248.888 80.9521 249.1 81.0801C249.312 81.2041 249.554 81.2661 249.826 81.2661ZM256.007 77.6301V81.8301H255.281L253.325 78.7521V81.8301H252.611V77.6301H253.343L255.299 80.6961V77.6301H256.007ZM257.368 80.6781C257.392 80.7901 257.438 80.8921 257.506 80.9841C257.578 81.0721 257.672 81.1421 257.788 81.1941C257.908 81.2461 258.05 81.2721 258.214 81.2721C258.466 81.2721 258.654 81.2141 258.778 81.0981C258.902 80.9781 258.964 80.8381 258.964 80.6781C258.964 80.5461 258.924 80.4361 258.844 80.3481C258.768 80.2601 258.66 80.1861 258.52 80.1261C258.38 80.0621 258.22 80.0021 258.04 79.9461C257.876 79.8981 257.718 79.8481 257.566 79.7961C257.414 79.7401 257.276 79.6721 257.152 79.5921C257.032 79.5081 256.936 79.4021 256.864 79.2741C256.792 79.1421 256.758 78.9781 256.762 78.7821C256.762 78.5261 256.822 78.3101 256.942 78.1341C257.062 77.9541 257.23 77.8181 257.446 77.7261C257.662 77.6341 257.91 77.5881 258.19 77.5881C258.426 77.5881 258.638 77.6221 258.826 77.6901C259.018 77.7541 259.18 77.8501 259.312 77.9781C259.444 78.1021 259.542 78.2561 259.606 78.4401L258.952 78.6561C258.928 78.5681 258.88 78.4901 258.808 78.4221C258.736 78.3501 258.646 78.2941 258.538 78.2541C258.434 78.2141 258.32 78.1921 258.196 78.1881C258.06 78.1841 257.938 78.2041 257.83 78.2481C257.726 78.2921 257.642 78.3561 257.578 78.4401C257.514 78.5201 257.482 78.6141 257.482 78.7221C257.482 78.8461 257.518 78.9441 257.59 79.0161C257.662 79.0841 257.756 79.1421 257.872 79.1901C257.992 79.2341 258.124 79.2801 258.268 79.3281C258.436 79.3761 258.602 79.4321 258.766 79.4961C258.934 79.5561 259.086 79.6341 259.222 79.7301C259.362 79.8221 259.474 79.9401 259.558 80.0841C259.642 80.2281 259.684 80.4081 259.684 80.6241C259.684 80.8561 259.63 81.0661 259.522 81.2541C259.418 81.4421 259.258 81.5921 259.042 81.7041C258.826 81.8161 258.558 81.8721 258.238 81.8721C257.978 81.8721 257.74 81.8341 257.524 81.7581C257.312 81.6781 257.134 81.5661 256.99 81.4221C256.85 81.2741 256.758 81.1001 256.714 80.9001L257.368 80.6781ZM260.386 77.6301H261.1V81.8301H260.386V77.6301ZM265.376 77.6301V81.8301H264.65L262.694 78.7521V81.8301H261.98V77.6301H262.712L264.668 80.6961V77.6301H265.376Z" fill="white"/>
<path d="M250.738 133.94H251.452V138.14H250.738V133.94ZM253.046 133.94V137.546H254.93V138.14H252.332V133.94H253.046ZM256.233 133.94V137.546H258.117V138.14H255.519V133.94H256.233ZM258.707 133.94H259.421V138.14H258.707V133.94ZM263.696 133.94V138.14H262.97L261.014 135.062V138.14H260.3V133.94H261.032L262.988 137.006V133.94H263.696ZM266.498 138.182C266.202 138.182 265.924 138.13 265.664 138.026C265.404 137.922 265.176 137.776 264.98 137.588C264.788 137.396 264.636 137.17 264.524 136.91C264.416 136.646 264.362 136.356 264.362 136.04C264.362 135.728 264.416 135.442 264.524 135.182C264.636 134.918 264.788 134.69 264.98 134.498C265.176 134.306 265.404 134.158 265.664 134.054C265.924 133.95 266.202 133.898 266.498 133.898C266.794 133.898 267.07 133.95 267.326 134.054C267.586 134.158 267.812 134.306 268.004 134.498C268.2 134.69 268.352 134.918 268.46 135.182C268.572 135.442 268.628 135.728 268.628 136.04C268.628 136.356 268.572 136.646 268.46 136.91C268.352 137.17 268.2 137.396 268.004 137.588C267.812 137.776 267.586 137.922 267.326 138.026C267.07 138.13 266.794 138.182 266.498 138.182ZM266.498 137.576C266.77 137.576 267.012 137.514 267.224 137.39C267.436 137.262 267.602 137.084 267.722 136.856C267.842 136.624 267.902 136.352 267.902 136.04C267.902 135.724 267.842 135.452 267.722 135.224C267.602 134.996 267.436 134.82 267.224 134.696C267.012 134.568 266.77 134.504 266.498 134.504C266.226 134.504 265.984 134.568 265.772 134.696C265.56 134.82 265.392 134.996 265.268 135.224C265.148 135.452 265.088 135.724 265.088 136.04C265.088 136.352 265.148 136.624 265.268 136.856C265.392 137.084 265.56 137.262 265.772 137.39C265.984 137.514 266.226 137.576 266.498 137.576ZM269.283 133.94H269.997V138.14H269.283V133.94ZM271.356 136.988C271.38 137.1 271.426 137.202 271.494 137.294C271.566 137.382 271.66 137.452 271.776 137.504C271.896 137.556 272.038 137.582 272.202 137.582C272.454 137.582 272.642 137.524 272.766 137.408C272.89 137.288 272.952 137.148 272.952 136.988C272.952 136.856 272.912 136.746 272.832 136.658C272.756 136.57 272.648 136.496 272.508 136.436C272.368 136.372 272.208 136.312 272.028 136.256C271.864 136.208 271.706 136.158 271.554 136.106C271.402 136.05 271.264 135.982 271.14 135.902C271.02 135.818 270.924 135.712 270.852 135.584C270.78 135.452 270.746 135.288 270.75 135.092C270.75 134.836 270.81 134.62 270.93 134.444C271.05 134.264 271.218 134.128 271.434 134.036C271.65 133.944 271.898 133.898 272.178 133.898C272.414 133.898 272.626 133.932 272.814 134C273.006 134.064 273.168 134.16 273.3 134.288C273.432 134.412 273.53 134.566 273.594 134.75L272.94 134.966C272.916 134.878 272.868 134.8 272.796 134.732C272.724 134.66 272.634 134.604 272.526 134.564C272.422 134.524 272.308 134.502 272.184 134.498C272.048 134.494 271.926 134.514 271.818 134.558C271.714 134.602 271.63 134.666 271.566 134.75C271.502 134.83 271.47 134.924 271.47 135.032C271.47 135.156 271.506 135.254 271.578 135.326C271.65 135.394 271.744 135.452 271.86 135.5C271.98 135.544 272.112 135.59 272.256 135.638C272.424 135.686 272.59 135.742 272.754 135.806C272.922 135.866 273.074 135.944 273.21 136.04C273.35 136.132 273.462 136.25 273.546 136.394C273.63 136.538 273.672 136.718 273.672 136.934C273.672 137.166 273.618 137.376 273.51 137.564C273.406 137.752 273.246 137.902 273.03 138.014C272.814 138.126 272.546 138.182 272.226 138.182C271.966 138.182 271.728 138.144 271.512 138.068C271.3 137.988 271.122 137.876 270.978 137.732C270.838 137.584 270.746 137.41 270.702 137.21L271.356 136.988Z" fill="white"/>
<path d="M251.941 246.16H251.227V241.96H252.025L253.441 245.224L254.857 241.96H255.649V246.16H254.941V243.322L253.711 246.16H253.171L251.941 243.322V246.16ZM256.53 241.96H257.244V246.16H256.53V241.96ZM258.604 245.008C258.628 245.12 258.674 245.222 258.742 245.314C258.814 245.402 258.908 245.472 259.024 245.524C259.144 245.576 259.286 245.602 259.45 245.602C259.702 245.602 259.89 245.544 260.014 245.428C260.138 245.308 260.2 245.168 260.2 245.008C260.2 244.876 260.16 244.766 260.08 244.678C260.004 244.59 259.896 244.516 259.756 244.456C259.616 244.392 259.456 244.332 259.276 244.276C259.112 244.228 258.954 244.178 258.802 244.126C258.65 244.07 258.512 244.002 258.388 243.922C258.268 243.838 258.172 243.732 258.1 243.604C258.028 243.472 257.994 243.308 257.998 243.112C257.998 242.856 258.058 242.64 258.178 242.464C258.298 242.284 258.466 242.148 258.682 242.056C258.898 241.964 259.146 241.918 259.426 241.918C259.662 241.918 259.874 241.952 260.062 242.02C260.254 242.084 260.416 242.18 260.548 242.308C260.68 242.432 260.778 242.586 260.842 242.77L260.188 242.986C260.164 242.898 260.116 242.82 260.044 242.752C259.972 242.68 259.882 242.624 259.774 242.584C259.67 242.544 259.556 242.522 259.432 242.518C259.296 242.514 259.174 242.534 259.066 242.578C258.962 242.622 258.878 242.686 258.814 242.77C258.75 242.85 258.718 242.944 258.718 243.052C258.718 243.176 258.754 243.274 258.826 243.346C258.898 243.414 258.992 243.472 259.108 243.52C259.228 243.564 259.36 243.61 259.504 243.658C259.672 243.706 259.838 243.762 260.002 243.826C260.17 243.886 260.322 243.964 260.458 244.06C260.598 244.152 260.71 244.27 260.794 244.414C260.878 244.558 260.92 244.738 260.92 244.954C260.92 245.186 260.866 245.396 260.758 245.584C260.654 245.772 260.494 245.922 260.278 246.034C260.062 246.146 259.794 246.202 259.474 246.202C259.214 246.202 258.976 246.164 258.76 246.088C258.548 246.008 258.37 245.896 258.226 245.752C258.086 245.604 257.994 245.43 257.95 245.23L258.604 245.008ZM262.102 245.008C262.126 245.12 262.172 245.222 262.24 245.314C262.312 245.402 262.406 245.472 262.522 245.524C262.642 245.576 262.784 245.602 262.948 245.602C263.2 245.602 263.388 245.544 263.512 245.428C263.636 245.308 263.698 245.168 263.698 245.008C263.698 244.876 263.658 244.766 263.578 244.678C263.502 244.59 263.394 244.516 263.254 244.456C263.114 244.392 262.954 244.332 262.774 244.276C262.61 244.228 262.452 244.178 262.3 244.126C262.148 244.07 262.01 244.002 261.886 243.922C261.766 243.838 261.67 243.732 261.598 243.604C261.526 243.472 261.492 243.308 261.496 243.112C261.496 242.856 261.556 242.64 261.676 242.464C261.796 242.284 261.964 242.148 262.18 242.056C262.396 241.964 262.644 241.918 262.924 241.918C263.16 241.918 263.372 241.952 263.56 242.02C263.752 242.084 263.914 242.18 264.046 242.308C264.178 242.432 264.276 242.586 264.34 242.77L263.686 242.986C263.662 242.898 263.614 242.82 263.542 242.752C263.47 242.68 263.38 242.624 263.272 242.584C263.168 242.544 263.054 242.522 262.93 242.518C262.794 242.514 262.672 242.534 262.564 242.578C262.46 242.622 262.376 242.686 262.312 242.77C262.248 242.85 262.216 242.944 262.216 243.052C262.216 243.176 262.252 243.274 262.324 243.346C262.396 243.414 262.49 243.472 262.606 243.52C262.726 243.564 262.858 243.61 263.002 243.658C263.17 243.706 263.336 243.762 263.5 243.826C263.668 243.886 263.82 243.964 263.956 244.06C264.096 244.152 264.208 244.27 264.292 244.414C264.376 244.558 264.418 244.738 264.418 244.954C264.418 245.186 264.364 245.396 264.256 245.584C264.152 245.772 263.992 245.922 263.776 246.034C263.56 246.146 263.292 246.202 262.972 246.202C262.712 246.202 262.474 246.164 262.258 246.088C262.046 246.008 261.868 245.896 261.724 245.752C261.584 245.604 261.492 245.43 261.448 245.23L262.102 245.008ZM265.12 241.96H265.834V246.16H265.12V241.96ZM267.193 245.008C267.217 245.12 267.263 245.222 267.331 245.314C267.403 245.402 267.497 245.472 267.613 245.524C267.733 245.576 267.875 245.602 268.039 245.602C268.291 245.602 268.479 245.544 268.603 245.428C268.727 245.308 268.789 245.168 268.789 245.008C268.789 244.876 268.749 244.766 268.669 244.678C268.593 244.59 268.485 244.516 268.345 244.456C268.205 244.392 268.045 244.332 267.865 244.276C267.701 244.228 267.543 244.178 267.391 244.126C267.239 244.07 267.101 244.002 266.977 243.922C266.857 243.838 266.761 243.732 266.689 243.604C266.617 243.472 266.583 243.308 266.587 243.112C266.587 242.856 266.647 242.64 266.767 242.464C266.887 242.284 267.055 242.148 267.271 242.056C267.487 241.964 267.735 241.918 268.015 241.918C268.251 241.918 268.463 241.952 268.651 242.02C268.843 242.084 269.005 242.18 269.137 242.308C269.269 242.432 269.367 242.586 269.431 242.77L268.777 242.986C268.753 242.898 268.705 242.82 268.633 242.752C268.561 242.68 268.471 242.624 268.363 242.584C268.259 242.544 268.145 242.522 268.021 242.518C267.885 242.514 267.763 242.534 267.655 242.578C267.551 242.622 267.467 242.686 267.403 242.77C267.339 242.85 267.307 242.944 267.307 243.052C267.307 243.176 267.343 243.274 267.415 243.346C267.487 243.414 267.581 243.472 267.697 243.52C267.817 243.564 267.949 243.61 268.093 243.658C268.261 243.706 268.427 243.762 268.591 243.826C268.759 243.886 268.911 243.964 269.047 244.06C269.187 244.152 269.299 244.27 269.383 244.414C269.467 244.558 269.509 244.738 269.509 244.954C269.509 245.186 269.455 245.396 269.347 245.584C269.243 245.772 269.083 245.922 268.867 246.034C268.651 246.146 268.383 246.202 268.063 246.202C267.803 246.202 267.565 246.164 267.349 246.088C267.137 246.008 266.959 245.896 266.815 245.752C266.675 245.604 266.583 245.43 266.539 245.23L267.193 245.008ZM270.691 245.008C270.715 245.12 270.761 245.222 270.829 245.314C270.901 245.402 270.995 245.472 271.111 245.524C271.231 245.576 271.373 245.602 271.537 245.602C271.789 245.602 271.977 245.544 272.101 245.428C272.225 245.308 272.287 245.168 272.287 245.008C272.287 244.876 272.247 244.766 272.167 244.678C272.091 244.59 271.983 244.516 271.843 244.456C271.703 244.392 271.543 244.332 271.363 244.276C271.199 244.228 271.041 244.178 270.889 244.126C270.737 244.07 270.599 244.002 270.475 243.922C270.355 243.838 270.259 243.732 270.187 243.604C270.115 243.472 270.081 243.308 270.085 243.112C270.085 242.856 270.145 242.64 270.265 242.464C270.385 242.284 270.553 242.148 270.769 242.056C270.985 241.964 271.233 241.918 271.513 241.918C271.749 241.918 271.961 241.952 272.149 242.02C272.341 242.084 272.503 242.18 272.635 242.308C272.767 242.432 272.865 242.586 272.929 242.77L272.275 242.986C272.251 242.898 272.203 242.82 272.131 242.752C272.059 242.68 271.969 242.624 271.861 242.584C271.757 242.544 271.643 242.522 271.519 242.518C271.383 242.514 271.261 242.534 271.153 242.578C271.049 242.622 270.965 242.686 270.901 242.77C270.837 242.85 270.805 242.944 270.805 243.052C270.805 243.176 270.841 243.274 270.913 243.346C270.985 243.414 271.079 243.472 271.195 243.52C271.315 243.564 271.447 243.61 271.591 243.658C271.759 243.706 271.925 243.762 272.089 243.826C272.257 243.886 272.409 243.964 272.545 244.06C272.685 244.152 272.797 244.27 272.881 244.414C272.965 244.558 273.007 244.738 273.007 244.954C273.007 245.186 272.953 245.396 272.845 245.584C272.741 245.772 272.581 245.922 272.365 246.034C272.149 246.146 271.881 246.202 271.561 246.202C271.301 246.202 271.063 246.164 270.847 246.088C270.635 246.008 270.457 245.896 270.313 245.752C270.173 245.604 270.081 245.43 270.037 245.23L270.691 245.008ZM273.709 241.96H274.423V246.16H273.709V241.96ZM276.947 243.904C277.123 243.904 277.265 243.878 277.373 243.826C277.485 243.77 277.569 243.692 277.625 243.592C277.681 243.488 277.709 243.366 277.709 243.226C277.709 243.014 277.647 242.85 277.523 242.734C277.399 242.614 277.207 242.554 276.947 242.554H276.017V243.904H276.947ZM278.429 243.226C278.429 243.378 278.403 243.528 278.351 243.676C278.299 243.824 278.215 243.962 278.099 244.09C277.983 244.214 277.829 244.314 277.637 244.39C277.449 244.462 277.219 244.498 276.947 244.498H276.017V246.16H275.303V241.96H276.947C277.283 241.96 277.559 242.018 277.775 242.134C277.995 242.246 278.159 242.4 278.267 242.596C278.375 242.788 278.429 242.998 278.429 243.226ZM280.738 243.904C280.914 243.904 281.056 243.878 281.164 243.826C281.276 243.77 281.36 243.692 281.416 243.592C281.472 243.488 281.5 243.366 281.5 243.226C281.5 243.014 281.438 242.85 281.314 242.734C281.19 242.614 280.998 242.554 280.738 242.554H279.808V243.904H280.738ZM282.22 243.226C282.22 243.378 282.194 243.528 282.142 243.676C282.09 243.824 282.006 243.962 281.89 244.09C281.774 244.214 281.62 244.314 281.428 244.39C281.24 244.462 281.01 244.498 280.738 244.498H279.808V246.16H279.094V241.96H280.738C281.074 241.96 281.35 242.018 281.566 242.134C281.786 242.246 281.95 242.4 282.058 242.596C282.166 242.788 282.22 242.998 282.22 243.226ZM282.885 241.96H283.599V246.16H282.885V241.96Z" fill="white"/>
<path d="M219.705 221.434H219.489L218.229 225.04H217.497L218.985 220.84H220.197L221.691 225.04H220.959L219.705 221.434ZM218.313 223.426H220.761V224.014H218.313V223.426ZM224.576 222.106C224.576 221.898 224.514 221.734 224.39 221.614C224.266 221.494 224.074 221.434 223.814 221.434H222.884V222.784H223.814C223.99 222.784 224.132 222.758 224.24 222.706C224.352 222.65 224.436 222.572 224.492 222.472C224.548 222.368 224.576 222.246 224.576 222.106ZM223.814 220.84C224.15 220.84 224.426 220.898 224.642 221.014C224.862 221.126 225.026 221.28 225.134 221.476C225.242 221.668 225.296 221.878 225.296 222.106C225.296 222.258 225.27 222.408 225.218 222.556C225.166 222.704 225.082 222.842 224.966 222.97C224.85 223.094 224.696 223.194 224.504 223.27C224.316 223.342 224.086 223.378 223.814 223.378H222.884V225.04H222.17V220.84H223.814ZM224.24 223.144L225.386 225.04H224.582L223.478 223.144H224.24ZM226.049 220.84H226.763V222.616H226.991L228.545 220.84H229.433L227.633 222.91L229.463 225.04H228.539L226.985 223.21H226.763V225.04H226.049V220.84ZM231.787 221.434H231.571L230.311 225.04H229.579L231.067 220.84H232.279L233.773 225.04H233.041L231.787 221.434ZM230.395 223.426H232.843V224.014H230.395V223.426ZM237.648 220.84V225.04H236.922L234.966 221.962V225.04H234.252V220.84H234.984L236.94 223.906V220.84H237.648ZM239.01 223.888C239.034 224 239.08 224.102 239.148 224.194C239.22 224.282 239.314 224.352 239.43 224.404C239.55 224.456 239.692 224.482 239.856 224.482C240.108 224.482 240.296 224.424 240.42 224.308C240.544 224.188 240.606 224.048 240.606 223.888C240.606 223.756 240.566 223.646 240.486 223.558C240.41 223.47 240.302 223.396 240.162 223.336C240.022 223.272 239.862 223.212 239.682 223.156C239.518 223.108 239.36 223.058 239.208 223.006C239.056 222.95 238.918 222.882 238.794 222.802C238.674 222.718 238.578 222.612 238.506 222.484C238.434 222.352 238.4 222.188 238.404 221.992C238.404 221.736 238.464 221.52 238.584 221.344C238.704 221.164 238.872 221.028 239.088 220.936C239.304 220.844 239.552 220.798 239.832 220.798C240.068 220.798 240.28 220.832 240.468 220.9C240.66 220.964 240.822 221.06 240.954 221.188C241.086 221.312 241.184 221.466 241.248 221.65L240.594 221.866C240.57 221.778 240.522 221.7 240.45 221.632C240.378 221.56 240.288 221.504 240.18 221.464C240.076 221.424 239.962 221.402 239.838 221.398C239.702 221.394 239.58 221.414 239.472 221.458C239.368 221.502 239.284 221.566 239.22 221.65C239.156 221.73 239.124 221.824 239.124 221.932C239.124 222.056 239.16 222.154 239.232 222.226C239.304 222.294 239.398 222.352 239.514 222.4C239.634 222.444 239.766 222.49 239.91 222.538C240.078 222.586 240.244 222.642 240.408 222.706C240.576 222.766 240.728 222.844 240.864 222.94C241.004 223.032 241.116 223.15 241.2 223.294C241.284 223.438 241.326 223.618 241.326 223.834C241.326 224.066 241.272 224.276 241.164 224.464C241.06 224.652 240.9 224.802 240.684 224.914C240.468 225.026 240.2 225.082 239.88 225.082C239.62 225.082 239.382 225.044 239.166 224.968C238.954 224.888 238.776 224.776 238.632 224.632C238.492 224.484 238.4 224.31 238.356 224.11L239.01 223.888ZM243.846 221.434H243.63L242.37 225.04H241.638L243.126 220.84H244.338L245.832 225.04H245.1L243.846 221.434ZM242.454 223.426H244.902V224.014H242.454V223.426ZM246.791 223.888C246.815 224 246.861 224.102 246.929 224.194C247.001 224.282 247.095 224.352 247.211 224.404C247.331 224.456 247.473 224.482 247.637 224.482C247.889 224.482 248.077 224.424 248.201 224.308C248.325 224.188 248.387 224.048 248.387 223.888C248.387 223.756 248.347 223.646 248.267 223.558C248.191 223.47 248.083 223.396 247.943 223.336C247.803 223.272 247.643 223.212 247.463 223.156C247.299 223.108 247.141 223.058 246.989 223.006C246.837 222.95 246.699 222.882 246.575 222.802C246.455 222.718 246.359 222.612 246.287 222.484C246.215 222.352 246.181 222.188 246.185 221.992C246.185 221.736 246.245 221.52 246.365 221.344C246.485 221.164 246.653 221.028 246.869 220.936C247.085 220.844 247.333 220.798 247.613 220.798C247.849 220.798 248.061 220.832 248.249 220.9C248.441 220.964 248.603 221.06 248.735 221.188C248.867 221.312 248.965 221.466 249.029 221.65L248.375 221.866C248.351 221.778 248.303 221.7 248.231 221.632C248.159 221.56 248.069 221.504 247.961 221.464C247.857 221.424 247.743 221.402 247.619 221.398C247.483 221.394 247.361 221.414 247.253 221.458C247.149 221.502 247.065 221.566 247.001 221.65C246.937 221.73 246.905 221.824 246.905 221.932C246.905 222.056 246.941 222.154 247.013 222.226C247.085 222.294 247.179 222.352 247.295 222.4C247.415 222.444 247.547 222.49 247.691 222.538C247.859 222.586 248.025 222.642 248.189 222.706C248.357 222.766 248.509 222.844 248.645 222.94C248.785 223.032 248.897 223.15 248.981 223.294C249.065 223.438 249.107 223.618 249.107 223.834C249.107 224.066 249.053 224.276 248.945 224.464C248.841 224.652 248.681 224.802 248.465 224.914C248.249 225.026 247.981 225.082 247.661 225.082C247.401 225.082 247.163 225.044 246.947 224.968C246.735 224.888 246.557 224.776 246.413 224.632C246.273 224.484 246.181 224.31 246.137 224.11L246.791 223.888Z" fill="white"/>
<path d="M229.181 284.26V287.866H231.065V288.46H228.467V284.26H229.181ZM233.387 288.502C233.091 288.502 232.813 288.45 232.553 288.346C232.293 288.242 232.065 288.096 231.869 287.908C231.677 287.716 231.525 287.49 231.413 287.23C231.305 286.966 231.251 286.676 231.251 286.36C231.251 286.048 231.305 285.762 231.413 285.502C231.525 285.238 231.677 285.01 231.869 284.818C232.065 284.626 232.293 284.478 232.553 284.374C232.813 284.27 233.091 284.218 233.387 284.218C233.683 284.218 233.959 284.27 234.215 284.374C234.475 284.478 234.701 284.626 234.893 284.818C235.089 285.01 235.241 285.238 235.349 285.502C235.461 285.762 235.517 286.048 235.517 286.36C235.517 286.676 235.461 286.966 235.349 287.23C235.241 287.49 235.089 287.716 234.893 287.908C234.701 288.096 234.475 288.242 234.215 288.346C233.959 288.45 233.683 288.502 233.387 288.502ZM233.387 287.896C233.659 287.896 233.901 287.834 234.113 287.71C234.325 287.582 234.491 287.404 234.611 287.176C234.731 286.944 234.791 286.672 234.791 286.36C234.791 286.044 234.731 285.772 234.611 285.544C234.491 285.316 234.325 285.14 234.113 285.016C233.901 284.888 233.659 284.824 233.387 284.824C233.115 284.824 232.873 284.888 232.661 285.016C232.449 285.14 232.281 285.316 232.157 285.544C232.037 285.772 231.977 286.044 231.977 286.36C231.977 286.672 232.037 286.944 232.157 287.176C232.281 287.404 232.449 287.582 232.661 287.71C232.873 287.834 233.115 287.896 233.387 287.896ZM236.154 284.26H236.862V286.936C236.862 287.148 236.904 287.326 236.988 287.47C237.076 287.614 237.194 287.722 237.342 287.794C237.49 287.862 237.658 287.896 237.846 287.896C238.042 287.896 238.214 287.862 238.362 287.794C238.51 287.722 238.626 287.614 238.71 287.47C238.798 287.326 238.842 287.148 238.842 286.936V284.26H239.55V286.918C239.55 287.186 239.502 287.42 239.406 287.62C239.314 287.816 239.186 287.98 239.022 288.112C238.862 288.244 238.68 288.342 238.476 288.406C238.276 288.47 238.064 288.502 237.84 288.502C237.544 288.502 237.268 288.444 237.012 288.328C236.756 288.212 236.548 288.038 236.388 287.806C236.232 287.57 236.154 287.274 236.154 286.918V284.26ZM240.415 284.26H241.129V288.46H240.415V284.26ZM242.488 287.308C242.512 287.42 242.558 287.522 242.626 287.614C242.698 287.702 242.792 287.772 242.908 287.824C243.028 287.876 243.17 287.902 243.334 287.902C243.586 287.902 243.774 287.844 243.898 287.728C244.022 287.608 244.084 287.468 244.084 287.308C244.084 287.176 244.044 287.066 243.964 286.978C243.888 286.89 243.78 286.816 243.64 286.756C243.5 286.692 243.34 286.632 243.16 286.576C242.996 286.528 242.838 286.478 242.686 286.426C242.534 286.37 242.396 286.302 242.272 286.222C242.152 286.138 242.056 286.032 241.984 285.904C241.912 285.772 241.878 285.608 241.882 285.412C241.882 285.156 241.942 284.94 242.062 284.764C242.182 284.584 242.35 284.448 242.566 284.356C242.782 284.264 243.03 284.218 243.31 284.218C243.546 284.218 243.758 284.252 243.946 284.32C244.138 284.384 244.3 284.48 244.432 284.608C244.564 284.732 244.662 284.886 244.726 285.07L244.072 285.286C244.048 285.198 244 285.12 243.928 285.052C243.856 284.98 243.766 284.924 243.658 284.884C243.554 284.844 243.44 284.822 243.316 284.818C243.18 284.814 243.058 284.834 242.95 284.878C242.846 284.922 242.762 284.986 242.698 285.07C242.634 285.15 242.602 285.244 242.602 285.352C242.602 285.476 242.638 285.574 242.71 285.646C242.782 285.714 242.876 285.772 242.992 285.82C243.112 285.864 243.244 285.91 243.388 285.958C243.556 286.006 243.722 286.062 243.886 286.126C244.054 286.186 244.206 286.264 244.342 286.36C244.482 286.452 244.594 286.57 244.678 286.714C244.762 286.858 244.804 287.038 244.804 287.254C244.804 287.486 244.75 287.696 244.642 287.884C244.538 288.072 244.378 288.222 244.162 288.334C243.946 288.446 243.678 288.502 243.358 288.502C243.098 288.502 242.86 288.464 242.644 288.388C242.432 288.308 242.254 288.196 242.11 288.052C241.97 287.904 241.878 287.73 241.834 287.53L242.488 287.308ZM245.506 284.26H246.22V288.46H245.506V284.26ZM248.918 284.854H248.702L247.442 288.46H246.71L248.198 284.26H249.41L250.904 288.46H250.172L248.918 284.854ZM247.526 286.846H249.974V287.434H247.526V286.846ZM254.779 284.26V288.46H254.053L252.097 285.382V288.46H251.383V284.26H252.115L254.071 287.326V284.26H254.779ZM257.479 284.854H257.263L256.003 288.46H255.271L256.759 284.26H257.971L259.465 288.46H258.733L257.479 284.854ZM256.087 286.846H258.535V287.434H256.087V286.846Z" fill="white"/>
<path d="M218.452 178.86H217.738V174.66H218.536L219.952 177.924L221.368 174.66H222.16V178.86H221.452V176.022L220.222 178.86H219.682L218.452 176.022V178.86ZM223.041 174.66H223.755V178.86H223.041V174.66ZM225.114 177.708C225.138 177.82 225.184 177.922 225.252 178.014C225.324 178.102 225.418 178.172 225.534 178.224C225.654 178.276 225.796 178.302 225.96 178.302C226.212 178.302 226.4 178.244 226.524 178.128C226.648 178.008 226.71 177.868 226.71 177.708C226.71 177.576 226.67 177.466 226.59 177.378C226.514 177.29 226.406 177.216 226.266 177.156C226.126 177.092 225.966 177.032 225.786 176.976C225.622 176.928 225.464 176.878 225.312 176.826C225.16 176.77 225.022 176.702 224.898 176.622C224.778 176.538 224.682 176.432 224.61 176.304C224.538 176.172 224.504 176.008 224.508 175.812C224.508 175.556 224.568 175.34 224.688 175.164C224.808 174.984 224.976 174.848 225.192 174.756C225.408 174.664 225.656 174.618 225.936 174.618C226.172 174.618 226.384 174.652 226.572 174.72C226.764 174.784 226.926 174.88 227.058 175.008C227.19 175.132 227.288 175.286 227.352 175.47L226.698 175.686C226.674 175.598 226.626 175.52 226.554 175.452C226.482 175.38 226.392 175.324 226.284 175.284C226.18 175.244 226.066 175.222 225.942 175.218C225.806 175.214 225.684 175.234 225.576 175.278C225.472 175.322 225.388 175.386 225.324 175.47C225.26 175.55 225.228 175.644 225.228 175.752C225.228 175.876 225.264 175.974 225.336 176.046C225.408 176.114 225.502 176.172 225.618 176.22C225.738 176.264 225.87 176.31 226.014 176.358C226.182 176.406 226.348 176.462 226.512 176.526C226.68 176.586 226.832 176.664 226.968 176.76C227.108 176.852 227.22 176.97 227.304 177.114C227.388 177.258 227.43 177.438 227.43 177.654C227.43 177.886 227.376 178.096 227.268 178.284C227.164 178.472 227.004 178.622 226.788 178.734C226.572 178.846 226.304 178.902 225.984 178.902C225.724 178.902 225.486 178.864 225.27 178.788C225.058 178.708 224.88 178.596 224.736 178.452C224.596 178.304 224.504 178.13 224.46 177.93L225.114 177.708ZM228.612 177.708C228.636 177.82 228.682 177.922 228.75 178.014C228.822 178.102 228.916 178.172 229.032 178.224C229.152 178.276 229.294 178.302 229.458 178.302C229.71 178.302 229.898 178.244 230.022 178.128C230.146 178.008 230.208 177.868 230.208 177.708C230.208 177.576 230.168 177.466 230.088 177.378C230.012 177.29 229.904 177.216 229.764 177.156C229.624 177.092 229.464 177.032 229.284 176.976C229.12 176.928 228.962 176.878 228.81 176.826C228.658 176.77 228.52 176.702 228.396 176.622C228.276 176.538 228.18 176.432 228.108 176.304C228.036 176.172 228.002 176.008 228.006 175.812C228.006 175.556 228.066 175.34 228.186 175.164C228.306 174.984 228.474 174.848 228.69 174.756C228.906 174.664 229.154 174.618 229.434 174.618C229.67 174.618 229.882 174.652 230.07 174.72C230.262 174.784 230.424 174.88 230.556 175.008C230.688 175.132 230.786 175.286 230.85 175.47L230.196 175.686C230.172 175.598 230.124 175.52 230.052 175.452C229.98 175.38 229.89 175.324 229.782 175.284C229.678 175.244 229.564 175.222 229.44 175.218C229.304 175.214 229.182 175.234 229.074 175.278C228.97 175.322 228.886 175.386 228.822 175.47C228.758 175.55 228.726 175.644 228.726 175.752C228.726 175.876 228.762 175.974 228.834 176.046C228.906 176.114 229 176.172 229.116 176.22C229.236 176.264 229.368 176.31 229.512 176.358C229.68 176.406 229.846 176.462 230.01 176.526C230.178 176.586 230.33 176.664 230.466 176.76C230.606 176.852 230.718 176.97 230.802 177.114C230.886 177.258 230.928 177.438 230.928 177.654C230.928 177.886 230.874 178.096 230.766 178.284C230.662 178.472 230.502 178.622 230.286 178.734C230.07 178.846 229.802 178.902 229.482 178.902C229.222 178.902 228.984 178.864 228.768 178.788C228.556 178.708 228.378 178.596 228.234 178.452C228.094 178.304 228.002 178.13 227.958 177.93L228.612 177.708ZM233.55 178.902C233.254 178.902 232.976 178.85 232.716 178.746C232.456 178.642 232.228 178.496 232.032 178.308C231.84 178.116 231.688 177.89 231.576 177.63C231.468 177.366 231.414 177.076 231.414 176.76C231.414 176.448 231.468 176.162 231.576 175.902C231.688 175.638 231.84 175.41 232.032 175.218C232.228 175.026 232.456 174.878 232.716 174.774C232.976 174.67 233.254 174.618 233.55 174.618C233.846 174.618 234.122 174.67 234.378 174.774C234.638 174.878 234.864 175.026 235.056 175.218C235.252 175.41 235.404 175.638 235.512 175.902C235.624 176.162 235.68 176.448 235.68 176.76C235.68 177.076 235.624 177.366 235.512 177.63C235.404 177.89 235.252 178.116 235.056 178.308C234.864 178.496 234.638 178.642 234.378 178.746C234.122 178.85 233.846 178.902 233.55 178.902ZM233.55 178.296C233.822 178.296 234.064 178.234 234.276 178.11C234.488 177.982 234.654 177.804 234.774 177.576C234.894 177.344 234.954 177.072 234.954 176.76C234.954 176.444 234.894 176.172 234.774 175.944C234.654 175.716 234.488 175.54 234.276 175.416C234.064 175.288 233.822 175.224 233.55 175.224C233.278 175.224 233.036 175.288 232.824 175.416C232.612 175.54 232.444 175.716 232.32 175.944C232.2 176.172 232.14 176.444 232.14 176.76C232.14 177.072 232.2 177.344 232.32 177.576C232.444 177.804 232.612 177.982 232.824 178.11C233.036 178.234 233.278 178.296 233.55 178.296ZM236.317 174.66H237.025V177.336C237.025 177.548 237.067 177.726 237.151 177.87C237.239 178.014 237.357 178.122 237.505 178.194C237.653 178.262 237.821 178.296 238.009 178.296C238.205 178.296 238.377 178.262 238.525 178.194C238.673 178.122 238.789 178.014 238.873 177.87C238.961 177.726 239.005 177.548 239.005 177.336V174.66H239.713V177.318C239.713 177.586 239.665 177.82 239.569 178.02C239.477 178.216 239.349 178.38 239.185 178.512C239.025 178.644 238.843 178.742 238.639 178.806C238.439 178.87 238.227 178.902 238.003 178.902C237.707 178.902 237.431 178.844 237.175 178.728C236.919 178.612 236.711 178.438 236.551 178.206C236.395 177.97 236.317 177.674 236.317 177.318V174.66ZM242.984 175.926C242.984 175.718 242.922 175.554 242.798 175.434C242.674 175.314 242.482 175.254 242.222 175.254H241.292V176.604H242.222C242.398 176.604 242.54 176.578 242.648 176.526C242.76 176.47 242.844 176.392 242.9 176.292C242.956 176.188 242.984 176.066 242.984 175.926ZM242.222 174.66C242.558 174.66 242.834 174.718 243.05 174.834C243.27 174.946 243.434 175.1 243.542 175.296C243.65 175.488 243.704 175.698 243.704 175.926C243.704 176.078 243.678 176.228 243.626 176.376C243.574 176.524 243.49 176.662 243.374 176.79C243.258 176.914 243.104 177.014 242.912 177.09C242.724 177.162 242.494 177.198 242.222 177.198H241.292V178.86H240.578V174.66H242.222ZM242.648 176.964L243.794 178.86H242.99L241.886 176.964H242.648ZM244.457 174.66H245.171V178.86H244.457V174.66Z" fill="white"/>
<path d="M138.373 127.59V131.79H137.647L135.691 128.712V131.79H134.977V127.59H135.709L137.665 130.656V127.59H138.373ZM142.122 128.184H139.968V129.366H141.582V129.96H139.968V131.196H142.122V131.79H139.254V127.59H142.122V128.184ZM145.371 128.778C145.371 128.59 145.309 128.444 145.185 128.34C145.065 128.236 144.895 128.184 144.675 128.184H143.601V129.366H144.675C144.895 129.366 145.065 129.316 145.185 129.216C145.309 129.112 145.371 128.966 145.371 128.778ZM142.887 131.79V127.59H144.747C145.043 127.59 145.289 127.64 145.485 127.74C145.685 127.84 145.835 127.974 145.935 128.142C146.039 128.306 146.091 128.488 146.091 128.688C146.091 128.872 146.057 129.028 145.989 129.156C145.921 129.284 145.829 129.386 145.713 129.462C145.597 129.538 145.467 129.592 145.323 129.624V129.672C145.495 129.696 145.647 129.746 145.779 129.822C145.911 129.898 146.013 130.006 146.085 130.146C146.157 130.286 146.193 130.46 146.193 130.668C146.193 130.88 146.137 131.072 146.025 131.244C145.917 131.412 145.761 131.546 145.557 131.646C145.353 131.742 145.109 131.79 144.825 131.79H142.887ZM143.601 131.196H144.753C144.981 131.196 145.159 131.144 145.287 131.04C145.415 130.936 145.479 130.786 145.479 130.59C145.479 130.382 145.409 130.224 145.269 130.116C145.133 130.008 144.953 129.954 144.729 129.954H143.601V131.196ZM149.33 128.856C149.33 128.648 149.268 128.484 149.144 128.364C149.02 128.244 148.828 128.184 148.568 128.184H147.638V129.534H148.568C148.744 129.534 148.886 129.508 148.994 129.456C149.106 129.4 149.19 129.322 149.246 129.222C149.302 129.118 149.33 128.996 149.33 128.856ZM148.568 127.59C148.904 127.59 149.18 127.648 149.396 127.764C149.616 127.876 149.78 128.03 149.888 128.226C149.996 128.418 150.05 128.628 150.05 128.856C150.05 129.008 150.024 129.158 149.972 129.306C149.92 129.454 149.836 129.592 149.72 129.72C149.604 129.844 149.45 129.944 149.258 130.02C149.07 130.092 148.84 130.128 148.568 130.128H147.638V131.79H146.924V127.59H148.568ZM148.994 129.894L150.14 131.79H149.336L148.232 129.894H148.994ZM152.621 128.184H152.405L151.145 131.79H150.413L151.901 127.59H153.113L154.607 131.79H153.875L152.621 128.184ZM151.229 130.176H153.677V130.764H151.229V130.176ZM155.566 130.638C155.59 130.75 155.636 130.852 155.704 130.944C155.776 131.032 155.87 131.102 155.986 131.154C156.106 131.206 156.248 131.232 156.412 131.232C156.664 131.232 156.852 131.174 156.976 131.058C157.1 130.938 157.162 130.798 157.162 130.638C157.162 130.506 157.122 130.396 157.042 130.308C156.966 130.22 156.858 130.146 156.718 130.086C156.578 130.022 156.418 129.962 156.238 129.906C156.074 129.858 155.916 129.808 155.764 129.756C155.612 129.7 155.474 129.632 155.35 129.552C155.23 129.468 155.134 129.362 155.062 129.234C154.99 129.102 154.956 128.938 154.96 128.742C154.96 128.486 155.02 128.27 155.14 128.094C155.26 127.914 155.428 127.778 155.644 127.686C155.86 127.594 156.108 127.548 156.388 127.548C156.624 127.548 156.836 127.582 157.024 127.65C157.216 127.714 157.378 127.81 157.51 127.938C157.642 128.062 157.74 128.216 157.804 128.4L157.15 128.616C157.126 128.528 157.078 128.45 157.006 128.382C156.934 128.31 156.844 128.254 156.736 128.214C156.632 128.174 156.518 128.152 156.394 128.148C156.258 128.144 156.136 128.164 156.028 128.208C155.924 128.252 155.84 128.316 155.776 128.4C155.712 128.48 155.68 128.574 155.68 128.682C155.68 128.806 155.716 128.904 155.788 128.976C155.86 129.044 155.954 129.102 156.07 129.15C156.19 129.194 156.322 129.24 156.466 129.288C156.634 129.336 156.8 129.392 156.964 129.456C157.132 129.516 157.284 129.594 157.42 129.69C157.56 129.782 157.672 129.9 157.756 130.044C157.84 130.188 157.882 130.368 157.882 130.584C157.882 130.816 157.828 131.026 157.72 131.214C157.616 131.402 157.456 131.552 157.24 131.664C157.024 131.776 156.756 131.832 156.436 131.832C156.176 131.832 155.938 131.794 155.722 131.718C155.51 131.638 155.332 131.526 155.188 131.382C155.048 131.234 154.956 131.06 154.912 130.86L155.566 130.638ZM158.584 127.59H159.298V129.366H159.526L161.08 127.59H161.968L160.168 129.66L161.998 131.79H161.074L159.52 129.96H159.298V131.79H158.584V127.59ZM164.322 128.184H164.106L162.846 131.79H162.114L163.602 127.59H164.814L166.308 131.79H165.576L164.322 128.184ZM162.93 130.176H165.378V130.764H162.93V130.176Z" fill="white"/>
<path d="M150.868 171.43H151.582V173.206H151.81L153.364 171.43H154.252L152.452 173.5L154.282 175.63H153.358L151.804 173.8H151.582V175.63H150.868V171.43ZM156.606 172.024H156.39L155.13 175.63H154.398L155.886 171.43H157.098L158.592 175.63H157.86L156.606 172.024ZM155.214 174.016H157.662V174.604H155.214V174.016ZM162.467 171.43V175.63H161.741L159.785 172.552V175.63H159.071V171.43H159.803L161.759 174.496V171.43H162.467ZM163.828 174.478C163.852 174.59 163.898 174.692 163.966 174.784C164.038 174.872 164.132 174.942 164.248 174.994C164.368 175.046 164.51 175.072 164.674 175.072C164.926 175.072 165.114 175.014 165.238 174.898C165.362 174.778 165.424 174.638 165.424 174.478C165.424 174.346 165.384 174.236 165.304 174.148C165.228 174.06 165.12 173.986 164.98 173.926C164.84 173.862 164.68 173.802 164.5 173.746C164.336 173.698 164.178 173.648 164.026 173.596C163.874 173.54 163.736 173.472 163.612 173.392C163.492 173.308 163.396 173.202 163.324 173.074C163.252 172.942 163.218 172.778 163.222 172.582C163.222 172.326 163.282 172.11 163.402 171.934C163.522 171.754 163.69 171.618 163.906 171.526C164.122 171.434 164.37 171.388 164.65 171.388C164.886 171.388 165.098 171.422 165.286 171.49C165.478 171.554 165.64 171.65 165.772 171.778C165.904 171.902 166.002 172.056 166.066 172.24L165.412 172.456C165.388 172.368 165.34 172.29 165.268 172.222C165.196 172.15 165.106 172.094 164.998 172.054C164.894 172.014 164.78 171.992 164.656 171.988C164.52 171.984 164.398 172.004 164.29 172.048C164.186 172.092 164.102 172.156 164.038 172.24C163.974 172.32 163.942 172.414 163.942 172.522C163.942 172.646 163.978 172.744 164.05 172.816C164.122 172.884 164.216 172.942 164.332 172.99C164.452 173.034 164.584 173.08 164.728 173.128C164.896 173.176 165.062 173.232 165.226 173.296C165.394 173.356 165.546 173.434 165.682 173.53C165.822 173.622 165.934 173.74 166.018 173.884C166.102 174.028 166.144 174.208 166.144 174.424C166.144 174.656 166.09 174.866 165.982 175.054C165.878 175.242 165.718 175.392 165.502 175.504C165.286 175.616 165.018 175.672 164.698 175.672C164.438 175.672 164.2 175.634 163.984 175.558C163.772 175.478 163.594 175.366 163.45 175.222C163.31 175.074 163.218 174.9 163.174 174.7L163.828 174.478ZM168.664 172.024H168.448L167.188 175.63H166.456L167.944 171.43H169.156L170.65 175.63H169.918L168.664 172.024ZM167.272 174.016H169.72V174.604H167.272V174.016ZM171.609 174.478C171.633 174.59 171.679 174.692 171.747 174.784C171.819 174.872 171.913 174.942 172.029 174.994C172.149 175.046 172.291 175.072 172.455 175.072C172.707 175.072 172.895 175.014 173.019 174.898C173.143 174.778 173.205 174.638 173.205 174.478C173.205 174.346 173.165 174.236 173.085 174.148C173.009 174.06 172.901 173.986 172.761 173.926C172.621 173.862 172.461 173.802 172.281 173.746C172.117 173.698 171.959 173.648 171.807 173.596C171.655 173.54 171.517 173.472 171.393 173.392C171.273 173.308 171.177 173.202 171.105 173.074C171.033 172.942 170.999 172.778 171.003 172.582C171.003 172.326 171.063 172.11 171.183 171.934C171.303 171.754 171.471 171.618 171.687 171.526C171.903 171.434 172.151 171.388 172.431 171.388C172.667 171.388 172.879 171.422 173.067 171.49C173.259 171.554 173.421 171.65 173.553 171.778C173.685 171.902 173.783 172.056 173.847 172.24L173.193 172.456C173.169 172.368 173.121 172.29 173.049 172.222C172.977 172.15 172.887 172.094 172.779 172.054C172.675 172.014 172.561 171.992 172.437 171.988C172.301 171.984 172.179 172.004 172.071 172.048C171.967 172.092 171.883 172.156 171.819 172.24C171.755 172.32 171.723 172.414 171.723 172.522C171.723 172.646 171.759 172.744 171.831 172.816C171.903 172.884 171.997 172.942 172.113 172.99C172.233 173.034 172.365 173.08 172.509 173.128C172.677 173.176 172.843 173.232 173.007 173.296C173.175 173.356 173.327 173.434 173.463 173.53C173.603 173.622 173.715 173.74 173.799 173.884C173.883 174.028 173.925 174.208 173.925 174.424C173.925 174.656 173.871 174.866 173.763 175.054C173.659 175.242 173.499 175.392 173.283 175.504C173.067 175.616 172.799 175.672 172.479 175.672C172.219 175.672 171.981 175.634 171.765 175.558C171.553 175.478 171.375 175.366 171.231 175.222C171.091 175.074 170.999 174.9 170.955 174.7L171.609 174.478Z" fill="white"/>
<path d="M67.3919 164.87C67.3919 164.554 67.4459 164.266 67.5539 164.006C67.6659 163.742 67.8179 163.516 68.0099 163.328C68.2059 163.136 68.4319 162.988 68.6879 162.884C68.9479 162.78 69.2259 162.728 69.5219 162.728C69.9339 162.728 70.3059 162.826 70.6379 163.022C70.9739 163.218 71.2299 163.5 71.4059 163.868L70.8239 164.066C70.7319 163.89 70.6139 163.748 70.4699 163.64C70.3259 163.532 70.1739 163.454 70.0139 163.406C69.8539 163.358 69.6959 163.334 69.5399 163.334C69.2679 163.334 69.0239 163.398 68.8079 163.526C68.5919 163.65 68.4219 163.828 68.2979 164.06C68.1779 164.288 68.1179 164.558 68.1179 164.87C68.1179 165.178 68.1779 165.448 68.2979 165.68C68.4219 165.908 68.5919 166.086 68.8079 166.214C69.0239 166.342 69.2679 166.406 69.5399 166.406C69.6999 166.406 69.8619 166.382 70.0259 166.334C70.1939 166.282 70.3519 166.194 70.4999 166.07C70.6519 165.942 70.7779 165.772 70.8779 165.56L71.4539 165.746C71.2699 166.178 71.0079 166.498 70.6679 166.706C70.3279 166.91 69.9459 167.012 69.5219 167.012C69.2259 167.012 68.9479 166.96 68.6879 166.856C68.4319 166.752 68.2059 166.604 68.0099 166.412C67.8179 166.22 67.6659 165.994 67.5539 165.734C67.4459 165.47 67.3919 165.182 67.3919 164.87ZM74.0982 167.012C73.8022 167.012 73.5242 166.96 73.2642 166.856C73.0042 166.752 72.7762 166.606 72.5802 166.418C72.3882 166.226 72.2362 166 72.1242 165.74C72.0162 165.476 71.9622 165.186 71.9622 164.87C71.9622 164.558 72.0162 164.272 72.1242 164.012C72.2362 163.748 72.3882 163.52 72.5802 163.328C72.7762 163.136 73.0042 162.988 73.2642 162.884C73.5242 162.78 73.8022 162.728 74.0982 162.728C74.3942 162.728 74.6702 162.78 74.9262 162.884C75.1862 162.988 75.4122 163.136 75.6042 163.328C75.8002 163.52 75.9522 163.748 76.0602 164.012C76.1722 164.272 76.2282 164.558 76.2282 164.87C76.2282 165.186 76.1722 165.476 76.0602 165.74C75.9522 166 75.8002 166.226 75.6042 166.418C75.4122 166.606 75.1862 166.752 74.9262 166.856C74.6702 166.96 74.3942 167.012 74.0982 167.012ZM74.0982 166.406C74.3702 166.406 74.6122 166.344 74.8242 166.22C75.0362 166.092 75.2022 165.914 75.3222 165.686C75.4422 165.454 75.5022 165.182 75.5022 164.87C75.5022 164.554 75.4422 164.282 75.3222 164.054C75.2022 163.826 75.0362 163.65 74.8242 163.526C74.6122 163.398 74.3702 163.334 74.0982 163.334C73.8262 163.334 73.5842 163.398 73.3722 163.526C73.1602 163.65 72.9922 163.826 72.8682 164.054C72.7482 164.282 72.6882 164.554 72.6882 164.87C72.6882 165.182 72.7482 165.454 72.8682 165.686C72.9922 165.914 73.1602 166.092 73.3722 166.22C73.5842 166.344 73.8262 166.406 74.0982 166.406ZM77.5973 162.77V166.376H79.4813V166.97H76.8833V162.77H77.5973ZM81.8033 167.012C81.5073 167.012 81.2293 166.96 80.9693 166.856C80.7093 166.752 80.4813 166.606 80.2853 166.418C80.0933 166.226 79.9413 166 79.8293 165.74C79.7213 165.476 79.6673 165.186 79.6673 164.87C79.6673 164.558 79.7213 164.272 79.8293 164.012C79.9413 163.748 80.0933 163.52 80.2853 163.328C80.4813 163.136 80.7093 162.988 80.9693 162.884C81.2293 162.78 81.5073 162.728 81.8033 162.728C82.0993 162.728 82.3753 162.78 82.6313 162.884C82.8913 162.988 83.1173 163.136 83.3093 163.328C83.5053 163.52 83.6573 163.748 83.7653 164.012C83.8773 164.272 83.9333 164.558 83.9333 164.87C83.9333 165.186 83.8773 165.476 83.7653 165.74C83.6573 166 83.5053 166.226 83.3093 166.418C83.1173 166.606 82.8913 166.752 82.6313 166.856C82.3753 166.96 82.0993 167.012 81.8033 167.012ZM81.8033 166.406C82.0753 166.406 82.3173 166.344 82.5293 166.22C82.7413 166.092 82.9073 165.914 83.0273 165.686C83.1473 165.454 83.2073 165.182 83.2073 164.87C83.2073 164.554 83.1473 164.282 83.0273 164.054C82.9073 163.826 82.7413 163.65 82.5293 163.526C82.3173 163.398 82.0753 163.334 81.8033 163.334C81.5313 163.334 81.2893 163.398 81.0773 163.526C80.8653 163.65 80.6973 163.826 80.5733 164.054C80.4533 164.282 80.3933 164.554 80.3933 164.87C80.3933 165.182 80.4533 165.454 80.5733 165.686C80.6973 165.914 80.8653 166.092 81.0773 166.22C81.2893 166.344 81.5313 166.406 81.8033 166.406ZM86.9944 164.036C86.9944 163.828 86.9324 163.664 86.8084 163.544C86.6844 163.424 86.4924 163.364 86.2324 163.364H85.3024V164.714H86.2324C86.4084 164.714 86.5504 164.688 86.6584 164.636C86.7704 164.58 86.8544 164.502 86.9104 164.402C86.9664 164.298 86.9944 164.176 86.9944 164.036ZM86.2324 162.77C86.5684 162.77 86.8444 162.828 87.0604 162.944C87.2804 163.056 87.4444 163.21 87.5524 163.406C87.6604 163.598 87.7144 163.808 87.7144 164.036C87.7144 164.188 87.6884 164.338 87.6364 164.486C87.5844 164.634 87.5004 164.772 87.3844 164.9C87.2684 165.024 87.1144 165.124 86.9224 165.2C86.7344 165.272 86.5044 165.308 86.2324 165.308H85.3024V166.97H84.5884V162.77H86.2324ZM86.6584 165.074L87.8044 166.97H87.0004L85.8964 165.074H86.6584ZM90.2853 163.364H90.0693L88.8093 166.97H88.0773L89.5653 162.77H90.7773L92.2713 166.97H91.5393L90.2853 163.364ZM88.8933 165.356H91.3413V165.944H88.8933V165.356ZM94.2505 162.77C94.7025 162.77 95.0925 162.856 95.4205 163.028C95.7525 163.2 96.0085 163.446 96.1885 163.766C96.3725 164.082 96.4645 164.456 96.4645 164.888C96.4645 165.316 96.3725 165.686 96.1885 165.998C96.0085 166.31 95.7525 166.55 95.4205 166.718C95.0925 166.886 94.7025 166.97 94.2505 166.97H92.7505V162.77H94.2505ZM94.2505 166.376C94.7305 166.376 95.0985 166.246 95.3545 165.986C95.6145 165.722 95.7445 165.356 95.7445 164.888C95.7445 164.416 95.6145 164.044 95.3545 163.772C95.0985 163.5 94.7305 163.364 94.2505 163.364H93.4645V166.376H94.2505ZM99.0533 167.012C98.7573 167.012 98.4793 166.96 98.2193 166.856C97.9593 166.752 97.7313 166.606 97.5353 166.418C97.3433 166.226 97.1913 166 97.0793 165.74C96.9713 165.476 96.9173 165.186 96.9173 164.87C96.9173 164.558 96.9713 164.272 97.0793 164.012C97.1913 163.748 97.3433 163.52 97.5353 163.328C97.7313 163.136 97.9593 162.988 98.2193 162.884C98.4793 162.78 98.7573 162.728 99.0533 162.728C99.3493 162.728 99.6253 162.78 99.8813 162.884C100.141 162.988 100.367 163.136 100.559 163.328C100.755 163.52 100.907 163.748 101.015 164.012C101.127 164.272 101.183 164.558 101.183 164.87C101.183 165.186 101.127 165.476 101.015 165.74C100.907 166 100.755 166.226 100.559 166.418C100.367 166.606 100.141 166.752 99.8813 166.856C99.6253 166.96 99.3493 167.012 99.0533 167.012ZM99.0533 166.406C99.3253 166.406 99.5673 166.344 99.7793 166.22C99.9913 166.092 100.157 165.914 100.277 165.686C100.397 165.454 100.457 165.182 100.457 164.87C100.457 164.554 100.397 164.282 100.277 164.054C100.157 163.826 99.9913 163.65 99.7793 163.526C99.5673 163.398 99.3253 163.334 99.0533 163.334C98.7813 163.334 98.5393 163.398 98.3273 163.526C98.1153 163.65 97.9473 163.826 97.8233 164.054C97.7033 164.282 97.6433 164.554 97.6433 164.87C97.6433 165.182 97.7033 165.454 97.8233 165.686C97.9473 165.914 98.1153 166.092 98.3273 166.22C98.5393 166.344 98.7813 166.406 99.0533 166.406Z" fill="white"/>
<path d="M13.0596 153.06H13.7676V155.736C13.7676 155.948 13.8096 156.126 13.8936 156.27C13.9816 156.414 14.0996 156.522 14.2476 156.594C14.3956 156.662 14.5636 156.696 14.7516 156.696C14.9476 156.696 15.1196 156.662 15.2676 156.594C15.4156 156.522 15.5316 156.414 15.6156 156.27C15.7036 156.126 15.7476 155.948 15.7476 155.736V153.06H16.4556V155.718C16.4556 155.986 16.4076 156.22 16.3116 156.42C16.2196 156.616 16.0916 156.78 15.9276 156.912C15.7676 157.044 15.5856 157.142 15.3816 157.206C15.1816 157.27 14.9696 157.302 14.7456 157.302C14.4496 157.302 14.1736 157.244 13.9176 157.128C13.6616 157.012 13.4536 156.838 13.2936 156.606C13.1376 156.37 13.0596 156.074 13.0596 155.718V153.06ZM17.1038 153.06H20.4038V153.654H19.1138V157.26H18.3998V153.654H17.1038V153.06ZM22.4718 153.654H22.2558L20.9958 157.26H20.2638L21.7518 153.06H22.9638L24.4578 157.26H23.7258L22.4718 153.654ZM21.0798 155.646H23.5278V156.234H21.0798V155.646ZM24.937 153.06H25.651V154.836H27.631V153.06H28.339V157.26H27.631V155.43H25.651V157.26H24.937V153.06Z" fill="white"/>
<path d="M-1.29478 223.314H-1.51078L-2.77078 226.92H-3.50278L-2.01478 222.72H-0.802781L0.691219 226.92H-0.040781L-1.29478 223.314ZM-2.68678 225.306H-0.238781V225.894H-2.68678V225.306ZM3.57642 223.986C3.57642 223.778 3.51442 223.614 3.39042 223.494C3.26642 223.374 3.07442 223.314 2.81442 223.314H1.88442V224.664H2.81442C2.99042 224.664 3.13242 224.638 3.24042 224.586C3.35242 224.53 3.43642 224.452 3.49242 224.352C3.54842 224.248 3.57642 224.126 3.57642 223.986ZM2.81442 222.72C3.15042 222.72 3.42642 222.778 3.64242 222.894C3.86242 223.006 4.02642 223.16 4.13442 223.356C4.24242 223.548 4.29642 223.758 4.29642 223.986C4.29642 224.138 4.27042 224.288 4.21842 224.436C4.16642 224.584 4.08242 224.722 3.96642 224.85C3.85042 224.974 3.69642 225.074 3.50442 225.15C3.31642 225.222 3.08642 225.258 2.81442 225.258H1.88442V226.92H1.17042V222.72H2.81442ZM3.24042 225.024L4.38642 226.92H3.58242L2.47842 225.024H3.24042ZM5.04933 222.72H5.76333V226.92H5.04933V222.72ZM9.50508 223.254L7.33908 226.326H9.50508V226.92H6.49908V226.386L8.65908 223.314H6.49908V222.72H9.50508V223.254ZM12.1549 226.962C11.8589 226.962 11.5809 226.91 11.3209 226.806C11.0609 226.702 10.8329 226.556 10.6369 226.368C10.4449 226.176 10.2929 225.95 10.1809 225.69C10.0729 225.426 10.0189 225.136 10.0189 224.82C10.0189 224.508 10.0729 224.222 10.1809 223.962C10.2929 223.698 10.4449 223.47 10.6369 223.278C10.8329 223.086 11.0609 222.938 11.3209 222.834C11.5809 222.73 11.8589 222.678 12.1549 222.678C12.4509 222.678 12.7269 222.73 12.9829 222.834C13.2429 222.938 13.4689 223.086 13.6609 223.278C13.8569 223.47 14.0089 223.698 14.1169 223.962C14.2289 224.222 14.2849 224.508 14.2849 224.82C14.2849 225.136 14.2289 225.426 14.1169 225.69C14.0089 225.95 13.8569 226.176 13.6609 226.368C13.4689 226.556 13.2429 226.702 12.9829 226.806C12.7269 226.91 12.4509 226.962 12.1549 226.962ZM12.1549 226.356C12.4269 226.356 12.6689 226.294 12.8809 226.17C13.0929 226.042 13.2589 225.864 13.3789 225.636C13.4989 225.404 13.5589 225.132 13.5589 224.82C13.5589 224.504 13.4989 224.232 13.3789 224.004C13.2589 223.776 13.0929 223.6 12.8809 223.476C12.6689 223.348 12.4269 223.284 12.1549 223.284C11.8829 223.284 11.6409 223.348 11.4289 223.476C11.2169 223.6 11.0489 223.776 10.9249 224.004C10.8049 224.232 10.7449 224.504 10.7449 224.82C10.7449 225.132 10.8049 225.404 10.9249 225.636C11.0489 225.864 11.2169 226.042 11.4289 226.17C11.6409 226.294 11.8829 226.356 12.1549 226.356ZM18.336 222.72V226.92H17.61L15.654 223.842V226.92H14.94V222.72H15.672L17.628 225.786V222.72H18.336ZM21.0353 223.314H20.8193L19.5593 226.92H18.8273L20.3153 222.72H21.5273L23.0213 226.92H22.2893L21.0353 223.314ZM19.6433 225.306H22.0913V225.894H19.6433V225.306Z" fill="white"/>
<path d="M73.5235 225.66V229.86H72.7975L70.8415 226.782V229.86H70.1275V225.66H70.8595L72.8155 228.726V225.66H73.5235ZM77.2728 226.254H75.1188V227.436H76.7328V228.03H75.1188V229.266H77.2728V229.86H74.4048V225.66H77.2728V226.254ZM79.7536 229.86H78.9496L77.7436 225.66H78.5116L79.3516 229.044L80.2456 225.66H81.0436L81.9256 229.032L82.7776 225.66H83.5336L82.3396 229.86H81.5236L80.6416 226.722L79.7536 229.86Z" fill="white"/>
<path d="M65.7018 237.061H64.9878V232.861H65.7858L67.2018 236.125L68.6178 232.861H69.4098V237.061H68.7018V234.223L67.4718 237.061H66.9318L65.7018 234.223V237.061ZM73.1585 233.455H71.0045V234.637H72.6185V235.231H71.0045V236.467H73.1585V237.061H70.2905V232.861H73.1585V233.455ZM73.7794 232.861H74.5774L75.7114 234.391L76.8514 232.861H77.6434L76.1194 234.961L77.6434 237.061H76.8514L75.7114 235.531L74.5774 237.061H73.7794L75.3094 234.961L73.7794 232.861ZM78.3765 232.861H79.0905V237.061H78.3765V232.861ZM79.7542 234.961C79.7542 234.645 79.8082 234.357 79.9162 234.097C80.0282 233.833 80.1802 233.607 80.3722 233.419C80.5682 233.227 80.7942 233.079 81.0502 232.975C81.3102 232.871 81.5882 232.819 81.8842 232.819C82.2962 232.819 82.6682 232.917 83.0002 233.113C83.3362 233.309 83.5922 233.591 83.7682 233.959L83.1862 234.157C83.0942 233.981 82.9762 233.839 82.8322 233.731C82.6882 233.623 82.5362 233.545 82.3762 233.497C82.2162 233.449 82.0582 233.425 81.9022 233.425C81.6302 233.425 81.3862 233.489 81.1702 233.617C80.9542 233.741 80.7842 233.919 80.6602 234.151C80.5402 234.379 80.4802 234.649 80.4802 234.961C80.4802 235.269 80.5402 235.539 80.6602 235.771C80.7842 235.999 80.9542 236.177 81.1702 236.305C81.3862 236.433 81.6302 236.497 81.9022 236.497C82.0622 236.497 82.2242 236.473 82.3882 236.425C82.5562 236.373 82.7142 236.285 82.8622 236.161C83.0142 236.033 83.1402 235.863 83.2402 235.651L83.8162 235.837C83.6322 236.269 83.3702 236.589 83.0302 236.797C82.6902 237.001 82.3082 237.103 81.8842 237.103C81.5882 237.103 81.3102 237.051 81.0502 236.947C80.7942 236.843 80.5682 236.695 80.3722 236.503C80.1802 236.311 80.0282 236.085 79.9162 235.825C79.8082 235.561 79.7542 235.273 79.7542 234.961ZM86.4605 237.103C86.1645 237.103 85.8865 237.051 85.6265 236.947C85.3665 236.843 85.1385 236.697 84.9425 236.509C84.7505 236.317 84.5985 236.091 84.4865 235.831C84.3785 235.567 84.3245 235.277 84.3245 234.961C84.3245 234.649 84.3785 234.363 84.4865 234.103C84.5985 233.839 84.7505 233.611 84.9425 233.419C85.1385 233.227 85.3665 233.079 85.6265 232.975C85.8865 232.871 86.1645 232.819 86.4605 232.819C86.7565 232.819 87.0325 232.871 87.2885 232.975C87.5485 233.079 87.7745 233.227 87.9665 233.419C88.1625 233.611 88.3145 233.839 88.4225 234.103C88.5345 234.363 88.5905 234.649 88.5905 234.961C88.5905 235.277 88.5345 235.567 88.4225 235.831C88.3145 236.091 88.1625 236.317 87.9665 236.509C87.7745 236.697 87.5485 236.843 87.2885 236.947C87.0325 237.051 86.7565 237.103 86.4605 237.103ZM86.4605 236.497C86.7325 236.497 86.9745 236.435 87.1865 236.311C87.3985 236.183 87.5645 236.005 87.6845 235.777C87.8045 235.545 87.8645 235.273 87.8645 234.961C87.8645 234.645 87.8045 234.373 87.6845 234.145C87.5645 233.917 87.3985 233.741 87.1865 233.617C86.9745 233.489 86.7325 233.425 86.4605 233.425C86.1885 233.425 85.9465 233.489 85.7345 233.617C85.5225 233.741 85.3545 233.917 85.2305 234.145C85.1105 234.373 85.0505 234.645 85.0505 234.961C85.0505 235.273 85.1105 235.545 85.2305 235.777C85.3545 236.005 85.5225 236.183 85.7345 236.311C85.9465 236.435 86.1885 236.497 86.4605 236.497Z" fill="white"/>
<path d="M163.788 218.842C163.492 218.842 163.214 218.79 162.954 218.686C162.694 218.582 162.466 218.436 162.27 218.248C162.078 218.056 161.926 217.83 161.814 217.57C161.706 217.306 161.652 217.016 161.652 216.7C161.652 216.388 161.706 216.102 161.814 215.842C161.926 215.578 162.078 215.35 162.27 215.158C162.466 214.966 162.694 214.818 162.954 214.714C163.214 214.61 163.492 214.558 163.788 214.558C164.084 214.558 164.36 214.61 164.616 214.714C164.876 214.818 165.102 214.966 165.294 215.158C165.49 215.35 165.642 215.578 165.75 215.842C165.862 216.102 165.918 216.388 165.918 216.7C165.918 217.016 165.862 217.306 165.75 217.57C165.642 217.83 165.49 218.056 165.294 218.248C165.102 218.436 164.876 218.582 164.616 218.686C164.36 218.79 164.084 218.842 163.788 218.842ZM163.788 218.236C164.06 218.236 164.302 218.174 164.514 218.05C164.726 217.922 164.892 217.744 165.012 217.516C165.132 217.284 165.192 217.012 165.192 216.7C165.192 216.384 165.132 216.112 165.012 215.884C164.892 215.656 164.726 215.48 164.514 215.356C164.302 215.228 164.06 215.164 163.788 215.164C163.516 215.164 163.274 215.228 163.062 215.356C162.85 215.48 162.682 215.656 162.558 215.884C162.438 216.112 162.378 216.384 162.378 216.7C162.378 217.012 162.438 217.284 162.558 217.516C162.682 217.744 162.85 217.922 163.062 218.05C163.274 218.174 163.516 218.236 163.788 218.236ZM166.573 214.6H167.287V216.376H167.515L169.069 214.6H169.957L168.157 216.67L169.987 218.8H169.063L167.509 216.97H167.287V218.8H166.573V214.6ZM171.207 214.6V218.206H173.091V218.8H170.493V214.6H171.207ZM175.498 215.194H175.282L174.022 218.8H173.29L174.778 214.6H175.99L177.484 218.8H176.752L175.498 215.194ZM174.106 217.186H176.554V217.774H174.106V217.186ZM177.963 214.6H178.677V216.376H180.657V214.6H181.365V218.8H180.657V216.97H178.677V218.8H177.963V214.6ZM184.167 218.842C183.871 218.842 183.593 218.79 183.333 218.686C183.073 218.582 182.845 218.436 182.649 218.248C182.457 218.056 182.305 217.83 182.193 217.57C182.085 217.306 182.031 217.016 182.031 216.7C182.031 216.388 182.085 216.102 182.193 215.842C182.305 215.578 182.457 215.35 182.649 215.158C182.845 214.966 183.073 214.818 183.333 214.714C183.593 214.61 183.871 214.558 184.167 214.558C184.463 214.558 184.739 214.61 184.995 214.714C185.255 214.818 185.481 214.966 185.673 215.158C185.869 215.35 186.021 215.578 186.129 215.842C186.241 216.102 186.297 216.388 186.297 216.7C186.297 217.016 186.241 217.306 186.129 217.57C186.021 217.83 185.869 218.056 185.673 218.248C185.481 218.436 185.255 218.582 184.995 218.686C184.739 218.79 184.463 218.842 184.167 218.842ZM184.167 218.236C184.439 218.236 184.681 218.174 184.893 218.05C185.105 217.922 185.271 217.744 185.391 217.516C185.511 217.284 185.571 217.012 185.571 216.7C185.571 216.384 185.511 216.112 185.391 215.884C185.271 215.656 185.105 215.48 184.893 215.356C184.681 215.228 184.439 215.164 184.167 215.164C183.895 215.164 183.653 215.228 183.441 215.356C183.229 215.48 183.061 215.656 182.937 215.884C182.817 216.112 182.757 216.384 182.757 216.7C182.757 217.012 182.817 217.284 182.937 217.516C183.061 217.744 183.229 217.922 183.441 218.05C183.653 218.174 183.895 218.236 184.167 218.236ZM187.666 218.8H186.952V214.6H187.75L189.166 217.864L190.582 214.6H191.374V218.8H190.666V215.962L189.436 218.8H188.896L187.666 215.962V218.8ZM194.072 215.194H193.856L192.596 218.8H191.864L193.352 214.6H194.564L196.058 218.8H195.326L194.072 215.194ZM192.68 217.186H195.128V217.774H192.68V217.186Z" fill="white"/>
<path d="M148.591 276.48H151.891V277.074H150.601V280.68H149.887V277.074H148.591V276.48ZM155.413 277.074H153.259V278.256H154.873V278.85H153.259V280.086H155.413V280.68H152.545V276.48H155.413V277.074ZM156.034 276.48H156.832L157.966 278.01L159.106 276.48H159.898L158.374 278.58L159.898 280.68H159.106L157.966 279.15L156.832 280.68H156.034L157.564 278.58L156.034 276.48ZM162.449 277.074H162.233L160.973 280.68H160.241L161.729 276.48H162.941L164.435 280.68H163.703L162.449 277.074ZM161.057 279.066H163.505V279.654H161.057V279.066ZM165.395 279.528C165.419 279.64 165.465 279.742 165.533 279.834C165.605 279.922 165.699 279.992 165.815 280.044C165.935 280.096 166.077 280.122 166.241 280.122C166.493 280.122 166.681 280.064 166.805 279.948C166.929 279.828 166.991 279.688 166.991 279.528C166.991 279.396 166.951 279.286 166.871 279.198C166.795 279.11 166.687 279.036 166.547 278.976C166.407 278.912 166.247 278.852 166.067 278.796C165.903 278.748 165.745 278.698 165.593 278.646C165.441 278.59 165.303 278.522 165.179 278.442C165.059 278.358 164.963 278.252 164.891 278.124C164.819 277.992 164.785 277.828 164.789 277.632C164.789 277.376 164.849 277.16 164.969 276.984C165.089 276.804 165.257 276.668 165.473 276.576C165.689 276.484 165.937 276.438 166.217 276.438C166.453 276.438 166.665 276.472 166.853 276.54C167.045 276.604 167.207 276.7 167.339 276.828C167.471 276.952 167.569 277.106 167.633 277.29L166.979 277.506C166.955 277.418 166.907 277.34 166.835 277.272C166.763 277.2 166.673 277.144 166.565 277.104C166.461 277.064 166.347 277.042 166.223 277.038C166.087 277.034 165.965 277.054 165.857 277.098C165.753 277.142 165.669 277.206 165.605 277.29C165.541 277.37 165.509 277.464 165.509 277.572C165.509 277.696 165.545 277.794 165.617 277.866C165.689 277.934 165.783 277.992 165.899 278.04C166.019 278.084 166.151 278.13 166.295 278.178C166.463 278.226 166.629 278.282 166.793 278.346C166.961 278.406 167.113 278.484 167.249 278.58C167.389 278.672 167.501 278.79 167.585 278.934C167.669 279.078 167.711 279.258 167.711 279.474C167.711 279.706 167.657 279.916 167.549 280.104C167.445 280.292 167.285 280.442 167.069 280.554C166.853 280.666 166.585 280.722 166.265 280.722C166.005 280.722 165.767 280.684 165.551 280.608C165.339 280.528 165.161 280.416 165.017 280.272C164.877 280.124 164.785 279.95 164.741 279.75L165.395 279.528Z" fill="white"/>
<path d="M206.837 117.81H207.551V122.01H206.837V117.81ZM210.351 122.052C210.055 122.052 209.777 122 209.517 121.896C209.257 121.792 209.029 121.646 208.833 121.458C208.641 121.266 208.489 121.04 208.377 120.78C208.269 120.516 208.215 120.226 208.215 119.91C208.215 119.598 208.269 119.312 208.377 119.052C208.489 118.788 208.641 118.56 208.833 118.368C209.029 118.176 209.257 118.028 209.517 117.924C209.777 117.82 210.055 117.768 210.351 117.768C210.647 117.768 210.923 117.82 211.179 117.924C211.439 118.028 211.665 118.176 211.857 118.368C212.053 118.56 212.205 118.788 212.313 119.052C212.425 119.312 212.481 119.598 212.481 119.91C212.481 120.226 212.425 120.516 212.313 120.78C212.205 121.04 212.053 121.266 211.857 121.458C211.665 121.646 211.439 121.792 211.179 121.896C210.923 122 210.647 122.052 210.351 122.052ZM210.351 121.446C210.623 121.446 210.865 121.384 211.077 121.26C211.289 121.132 211.455 120.954 211.575 120.726C211.695 120.494 211.755 120.222 211.755 119.91C211.755 119.594 211.695 119.322 211.575 119.094C211.455 118.866 211.289 118.69 211.077 118.566C210.865 118.438 210.623 118.374 210.351 118.374C210.079 118.374 209.837 118.438 209.625 118.566C209.413 118.69 209.245 118.866 209.121 119.094C209.001 119.322 208.941 119.594 208.941 119.91C208.941 120.222 209.001 120.494 209.121 120.726C209.245 120.954 209.413 121.132 209.625 121.26C209.837 121.384 210.079 121.446 210.351 121.446ZM214.764 122.01H213.96L212.754 117.81H213.522L214.362 121.194L215.256 117.81H216.054L216.936 121.182L217.788 117.81H218.544L217.35 122.01H216.534L215.652 118.872L214.764 122.01ZM220.515 118.404H220.299L219.039 122.01H218.307L219.795 117.81H221.007L222.501 122.01H221.769L220.515 118.404ZM219.123 120.396H221.571V120.984H219.123V120.396Z" fill="white"/>
<path d="M135.134 39.5803V43.7803H134.408L132.452 40.7023V43.7803H131.738V39.5803H132.47L134.426 42.6463V39.5803H135.134ZM137.935 43.8223C137.639 43.8223 137.361 43.7703 137.101 43.6663C136.841 43.5623 136.613 43.4163 136.417 43.2283C136.225 43.0363 136.073 42.8103 135.961 42.5503C135.853 42.2863 135.799 41.9963 135.799 41.6803C135.799 41.3683 135.853 41.0823 135.961 40.8223C136.073 40.5583 136.225 40.3303 136.417 40.1383C136.613 39.9463 136.841 39.7983 137.101 39.6943C137.361 39.5903 137.639 39.5383 137.935 39.5383C138.231 39.5383 138.507 39.5903 138.763 39.6943C139.023 39.7983 139.249 39.9463 139.441 40.1383C139.637 40.3303 139.789 40.5583 139.897 40.8223C140.009 41.0823 140.065 41.3683 140.065 41.6803C140.065 41.9963 140.009 42.2863 139.897 42.5503C139.789 42.8103 139.637 43.0363 139.441 43.2283C139.249 43.4163 139.023 43.5623 138.763 43.6663C138.507 43.7703 138.231 43.8223 137.935 43.8223ZM137.935 43.2163C138.207 43.2163 138.449 43.1543 138.661 43.0303C138.873 42.9023 139.039 42.7243 139.159 42.4963C139.279 42.2643 139.339 41.9923 139.339 41.6803C139.339 41.3643 139.279 41.0923 139.159 40.8643C139.039 40.6363 138.873 40.4603 138.661 40.3363C138.449 40.2083 138.207 40.1443 137.935 40.1443C137.663 40.1443 137.421 40.2083 137.209 40.3363C136.997 40.4603 136.829 40.6363 136.705 40.8643C136.585 41.0923 136.525 41.3643 136.525 41.6803C136.525 41.9923 136.585 42.2643 136.705 42.4963C136.829 42.7243 136.997 42.9023 137.209 43.0303C137.421 43.1543 137.663 43.2163 137.935 43.2163ZM143.126 40.8463C143.126 40.6383 143.064 40.4743 142.94 40.3543C142.816 40.2343 142.624 40.1743 142.364 40.1743H141.434V41.5243H142.364C142.54 41.5243 142.682 41.4983 142.79 41.4463C142.902 41.3903 142.986 41.3123 143.042 41.2123C143.098 41.1083 143.126 40.9863 143.126 40.8463ZM142.364 39.5803C142.7 39.5803 142.976 39.6383 143.192 39.7543C143.412 39.8663 143.576 40.0203 143.684 40.2163C143.792 40.4083 143.846 40.6183 143.846 40.8463C143.846 40.9983 143.82 41.1483 143.768 41.2963C143.716 41.4443 143.632 41.5823 143.516 41.7103C143.4 41.8343 143.246 41.9343 143.054 42.0103C142.866 42.0823 142.636 42.1183 142.364 42.1183H141.434V43.7803H140.72V39.5803H142.364ZM142.79 41.8843L143.936 43.7803H143.132L142.028 41.8843H142.79ZM144.383 39.5803H147.683V40.1743H146.393V43.7803H145.679V40.1743H144.383V39.5803ZM148.337 39.5803H149.051V41.3563H151.031V39.5803H151.739V43.7803H151.031V41.9503H149.051V43.7803H148.337V39.5803Z" fill="white"/>
<path d="M131.417 46.7805C131.869 46.7805 132.259 46.8665 132.587 47.0385C132.919 47.2105 133.175 47.4565 133.355 47.7765C133.539 48.0925 133.631 48.4665 133.631 48.8985C133.631 49.3265 133.539 49.6965 133.355 50.0085C133.175 50.3205 132.919 50.5605 132.587 50.7285C132.259 50.8965 131.869 50.9805 131.417 50.9805H129.917V46.7805H131.417ZM131.417 50.3865C131.897 50.3865 132.265 50.2565 132.521 49.9965C132.781 49.7325 132.911 49.3665 132.911 48.8985C132.911 48.4265 132.781 48.0545 132.521 47.7825C132.265 47.5105 131.897 47.3745 131.417 47.3745H130.631V50.3865H131.417ZM136.118 47.3745H135.902L134.642 50.9805H133.91L135.398 46.7805H136.61L138.104 50.9805H137.372L136.118 47.3745ZM134.726 49.3665H137.174V49.9545H134.726V49.3665ZM138.584 46.7805H139.298V48.5565H139.526L141.08 46.7805H141.968L140.168 48.8505L141.998 50.9805H141.074L139.52 49.1505H139.298V50.9805H138.584V46.7805ZM144.166 51.0225C143.87 51.0225 143.592 50.9705 143.332 50.8665C143.072 50.7625 142.844 50.6165 142.648 50.4285C142.456 50.2365 142.304 50.0105 142.192 49.7505C142.084 49.4865 142.03 49.1965 142.03 48.8805C142.03 48.5685 142.084 48.2825 142.192 48.0225C142.304 47.7585 142.456 47.5305 142.648 47.3385C142.844 47.1465 143.072 46.9985 143.332 46.8945C143.592 46.7905 143.87 46.7385 144.166 46.7385C144.462 46.7385 144.738 46.7905 144.994 46.8945C145.254 46.9985 145.48 47.1465 145.672 47.3385C145.868 47.5305 146.02 47.7585 146.128 48.0225C146.24 48.2825 146.296 48.5685 146.296 48.8805C146.296 49.1965 146.24 49.4865 146.128 49.7505C146.02 50.0105 145.868 50.2365 145.672 50.4285C145.48 50.6165 145.254 50.7625 144.994 50.8665C144.738 50.9705 144.462 51.0225 144.166 51.0225ZM144.166 50.4165C144.438 50.4165 144.68 50.3545 144.892 50.2305C145.104 50.1025 145.27 49.9245 145.39 49.6965C145.51 49.4645 145.57 49.1925 145.57 48.8805C145.57 48.5645 145.51 48.2925 145.39 48.0645C145.27 47.8365 145.104 47.6605 144.892 47.5365C144.68 47.4085 144.438 47.3445 144.166 47.3445C143.894 47.3445 143.652 47.4085 143.44 47.5365C143.228 47.6605 143.06 47.8365 142.936 48.0645C142.816 48.2925 142.756 48.5645 142.756 48.8805C142.756 49.1925 142.816 49.4645 142.936 49.6965C143.06 49.9245 143.228 50.1025 143.44 50.2305C143.652 50.3545 143.894 50.4165 144.166 50.4165ZM146.618 46.7805H149.918V47.3745H148.628V50.9805H147.914V47.3745H146.618V46.7805ZM151.985 47.3745H151.769L150.509 50.9805H149.777L151.265 46.7805H152.477L153.971 50.9805H153.239L151.985 47.3745ZM150.593 49.3665H153.041V49.9545H150.593V49.3665Z" fill="white"/>
<path d="M132.718 82.7181C132.742 82.8301 132.788 82.9321 132.856 83.0241C132.928 83.1121 133.022 83.1821 133.138 83.2341C133.258 83.2861 133.4 83.3121 133.564 83.3121C133.816 83.3121 134.004 83.2541 134.128 83.1381C134.252 83.0181 134.314 82.8781 134.314 82.7181C134.314 82.5861 134.274 82.4761 134.194 82.3881C134.118 82.3001 134.01 82.2261 133.87 82.1661C133.73 82.1021 133.57 82.0421 133.39 81.9861C133.226 81.9381 133.068 81.8881 132.916 81.8361C132.764 81.7801 132.626 81.7121 132.502 81.6321C132.382 81.5481 132.286 81.4421 132.214 81.3141C132.142 81.1821 132.108 81.0181 132.112 80.8221C132.112 80.5661 132.172 80.3501 132.292 80.1741C132.412 79.9941 132.58 79.8581 132.796 79.7661C133.012 79.6741 133.26 79.6281 133.54 79.6281C133.776 79.6281 133.988 79.6621 134.176 79.7301C134.368 79.7941 134.53 79.8901 134.662 80.0181C134.794 80.1421 134.892 80.2961 134.956 80.4801L134.302 80.6961C134.278 80.6081 134.23 80.5301 134.158 80.4621C134.086 80.3901 133.996 80.3341 133.888 80.2941C133.784 80.2541 133.67 80.2321 133.546 80.2281C133.41 80.2241 133.288 80.2441 133.18 80.2881C133.076 80.3321 132.992 80.3961 132.928 80.4801C132.864 80.5601 132.832 80.6541 132.832 80.7621C132.832 80.8861 132.868 80.9841 132.94 81.0561C133.012 81.1241 133.106 81.1821 133.222 81.2301C133.342 81.2741 133.474 81.3201 133.618 81.3681C133.786 81.4161 133.952 81.4721 134.116 81.5361C134.284 81.5961 134.436 81.6741 134.572 81.7701C134.712 81.8621 134.824 81.9801 134.908 82.1241C134.992 82.2681 135.034 82.4481 135.034 82.6641C135.034 82.8961 134.98 83.1061 134.872 83.2941C134.768 83.4821 134.608 83.6321 134.392 83.7441C134.176 83.8561 133.908 83.9121 133.588 83.9121C133.328 83.9121 133.09 83.8741 132.874 83.7981C132.662 83.7181 132.484 83.6061 132.34 83.4621C132.2 83.3141 132.108 83.1401 132.064 82.9401L132.718 82.7181ZM137.656 83.9121C137.36 83.9121 137.082 83.8601 136.822 83.7561C136.562 83.6521 136.334 83.5061 136.138 83.3181C135.946 83.1261 135.794 82.9001 135.682 82.6401C135.574 82.3761 135.52 82.0861 135.52 81.7701C135.52 81.4581 135.574 81.1721 135.682 80.9121C135.794 80.6481 135.946 80.4201 136.138 80.2281C136.334 80.0361 136.562 79.8881 136.822 79.7841C137.082 79.6801 137.36 79.6281 137.656 79.6281C137.952 79.6281 138.228 79.6801 138.484 79.7841C138.744 79.8881 138.97 80.0361 139.162 80.2281C139.358 80.4201 139.51 80.6481 139.618 80.9121C139.73 81.1721 139.786 81.4581 139.786 81.7701C139.786 82.0861 139.73 82.3761 139.618 82.6401C139.51 82.9001 139.358 83.1261 139.162 83.3181C138.97 83.5061 138.744 83.6521 138.484 83.7561C138.228 83.8601 137.952 83.9121 137.656 83.9121ZM137.656 83.3061C137.928 83.3061 138.17 83.2441 138.382 83.1201C138.594 82.9921 138.76 82.8141 138.88 82.5861C139 82.3541 139.06 82.0821 139.06 81.7701C139.06 81.4541 139 81.1821 138.88 80.9541C138.76 80.7261 138.594 80.5501 138.382 80.4261C138.17 80.2981 137.928 80.2341 137.656 80.2341C137.384 80.2341 137.142 80.2981 136.93 80.4261C136.718 80.5501 136.55 80.7261 136.426 80.9541C136.306 81.1821 136.246 81.4541 136.246 81.7701C136.246 82.0821 136.306 82.3541 136.426 82.5861C136.55 82.8141 136.718 82.9921 136.93 83.1201C137.142 83.2441 137.384 83.3061 137.656 83.3061ZM140.423 79.6701H141.131V82.3461C141.131 82.5581 141.173 82.7361 141.257 82.8801C141.345 83.0241 141.463 83.1321 141.611 83.2041C141.759 83.2721 141.927 83.3061 142.115 83.3061C142.311 83.3061 142.483 83.2721 142.631 83.2041C142.779 83.1321 142.895 83.0241 142.979 82.8801C143.067 82.7361 143.111 82.5581 143.111 82.3461V79.6701H143.819V82.3281C143.819 82.5961 143.771 82.8301 143.675 83.0301C143.583 83.2261 143.455 83.3901 143.291 83.5221C143.131 83.6541 142.949 83.7521 142.745 83.8161C142.545 83.8801 142.333 83.9121 142.109 83.9121C141.813 83.9121 141.537 83.8541 141.281 83.7381C141.025 83.6221 140.817 83.4481 140.657 83.2161C140.501 82.9801 140.423 82.6841 140.423 82.3281V79.6701ZM144.467 79.6701H147.767V80.2641H146.477V83.8701H145.763V80.2641H144.467V79.6701ZM148.421 79.6701H149.135V81.4461H151.115V79.6701H151.823V83.8701H151.115V82.0401H149.135V83.8701H148.421V79.6701Z" fill="white"/>
<path d="M131.708 86.8703C132.16 86.8703 132.55 86.9563 132.878 87.1283C133.21 87.3003 133.466 87.5463 133.646 87.8663C133.83 88.1823 133.922 88.5563 133.922 88.9883C133.922 89.4163 133.83 89.7863 133.646 90.0983C133.466 90.4103 133.21 90.6503 132.878 90.8183C132.55 90.9863 132.16 91.0703 131.708 91.0703H130.208V86.8703H131.708ZM131.708 90.4763C132.188 90.4763 132.556 90.3463 132.812 90.0863C133.072 89.8223 133.202 89.4563 133.202 88.9883C133.202 88.5163 133.072 88.1443 132.812 87.8723C132.556 87.6003 132.188 87.4643 131.708 87.4643H130.922V90.4763H131.708ZM136.408 87.4643H136.192L134.932 91.0703H134.2L135.688 86.8703H136.9L138.394 91.0703H137.662L136.408 87.4643ZM135.016 89.4563H137.464V90.0443H135.016V89.4563ZM138.874 86.8703H139.588V88.6463H139.816L141.37 86.8703H142.258L140.458 88.9403L142.288 91.0703H141.364L139.81 89.2403H139.588V91.0703H138.874V86.8703ZM144.456 91.1123C144.16 91.1123 143.882 91.0603 143.622 90.9563C143.362 90.8523 143.134 90.7063 142.938 90.5183C142.746 90.3263 142.594 90.1003 142.482 89.8403C142.374 89.5763 142.32 89.2863 142.32 88.9703C142.32 88.6583 142.374 88.3723 142.482 88.1123C142.594 87.8483 142.746 87.6203 142.938 87.4283C143.134 87.2363 143.362 87.0883 143.622 86.9843C143.882 86.8803 144.16 86.8283 144.456 86.8283C144.752 86.8283 145.028 86.8803 145.284 86.9843C145.544 87.0883 145.77 87.2363 145.962 87.4283C146.158 87.6203 146.31 87.8483 146.418 88.1123C146.53 88.3723 146.586 88.6583 146.586 88.9703C146.586 89.2863 146.53 89.5763 146.418 89.8403C146.31 90.1003 146.158 90.3263 145.962 90.5183C145.77 90.7063 145.544 90.8523 145.284 90.9563C145.028 91.0603 144.752 91.1123 144.456 91.1123ZM144.456 90.5063C144.728 90.5063 144.97 90.4443 145.182 90.3203C145.394 90.1923 145.56 90.0143 145.68 89.7863C145.8 89.5543 145.86 89.2823 145.86 88.9703C145.86 88.6543 145.8 88.3823 145.68 88.1543C145.56 87.9263 145.394 87.7503 145.182 87.6263C144.97 87.4983 144.728 87.4343 144.456 87.4343C144.184 87.4343 143.942 87.4983 143.73 87.6263C143.518 87.7503 143.35 87.9263 143.226 88.1543C143.106 88.3823 143.046 88.6543 143.046 88.9703C143.046 89.2823 143.106 89.5543 143.226 89.7863C143.35 90.0143 143.518 90.1923 143.73 90.3203C143.942 90.4443 144.184 90.5063 144.456 90.5063ZM146.908 86.8703H150.208V87.4643H148.918V91.0703H148.204V87.4643H146.908V86.8703ZM152.276 87.4643H152.06L150.8 91.0703H150.068L151.556 86.8703H152.768L154.262 91.0703H153.53L152.276 87.4643ZM150.884 89.4563H153.332V90.0443H150.884V89.4563Z" fill="white"/>
<path d="M-8.14208 81.9304H-7.42808V86.1304H-8.14208V81.9304ZM-5.04833 81.9304C-4.59633 81.9304 -4.20633 82.0164 -3.87833 82.1884C-3.54633 82.3604 -3.29033 82.6064 -3.11033 82.9264C-2.92633 83.2424 -2.83433 83.6164 -2.83433 84.0484C-2.83433 84.4764 -2.92633 84.8464 -3.11033 85.1584C-3.29033 85.4704 -3.54633 85.7104 -3.87833 85.8784C-4.20633 86.0464 -4.59633 86.1304 -5.04833 86.1304H-6.54833V81.9304H-5.04833ZM-5.04833 85.5364C-4.56833 85.5364 -4.20033 85.4064 -3.94433 85.1464C-3.68433 84.8824 -3.55433 84.5164 -3.55433 84.0484C-3.55433 83.5764 -3.68433 83.2044 -3.94433 82.9324C-4.20033 82.6604 -4.56833 82.5244 -5.04833 82.5244H-5.83433V85.5364H-5.04833ZM-0.347516 82.5244H-0.563516L-1.82352 86.1304H-2.55552L-1.06752 81.9304H0.144485L1.63848 86.1304H0.906485L-0.347516 82.5244ZM-1.73952 84.5164H0.708485V85.1044H-1.73952V84.5164ZM2.11769 81.9304H2.83169V83.7064H4.81169V81.9304H5.51969V86.1304H4.81169V84.3004H2.83169V86.1304H2.11769V81.9304ZM8.32089 86.1724C8.02489 86.1724 7.74689 86.1204 7.48689 86.0164C7.22689 85.9124 6.99889 85.7664 6.80289 85.5784C6.61089 85.3864 6.45889 85.1604 6.34689 84.9004C6.23889 84.6364 6.18489 84.3464 6.18489 84.0304C6.18489 83.7184 6.23889 83.4324 6.34689 83.1724C6.45889 82.9084 6.61089 82.6804 6.80289 82.4884C6.99889 82.2964 7.22689 82.1484 7.48689 82.0444C7.74689 81.9404 8.02489 81.8884 8.32089 81.8884C8.61689 81.8884 8.89289 81.9404 9.14889 82.0444C9.40889 82.1484 9.63489 82.2964 9.82689 82.4884C10.0229 82.6804 10.1749 82.9084 10.2829 83.1724C10.3949 83.4324 10.4509 83.7184 10.4509 84.0304C10.4509 84.3464 10.3949 84.6364 10.2829 84.9004C10.1749 85.1604 10.0229 85.3864 9.82689 85.5784C9.63489 85.7664 9.40889 85.9124 9.14889 86.0164C8.89289 86.1204 8.61689 86.1724 8.32089 86.1724ZM8.32089 85.5664C8.59289 85.5664 8.83489 85.5044 9.04689 85.3804C9.25889 85.2524 9.42489 85.0744 9.54489 84.8464C9.66489 84.6144 9.72489 84.3424 9.72489 84.0304C9.72489 83.7144 9.66489 83.4424 9.54489 83.2144C9.42489 82.9864 9.25889 82.8104 9.04689 82.6864C8.83489 82.5584 8.59289 82.4944 8.32089 82.4944C8.04889 82.4944 7.80689 82.5584 7.59489 82.6864C7.38289 82.8104 7.21489 82.9864 7.09089 83.2144C6.97089 83.4424 6.91089 83.7144 6.91089 84.0304C6.91089 84.3424 6.97089 84.6144 7.09089 84.8464C7.21489 85.0744 7.38289 85.2524 7.59489 85.3804C7.80689 85.5044 8.04889 85.5664 8.32089 85.5664Z" fill="white"/>
<!-- Code injected by live-server -->
<script>
	// <![CDATA[  <-- For SVG support
	if ('WebSocket' in window) {
		(function () {
			function refreshCSS() {
				var sheets = [].slice.call(document.getElementsByTagName("link"));
				var head = document.getElementsByTagName("head")[0];
				for (var i = 0; i < sheets.length; ++i) {
					var elem = sheets[i];
					var parent = elem.parentElement || head;
					parent.removeChild(elem);
					var rel = elem.rel;
					if (elem.href && typeof rel != "string" || rel.length == 0 || rel.toLowerCase() == "stylesheet") {
						var url = elem.href.replace(/(&|\?)_cacheOverride=\d+/, '');
						elem.href = url + (url.indexOf('?') >= 0 ? '&' : '?') + '_cacheOverride=' + (new Date().valueOf());
					}
					parent.appendChild(elem);
				}
			}
			var protocol = window.location.protocol === 'http:' ? 'ws://' : 'wss://';
			var address = protocol + window.location.host + window.location.pathname + '/ws';
			var socket = new WebSocket(address);
			socket.onmessage = function (msg) {
				if (msg.data == 'reload') window.location.reload();
				else if (msg.data == 'refreshcss') refreshCSS();
			};
			if (sessionStorage && !sessionStorage.getItem('IsThisFirstTime_Log_From_LiveServer')) {
				console.log('Live reload enabled.');
				sessionStorage.setItem('IsThisFirstTime_Log_From_LiveServer', true);
			}
		})();
	}
	else {
		console.error('Upgrade your browser. This Browser is NOT supported WebSocket for Live-Reloading.');
	}
	// ]]>
</script>
</svg>
