<svg width="363" height="362" viewBox="0 0 363 362" fill="none" xmlns="http://www.w3.org/2000/svg">
<g clip-path="url(#clip0_749_2353)">
<path d="M181.511 361.664C281.28 361.664 362.158 280.786 362.158 181.018C362.158 81.2495 281.28 0.371338 181.511 0.371338C81.7431 0.371338 0.864868 81.2495 0.864868 181.018C0.864868 280.786 81.7431 361.664 181.511 361.664Z" fill="url(#paint0_radial_749_2353)"/>
<path d="M181.502 312.568C254.14 312.568 313.025 253.684 313.025 181.045C313.025 108.407 254.14 49.5222 181.502 49.5222C108.864 49.5222 49.9787 108.407 49.9787 181.045C49.9787 253.684 108.864 312.568 181.502 312.568Z" stroke="white" stroke-width="2.41053" stroke-miterlimit="10"/>
<path d="M0.853516 180.989H51.0539" stroke="white" stroke-width="2.41053" stroke-miterlimit="10"/>
<path d="M311.946 180.989H362.146" stroke="white" stroke-width="2.41053" stroke-miterlimit="10"/>
<path d="M50.8691 103.541L57.8663 107.976L56.8503 109.579L41.5465 99.8778L42.5624 98.2751L49.325 102.562L54.8507 93.8447L48.0881 89.558L49.104 87.9553L64.4079 97.6562L63.3919 99.2589L56.3948 94.8235L50.8691 103.541Z" fill="white"/>
<path d="M56.6219 78.2167L70.7551 89.632L69.5596 91.1121L55.4264 79.6968L56.6219 78.2167Z" fill="white"/>
<path d="M79.3923 62.2819L78.711 64.039C77.5092 63.4316 76.236 63.2159 74.8924 63.3264C73.5488 63.4369 72.2461 64.0881 71.0004 65.2966C69.5885 66.6662 68.8594 68.3407 68.8296 70.3041C68.8164 72.2513 69.5427 73.997 71.0412 75.5417C72.5235 77.0698 74.2293 77.8976 76.1746 78.0417C78.1203 78.1531 79.8489 77.4756 81.3936 75.9772C82.6062 74.8009 83.3142 73.437 83.5178 71.8854C83.738 70.3177 83.3012 68.9037 82.2075 67.6433L76.7761 72.9122L75.5516 71.6499L82.4446 64.963L82.928 65.4613C84.5715 67.1555 85.393 69.0991 85.3758 71.3081C85.3752 73.501 84.4448 75.4998 82.6011 77.2883C80.6578 79.1735 78.4842 80.057 76.0798 79.9714C73.6754 79.8858 71.5468 78.8879 69.7099 76.9944C67.8891 75.1175 66.9735 72.9106 66.9785 70.4232C66.9836 67.9358 67.9165 65.7734 69.7768 63.9688C71.2716 62.5186 72.888 61.6922 74.6419 61.5061C76.3963 61.2872 77.9796 61.5568 79.3923 62.2819Z" fill="white"/>
<path d="M90.5973 59.3811L95.3704 66.1524L93.8194 67.2456L83.3799 52.4358L84.9309 51.3425L89.544 57.8868L97.9798 51.9405L93.3667 45.3961L94.9176 44.3029L105.357 59.1127L103.806 60.206L99.033 53.4347L90.5973 59.3811Z" fill="white"/>
<path d="M114.167 46.0147L110.861 47.6812L114.162 54.2318L112.468 55.0859L104.312 38.9056L109.912 36.0829C111.793 35.1351 113.427 34.8815 114.826 35.2909C116.245 35.6899 117.293 36.5869 117.97 37.9301C118.636 39.2526 118.754 40.5148 118.313 41.7478C117.872 42.9808 117.058 43.9873 115.86 44.7983L124.309 49.1177L122.242 50.1593L114.167 46.0147ZM106.809 39.6427L110.079 46.1313L113.84 44.2357C115.204 43.5482 116.071 42.6968 116.43 41.7125C116.789 40.7282 116.744 39.7659 116.286 38.8566C115.369 37.0381 113.442 36.2992 110.611 37.7262L106.809 39.6427Z" fill="white"/>
<path d="M130.556 41.8296L130.135 46.85L128.292 47.4661L129.966 27.8017L132.008 27.1196L145.169 41.8254L143.26 42.4636L139.927 38.6975L130.556 41.8296ZM130.686 39.9561L138.675 37.2861L131.578 29.3372L130.686 39.9561Z" fill="white"/>
<path d="M162.373 20.3176L165.41 38.1807L163.402 38.522L150.115 25.1246L152.703 40.3413L150.855 40.6555L147.817 22.7925L149.985 22.424L163.062 35.5519L160.525 20.6318L162.373 20.3176Z" fill="white"/>
<path d="M189.179 24.5644L187.479 25.3788C187.019 24.1134 186.239 23.0846 185.183 22.2454C184.128 21.4062 182.733 20.9891 180.998 21.0172C179.031 21.0492 177.353 21.7707 175.987 23.1815C174.645 24.592 173.979 26.3617 174.014 28.5136C174.049 30.6423 174.725 32.4134 176.045 33.85C177.387 35.2632 179.111 35.9527 181.263 35.9177C182.952 35.8903 184.401 35.3808 185.612 34.3891C186.846 33.397 187.495 32.0672 187.561 30.3998L179.995 30.5226L179.966 28.7641L189.568 28.6082L189.58 29.3024C189.618 31.6625 188.886 33.6416 187.362 35.2401C185.86 36.8383 183.814 37.6584 181.245 37.7001C178.538 37.7441 176.349 36.9001 174.655 35.1918C172.961 33.4835 172.092 31.2989 172.049 28.6612C172.007 26.0466 172.85 23.8111 174.556 22.0013C176.263 20.1915 178.423 19.2538 181.015 19.2117C183.097 19.1779 184.841 19.6819 186.247 20.7469C187.676 21.7883 188.645 23.0686 189.179 24.5644Z" fill="white"/>
<path d="M209.987 21.761L209.753 23.5041L200.395 22.2489L199.561 28.4644L208.116 29.612L207.882 31.3551L199.327 30.2075L198.454 36.7212L207.903 37.9888L207.669 39.7319L196.339 38.2121L198.748 20.2535L209.987 21.761Z" fill="white"/>
<path d="M229.916 45.8913L229.202 26.3736L231.183 27.0876L231.647 44.2276L242.983 31.3404L244.92 32.0387L231.919 46.6132L229.916 45.8913Z" fill="white"/>
<path d="M246.922 48.0132L243.001 51.1763L241.282 50.2685L256.66 37.899L258.563 38.9041L257.018 58.5791L255.237 57.6389L255.659 52.6277L246.922 48.0132ZM248.367 46.8135L255.815 50.7472L256.662 40.1247L248.367 46.8135Z" fill="white"/>
<path d="M273.884 48.3736L264.396 61.6743L271.386 66.6598L270.351 68.1104L261.817 62.023L272.339 47.2717L273.884 48.3736Z" fill="white"/>
<path d="M289.09 60.3868L278.086 72.4629L284.432 78.2454L283.232 79.5625L275.483 72.5019L287.687 59.1087L289.09 60.3868Z" fill="white"/>
<path d="M308.952 81.3575L307.615 82.4995L301.484 75.319L296.715 79.391L302.32 85.9555L300.982 87.0975L295.377 80.533L290.379 84.8003L296.57 92.0512L295.232 93.1932L287.81 84.4992L301.59 72.7339L308.952 81.3575Z" fill="white"/>
<path d="M322.405 101.262L309.802 100.988L303.355 105.124L302.318 103.507L308.746 99.3839L313.783 87.8219L315.02 89.7502L310.822 99.2344L321.23 99.4307L322.405 101.262Z" fill="white"/>
<path d="M72.8978 299.425L81.6325 289.886L78.0925 286.644L79.0452 285.604L87.233 293.101L86.2803 294.142L82.7539 290.913L74.0192 300.452L72.8978 299.425Z" fill="white"/>
<path d="M100.541 303.171L99.7332 304.299L93.6788 299.964L90.7993 303.985L96.3343 307.949L95.5267 309.076L89.9917 305.113L86.974 309.327L93.0878 313.705L92.2803 314.833L84.9497 309.584L93.2695 297.965L100.541 303.171Z" fill="white"/>
<path d="M103.854 317.56L100.722 320.03L99.3696 319.296L111.653 309.64L113.15 310.452L111.753 326.014L110.352 325.254L110.73 321.291L103.854 317.56ZM105.009 316.624L110.87 319.803L111.635 311.402L105.009 316.624Z" fill="white"/>
<path d="M132.864 330.333L130.289 333.393L128.812 332.947L138.916 320.972L140.552 321.466L142.336 337.032L140.806 336.57L140.374 332.601L132.864 330.333ZM133.808 329.178L140.209 331.112L139.256 322.706L133.808 329.178Z" fill="white"/>
<path d="M165.04 326.596L162.808 340.766L161.216 340.515L154.629 327.107L152.728 339.178L151.263 338.947L153.494 324.777L155.213 325.048L161.71 338.2L163.574 326.365L165.04 326.596Z" fill="white"/>
<path d="M173.776 341.598L174.036 327.256L178.304 327.333C180.52 327.373 182.322 328.084 183.707 329.484C185.093 330.865 185.776 332.581 185.739 334.614C185.701 336.721 184.937 338.429 183.466 339.758C181.994 341.069 180.187 341.714 178.044 341.675L173.776 341.598ZM175.513 328.693L175.303 340.215L178.014 340.264C179.828 340.297 181.284 339.792 182.421 338.732C183.558 337.671 184.151 336.308 184.182 334.623C184.212 332.956 183.688 331.554 182.59 330.453C181.511 329.352 180.055 328.776 178.205 328.742L175.513 328.693Z" fill="white"/>
<path d="M211.473 339.134C209.085 339.572 207.258 338.72 205.978 336.598L207.13 335.7C208.168 337.309 209.406 338.084 211.219 337.751C212.063 337.596 212.738 337.231 213.23 336.676C213.74 336.119 213.919 335.474 213.787 334.755C213.523 333.319 212.255 332.68 210.005 332.555C207.004 332.382 205.448 331.387 205.088 329.431C204.874 328.264 205.137 327.269 205.87 326.41C206.603 325.552 207.578 325.002 208.799 324.777C211.025 324.368 212.78 325.234 213.771 326.889L212.643 327.82C211.777 326.439 210.561 325.883 209.017 326.166C208.227 326.311 207.584 326.652 207.092 327.207C206.6 327.761 206.419 328.388 206.547 329.088C206.781 330.363 207.768 330.887 210.007 331.051C211.735 331.161 213.028 331.536 213.87 332.179C214.645 332.76 215.114 333.491 215.275 334.371C215.473 335.448 215.232 336.457 214.547 337.381C213.863 338.305 212.838 338.883 211.473 339.134Z" fill="white"/>
<path d="M227.279 335.155L225.852 335.606L221.549 321.979L226.108 320.539C227.675 320.044 228.985 320.071 230.05 320.595C231.115 321.12 231.823 321.969 232.186 323.117C232.571 324.335 232.454 325.482 231.82 326.563C231.179 327.627 230.07 328.417 228.486 328.917L225.597 329.83L227.279 335.155ZM223.399 322.868L225.18 328.507L228.121 327.578C229.287 327.21 230.069 326.657 230.485 325.913C230.895 325.152 230.982 324.397 230.741 323.631C230.493 322.848 230.023 322.269 229.314 321.9C228.604 321.531 227.645 321.527 226.41 321.917L223.399 322.868Z" fill="white"/>
<path d="M239.755 315.317L245.38 328.513L243.998 329.102L238.373 315.907L239.755 315.317Z" fill="white"/>
<path d="M261.241 320.727C259.485 321.715 257.668 321.96 255.805 321.452C253.934 320.928 252.49 319.744 251.448 317.892C250.397 316.023 250.142 314.149 250.697 312.26C251.244 310.355 252.388 308.913 254.128 307.934C255.565 307.125 256.978 306.835 258.374 307.037C259.771 307.24 260.928 307.766 261.856 308.631L260.98 309.839C260.183 309.131 259.25 308.668 258.183 308.491C257.123 308.288 255.994 308.524 254.797 309.197C253.44 309.961 252.56 311.086 252.14 312.583C251.737 314.071 251.941 315.554 252.776 317.039C253.612 318.524 254.775 319.509 256.249 319.962C257.723 320.415 259.167 320.254 260.588 319.455C262.808 318.206 263.619 316.174 263.233 313.805L264.729 313.7C264.963 314.976 264.789 316.272 264.221 317.58C263.669 318.878 262.662 319.928 261.241 320.727Z" fill="white"/>
<path d="M273.35 295.076L274.184 296.192L268.197 300.667L271.17 304.643L276.643 300.552L277.477 301.667L272.004 305.758L275.119 309.926L281.164 305.406L281.998 306.522L274.749 311.94L266.16 300.451L273.35 295.076Z" fill="white"/>
<path d="M292.555 297.26C290.777 298.941 288.764 299.223 286.517 298.131L286.999 296.739C288.76 297.531 290.231 297.507 291.582 296.23C292.211 295.636 292.581 294.957 292.693 294.218C292.819 293.466 292.615 292.823 292.11 292.288C291.099 291.218 289.675 291.373 287.704 292.502C285.071 294.003 283.209 294.016 281.831 292.558C281.01 291.689 280.686 290.703 280.835 289.575C280.984 288.447 281.507 287.446 282.416 286.587C284.074 285.019 286.034 284.788 287.78 285.644L287.337 287.051C285.846 286.358 284.513 286.554 283.363 287.642C282.774 288.198 282.418 288.839 282.306 289.577C282.194 290.316 282.384 290.947 282.877 291.468C283.775 292.418 284.897 292.319 286.881 291.229C288.402 290.374 289.701 289.981 290.767 290.063C291.741 290.13 292.538 290.491 293.157 291.146C293.916 291.948 294.265 292.934 294.194 294.091C294.122 295.248 293.572 296.299 292.555 297.26Z" fill="white"/>
<path d="M170.025 153.025V173.844L165.422 167.712V153.025H170.025Z" fill="#CEC55B"/>
<path d="M197.591 153.025V167.69L192.989 173.826V153.025H197.591Z" fill="#CEC55B"/>
<path d="M165.422 208.74V187.921L170.025 194.053V208.74H165.422Z" fill="#CEC55B"/>
<path d="M192.989 208.739V194.074L197.591 187.938V208.739H192.989Z" fill="#CEC55B"/>
<path d="M214.523 160.486L197.591 183.05L192.988 189.182L184.377 200.664L181.497 204.497L178.623 200.664L170.024 189.204L165.422 183.072L148.476 160.486H154.23L165.422 175.401L170.024 181.533L181.497 196.831L192.988 181.515L197.591 175.379L208.769 160.486H214.523Z" fill="white"/>
<path fill-rule="evenodd" clip-rule="evenodd" d="M202.802 123.212L181.5 108.767L151.195 125.981L141.679 123.502L131.603 128.588L133.573 124.614L94.5421 144.18L136.017 115.383L147.674 119.326L181.5 95.8391L226.166 126.852L237.824 122.909L268.459 144.18L238.681 129.7L223.678 134.276L199.721 114.609L202.802 123.212Z" fill="white"/>
<path fill-rule="evenodd" clip-rule="evenodd" d="M120.269 144.179H116.146L142.819 129.022L120.269 144.179Z" fill="white"/>
<path fill-rule="evenodd" clip-rule="evenodd" d="M222.651 144.179H226.778L207.204 129.022L222.651 144.179Z" fill="#CEC55B"/>
<path opacity="0.5" fill-rule="evenodd" clip-rule="evenodd" d="M202.802 238.879L181.5 253.324L151.195 236.105L141.679 238.589L131.603 233.503L133.573 237.477L94.5421 217.911L136.017 246.708L147.674 242.765L181.5 266.252L226.166 235.239L237.824 239.182L268.459 217.911L238.681 232.391L223.678 227.815L199.721 247.477L202.802 238.879Z" fill="white"/>
<path opacity="0.5" fill-rule="evenodd" clip-rule="evenodd" d="M120.269 217.911H116.146L142.819 233.068L120.269 217.911Z" fill="#CEC55B"/>
<path opacity="0.5" fill-rule="evenodd" clip-rule="evenodd" d="M222.651 217.911H226.778L207.204 233.068L222.651 217.911Z" fill="white"/>
</g>
<defs>
<radialGradient id="paint0_radial_749_2353" cx="0" cy="0" r="1" gradientUnits="userSpaceOnUse" gradientTransform="translate(181.511 181.018) scale(180.646 180.646)">
<stop stop-color="#15722F"/>
<stop offset="1" stop-color="#063D1B"/>
</radialGradient>
<clipPath id="clip0_749_2353">
<rect width="361.306" height="361.293" fill="white" transform="translate(0.853516 0.37085)"/>
</clipPath>
</defs>
</svg>
