<svg width="26" height="26" viewBox="0 0 26 26" fill="none" xmlns="http://www.w3.org/2000/svg">
<path d="M25.9984 25.9984H26.0044V16.8294C26.0044 12.3444 25.0394 8.8884 19.8019 8.8884C18.8188 8.85242 17.8443 9.08406 16.9824 9.55865C16.1204 10.0332 15.4031 10.733 14.907 11.5834H14.8341V9.3074H9.86426V25.9974H15.0359V17.7334C15.0359 15.5574 15.4484 13.4534 18.1396 13.4534C20.7919 13.4534 20.8318 15.9364 20.8318 17.8734V25.9994L25.9984 25.9984Z" fill="#747474"/>
<path d="M0.445312 9.30859H5.61892V25.9996H0.445312V9.30859Z" fill="#747474"/>
<path d="M3.0288 4.22357e-05C2.43157 -0.00312111 1.84687 0.171476 1.34896 0.501658C0.851057 0.83184 0.462417 1.30271 0.232402 1.85446C0.0023869 2.40621 -0.0586241 3.01395 0.0571178 3.60048C0.17286 4.18701 0.460132 4.72588 0.882448 5.14863C1.30476 5.57139 1.84307 5.85896 2.42899 5.97482C3.01492 6.09069 3.62202 6.02961 4.1732 5.79936C4.72437 5.5691 5.19475 5.18006 5.52459 4.68164C5.85443 4.18321 6.02884 3.5979 6.02568 3.00004C6.02568 2.20439 5.70994 1.44133 5.14792 0.878722C4.58589 0.316113 3.82363 4.22357e-05 3.0288 4.22357e-05Z" fill="#747474"/>
</svg>
