<svg width="26" height="26" viewBox="0 0 26 26" fill="none" xmlns="http://www.w3.org/2000/svg">
<path d="M25.9219 7.63899C25.9003 6.5606 25.696 5.49367 25.3178 4.48355C24.992 3.61662 24.4812 2.83111 23.8209 2.18175C23.1708 1.52014 22.3842 1.00836 21.516 0.682155C20.5057 0.303908 19.4387 0.09967 18.3602 0.0781239C16.9738 0.0152437 16.5307 0 13.0005 0C9.47022 0 9.0262 0.0152437 7.63983 0.0781239C6.56164 0.0998324 5.49493 0.304067 4.48499 0.682155C3.61737 1.00856 2.83142 1.52032 2.18199 2.18175C1.52063 2.83085 1.00882 3.61637 0.68223 4.48355C0.303959 5.49366 0.0996993 6.5606 0.0781324 7.63899C0.0152454 9.02521 0 9.46823 0 12.9981C0 16.528 0.0152454 16.971 0.0781324 18.3572C0.0996626 19.4356 0.303924 20.5025 0.68223 21.5126C1.00827 22.3812 1.52012 23.1681 2.18199 23.8182C2.83138 24.4797 3.61734 24.9915 4.48499 25.3178C5.4952 25.6962 6.56226 25.9004 7.64078 25.9219C9.02716 25.9848 9.47022 26 13.0005 26C16.5307 26 16.9738 25.9848 18.3602 25.9219C19.4387 25.9004 20.5058 25.6961 21.516 25.3178C22.3795 24.984 23.1638 24.4733 23.8185 23.8187C24.4732 23.1641 24.9838 22.3799 25.3178 21.5165C25.6961 20.5063 25.9003 19.4394 25.9219 18.361C25.9848 16.9748 26 16.5318 26 13.0019C26 9.47204 25.9848 9.02521 25.9219 7.63899ZM23.5817 18.2514C23.5718 19.0756 23.4203 19.8919 23.1339 20.6647C22.9177 21.2254 22.5865 21.7346 22.1617 22.1596C21.7368 22.5846 21.2277 22.9159 20.667 23.1323C19.8941 23.4187 19.0777 23.5702 18.2535 23.5801C16.8833 23.6429 16.4717 23.6563 13.0005 23.6563C9.5293 23.6563 9.11767 23.6429 7.7475 23.5801C6.92392 23.5699 6.10819 23.4185 5.33587 23.1323C4.77111 22.9238 4.26026 22.5914 3.84088 22.1595C3.40791 21.7405 3.07448 21.2297 2.86517 20.6647C2.57871 19.8919 2.42723 19.0756 2.41734 18.2514C2.35445 16.8805 2.34111 16.4698 2.34111 12.999C2.34111 9.52825 2.35445 9.11667 2.41734 7.74665C2.42754 6.92316 2.57901 6.10753 2.86517 5.33529C3.07336 4.76959 3.4058 4.2578 3.83802 3.8376C4.25824 3.40562 4.77012 3.07352 5.33587 2.86581C6.10877 2.57934 6.92517 2.42787 7.7494 2.41803C9.12053 2.35515 9.53121 2.34181 13.0024 2.34181C16.4736 2.34181 16.8852 2.35515 18.2554 2.41803C19.0796 2.42793 19.896 2.5794 20.6689 2.86581C21.2336 3.07435 21.7445 3.40673 22.1639 3.83855C22.5951 4.25864 22.9266 4.77011 23.1339 5.33529C23.4205 6.10807 23.572 6.9244 23.5817 7.74855C23.6446 9.11953 23.6579 9.53016 23.6579 13.001C23.6579 16.4717 23.6446 16.8805 23.5817 18.2514Z" fill="#747474"/>
<path d="M13 7C11.8133 7 10.6533 7.35189 9.66658 8.01118C8.67988 8.67047 7.91085 9.60754 7.45673 10.7039C7.0026 11.8003 6.88378 13.0067 7.11529 14.1705C7.3468 15.3344 7.91824 16.4035 8.75736 17.2426C9.59648 18.0818 10.6656 18.6532 11.8295 18.8847C12.9933 19.1162 14.1997 18.9974 15.2961 18.5433C16.3925 18.0891 17.3295 17.3201 17.9888 16.3334C18.6481 15.3467 19 14.1867 19 13C19 11.4087 18.3679 9.88258 17.2426 8.75736C16.1174 7.63214 14.5913 7 13 7ZM13 16.8949C12.2297 16.8949 11.4766 16.6665 10.8361 16.2385C10.1956 15.8105 9.69634 15.2022 9.40154 14.4905C9.10674 13.7788 9.02961 12.9957 9.17989 12.2401C9.33018 11.4846 9.70113 10.7906 10.2459 10.2458C10.7906 9.70113 11.4846 9.33018 12.2401 9.17989C12.9957 9.0296 13.7788 9.10673 14.4905 9.40153C15.2022 9.69633 15.8105 10.1956 16.2385 10.8361C16.6665 11.4766 16.895 12.2296 16.895 13C16.895 14.033 16.4846 15.0237 15.7541 15.7541C15.0237 16.4846 14.033 16.8949 13 16.8949Z" fill="#747474"/>
<path d="M20.9969 6.5C20.9969 6.79667 20.909 7.08668 20.7443 7.33336C20.5797 7.58003 20.3457 7.77229 20.0719 7.88582C19.7981 7.99935 19.4968 8.02906 19.2061 7.97118C18.9155 7.9133 18.6484 7.77044 18.4389 7.56066C18.2293 7.35088 18.0866 7.0836 18.0288 6.79263C17.971 6.50166 18.0006 6.20006 18.1141 5.92597C18.2275 5.65188 18.4195 5.41762 18.666 5.2528C18.9124 5.08798 19.2021 5 19.4984 5C19.8958 5 20.277 5.15804 20.558 5.43934C20.839 5.72065 20.9969 6.10218 20.9969 6.5Z" fill="#747474"/>
</svg>
