<svg width="52" height="52" viewBox="0 0 52 52" fill="none" xmlns="http://www.w3.org/2000/svg">
<rect width="52" height="52" rx="26" fill="url(#paint0_linear_1427_2138)"/>
<path d="M16.5981 29.2411C15.9414 30.8983 14.9033 32.5389 13.5132 34.118C13.0708 34.6205 13.0146 35.3378 13.3735 35.9027C13.6499 36.3373 14.1147 36.5848 14.6069 36.5848C14.7456 36.5848 14.8867 36.5653 15.0259 36.5248C17.9722 35.6639 24.8447 32.6063 25.0293 22.8329C25.1006 19.059 22.3403 15.8168 18.7461 15.4515C16.7651 15.2533 14.7832 15.8968 13.3145 17.2245C11.8438 18.5536 11 20.451 11 22.431C11 25.7342 13.3447 28.6229 16.5981 29.2411ZM14.6553 18.7084C15.5893 17.8641 16.7651 17.4144 18.0117 17.4144C18.188 17.4144 18.3657 17.4232 18.544 17.4418C21.1108 17.702 23.0811 20.0536 23.0293 22.7948C22.9019 29.5575 19.2402 32.6019 16.208 33.9637C17.1675 32.6659 17.9214 31.3309 18.4575 29.9779C18.6665 29.451 18.6318 28.8622 18.3628 28.3622C18.081 27.8378 17.5786 27.4657 16.9853 27.3412C14.6758 26.8583 13 24.7928 13 22.431C13 21.016 13.6035 19.6591 14.6553 18.7084Z" fill="#F9FBFC"/>
<path d="M29.3437 35.9027C29.6201 36.3373 30.0849 36.5848 30.5771 36.5848C30.7158 36.5848 30.8564 36.5653 30.9961 36.5248C33.9424 35.6639 40.8144 32.6063 40.999 22.8329C41.0693 19.0589 38.3096 15.8168 34.7148 15.4515C32.7314 15.2499 30.7529 15.8963 29.2842 17.2245C27.8135 18.5536 26.9697 20.451 26.9697 22.431C26.9697 25.7342 29.3145 28.6229 32.5674 29.2411C31.9102 30.8998 30.8721 32.5404 29.4824 34.1185C29.04 34.6214 28.9844 35.3383 29.3437 35.9027ZM34.4267 29.9789C34.6357 29.452 34.6015 28.8631 34.333 28.3631C34.0508 27.8382 33.5488 27.4662 32.9551 27.3412C30.6455 26.8583 28.9697 24.7928 28.9697 22.431C28.9697 21.0155 29.5732 19.659 30.625 18.7084C31.5586 17.8641 32.7344 17.4144 33.9814 17.4144C34.1572 17.4144 34.3349 17.4232 34.5137 17.4417C37.0801 17.702 39.0508 20.0536 38.999 22.7948C38.8721 29.558 35.2099 32.6019 32.1777 33.9637C33.1367 32.6669 33.8896 31.3319 34.4267 29.9789Z" fill="#F9FBFC"/>
<defs>
<linearGradient id="paint0_linear_1427_2138" x1="-13" y1="52" x2="69.7667" y2="52" gradientUnits="userSpaceOnUse">
<stop stop-color="#135A35"/>
<stop offset="1" stop-color="#48A463"/>
</linearGradient>
</defs>
</svg>
