<svg width="17" height="16" viewBox="0 0 17 16" fill="none" xmlns="http://www.w3.org/2000/svg">
<g id="Instagram " clip-path="url(#clip0_974_1306)">
<path id="Vector" d="M12.1689 0H4.83105C2.44287 0 0.5 1.94287 0.5 4.33105V11.669C0.5 14.0571 2.44287 16 4.83105 16H12.169C14.5571 16 16.5 14.0571 16.5 11.669V4.33105C16.5 1.94287 14.5571 0 12.1689 0V0ZM8.49998 12.3749C6.08764 12.3749 4.12512 10.4123 4.12512 7.99998C4.12512 5.58764 6.08764 3.62512 8.49998 3.62512C10.9123 3.62512 12.8749 5.58764 12.8749 7.99998C12.8749 10.4123 10.9123 12.3749 8.49998 12.3749ZM12.9795 4.65685C12.2666 4.65685 11.6867 4.07702 11.6867 3.36413C11.6867 2.65124 12.2666 2.07129 12.9795 2.07129C13.6924 2.07129 14.2723 2.65124 14.2723 3.36413C14.2723 4.07702 13.6924 4.65685 12.9795 4.65685Z" fill="white"/>
<path id="Vector_2" d="M8.50075 4.56323C6.60572 4.56323 5.06384 6.10499 5.06384 8.00014C5.06384 9.89517 6.60572 11.4371 8.50075 11.4371C10.3959 11.4371 11.9377 9.89517 11.9377 8.00014C11.9377 6.10499 10.3959 4.56323 8.50075 4.56323Z" fill="white"/>
<path id="Vector_3" d="M12.9792 3.0094C12.7837 3.0094 12.6245 3.16857 12.6245 3.36413C12.6245 3.55968 12.7837 3.71885 12.9792 3.71885C13.1749 3.71885 13.3341 3.5598 13.3341 3.36413C13.3341 3.16845 13.1749 3.0094 12.9792 3.0094Z" fill="white"/>
</g>
<defs>
<clipPath id="clip0_974_1306">
<rect width="16" height="16" fill="white" transform="translate(0.5)"/>
</clipPath>
</defs>
</svg>
