<svg width="204" height="201" viewBox="0 0 204 201" fill="none" xmlns="http://www.w3.org/2000/svg">
<path d="M52.2106 141.994C52.2918 141.916 52.3644 141.872 52.4284 141.863C52.4924 141.853 52.556 141.865 52.6192 141.898C52.6772 141.926 52.7375 141.972 52.8001 142.037C52.8628 142.102 52.9332 142.175 53.0115 142.256L60.324 149.84C60.3762 149.894 60.4127 149.937 60.4333 149.969C60.454 150.002 60.4614 150.036 60.4554 150.073C60.4442 150.105 60.4249 150.139 60.3977 150.176C60.3598 150.213 60.3084 150.262 60.2434 150.325L51.8643 158.404C51.7831 158.483 51.7182 158.545 51.6695 158.592C51.6155 158.634 51.5672 158.66 51.5245 158.67C51.4817 158.679 51.4367 158.671 51.3893 158.643C51.3368 158.61 51.2713 158.553 51.193 158.472L44.045 151.059C43.9667 150.978 43.8936 150.902 43.8257 150.832C43.7579 150.761 43.706 150.691 43.67 150.622C43.6289 150.546 43.6116 150.474 43.6181 150.405C43.6247 150.336 43.6686 150.263 43.7498 150.184C43.8147 150.122 43.8818 150.088 43.951 150.084C44.0148 150.085 44.0835 150.108 44.1572 150.152C44.2256 150.19 44.2938 150.245 44.3616 150.315C44.4295 150.385 44.5025 150.461 44.5808 150.542L51.3531 157.566L54.9093 154.136L48.1762 147.154C48.0614 147.035 47.9811 146.919 47.9353 146.806C47.8894 146.694 47.9207 146.585 48.0289 146.481C48.148 146.366 48.2604 146.326 48.3662 146.36C48.4667 146.388 48.5691 146.456 48.6735 146.565L55.4614 153.604L59.3262 149.877L52.5383 142.838C52.46 142.757 52.3869 142.681 52.3191 142.611C52.2512 142.54 52.1993 142.47 52.1634 142.4C52.1222 142.325 52.1049 142.253 52.1115 142.184C52.1126 142.12 52.1457 142.057 52.2106 141.994Z" fill="white"/>
<path d="M45.0107 131.215C45.0618 130.992 45.1585 130.838 45.3007 130.753C45.4945 130.638 45.653 130.684 45.776 130.891C45.8413 131 45.8536 131.168 45.8127 131.394L44.7344 136.641L49.8603 138.199C49.9814 138.241 50.0773 138.284 50.148 138.33C50.2085 138.372 50.2579 138.426 50.2964 138.491C50.4155 138.691 50.3749 138.851 50.1746 138.97C50.0453 139.047 49.8654 139.053 49.6348 138.989L44.5611 137.453L43.57 142.649C43.537 142.843 43.4559 142.979 43.3266 143.056C43.2426 143.106 43.1542 143.119 43.0615 143.096C42.9649 143.066 42.8897 143.005 42.8359 142.915C42.759 142.786 42.7383 142.619 42.7739 142.414L43.7747 137.212L38.7264 135.608C38.537 135.555 38.402 135.46 38.3213 135.324C38.2674 135.234 38.2523 135.142 38.2759 135.05C38.2891 134.954 38.341 134.88 38.4315 134.826C38.5543 134.753 38.7104 134.743 38.8997 134.797L43.9384 136.406L45.0107 131.215Z" fill="white"/>
<path d="M33.5806 123.962C33.3747 123.317 33.2482 122.687 33.2013 122.07C33.1449 121.449 33.2093 120.872 33.3944 120.339C33.5771 119.799 33.8971 119.318 34.3542 118.896C34.8091 118.466 35.4412 118.122 36.2507 117.864C37.0529 117.608 37.7677 117.498 38.3951 117.534C39.0129 117.566 39.559 117.731 40.0332 118.029C40.5052 118.321 40.9149 118.738 41.2623 119.282C41.6004 119.822 41.8906 120.471 42.1331 121.23C42.3184 121.811 42.4531 122.356 42.537 122.866C42.6209 123.376 42.6732 123.848 42.6939 124.284C42.7051 124.714 42.693 125.109 42.6576 125.468C42.6222 125.826 42.5789 126.148 42.5277 126.433L46.4455 125.205C46.5387 125.175 46.6293 125.15 46.7176 125.13C46.8107 125.1 46.8977 125.088 46.9784 125.094C47.0592 125.1 47.1303 125.124 47.1915 125.168C47.2505 125.204 47.2972 125.276 47.3315 125.384C47.3658 125.491 47.367 125.582 47.3352 125.655C47.3082 125.719 47.2599 125.778 47.1903 125.831C47.1278 125.883 47.0476 125.928 46.9496 125.967C46.8565 125.997 46.7562 126.029 46.6488 126.064L36.1407 129.42C35.9115 129.493 35.7545 129.496 35.6697 129.428C35.5778 129.363 35.5158 129.28 35.4838 129.18C35.4449 129.058 35.4463 128.951 35.4879 128.859C35.5223 128.769 35.6541 128.687 35.8833 128.614L37.3016 128.161C36.9733 128.171 36.6649 128.108 36.3765 127.971C36.081 127.836 35.8098 127.655 35.563 127.426C35.309 127.199 35.0804 126.94 34.8772 126.65C34.6645 126.355 34.4769 126.052 34.3144 125.74C34.1495 125.422 34.006 125.109 33.8839 124.8C33.7617 124.492 33.6606 124.213 33.5806 123.962ZM34.2145 123.759C34.3589 124.187 34.5446 124.645 34.7715 125.133C34.9912 125.623 35.2542 126.076 35.5605 126.491C35.8668 126.906 36.2168 127.248 36.6106 127.517C37.0043 127.786 37.4474 127.913 37.9398 127.898L42.0657 126.58C42.0819 126.235 42.0949 125.868 42.1046 125.478C42.1048 125.084 42.0874 124.671 42.0524 124.24C42.0174 123.809 41.9565 123.359 41.8697 122.889C41.7828 122.42 41.6593 121.934 41.4992 121.433C41.2796 120.745 41.0203 120.181 40.7215 119.739C40.4204 119.291 40.0691 118.957 39.6676 118.738C39.2566 118.514 38.7955 118.405 38.2841 118.41C37.7633 118.411 37.177 118.515 36.5252 118.723C35.8519 118.938 35.3192 119.223 34.9271 119.577C34.5327 119.924 34.2555 120.317 34.0954 120.755C33.9353 121.192 33.8746 121.67 33.9133 122.186C33.9425 122.698 34.0429 123.222 34.2145 123.759Z" fill="white"/>
<path d="M39.0847 111.686C39.3004 111.654 39.4902 111.653 39.6541 111.682C39.8106 111.712 39.9025 111.82 39.9299 112.006C39.9463 112.117 39.9403 112.206 39.9119 112.271C39.876 112.337 39.8268 112.39 39.7642 112.429C39.6942 112.47 39.6151 112.501 39.527 112.521C39.4388 112.542 39.3426 112.56 39.2385 112.575L28.3699 114.176C28.2583 114.192 28.1536 114.204 28.0558 114.211C27.958 114.218 27.8734 114.211 27.8021 114.191C27.7222 114.165 27.6556 114.125 27.6021 114.072C27.5477 114.012 27.5122 113.926 27.4957 113.815C27.4826 113.725 27.4945 113.651 27.5315 113.593C27.5673 113.527 27.6203 113.473 27.6903 113.432C27.7603 113.392 27.8431 113.361 27.9387 113.339C28.0269 113.318 28.1193 113.301 28.216 113.287L39.0847 111.686Z" fill="white"/>
<path d="M39.381 102.084C39.3654 103.122 39.2507 103.996 39.037 104.707C38.8157 105.418 38.51 105.993 38.1199 106.431C37.7299 106.861 37.259 107.17 36.7072 107.357C36.1554 107.544 35.5336 107.632 34.8419 107.622C34.0449 107.61 33.3661 107.491 32.8055 107.264C32.2375 107.03 31.7727 106.681 31.4112 106.217C31.0498 105.745 30.7879 105.158 30.6255 104.457C30.4632 103.747 30.3893 102.911 30.4038 101.949C30.4183 100.987 30.5173 100.157 30.7007 99.4604C30.8843 98.7563 31.1637 98.1777 31.539 97.7246C31.9144 97.264 32.3895 96.9289 32.9642 96.7195C33.5315 96.5024 34.2136 96.3999 35.0106 96.4119C35.7023 96.4223 36.3211 96.5294 36.867 96.7331C37.4129 96.9368 37.8743 97.2634 38.251 97.7128C38.6279 98.1546 38.9163 98.7342 39.116 99.4517C39.3083 100.169 39.3966 101.046 39.381 102.084ZM38.7156 102.074C38.7259 101.39 38.6859 100.799 38.5956 100.301C38.4978 99.8033 38.3613 99.3802 38.1861 99.0316C38.0109 98.6755 37.8047 98.3904 37.5672 98.1762C37.3299 97.9546 37.0731 97.7815 36.7967 97.657C36.5129 97.5249 36.2209 97.4378 35.9208 97.3957C35.6132 97.3459 35.3053 97.3187 34.997 97.3141C34.2978 97.3036 33.7024 97.3849 33.211 97.558C32.7196 97.731 32.3169 98.007 32.0028 98.3858C31.6888 98.7646 31.4597 99.25 31.3154 99.8419C31.1636 100.434 31.0815 101.139 31.0692 101.959C31.0568 102.786 31.1175 103.498 31.2514 104.094C31.3779 104.682 31.5924 105.17 31.8949 105.559C32.1974 105.947 32.5916 106.235 33.0776 106.422C33.5636 106.61 34.1562 106.709 34.8555 106.72C35.1637 106.724 35.4723 106.71 35.7811 106.677C36.0825 106.637 36.377 106.558 36.6645 106.442C36.9446 106.319 37.2066 106.154 37.4503 105.947C37.6942 105.732 37.909 105.453 38.0946 105.11C38.2804 104.76 38.4296 104.337 38.5423 103.842C38.6476 103.348 38.7053 102.758 38.7156 102.074Z" fill="white"/>
<path d="M33.0606 84.2993C33.1001 84.2231 33.1568 84.1738 33.2309 84.1513C33.2976 84.1272 33.3677 84.123 33.4412 84.1388C33.5368 84.1594 33.6179 84.2114 33.6845 84.295C33.7528 84.3712 33.7734 84.4718 33.7466 84.5967C33.7387 84.6335 33.7339 84.6556 33.7323 84.6629C33.7234 84.6687 33.7113 84.6891 33.696 84.7243C33.5535 84.9936 33.4318 85.2559 33.3307 85.511C33.2313 85.7589 33.1484 86.0371 33.082 86.3459C32.9887 86.7796 32.9435 87.2045 32.9464 87.6204C32.9434 88.0274 32.9954 88.4116 33.1023 88.773C33.2034 89.1255 33.3646 89.4486 33.5861 89.7423C33.8001 90.0345 34.0746 90.2781 34.4095 90.4732L39.482 91.564C39.6731 91.6051 39.844 91.6688 39.9947 91.755C40.1453 91.8413 40.2009 91.9763 40.1614 92.1601C40.1393 92.263 40.099 92.3428 40.0407 92.3994C39.9839 92.4488 39.9156 92.4802 39.8358 92.4938C39.756 92.5074 39.6711 92.5084 39.5813 92.4968C39.4842 92.4836 39.3878 92.4667 39.2923 92.4462L32.235 90.9285C32.0659 90.8922 31.9288 90.8319 31.8239 90.7478C31.7115 90.6621 31.6783 90.5127 31.7242 90.2995C31.7589 90.1378 31.8399 90.0475 31.967 90.0287C32.0957 90.0025 32.2482 90.0084 32.4247 90.0464L33.7038 90.3214C33.2807 90.1074 32.9602 89.827 32.7425 89.4802C32.5264 89.1261 32.3828 88.7568 32.3117 88.3723C32.2347 87.9789 32.2109 87.5892 32.24 87.2032C32.2692 86.8172 32.3146 86.4808 32.3763 86.1941C32.4363 85.9148 32.4987 85.6782 32.5635 85.4845C32.6224 85.2818 32.6824 85.1101 32.7435 84.9694C32.7971 84.8271 32.8505 84.704 32.9036 84.6001C32.9568 84.4961 33.0091 84.3958 33.0606 84.2993Z" fill="white"/>
<path d="M36.7061 75.3371C36.4345 75.9815 36.2489 76.5765 36.1495 77.1221C36.0501 77.6677 36.0506 78.1698 36.1511 78.6283C36.2476 79.077 36.449 79.4801 36.7552 79.8377C37.0614 80.1953 37.4894 80.5062 38.0389 80.7705L41.3422 72.9338L40.781 72.6972C40.4345 72.5512 40.0811 72.4797 39.7207 72.4829C39.3633 72.4791 39.0089 72.5745 38.6576 72.7691C38.3063 72.9638 37.9655 73.2689 37.6352 73.6846C37.3049 74.1003 36.9952 74.6511 36.7061 75.3371ZM43.5251 78.8479C43.8026 78.1896 44.0034 77.597 44.1276 77.07C44.2518 76.543 44.3295 76.078 44.3607 75.6749C44.3919 75.2719 44.3918 74.9332 44.3605 74.6589C44.3322 74.3777 44.3028 74.1572 44.2722 73.9974C44.2758 73.95 44.2806 73.9194 44.2864 73.9055C44.3186 73.8293 44.3859 73.7761 44.4884 73.7458C44.5869 73.7058 44.6777 73.7032 44.7609 73.7383C44.8371 73.7704 44.8848 73.8314 44.9041 73.9211C44.9402 74.0097 44.9803 74.1857 45.0243 74.4491C45.0712 74.7055 45.0837 75.0535 45.0616 75.493C45.0326 75.9296 44.9518 76.4504 44.8192 77.0555C44.6865 77.6606 44.4581 78.3477 44.1339 79.1168C43.7951 79.9205 43.407 80.5607 42.9694 81.0372C42.5319 81.5138 42.0585 81.8528 41.5493 82.0543C41.04 82.2558 40.4989 82.3297 39.9259 82.2758C39.3529 82.222 38.765 82.068 38.1622 81.8139C37.3584 81.4751 36.7438 81.0651 36.3183 80.5838C35.8928 80.1025 35.6142 79.573 35.4824 78.9952C35.3466 78.4075 35.3399 77.7845 35.4623 77.1262C35.5877 76.461 35.7979 75.7784 36.0929 75.0786C36.7004 73.6374 37.4317 72.6767 38.2869 72.1967C39.138 71.7068 40.0763 71.678 41.1018 72.1103C41.1988 72.1512 41.3033 72.2034 41.4153 72.2669C41.5272 72.3304 41.6328 72.3994 41.732 72.4738C41.8271 72.5384 41.9055 72.6041 41.9671 72.6709C42.0247 72.7278 42.0477 72.7701 42.036 72.7978L40.748 75.8535L38.4711 80.9649C39.1213 81.2227 39.7037 81.3703 40.2184 81.4077C40.729 81.4352 41.1892 81.3599 41.5989 81.1817C42.0045 80.9936 42.3667 80.7056 42.6852 80.3177C42.9969 79.9268 43.2768 79.4369 43.5251 78.8479Z" fill="white"/>
<path d="M57.6124 49.7482C58.4055 50.5072 58.9838 51.2896 59.3472 52.0953C59.7103 52.8904 59.8509 53.7223 59.769 54.591C59.6922 55.4542 59.3903 56.357 58.8632 57.2993C58.3359 58.2309 57.5783 59.2129 56.5905 60.245C55.6027 61.2772 54.6524 62.0799 53.7396 62.6531C52.8266 63.2156 51.9405 63.5541 51.0815 63.6688C50.2224 63.7834 49.3852 63.6794 48.5697 63.357C47.754 63.0239 46.9496 62.4778 46.1564 61.7188C45.3633 60.9597 44.7851 60.1826 44.422 59.3876C44.0586 58.5818 43.9153 57.7473 43.992 56.8841C44.0688 56.0208 44.3708 55.1234 44.8981 54.1917C45.4252 53.2494 46.1827 52.2622 47.1705 51.23C48.1583 50.1978 49.1087 49.4005 50.0217 48.838C50.9345 48.2648 51.8205 47.9209 52.6795 47.8063C53.5438 47.6863 54.3837 47.7928 55.1994 48.1259C56.0149 48.4484 56.8192 48.9891 57.6124 49.7482ZM46.8193 61.0261C47.5798 61.754 48.3276 62.2614 49.0625 62.5484C49.7974 62.8354 50.5412 62.9228 51.294 62.8105C52.0465 62.6876 52.8159 62.3675 53.6023 61.8503C54.3833 61.3279 55.2 60.6213 56.0527 59.7303C56.9053 58.8394 57.5754 57.9924 58.063 57.1892C58.5452 56.3809 58.8311 55.5981 58.9209 54.841C59.0052 54.0786 58.8878 53.3366 58.5688 52.615C58.2498 51.8934 57.71 51.1687 56.9495 50.4408C56.1944 49.7181 55.4493 49.2133 54.7144 48.9263C53.9741 48.6341 53.2277 48.5495 52.4752 48.6724C51.7172 48.7901 50.9478 49.1101 50.1668 49.6325C49.3804 50.1497 48.5609 50.8538 47.7083 51.7447C46.8557 52.6357 46.1883 53.4853 45.7061 54.2936C45.2185 55.0968 44.9326 55.8795 44.8483 56.6419C44.7637 57.3936 44.8837 58.1329 45.2081 58.8597C45.5271 59.5813 46.0642 60.3035 46.8193 61.0261Z" fill="white"/>
<path d="M72.1836 46.1854C72.1439 46.4277 72.0693 46.6995 71.9598 47.0008C71.8529 47.2918 71.6866 47.6006 71.4609 47.9273C71.2416 48.2501 70.954 48.5829 70.598 48.9258C70.2381 49.2622 69.7867 49.5919 69.2438 49.9146C68.5522 50.3258 67.9224 50.6128 67.3543 50.7756C66.7889 50.928 66.2684 50.9575 65.7929 50.8641C65.3136 50.7641 64.8741 50.5399 64.4745 50.1914C64.071 49.8364 63.6867 49.3519 63.3216 48.7379L61.3272 45.3834C61.2773 45.2994 61.2306 45.2135 61.1871 45.1256C61.15 45.0339 61.1252 44.948 61.1127 44.868C61.1001 44.788 61.1081 44.7133 61.1368 44.6437C61.1616 44.5678 61.216 44.5048 61.3 44.4548C61.397 44.3972 61.4848 44.3756 61.5634 44.3901C61.6381 44.3982 61.7044 44.4287 61.7622 44.4818C61.8265 44.5311 61.8869 44.5958 61.9433 44.676C61.9997 44.7562 62.0529 44.8383 62.1028 44.9223L64.0972 48.2768C64.42 48.8197 64.7362 49.2485 65.0457 49.5631C65.3552 49.8777 65.6903 50.0809 66.0511 50.1726C66.4182 50.2605 66.8297 50.2389 67.2854 50.1079C67.7438 49.9666 68.2832 49.7115 68.9037 49.3426C69.3562 49.0736 69.75 48.787 70.0852 48.4827C70.4269 48.1746 70.7215 47.8682 70.9691 47.5636C71.2127 47.2525 71.4164 46.9477 71.5801 46.6491C71.7438 46.3506 71.8771 46.0745 71.98 45.8209L69.0057 40.8183C68.9558 40.7342 68.909 40.6483 68.8656 40.5604C68.8221 40.4726 68.7908 40.3905 68.7718 40.3144C68.7592 40.2344 68.764 40.1615 68.7862 40.0959C68.811 40.0199 68.8654 39.9569 68.9494 39.9069C69.0464 39.8493 69.1342 39.8277 69.2128 39.8422C69.294 39.8464 69.3667 39.8732 69.431 39.9224C69.5018 39.9678 69.5653 40.0306 69.6218 40.1108C69.6782 40.191 69.7314 40.2731 69.7813 40.3571L73.3781 46.4068C73.4281 46.4909 73.4716 46.5787 73.5086 46.6704C73.5483 46.7519 73.5744 46.8326 73.5869 46.9126C73.5995 46.9926 73.5915 47.0673 73.5628 47.1369C73.5406 47.2025 73.4908 47.2584 73.4132 47.3045C73.2322 47.4121 73.0813 47.4231 72.9604 47.3375C72.8422 47.2416 72.7369 47.1161 72.6447 46.961L72.5928 46.8737L72.1836 46.1854Z" fill="white"/>
<path d="M81.0132 35.1226C81.0986 35.1157 81.1705 35.1378 81.2288 35.1887C81.2846 35.2325 81.3253 35.2898 81.3508 35.3605C81.3839 35.4525 81.3827 35.5489 81.3471 35.6496C81.3186 35.7478 81.2442 35.8186 81.1239 35.862C81.0886 35.8747 81.0673 35.8824 81.0603 35.8849C81.0506 35.8804 81.0269 35.881 80.9889 35.8867C80.685 35.9083 80.3981 35.9439 80.1281 35.9932C79.8652 36.0401 79.5853 36.1171 79.2882 36.2242C78.8708 36.3747 78.4865 36.5612 78.1351 36.7838C77.7882 36.9968 77.4898 37.2443 77.2398 37.5263C76.9943 37.7987 76.8055 38.1066 76.6736 38.4499C76.539 38.7862 76.4777 39.148 76.4895 39.5354L78.2494 44.4162C78.3157 44.6001 78.3522 44.7788 78.3588 44.9523C78.3654 45.1258 78.2803 45.2444 78.1034 45.3082C78.0044 45.3439 77.9154 45.352 77.8364 45.3325C77.7645 45.3105 77.7017 45.2692 77.6479 45.2086C77.5941 45.1481 77.5483 45.0767 77.5107 44.9943C77.4704 44.9049 77.4337 44.8143 77.4006 44.7223L74.952 37.9316C74.8933 37.7689 74.8719 37.6208 74.8876 37.4872C74.9009 37.3466 75.01 37.2392 75.2152 37.1653C75.3708 37.1092 75.4902 37.13 75.5735 37.2279C75.6638 37.3232 75.7396 37.4558 75.8008 37.6256L76.2446 38.8564C76.2022 38.3841 76.2705 37.9638 76.4494 37.5955C76.6354 37.2247 76.8727 36.9073 77.1612 36.6434C77.4543 36.3699 77.7722 36.1433 78.1151 35.9637C78.458 35.7841 78.7674 35.6446 79.0433 35.5451C79.3121 35.4482 79.5458 35.3759 79.7445 35.3283C79.9476 35.271 80.125 35.231 80.2767 35.2083C80.4258 35.1785 80.5585 35.1586 80.6749 35.1486C80.7912 35.1387 80.9039 35.13 81.0132 35.1226Z" fill="white"/>
<path d="M105.384 39.2516L105.093 28.9917C105.09 28.879 105.091 28.7737 105.096 28.6757C105.1 28.5703 105.117 28.4796 105.145 28.4035C105.18 28.3198 105.227 28.2545 105.286 28.2077C105.352 28.1532 105.441 28.1243 105.554 28.1211C105.749 28.1156 105.88 28.1984 105.945 28.3696C106.01 28.5332 106.045 28.7316 106.052 28.9646L106.363 39.9461C106.377 40.4271 106.256 40.6713 106 40.6785C105.827 40.6834 105.61 40.573 105.348 40.3472L93.4183 29.9094L93.711 40.2369C93.7172 40.4549 93.6887 40.6438 93.6255 40.8035C93.5696 40.9555 93.4515 41.0341 93.2711 41.0392C93.0531 41.0454 92.9119 40.9742 92.8476 40.8256C92.7905 40.6692 92.7588 40.482 92.7527 40.2641L92.4399 29.2262C92.4335 29.0007 92.4699 28.8267 92.5492 28.7041C92.6284 28.5815 92.7395 28.5181 92.8823 28.5141C93.0702 28.5088 93.2914 28.6153 93.5458 28.8338L105.384 39.2516Z" fill="white"/>
<path d="M117.128 34.4245C116.446 34.2708 115.827 34.193 115.273 34.1914C114.718 34.1897 114.224 34.2788 113.79 34.4585C113.366 34.6326 113.004 34.9019 112.706 35.2664C112.408 35.6309 112.178 36.1069 112.014 36.6945L120.311 38.5642L120.445 37.9701C120.527 37.6033 120.535 37.2428 120.469 36.8887C120.409 36.5361 120.253 36.2041 120 35.8926C119.746 35.5811 119.386 35.2995 118.918 35.0477C118.451 34.7959 117.854 34.5882 117.128 34.4245ZM114.874 41.7557C115.571 41.9128 116.19 42.006 116.731 42.0353C117.271 42.0647 117.743 42.0591 118.145 42.0188C118.547 41.9784 118.88 41.9186 119.145 41.8395C119.417 41.762 119.629 41.6941 119.78 41.6358C119.828 41.6311 119.859 41.6304 119.873 41.6337C119.954 41.6519 120.018 41.7087 120.066 41.8043C120.123 41.8942 120.142 41.9831 120.122 42.0712C120.103 42.1519 120.052 42.2096 119.967 42.2444C119.886 42.2956 119.72 42.366 119.468 42.4558C119.224 42.5472 118.884 42.6208 118.447 42.6766C118.013 42.7251 117.486 42.7374 116.867 42.7135C116.248 42.6896 115.531 42.5859 114.717 42.4024C113.866 42.2106 113.167 41.9414 112.621 41.5948C112.075 41.2482 111.658 40.842 111.37 40.3762C111.082 39.9104 110.913 39.3908 110.865 38.8173C110.817 38.2438 110.865 37.6379 111.009 36.9998C111.201 36.1488 111.496 35.4716 111.895 34.9679C112.294 34.4642 112.766 34.0966 113.311 33.865C113.866 33.6277 114.478 33.5112 115.147 33.5157C115.824 33.5218 116.533 33.6083 117.274 33.7753C118.8 34.1192 119.874 34.6697 120.498 35.4268C121.13 36.1782 121.324 37.0968 121.079 38.1824C121.056 38.2851 121.023 38.3971 120.98 38.5185C120.937 38.6399 120.888 38.756 120.832 38.8668C120.785 38.9718 120.735 39.0606 120.68 39.133C120.634 39.1998 120.596 39.2298 120.567 39.2232L117.332 38.4941L111.899 37.1541C111.76 37.8396 111.718 38.439 111.772 38.9521C111.834 39.4596 111.99 39.8993 112.237 40.2711C112.494 40.6373 112.841 40.943 113.279 41.1882C113.719 41.426 114.251 41.6152 114.874 41.7557Z" fill="white"/>
<path d="M131.948 47.6414L137.26 42.26C137.387 42.1381 137.506 42.0667 137.617 42.0458C137.728 42.0249 137.827 42.036 137.915 42.0792C138.023 42.1323 138.096 42.2226 138.133 42.3501C138.181 42.4742 138.17 42.6071 138.101 42.7488C138.051 42.85 138.001 42.9176 137.951 42.9516L132.331 48.3451C132.177 48.4874 132.023 48.5792 131.869 48.6205C131.721 48.6652 131.59 48.6593 131.475 48.6029C131.347 48.5398 131.259 48.4462 131.211 48.3221C131.166 48.1913 131.159 48.0114 131.187 47.7825L132.082 40.3667L126.754 45.6019C126.584 45.7611 126.43 45.8613 126.292 45.9026C126.158 45.9371 126.037 45.9278 125.929 45.8746C125.666 45.7452 125.56 45.4668 125.611 45.0394L126.453 37.2959C126.45 37.2354 126.473 37.1546 126.522 37.0534C126.592 36.9117 126.687 36.8203 126.808 36.7791C126.939 36.7346 127.058 36.7388 127.166 36.7919C127.254 36.8351 127.323 36.9069 127.375 37.0075C127.426 37.108 127.442 37.2458 127.423 37.4208L126.402 44.9132L131.644 39.6734C131.945 39.3688 132.24 39.2878 132.53 39.4306C132.659 39.4936 132.757 39.6006 132.825 39.7515C132.903 39.8989 132.928 40.0787 132.899 40.2907L131.948 47.6414Z" fill="white"/>
<path d="M160.075 56.8964C159.966 57.0004 159.862 57.0274 159.762 56.9773C159.667 56.9221 159.563 56.8347 159.448 56.7152L155.088 52.161L147.153 59.7583C147.071 59.8363 146.993 59.9064 146.917 59.9686C146.841 60.0308 146.76 60.0769 146.675 60.1069C146.599 60.1372 146.525 60.1462 146.451 60.134C146.376 60.1217 146.3 60.0748 146.222 59.9934C146.087 59.8522 146.056 59.6999 146.129 59.5366C146.212 59.3736 146.332 59.2166 146.49 59.0658L154.425 51.4685L150.057 46.906C149.943 46.7865 149.855 46.673 149.793 46.5652C149.742 46.4578 149.771 46.352 149.88 46.248C149.961 46.17 150.039 46.1318 150.114 46.1335C150.194 46.1299 150.268 46.1474 150.336 46.1862C150.409 46.2303 150.48 46.2877 150.548 46.3583C150.626 46.4291 150.696 46.4971 150.759 46.5623L159.815 56.0212C159.893 56.1026 159.963 56.1813 160.025 56.2571C160.092 56.3277 160.142 56.3952 160.172 56.4597C160.208 56.5296 160.219 56.6017 160.207 56.6759C160.2 56.7449 160.156 56.8184 160.075 56.8964Z" fill="white"/>
<path d="M163.35 68.7257C163.375 68.8078 163.368 68.8827 163.331 68.9505C163.3 69.0143 163.252 69.0661 163.189 69.106C163.106 69.1578 163.011 69.1769 162.905 69.1634C162.803 69.1562 162.718 69.0985 162.651 68.9901C162.631 68.9582 162.619 68.9391 162.615 68.9327C162.617 68.9224 162.611 68.8992 162.598 68.8634C162.513 68.5709 162.417 68.2979 162.312 68.0445C162.211 67.7974 162.076 67.54 161.909 67.2722C161.674 66.896 161.41 66.5597 161.118 66.2633C160.837 65.9692 160.532 65.7298 160.204 65.5449C159.886 65.3625 159.545 65.243 159.181 65.1864C158.824 65.1259 158.458 65.1424 158.081 65.2357L153.682 67.9865C153.516 68.0901 153.349 68.1635 153.181 68.2065C153.013 68.2496 152.879 68.1915 152.78 68.0321C152.724 67.9428 152.697 67.8575 152.699 67.7762C152.706 67.7013 152.733 67.6312 152.781 67.5658C152.828 67.5004 152.889 67.4406 152.961 67.3864C153.04 67.3282 153.121 67.2732 153.204 67.2214L159.324 63.3942C159.471 63.3025 159.611 63.2503 159.745 63.2375C159.886 63.2208 160.013 63.3048 160.129 63.4897C160.217 63.63 160.222 63.7511 160.144 63.8532C160.069 63.9616 159.956 64.0636 159.803 64.1593L158.693 64.853C159.146 64.7118 159.571 64.6898 159.969 64.787C160.371 64.8905 160.731 65.0554 161.05 65.2817C161.379 65.5104 161.668 65.7734 161.916 66.0706C162.164 66.3679 162.365 66.6408 162.521 66.8895C162.672 67.1317 162.792 67.3449 162.881 67.529C162.98 67.7155 163.056 67.8805 163.111 68.024C163.171 68.1634 163.219 68.289 163.253 68.4005C163.287 68.5121 163.32 68.6205 163.35 68.7257Z" fill="white"/>
<path d="M160.128 75.6931C159.791 75.8226 159.539 76.016 159.372 76.2735C159.208 76.538 159.111 76.8529 159.083 77.2184C159.054 77.5839 159.085 77.9907 159.177 78.4388C159.278 78.8912 159.426 79.3702 159.62 79.8755C159.858 80.4932 160.11 81.0245 160.378 81.4694C160.653 81.9117 160.925 82.2861 161.196 82.5929C161.467 82.8996 161.727 83.1461 161.976 83.3324C162.232 83.5161 162.464 83.6603 162.674 83.7651L164.79 82.9519C164.619 82.2122 164.431 81.4507 164.226 80.6673C164.029 79.8812 163.783 79.1056 163.489 78.3405C163.282 77.8001 163.064 77.3279 162.836 76.924C162.611 76.5271 162.365 76.211 162.097 75.9755C161.829 75.74 161.533 75.5963 161.207 75.5444C160.887 75.4898 160.528 75.5393 160.128 75.6931ZM167.143 78.1327C166.884 77.4589 166.646 76.8901 166.427 76.4262C166.208 75.9624 166.005 75.5694 165.817 75.247C165.631 74.9317 165.462 74.6703 165.31 74.463C165.158 74.2556 165.017 74.0763 164.886 73.9251C164.854 73.8409 164.866 73.7475 164.923 73.645C164.98 73.5424 165.058 73.4722 165.157 73.4345C165.248 73.3994 165.331 73.4159 165.405 73.4839C165.455 73.5293 165.55 73.6416 165.692 73.8209C165.836 74.0072 166.011 74.2742 166.217 74.622C166.433 74.974 166.672 75.4179 166.934 75.9535C167.199 76.4961 167.477 77.1465 167.768 77.9045C167.906 78.2625 168.018 78.6264 168.103 78.9962C168.196 79.3634 168.242 79.7243 168.241 80.079C168.243 80.4407 168.19 80.7954 168.082 81.143C167.977 81.4977 167.792 81.8345 167.528 82.1535C167.274 82.4768 166.93 82.7863 166.495 83.082C166.068 83.375 165.535 83.6442 164.897 83.8897L161.864 85.0548C161.78 85.0872 161.695 85.1161 161.608 85.1414C161.521 85.1668 161.432 85.1767 161.341 85.1713C161.26 85.1702 161.184 85.151 161.114 85.1137C161.05 85.0738 160.999 85.0046 160.962 84.9064C160.9 84.7449 160.93 84.6043 161.053 84.4845C161.179 84.3717 161.354 84.2722 161.579 84.1859L162.305 83.9067C162.076 83.8337 161.823 83.7214 161.547 83.5696C161.272 83.4178 160.987 83.201 160.693 82.9191C160.407 82.6345 160.119 82.2738 159.83 81.8369C159.549 81.3974 159.282 80.8512 159.032 80.1985C158.797 79.5878 158.621 78.9947 158.505 78.4192C158.391 77.8507 158.356 77.3286 158.399 76.853C158.444 76.3844 158.577 75.975 158.797 75.6247C159.026 75.2787 159.362 75.0207 159.804 74.8508C160.317 74.6539 160.782 74.596 161.199 74.6771C161.627 74.7625 162.015 74.9557 162.365 75.2565C162.721 75.5546 163.038 75.9401 163.317 76.4132C163.598 76.8932 163.852 77.428 164.078 78.0176C164.248 78.4598 164.4 78.9087 164.535 79.3644C164.68 79.8244 164.797 80.2666 164.888 80.691C164.985 81.1126 165.052 81.5059 165.088 81.8709C165.133 82.2402 165.139 82.5601 165.106 82.8305C165.822 82.5554 166.361 82.2395 166.723 81.8827C167.086 81.526 167.326 81.1438 167.443 80.7363C167.567 80.326 167.588 79.899 167.506 79.4552C167.434 79.0157 167.313 78.5749 167.143 78.1327Z" fill="white"/>
<path d="M164.356 99.0626C164.259 99.0763 164.161 99.0826 164.062 99.0815C163.963 99.0803 163.874 99.0664 163.794 99.0398C163.715 99.0206 163.646 98.9849 163.585 98.9327C163.532 98.8795 163.499 98.8082 163.487 98.7189C163.471 98.6072 163.481 98.5184 163.517 98.4525C163.562 98.393 163.619 98.3431 163.689 98.3027C163.76 98.2624 163.843 98.2316 163.938 98.2104C164.035 98.1967 164.132 98.1829 164.229 98.1692L168.093 97.6205C168.673 97.538 169.173 97.4215 169.592 97.2708C170.012 97.1276 170.346 96.9094 170.593 96.6161C170.848 96.3292 171.015 95.9523 171.093 95.4856C171.172 95.0262 171.161 94.4392 171.059 93.7245C170.997 93.2853 170.894 92.8253 170.75 92.3445C170.613 91.8627 170.423 91.4111 170.181 90.9898C169.947 90.5674 169.66 90.2056 169.321 89.9044C168.982 89.6031 168.583 89.4167 168.125 89.3451L163.077 90.0619C162.981 90.0756 162.883 90.0856 162.785 90.0919C162.688 90.0982 162.599 90.0918 162.521 90.0726C162.442 90.0534 162.372 90.0177 162.312 89.9655C162.26 89.9198 162.227 89.8522 162.215 89.7629C162.2 89.6586 162.21 89.5699 162.245 89.4965C162.289 89.4295 162.345 89.3722 162.414 89.3244C162.485 89.284 162.567 89.2495 162.662 89.2209C162.758 89.1997 162.854 89.1822 162.951 89.1685L170.187 88.1409C170.313 88.1229 170.432 88.1326 170.544 88.1699C170.663 88.2062 170.738 88.3285 170.767 88.537C170.794 88.7231 170.758 88.8459 170.66 88.9054C170.571 88.9712 170.455 89.0142 170.314 89.0343L168.907 89.2341C169.413 89.3749 169.834 89.6113 170.169 89.9434C170.513 90.2744 170.786 90.6494 170.99 91.0686C171.202 91.4941 171.363 91.9308 171.472 92.3786C171.582 92.8338 171.664 93.2513 171.718 93.631C171.833 94.435 171.857 95.1188 171.793 95.6823C171.737 96.2523 171.573 96.7275 171.301 97.108C171.029 97.4959 170.639 97.7981 170.131 98.0146C169.631 98.2375 168.994 98.4039 168.219 98.5139L164.356 99.0626Z" fill="white"/>
<path d="M165.213 112.8C165.61 112.834 165.929 112.717 166.171 112.451C166.412 112.192 166.601 111.835 166.737 111.379C166.881 110.93 166.989 110.411 167.062 109.821C167.142 109.239 167.215 108.642 167.282 108.029C167.356 107.424 167.441 106.827 167.536 106.239C167.638 105.659 167.784 105.143 167.973 104.692C168.169 104.248 168.422 103.896 168.731 103.635C169.047 103.383 169.456 103.278 169.958 103.321C170.474 103.365 170.886 103.539 171.192 103.844C171.498 104.157 171.728 104.55 171.884 105.024C172.04 105.497 172.131 106.026 172.157 106.609C172.183 107.192 172.171 107.784 172.12 108.383C172.036 109.365 171.876 110.272 171.639 111.104C171.41 111.938 171.074 112.702 170.63 113.396C170.586 113.468 170.533 113.512 170.471 113.53C170.416 113.555 170.359 113.569 170.298 113.571C170.201 113.563 170.117 113.526 170.047 113.46C169.977 113.393 169.946 113.323 169.952 113.248C169.956 113.203 169.966 113.173 169.982 113.16C170.358 112.55 170.674 111.849 170.931 111.056C171.193 110.27 171.368 109.376 171.453 108.372C171.496 107.862 171.504 107.365 171.478 106.88C171.458 106.395 171.39 105.959 171.272 105.572C171.161 105.193 170.991 104.88 170.763 104.634C170.542 104.389 170.248 104.251 169.881 104.22C169.507 104.188 169.206 104.302 168.98 104.562C168.754 104.83 168.573 105.188 168.436 105.637C168.307 106.093 168.206 106.613 168.134 107.196C168.061 107.786 167.988 108.383 167.914 108.988C167.839 109.601 167.747 110.196 167.638 110.776C167.535 111.363 167.382 111.878 167.178 112.322C166.981 112.773 166.717 113.124 166.387 113.375C166.063 113.634 165.646 113.742 165.137 113.699C164.68 113.66 164.306 113.485 164.015 113.174C163.725 112.862 163.502 112.462 163.348 111.974C163.2 111.486 163.108 110.927 163.071 110.297C163.041 109.676 163.054 109.036 163.11 108.376C163.144 107.972 163.193 107.534 163.255 107.064C163.31 106.601 163.391 106.136 163.498 105.67C163.613 105.212 163.759 104.771 163.939 104.349C164.125 103.935 164.359 103.577 164.641 103.277C164.732 103.179 164.834 103.135 164.947 103.144C165.044 103.152 165.124 103.186 165.187 103.244C165.257 103.31 165.288 103.384 165.281 103.467C165.276 103.527 165.257 103.57 165.225 103.598C164.981 103.894 164.776 104.216 164.611 104.564C164.445 104.92 164.307 105.297 164.198 105.695C164.088 106.094 164 106.512 163.933 106.952C163.873 107.392 163.822 107.848 163.782 108.32C163.735 108.882 163.715 109.424 163.724 109.945C163.739 110.475 163.797 110.944 163.898 111.352C164.006 111.769 164.163 112.107 164.367 112.366C164.579 112.625 164.861 112.77 165.213 112.8Z" fill="white"/>
<path d="M164.227 118.541C163.883 118.431 163.566 118.424 163.274 118.52C162.981 118.623 162.708 118.808 162.456 119.075C162.205 119.342 161.975 119.678 161.765 120.085C161.56 120.501 161.375 120.967 161.21 121.482C161.008 122.112 160.872 122.685 160.801 123.199C160.738 123.716 160.716 124.179 160.735 124.587C160.754 124.996 160.802 125.351 160.879 125.652C160.963 125.956 161.054 126.214 161.151 126.427L163.31 127.12C163.64 126.436 163.971 125.725 164.303 124.986C164.642 124.25 164.936 123.492 165.187 122.711C165.364 122.16 165.49 121.656 165.566 121.198C165.639 120.748 165.645 120.347 165.584 119.996C165.523 119.645 165.382 119.347 165.161 119.102C164.946 118.859 164.635 118.672 164.227 118.541ZM168.164 124.839C168.385 124.152 168.555 123.559 168.676 123.061C168.796 122.563 168.884 122.129 168.939 121.76C168.992 121.398 169.024 121.088 169.036 120.831C169.047 120.574 169.049 120.346 169.042 120.146C169.07 120.06 169.138 119.995 169.247 119.951C169.356 119.907 169.461 119.901 169.561 119.933C169.654 119.963 169.708 120.028 169.724 120.128C169.734 120.194 169.738 120.342 169.736 120.57C169.731 120.805 169.7 121.123 169.643 121.523C169.59 121.933 169.498 122.429 169.367 123.01C169.233 123.599 169.042 124.28 168.794 125.054C168.677 125.419 168.536 125.772 168.371 126.114C168.213 126.458 168.023 126.768 167.8 127.044C167.575 127.327 167.311 127.571 167.009 127.774C166.705 127.984 166.35 128.131 165.944 128.214C165.543 128.306 165.081 128.332 164.557 128.29C164.041 128.251 163.457 128.126 162.805 127.917L159.712 126.925C159.626 126.897 159.541 126.866 159.458 126.831C159.374 126.796 159.299 126.748 159.232 126.687C159.169 126.636 159.122 126.573 159.09 126.5C159.066 126.429 159.07 126.343 159.102 126.243C159.155 126.078 159.267 125.988 159.438 125.972C159.606 125.963 159.805 125.995 160.034 126.068L160.775 126.306C160.642 126.106 160.516 125.86 160.396 125.569C160.276 125.277 160.19 124.93 160.138 124.526C160.093 124.125 160.095 123.664 160.144 123.142C160.2 122.623 160.335 122.031 160.549 121.365C160.749 120.742 160.984 120.17 161.254 119.648C161.521 119.134 161.821 118.705 162.152 118.361C162.482 118.025 162.842 117.789 163.232 117.654C163.628 117.528 164.052 117.537 164.503 117.682C165.025 117.85 165.424 118.096 165.699 118.421C165.978 118.756 166.16 119.15 166.243 119.603C166.334 120.059 166.34 120.558 166.26 121.101C166.178 121.651 166.041 122.227 165.848 122.829C165.703 123.28 165.54 123.725 165.36 124.165C165.184 124.614 164.999 125.032 164.803 125.419C164.615 125.809 164.42 126.157 164.219 126.464C164.023 126.78 163.827 127.033 163.632 127.223C164.362 127.457 164.981 127.549 165.486 127.498C165.992 127.447 166.419 127.3 166.766 127.056C167.12 126.814 167.404 126.495 167.618 126.098C167.837 125.71 168.019 125.291 168.164 124.839Z" fill="white"/>
<path d="M161.643 139.11C162.081 138.365 162.393 137.693 162.578 137.096C162.764 136.499 162.82 135.951 162.746 135.454C162.674 134.967 162.474 134.522 162.144 134.119C161.814 133.716 161.354 133.341 160.764 132.994C160.168 132.643 159.613 132.43 159.099 132.355C158.581 132.286 158.092 132.347 157.63 132.538C157.165 132.736 156.722 133.059 156.3 133.509C155.879 133.959 155.464 134.531 155.056 135.225C154.873 135.536 154.711 135.863 154.57 136.208C154.425 136.559 154.299 136.899 154.192 137.229C154.092 137.562 154.011 137.877 153.951 138.173C153.89 138.469 153.853 138.717 153.839 138.919C153.815 139.035 153.791 139.113 153.768 139.151C153.718 139.236 153.654 139.285 153.576 139.3C153.5 139.325 153.426 139.317 153.355 139.275C153.303 139.245 153.258 139.196 153.218 139.129C153.186 139.066 153.171 138.988 153.174 138.894C153.218 138.152 153.36 137.442 153.602 136.764C153.85 136.09 154.141 135.467 154.477 134.897C154.911 134.158 155.366 133.518 155.841 132.978C156.312 132.443 156.821 132.045 157.368 131.782C157.911 131.526 158.5 131.422 159.134 131.472C159.767 131.522 160.463 131.77 161.222 132.216C161.973 132.658 162.534 133.136 162.904 133.65C163.273 134.164 163.483 134.719 163.534 135.316C163.591 135.916 163.502 136.557 163.266 137.239C163.028 137.927 162.678 138.663 162.216 139.448C161.881 140.018 161.476 140.574 161.001 141.114C160.533 141.659 159.985 142.131 159.358 142.529C159.277 142.578 159.198 142.601 159.12 142.599C159.049 142.601 158.988 142.587 158.936 142.556C158.865 142.514 158.819 142.452 158.797 142.37C158.779 142.298 158.794 142.22 158.843 142.136C158.866 142.097 158.923 142.038 159.012 141.96C159.181 141.85 159.381 141.697 159.61 141.5C159.839 141.303 160.071 141.078 160.308 140.825C160.551 140.575 160.79 140.301 161.026 140.004C161.258 139.713 161.464 139.415 161.643 139.11Z" fill="white"/>
<path d="M153.111 150.992C153.037 151.077 152.96 151.121 152.881 151.121C152.801 151.132 152.736 151.116 152.685 151.072C152.634 151.028 152.605 150.963 152.598 150.878C152.593 150.804 152.627 150.724 152.7 150.639L155.143 147.8L151.518 144.681C151.102 144.323 150.729 144.076 150.399 143.941C150.069 143.806 149.771 143.748 149.506 143.768C149.236 143.794 148.992 143.881 148.774 144.031C148.556 144.191 148.352 144.383 148.161 144.605C147.926 144.878 147.743 145.188 147.615 145.534C147.486 145.879 147.366 146.301 147.254 146.8C147.229 146.898 147.19 146.978 147.136 147.041C147.072 147.115 147 147.153 146.92 147.153C146.841 147.165 146.77 147.143 146.708 147.089C146.594 146.991 146.556 146.85 146.596 146.666C146.671 146.314 146.749 146.009 146.831 145.752C146.908 145.501 146.993 145.276 147.085 145.078C147.171 144.884 147.27 144.706 147.381 144.543C147.491 144.381 147.617 144.216 147.76 144.051C148.024 143.743 148.315 143.492 148.631 143.298C148.942 143.109 149.277 142.996 149.637 142.959C149.998 142.932 150.384 142.996 150.795 143.152C151.208 143.318 151.645 143.6 152.106 143.997L155.731 147.116L156.379 146.364C156.447 146.284 156.519 146.242 156.593 146.236C156.673 146.235 156.739 146.257 156.79 146.301C156.841 146.345 156.87 146.405 156.875 146.479C156.887 146.558 156.858 146.637 156.789 146.717L156.142 147.47L158.271 149.301C158.453 149.458 158.535 149.593 158.517 149.707C158.505 149.825 158.464 149.924 158.395 150.004C158.312 150.101 158.218 150.158 158.112 150.177C158.008 150.206 157.864 150.142 157.682 149.985L155.553 148.154L153.111 150.992Z" fill="white"/>
<path d="M143.576 149.445C143.51 149.373 143.45 149.301 143.394 149.23C143.344 149.164 143.307 149.096 143.283 149.025C143.259 148.966 143.256 148.902 143.275 148.834C143.294 148.765 143.345 148.693 143.428 148.617C143.584 148.474 143.721 148.435 143.841 148.499C143.96 148.562 144.094 148.674 144.241 148.835L149.137 154.17C149.264 154.309 149.354 154.446 149.407 154.581C149.46 154.716 149.409 154.855 149.253 154.997C149.115 155.125 148.983 155.153 148.859 155.084C148.728 155.02 148.605 154.924 148.488 154.797L143.576 149.445ZM151.434 156.456C151.551 156.584 151.606 156.727 151.599 156.886C151.597 157.051 151.533 157.192 151.405 157.309C151.278 157.426 151.129 157.481 150.959 157.473C150.794 157.472 150.653 157.407 150.537 157.28C150.42 157.152 150.37 157.009 150.387 156.85C150.405 156.691 150.477 156.553 150.605 156.436C150.732 156.32 150.873 156.262 151.027 156.263C151.182 156.264 151.317 156.329 151.434 156.456Z" fill="white"/>
<path d="M135.297 154.807C136.166 154.24 136.955 153.847 137.664 153.627C138.378 153.413 139.025 153.345 139.606 153.424C140.181 153.507 140.7 153.725 141.164 154.078C141.627 154.431 142.048 154.897 142.426 155.476C142.861 156.144 143.142 156.773 143.267 157.365C143.391 157.967 143.361 158.547 143.178 159.107C142.989 159.67 142.649 160.215 142.157 160.742C141.66 161.273 141.008 161.801 140.202 162.327C139.396 162.853 138.653 163.235 137.972 163.472C137.286 163.713 136.65 163.805 136.064 163.747C135.473 163.693 134.929 163.486 134.434 163.127C133.937 162.778 133.471 162.269 133.036 161.602C132.658 161.022 132.401 160.449 132.264 159.883C132.128 159.316 132.141 158.751 132.303 158.187C132.459 157.628 132.779 157.065 133.262 156.498C133.749 155.938 134.428 155.374 135.297 154.807ZM135.66 155.365C135.087 155.739 134.619 156.102 134.257 156.455C133.899 156.814 133.624 157.164 133.433 157.504C133.236 157.848 133.115 158.179 133.07 158.495C133.019 158.816 133.019 159.126 133.07 159.425C133.119 159.734 133.21 160.025 133.343 160.297C133.473 160.58 133.623 160.85 133.791 161.109C134.173 161.694 134.574 162.143 134.992 162.453C135.41 162.764 135.864 162.944 136.353 162.993C136.843 163.041 137.374 162.96 137.945 162.749C138.521 162.544 139.152 162.218 139.838 161.77C140.531 161.318 141.087 160.87 141.507 160.426C141.924 159.992 142.209 159.541 142.362 159.073C142.515 158.606 142.533 158.118 142.417 157.61C142.301 157.102 142.052 156.555 141.67 155.969C141.502 155.711 141.318 155.463 141.118 155.225C140.916 154.998 140.686 154.798 140.429 154.624C140.17 154.461 139.887 154.336 139.579 154.25C139.265 154.167 138.914 154.145 138.525 154.183C138.131 154.225 137.697 154.337 137.224 154.52C136.754 154.709 136.233 154.991 135.66 155.365Z" fill="white"/>
<path d="M118.054 163.799C118.021 163.708 117.995 163.613 117.976 163.516C117.957 163.419 117.952 163.329 117.962 163.245C117.964 163.164 117.985 163.089 118.024 163.019C118.065 162.956 118.128 162.909 118.213 162.878C118.319 162.84 118.408 162.832 118.48 162.854C118.547 162.885 118.608 162.931 118.662 162.992C118.716 163.052 118.763 163.127 118.803 163.217C118.836 163.308 118.87 163.4 118.903 163.492L120.231 167.162C120.431 167.713 120.647 168.179 120.881 168.558C121.107 168.94 121.389 169.222 121.727 169.403C122.06 169.595 122.463 169.681 122.936 169.661C123.401 169.645 123.974 169.514 124.652 169.268C125.07 169.117 125.499 168.922 125.94 168.682C126.383 168.449 126.787 168.171 127.149 167.848C127.515 167.532 127.81 167.177 128.035 166.784C128.261 166.39 128.362 165.962 128.338 165.499L126.603 160.705C126.569 160.613 126.54 160.52 126.513 160.425C126.487 160.331 126.475 160.243 126.478 160.162C126.481 160.081 126.501 160.006 126.54 159.936C126.574 159.875 126.634 159.83 126.718 159.799C126.817 159.763 126.906 159.755 126.985 159.775C127.06 159.804 127.128 159.847 127.189 159.905C127.242 159.965 127.293 160.039 127.341 160.126C127.381 160.215 127.418 160.306 127.451 160.398L129.939 167.27C129.982 167.39 129.997 167.509 129.984 167.626C129.973 167.75 129.868 167.848 129.67 167.919C129.493 167.983 129.366 167.973 129.288 167.89C129.205 167.816 129.139 167.712 129.09 167.577L128.607 166.241C128.573 166.765 128.427 167.226 128.171 167.622C127.917 168.026 127.606 168.37 127.238 168.656C126.865 168.951 126.47 169.198 126.054 169.396C125.631 169.597 125.24 169.763 124.879 169.894C124.115 170.17 123.451 170.335 122.886 170.387C122.317 170.449 121.818 170.386 121.39 170.197C120.955 170.011 120.579 169.691 120.263 169.238C119.942 168.794 119.649 168.204 119.383 167.469L118.054 163.799Z" fill="white"/>
<path d="M104.784 167.452C104.832 167.848 105.011 168.136 105.321 168.318C105.624 168.501 106.013 168.613 106.487 168.653C106.955 168.702 107.485 168.702 108.078 168.652C108.664 168.611 109.264 168.56 109.877 168.5C110.485 168.449 111.086 168.41 111.681 168.382C112.27 168.363 112.804 168.4 113.285 168.493C113.76 168.594 114.156 168.769 114.474 169.018C114.786 169.276 114.973 169.654 115.034 170.155C115.097 170.67 115.01 171.108 114.774 171.47C114.53 171.833 114.193 172.14 113.761 172.389C113.33 172.639 112.831 172.836 112.265 172.981C111.7 173.126 111.119 173.235 110.521 173.308C109.544 173.427 108.623 173.456 107.759 173.395C106.897 173.341 106.08 173.168 105.31 172.876C105.231 172.848 105.176 172.805 105.147 172.748C105.11 172.7 105.085 172.646 105.07 172.587C105.058 172.49 105.078 172.401 105.128 172.319C105.179 172.237 105.241 172.191 105.316 172.182C105.361 172.177 105.392 172.181 105.408 172.194C106.082 172.437 106.833 172.603 107.662 172.691C108.484 172.788 109.396 172.775 110.396 172.653C110.903 172.591 111.392 172.497 111.861 172.371C112.332 172.253 112.745 172.097 113.1 171.902C113.448 171.716 113.719 171.485 113.913 171.212C114.108 170.946 114.183 170.63 114.138 170.264C114.092 169.891 113.919 169.62 113.618 169.452C113.31 169.286 112.923 169.181 112.455 169.14C111.982 169.107 111.452 169.115 110.867 169.163C110.275 169.213 109.675 169.264 109.068 169.315C108.453 169.367 107.851 169.399 107.261 169.411C106.665 169.43 106.13 169.386 105.654 169.277C105.172 169.177 104.775 168.991 104.461 168.719C104.141 168.455 103.95 168.069 103.888 167.562C103.832 167.106 103.927 166.704 104.173 166.356C104.418 166.008 104.764 165.708 105.21 165.457C105.658 165.213 106.186 165.008 106.794 164.843C107.397 164.686 108.026 164.568 108.683 164.487C109.086 164.438 109.524 164.396 109.997 164.361C110.461 164.319 110.933 164.303 111.411 164.313C111.883 164.331 112.344 164.385 112.794 164.474C113.238 164.571 113.636 164.727 113.988 164.942C114.102 165.011 114.167 165.102 114.18 165.214C114.192 165.311 114.176 165.396 114.132 165.469C114.081 165.551 114.015 165.597 113.933 165.607C113.873 165.615 113.827 165.605 113.793 165.579C113.453 165.401 113.096 165.266 112.721 165.176C112.339 165.086 111.942 165.029 111.53 165.003C111.118 164.978 110.689 164.977 110.245 165.001C109.802 165.032 109.346 165.077 108.875 165.134C108.316 165.203 107.781 165.294 107.273 165.41C106.758 165.533 106.31 165.686 105.931 165.869C105.545 166.06 105.247 166.282 105.035 166.535C104.825 166.796 104.741 167.101 104.784 167.452Z" fill="white"/>
</svg>
