<svg width="64" height="64" viewBox="0 0 64 64" fill="none" xmlns="http://www.w3.org/2000/svg">
<rect width="64" height="64" rx="32" fill="#0021FF"/>
<rect x="10" y="10" width="44" height="44" rx="22" fill="white"/>
<path fill-rule="evenodd" clip-rule="evenodd" d="M40.3992 29.146L41.1194 29.866C41.6897 30.426 41.9998 31.186 41.9998 31.986C42.0098 32.786 41.6997 33.547 41.1395 34.116C41.1328 34.1233 41.1261 34.1298 41.1194 34.1362C41.1161 34.1394 41.1128 34.1427 41.1094 34.146L40.3992 34.856C40.1191 35.136 39.959 35.516 39.959 35.917V36.946C39.959 38.606 38.6085 39.957 36.9479 39.957H35.9176C35.5174 39.957 35.1373 40.116 34.8572 40.396L34.1369 41.116C33.5467 41.707 32.7764 41.996 32.0061 41.996C31.2359 41.996 30.4656 41.707 29.8754 41.127L29.1451 40.396C28.865 40.116 28.4849 39.957 28.0847 39.957H27.0543C25.3937 39.957 24.0433 38.606 24.0433 36.946V35.917C24.0433 35.516 23.8832 35.136 23.6031 34.846L22.8828 34.136C21.7124 32.967 21.7024 31.056 22.8728 29.877L23.6031 29.146C23.8832 28.866 24.0433 28.486 24.0433 28.076V27.056C24.0433 25.396 25.3937 24.047 27.0543 24.047H28.0847C28.4849 24.047 28.865 23.886 29.1451 23.606L29.8654 22.886C31.0358 21.707 32.9465 21.707 34.1269 22.877L34.8572 23.606C35.1373 23.886 35.5174 24.047 35.9176 24.047H36.9479C38.6085 24.047 39.959 25.396 39.959 27.056V28.087C39.959 28.486 40.1191 28.866 40.3992 29.146ZM29.4252 35.446C29.6653 35.446 29.8854 35.356 30.0454 35.186L35.1873 30.047C35.5274 29.707 35.5274 29.146 35.1873 28.806C34.8472 28.467 34.297 28.467 33.9569 28.806L28.815 33.946C28.4749 34.286 28.4749 34.846 28.815 35.186C28.975 35.356 29.1951 35.446 29.4252 35.446ZM33.6968 34.566C33.6968 35.056 34.0869 35.446 34.5771 35.446C35.0572 35.446 35.4474 35.056 35.4474 34.566C35.4474 34.087 35.0572 33.696 34.5771 33.696C34.0869 33.696 33.6968 34.087 33.6968 34.566ZM29.4352 28.556C29.9154 28.556 30.3055 28.946 30.3055 29.426C30.3055 29.917 29.9154 30.306 29.4352 30.306C28.955 30.306 28.5549 29.917 28.5549 29.426C28.5549 28.946 28.955 28.556 29.4352 28.556Z" fill="#0021FF"/>
</svg>
