<svg width="288" height="224" viewBox="0 0 288 224" fill="none" xmlns="http://www.w3.org/2000/svg">
<path d="M-604.989 392.902C-594.995 313.057 -563.68 237.378 -514.335 173.816C-464.989 110.254 -399.435 61.1559 -324.56 31.6804C-249.685 2.20501 -168.253 -6.55958 -88.8203 6.30761C-9.38778 19.1748 65.1129 53.1987 126.854 104.804C188.595 156.41 235.297 223.692 262.052 299.582C288.808 375.472 294.63 457.167 278.906 536.083C263.183 615 226.494 688.225 172.695 748.065C118.896 807.904 49.9733 852.149 -26.8319 876.151L-27.2023 874.965C49.3899 851.03 118.122 806.908 171.772 747.235C225.421 687.561 262.008 614.539 277.689 535.841C293.369 457.143 287.563 375.674 260.881 299.995C234.2 224.316 187.627 157.22 126.057 105.757C64.4876 54.2946 -9.80654 20.365 -89.0189 7.53345C-168.231 -5.29806 -249.437 3.44226 -324.105 32.836C-398.773 62.2297 -464.145 111.192 -513.354 174.578C-562.562 237.963 -593.79 313.433 -603.757 393.057L-604.989 392.902Z" fill="#9287B2" fill-opacity="0.4"/>
</svg>
