<svg width="87" height="45" viewBox="0 0 87 45" fill="none" xmlns="http://www.w3.org/2000/svg">
<g id="Isolation_Mode" clip-path="url(#clip0_1_2381)">
<g id="Group">
<path id="Vector" d="M85.2206 28.1006H52.8146C51.8261 28.1006 51.0267 27.3004 51.0267 26.3109C51.0267 25.3215 51.8261 24.5213 52.8146 24.5213H75.9372C76.9257 24.5213 77.7251 23.7211 77.7251 22.7316C77.7251 21.7421 76.9257 20.9419 75.9372 20.9419H59.5107C58.5222 20.9419 57.7228 20.1417 57.7228 19.1522C57.7228 18.1628 58.5222 17.3626 59.5107 17.3626H63.4476C64.4361 17.3626 65.2355 16.5624 65.2355 15.5729C65.2355 14.5834 64.4361 13.7832 63.4476 13.7832H39.5428C38.5543 13.7832 37.7549 12.983 37.7549 11.9935C37.7549 11.0041 38.5543 10.2039 39.5428 10.2039H66.9718C67.9603 10.2039 68.7597 9.40368 68.7597 8.4142C68.7597 7.42471 67.9603 6.62452 66.9718 6.62452H50.1156C49.1271 6.62452 48.3277 5.82433 48.3277 4.83485C48.3277 3.84536 49.1271 3.04517 50.1156 3.04517H75.0862C76.0747 3.04517 76.8741 2.24498 76.8741 1.2555C76.8741 0.266011 76.0747 -0.53418 75.0862 -0.53418H-0.152344L15.4661 31.6456H85.2206C86.2091 31.6456 87.0085 30.8454 87.0085 29.8559C87.0085 28.8664 86.2091 28.0662 85.2206 28.0662V28.1006Z" fill="#9085AF"/>
</g>
<path id="Vector_2" d="M27.2091 20.0378C26.9254 19.3666 26.4956 18.816 25.9283 18.3944C25.361 17.9728 24.5272 17.577 23.4355 17.207C21.3038 16.5359 19.619 15.7787 18.3727 14.9527C17.1263 14.1267 16.1807 12.9565 15.5446 11.4508C14.9515 10.0569 14.9086 8.90392 15.4243 8.00908C15.9401 7.11424 16.92 6.58939 18.3641 6.43451L17.2208 3.75H19.2064L20.3583 6.46033C21.9141 6.67543 23.3238 7.28633 24.5874 8.29302C25.8509 9.29971 26.8137 10.6076 27.4841 12.2079V12.2682H23.9169C23.4957 11.2873 22.9714 10.5301 22.3439 9.99665C21.7164 9.46319 21.0545 9.19646 20.3497 9.19646C19.6448 9.19646 19.1892 9.40296 19.0173 9.81597C18.8454 10.229 18.9056 10.7796 19.1978 11.4594C19.4729 12.1047 19.8855 12.6381 20.427 13.0339C20.9686 13.4383 21.8195 13.8341 22.9714 14.2213C25.1117 14.9441 26.8051 15.7185 28.0429 16.5445C29.2807 17.3705 30.209 18.5234 30.8451 20.0033C31.464 21.4489 31.5069 22.6104 30.9912 23.4708C30.4669 24.3313 29.4784 24.8475 28.0171 25.0024L29.0658 27.4718H27.0801L26.0315 25.011C24.4069 24.8561 22.894 24.3054 21.4757 23.359C20.0574 22.4125 18.9829 21.0272 18.2351 19.1945V19.1343H21.7852C22.2579 20.2529 22.8596 21.0445 23.5731 21.5263C24.2865 22.0081 25.0429 22.249 25.8338 22.249C26.6246 22.249 27.0801 22.0511 27.3122 21.6467C27.5443 21.2424 27.5185 20.7003 27.2263 20.0206L27.2091 20.0378Z" fill="white"/>
</g>
<defs>
<clipPath id="clip0_1_2381">
<rect width="87" height="45" fill="white"/>
</clipPath>
</defs>
</svg>
