<svg width="398" height="238" viewBox="0 0 398 238" fill="none" xmlns="http://www.w3.org/2000/svg">
<path d="M-494.989 392.902C-484.995 313.057 -453.68 237.378 -404.335 173.816C-354.989 110.254 -289.435 61.1559 -214.56 31.6804C-139.685 2.20501 -58.2529 -6.55958 21.1797 6.30761C100.612 19.1748 175.113 53.1987 236.854 104.804C298.595 156.41 345.297 223.692 372.052 299.582C398.808 375.472 404.63 457.167 388.906 536.083C373.183 615 336.494 688.225 282.695 748.065C228.896 807.904 159.973 852.149 83.1681 876.151L82.7977 874.965C159.39 851.03 228.122 806.908 281.772 747.235C335.421 687.561 372.008 614.539 387.689 535.841C403.369 457.143 397.563 375.674 370.881 299.995C344.2 224.316 297.627 157.22 236.057 105.757C174.488 54.2946 100.193 20.365 20.9811 7.53345C-58.2313 -5.29806 -139.437 3.44226 -214.105 32.836C-288.773 62.2297 -354.145 111.192 -403.354 174.578C-452.562 237.963 -483.79 313.433 -493.757 393.057L-494.989 392.902Z" fill="#9287B2" fill-opacity="0.26"/>
</svg>
