<svg width="247" height="245" viewBox="0 0 247 245" fill="none" xmlns="http://www.w3.org/2000/svg">
<path d="M132.895 125.87L131.838 112.234L118.203 113.292" stroke="#CACACA" stroke-width="2.38978" stroke-miterlimit="10" stroke-linecap="round" stroke-linejoin="round"/>
<path d="M114.224 132.809L131.662 112.44" stroke="#CACACA" stroke-width="2.38978" stroke-miterlimit="10" stroke-linecap="round" stroke-linejoin="round"/>
<path d="M73.2106 163.994C73.2918 163.916 73.3644 163.872 73.4284 163.863C73.4924 163.853 73.556 163.865 73.6192 163.898C73.6772 163.926 73.7375 163.972 73.8001 164.037C73.8628 164.102 73.9332 164.175 74.0115 164.256L81.324 171.84C81.3762 171.894 81.4127 171.937 81.4333 171.969C81.454 172.002 81.4614 172.036 81.4554 172.073C81.4442 172.105 81.4249 172.139 81.3977 172.176C81.3598 172.213 81.3084 172.262 81.2434 172.325L72.8643 180.404C72.7831 180.483 72.7182 180.545 72.6695 180.592C72.6155 180.634 72.5672 180.66 72.5245 180.67C72.4817 180.679 72.4367 180.671 72.3893 180.643C72.3368 180.61 72.2713 180.553 72.193 180.472L65.045 173.059C64.9667 172.978 64.8936 172.902 64.8257 172.832C64.7579 172.761 64.706 172.691 64.67 172.622C64.6289 172.546 64.6116 172.474 64.6181 172.405C64.6247 172.336 64.6686 172.263 64.7498 172.184C64.8147 172.122 64.8818 172.088 64.951 172.084C65.0148 172.085 65.0835 172.108 65.1572 172.152C65.2256 172.19 65.2938 172.245 65.3616 172.315C65.4295 172.385 65.5025 172.461 65.5808 172.542L72.3531 179.566L75.9093 176.136L69.1762 169.154C69.0614 169.035 68.9811 168.919 68.9353 168.806C68.8894 168.694 68.9207 168.585 69.0289 168.481C69.148 168.366 69.2604 168.326 69.3662 168.36C69.4667 168.388 69.5691 168.456 69.6735 168.565L76.4614 175.604L80.3262 171.877L73.5383 164.838C73.46 164.757 73.3869 164.681 73.3191 164.611C73.2512 164.54 73.1993 164.47 73.1634 164.4C73.1222 164.325 73.1049 164.253 73.1115 164.184C73.1126 164.12 73.1457 164.057 73.2106 163.994Z" fill="white"/>
<path d="M66.0107 153.215C66.0618 152.992 66.1585 152.838 66.3007 152.753C66.4945 152.638 66.653 152.684 66.776 152.891C66.8413 153 66.8536 153.168 66.8127 153.394L65.7344 158.641L70.8603 160.199C70.9814 160.241 71.0773 160.284 71.148 160.33C71.2085 160.372 71.2579 160.426 71.2964 160.491C71.4155 160.691 71.3749 160.851 71.1746 160.97C71.0453 161.047 70.8654 161.053 70.6348 160.989L65.5611 159.453L64.57 164.649C64.537 164.843 64.4559 164.979 64.3266 165.056C64.2426 165.106 64.1542 165.119 64.0615 165.096C63.9649 165.066 63.8897 165.005 63.8359 164.915C63.759 164.786 63.7383 164.619 63.7739 164.414L64.7747 159.212L59.7264 157.608C59.537 157.555 59.402 157.46 59.3213 157.324C59.2674 157.234 59.2523 157.142 59.2759 157.05C59.2891 156.954 59.341 156.88 59.4315 156.826C59.5543 156.753 59.7104 156.743 59.8997 156.797L64.9384 158.406L66.0107 153.215Z" fill="white"/>
<path d="M54.5806 145.962C54.3747 145.317 54.2482 144.687 54.2013 144.07C54.1449 143.449 54.2093 142.872 54.3944 142.339C54.5771 141.799 54.8971 141.318 55.3542 140.896C55.8091 140.466 56.4412 140.122 57.2507 139.864C58.0529 139.608 58.7677 139.498 59.3951 139.534C60.0129 139.566 60.559 139.731 61.0332 140.029C61.5052 140.321 61.9149 140.738 62.2623 141.282C62.6004 141.822 62.8906 142.471 63.1331 143.23C63.3184 143.811 63.4531 144.356 63.537 144.866C63.6209 145.376 63.6732 145.848 63.6939 146.284C63.7051 146.714 63.693 147.109 63.6576 147.468C63.6222 147.826 63.5789 148.148 63.5277 148.433L67.4455 147.205C67.5387 147.175 67.6293 147.15 67.7176 147.13C67.8107 147.1 67.8977 147.088 67.9784 147.094C68.0592 147.1 68.1303 147.124 68.1915 147.168C68.2505 147.204 68.2972 147.276 68.3315 147.384C68.3658 147.491 68.367 147.582 68.3352 147.655C68.3082 147.719 68.2599 147.778 68.1903 147.831C68.1278 147.883 68.0476 147.928 67.9496 147.967C67.8565 147.997 67.7562 148.029 67.6488 148.064L57.1407 151.42C56.9115 151.493 56.7545 151.496 56.6697 151.428C56.5778 151.363 56.5158 151.28 56.4838 151.18C56.4449 151.058 56.4463 150.951 56.4879 150.859C56.5223 150.769 56.6541 150.687 56.8833 150.614L58.3016 150.161C57.9733 150.171 57.6649 150.108 57.3765 149.971C57.081 149.836 56.8098 149.655 56.563 149.426C56.309 149.199 56.0804 148.94 55.8772 148.65C55.6645 148.355 55.4769 148.052 55.3144 147.74C55.1495 147.422 55.006 147.109 54.8839 146.8C54.7617 146.492 54.6606 146.213 54.5806 145.962ZM55.2145 145.759C55.3589 146.187 55.5446 146.645 55.7715 147.133C55.9912 147.623 56.2542 148.076 56.5605 148.491C56.8668 148.906 57.2168 149.248 57.6106 149.517C58.0043 149.786 58.4474 149.913 58.9398 149.898L63.0657 148.58C63.0819 148.235 63.0949 147.868 63.1046 147.478C63.1048 147.084 63.0874 146.671 63.0524 146.24C63.0174 145.809 62.9565 145.359 62.8697 144.889C62.7828 144.42 62.6593 143.934 62.4992 143.433C62.2796 142.745 62.0203 142.181 61.7215 141.739C61.4204 141.291 61.0691 140.957 60.6676 140.738C60.2566 140.514 59.7955 140.405 59.2841 140.41C58.7633 140.411 58.177 140.515 57.5252 140.723C56.8519 140.938 56.3192 141.223 55.9271 141.577C55.5327 141.924 55.2555 142.317 55.0954 142.755C54.9353 143.192 54.8746 143.67 54.9133 144.186C54.9425 144.698 55.0429 145.222 55.2145 145.759Z" fill="white"/>
<path d="M60.0847 133.686C60.3004 133.654 60.4902 133.653 60.6541 133.682C60.8106 133.712 60.9025 133.82 60.9299 134.006C60.9463 134.117 60.9403 134.206 60.9119 134.271C60.876 134.337 60.8268 134.39 60.7642 134.429C60.6942 134.47 60.6151 134.501 60.527 134.521C60.4388 134.542 60.3426 134.56 60.2385 134.575L49.3699 136.176C49.2583 136.192 49.1536 136.204 49.0558 136.211C48.958 136.218 48.8734 136.211 48.8021 136.191C48.7222 136.165 48.6556 136.125 48.6021 136.072C48.5477 136.012 48.5122 135.926 48.4957 135.815C48.4826 135.725 48.4945 135.651 48.5315 135.593C48.5673 135.527 48.6203 135.473 48.6903 135.432C48.7603 135.392 48.8431 135.361 48.9387 135.339C49.0269 135.318 49.1193 135.301 49.216 135.287L60.0847 133.686Z" fill="white"/>
<path d="M60.381 124.084C60.3654 125.122 60.2507 125.996 60.037 126.707C59.8157 127.418 59.51 127.993 59.1199 128.431C58.7299 128.861 58.259 129.17 57.7072 129.357C57.1554 129.544 56.5336 129.632 55.8419 129.622C55.0449 129.61 54.3661 129.491 53.8055 129.264C53.2375 129.03 52.7727 128.681 52.4112 128.217C52.0498 127.745 51.7879 127.158 51.6255 126.457C51.4632 125.747 51.3893 124.911 51.4038 123.949C51.4183 122.987 51.5173 122.157 51.7007 121.46C51.8843 120.756 52.1637 120.178 52.539 119.725C52.9144 119.264 53.3895 118.929 53.9642 118.719C54.5315 118.502 55.2136 118.4 56.0106 118.412C56.7023 118.422 57.3211 118.529 57.867 118.733C58.4129 118.937 58.8743 119.263 59.251 119.713C59.6279 120.155 59.9163 120.734 60.116 121.452C60.3083 122.169 60.3966 123.046 60.381 124.084ZM59.7156 124.074C59.7259 123.39 59.6859 122.799 59.5956 122.301C59.4978 121.803 59.3613 121.38 59.1861 121.032C59.0109 120.675 58.8047 120.39 58.5672 120.176C58.3299 119.955 58.0731 119.782 57.7967 119.657C57.5129 119.525 57.2209 119.438 56.9208 119.396C56.6132 119.346 56.3053 119.319 55.997 119.314C55.2978 119.304 54.7024 119.385 54.211 119.558C53.7196 119.731 53.3169 120.007 53.0028 120.386C52.6888 120.765 52.4597 121.25 52.3154 121.842C52.1636 122.434 52.0815 123.139 52.0692 123.959C52.0568 124.786 52.1175 125.498 52.2514 126.094C52.3779 126.682 52.5924 127.17 52.8949 127.559C53.1974 127.947 53.5916 128.235 54.0776 128.422C54.5636 128.61 55.1562 128.709 55.8555 128.72C56.1637 128.724 56.4723 128.71 56.7811 128.677C57.0825 128.637 57.377 128.558 57.6645 128.442C57.9446 128.319 58.2066 128.154 58.4503 127.947C58.6942 127.732 58.909 127.453 59.0946 127.11C59.2804 126.76 59.4296 126.337 59.5423 125.842C59.6476 125.348 59.7053 124.758 59.7156 124.074Z" fill="white"/>
<path d="M54.0606 106.299C54.1001 106.223 54.1568 106.174 54.2309 106.151C54.2976 106.127 54.3677 106.123 54.4412 106.139C54.5368 106.159 54.6179 106.211 54.6845 106.295C54.7528 106.371 54.7734 106.472 54.7466 106.597C54.7387 106.633 54.7339 106.656 54.7323 106.663C54.7234 106.669 54.7113 106.689 54.696 106.724C54.5535 106.994 54.4318 107.256 54.3307 107.511C54.2313 107.759 54.1484 108.037 54.082 108.346C53.9887 108.78 53.9435 109.204 53.9464 109.62C53.9434 110.027 53.9954 110.412 54.1023 110.773C54.2034 111.125 54.3646 111.449 54.5861 111.742C54.8001 112.034 55.0746 112.278 55.4095 112.473L60.482 113.564C60.6731 113.605 60.844 113.669 60.9947 113.755C61.1453 113.841 61.2009 113.976 61.1614 114.16C61.1393 114.263 61.099 114.343 61.0407 114.399C60.9839 114.449 60.9156 114.48 60.8358 114.494C60.756 114.507 60.6711 114.508 60.5813 114.497C60.4842 114.484 60.3878 114.467 60.2923 114.446L53.235 112.929C53.0659 112.892 52.9288 112.832 52.8239 112.748C52.7115 112.662 52.6783 112.513 52.7242 112.3C52.7589 112.138 52.8399 112.048 52.967 112.029C53.0957 112.003 53.2482 112.008 53.4247 112.046L54.7038 112.321C54.2807 112.107 53.9602 111.827 53.7425 111.48C53.5264 111.126 53.3828 110.757 53.3117 110.372C53.2347 109.979 53.2109 109.589 53.24 109.203C53.2692 108.817 53.3146 108.481 53.3763 108.194C53.4363 107.915 53.4987 107.678 53.5635 107.484C53.6224 107.282 53.6824 107.11 53.7435 106.969C53.7971 106.827 53.8505 106.704 53.9036 106.6C53.9568 106.496 54.0091 106.396 54.0606 106.299Z" fill="white"/>
<path d="M57.7061 97.3371C57.4345 97.9815 57.2489 98.5765 57.1495 99.1221C57.0501 99.6677 57.0506 100.17 57.1511 100.628C57.2476 101.077 57.449 101.48 57.7552 101.838C58.0614 102.195 58.4894 102.506 59.0389 102.77L62.3422 94.9338L61.781 94.6972C61.4345 94.5512 61.0811 94.4797 60.7207 94.4829C60.3633 94.4791 60.0089 94.5745 59.6576 94.7691C59.3063 94.9638 58.9655 95.2689 58.6352 95.6846C58.3049 96.1003 57.9952 96.6511 57.7061 97.3371ZM64.5251 100.848C64.8026 100.19 65.0034 99.597 65.1276 99.07C65.2518 98.543 65.3295 98.078 65.3607 97.6749C65.3919 97.2719 65.3918 96.9332 65.3605 96.6589C65.3322 96.3777 65.3028 96.1572 65.2722 95.9974C65.2758 95.95 65.2806 95.9194 65.2864 95.9055C65.3186 95.8293 65.3859 95.7761 65.4884 95.7458C65.5869 95.7058 65.6777 95.7032 65.7609 95.7383C65.8371 95.7704 65.8848 95.8314 65.9041 95.9211C65.9402 96.0097 65.9803 96.1857 66.0243 96.4491C66.0712 96.7055 66.0837 97.0535 66.0616 97.493C66.0326 97.9296 65.9518 98.4504 65.8192 99.0555C65.6865 99.6606 65.4581 100.348 65.1339 101.117C64.7951 101.921 64.407 102.561 63.9694 103.037C63.5319 103.514 63.0585 103.853 62.5493 104.054C62.04 104.256 61.4989 104.33 60.9259 104.276C60.3529 104.222 59.765 104.068 59.1622 103.814C58.3584 103.475 57.7438 103.065 57.3183 102.584C56.8928 102.103 56.6142 101.573 56.4824 100.995C56.3466 100.408 56.3399 99.7845 56.4623 99.1262C56.5877 98.461 56.7979 97.7784 57.0929 97.0786C57.7004 95.6374 58.4317 94.6767 59.2869 94.1967C60.138 93.7068 61.0763 93.678 62.1018 94.1103C62.1988 94.1512 62.3033 94.2034 62.4153 94.2669C62.5272 94.3304 62.6328 94.3994 62.732 94.4738C62.8271 94.5384 62.9055 94.6041 62.9671 94.6709C63.0247 94.7278 63.0477 94.7701 63.036 94.7978L61.748 97.8535L59.4711 102.965C60.1213 103.223 60.7037 103.37 61.2184 103.408C61.729 103.435 62.1892 103.36 62.5989 103.182C63.0045 102.994 63.3667 102.706 63.6852 102.318C63.9969 101.927 64.2768 101.437 64.5251 100.848Z" fill="white"/>
<path d="M78.6124 71.7482C79.4055 72.5072 79.9838 73.2896 80.3472 74.0953C80.7103 74.8904 80.8509 75.7223 80.769 76.591C80.6922 77.4542 80.3903 78.357 79.8632 79.2993C79.3359 80.2309 78.5783 81.2129 77.5905 82.245C76.6027 83.2772 75.6524 84.0799 74.7396 84.6531C73.8266 85.2156 72.9405 85.5541 72.0815 85.6688C71.2224 85.7834 70.3852 85.6794 69.5697 85.357C68.754 85.0239 67.9496 84.4778 67.1564 83.7188C66.3633 82.9597 65.7851 82.1826 65.422 81.3876C65.0586 80.5818 64.9153 79.7473 64.992 78.8841C65.0688 78.0208 65.3708 77.1234 65.8981 76.1917C66.4252 75.2494 67.1827 74.2622 68.1705 73.23C69.1583 72.1978 70.1087 71.4005 71.0217 70.838C71.9345 70.2648 72.8205 69.9209 73.6795 69.8063C74.5438 69.6863 75.3837 69.7928 76.1994 70.1259C77.0149 70.4484 77.8192 70.9891 78.6124 71.7482ZM67.8193 83.0261C68.5798 83.754 69.3276 84.2614 70.0625 84.5484C70.7974 84.8354 71.5412 84.9228 72.294 84.8105C73.0465 84.6876 73.8159 84.3675 74.6023 83.8503C75.3833 83.3279 76.2 82.6213 77.0527 81.7303C77.9053 80.8394 78.5754 79.9924 79.063 79.1892C79.5452 78.3809 79.8311 77.5981 79.9209 76.841C80.0052 76.0786 79.8878 75.3366 79.5688 74.615C79.2498 73.8934 78.71 73.1687 77.9495 72.4408C77.1944 71.7181 76.4493 71.2133 75.7144 70.9263C74.9741 70.6341 74.2277 70.5495 73.4752 70.6724C72.7172 70.7901 71.9478 71.1101 71.1668 71.6325C70.3804 72.1497 69.5609 72.8538 68.7083 73.7447C67.8557 74.6357 67.1883 75.4853 66.7061 76.2936C66.2185 77.0968 65.9326 77.8795 65.8483 78.6419C65.7637 79.3936 65.8837 80.1329 66.2081 80.8597C66.5271 81.5813 67.0642 82.3035 67.8193 83.0261Z" fill="white"/>
<path d="M93.1836 68.1854C93.1439 68.4277 93.0693 68.6995 92.9598 69.0008C92.8529 69.2918 92.6866 69.6006 92.4609 69.9273C92.2416 70.2501 91.954 70.5829 91.598 70.9258C91.2381 71.2622 90.7867 71.5919 90.2438 71.9146C89.5522 72.3258 88.9224 72.6128 88.3543 72.7756C87.7889 72.928 87.2684 72.9575 86.7929 72.8641C86.3136 72.7641 85.8741 72.5399 85.4745 72.1914C85.071 71.8364 84.6867 71.3519 84.3216 70.7379L82.3272 67.3834C82.2773 67.2994 82.2306 67.2135 82.1871 67.1256C82.15 67.0339 82.1252 66.948 82.1127 66.868C82.1001 66.788 82.1081 66.7133 82.1368 66.6437C82.1616 66.5678 82.216 66.5048 82.3 66.4548C82.397 66.3972 82.4848 66.3756 82.5634 66.3901C82.6381 66.3982 82.7044 66.4287 82.7622 66.4818C82.8265 66.5311 82.8869 66.5958 82.9433 66.676C82.9997 66.7562 83.0529 66.8383 83.1028 66.9223L85.0972 70.2768C85.42 70.8197 85.7362 71.2485 86.0457 71.5631C86.3552 71.8777 86.6903 72.0809 87.0511 72.1726C87.4182 72.2605 87.8297 72.2389 88.2854 72.1079C88.7438 71.9666 89.2832 71.7115 89.9037 71.3426C90.3562 71.0736 90.75 70.787 91.0852 70.4827C91.4269 70.1746 91.7215 69.8682 91.9691 69.5636C92.2127 69.2525 92.4164 68.9477 92.5801 68.6491C92.7438 68.3506 92.8771 68.0745 92.98 67.8209L90.0057 62.8183C89.9558 62.7342 89.909 62.6483 89.8656 62.5604C89.8221 62.4726 89.7908 62.3905 89.7718 62.3144C89.7592 62.2344 89.764 62.1615 89.7862 62.0959C89.811 62.0199 89.8654 61.9569 89.9494 61.9069C90.0464 61.8493 90.1342 61.8277 90.2128 61.8422C90.294 61.8464 90.3667 61.8732 90.431 61.9224C90.5018 61.9678 90.5653 62.0306 90.6218 62.1108C90.6782 62.191 90.7314 62.2731 90.7813 62.3571L94.3781 68.4068C94.4281 68.4909 94.4716 68.5787 94.5086 68.6704C94.5483 68.7519 94.5744 68.8326 94.5869 68.9126C94.5995 68.9926 94.5915 69.0673 94.5628 69.1369C94.5406 69.2025 94.4908 69.2584 94.4132 69.3045C94.2322 69.4121 94.0813 69.4231 93.9604 69.3375C93.8422 69.2416 93.7369 69.1161 93.6447 68.961L93.5928 68.8737L93.1836 68.1854Z" fill="white"/>
<path d="M102.013 57.1226C102.099 57.1157 102.171 57.1378 102.229 57.1887C102.285 57.2325 102.325 57.2898 102.351 57.3605C102.384 57.4525 102.383 57.5489 102.347 57.6496C102.319 57.7478 102.244 57.8186 102.124 57.862C102.089 57.8747 102.067 57.8824 102.06 57.8849C102.051 57.8804 102.027 57.881 101.989 57.8867C101.685 57.9083 101.398 57.9439 101.128 57.9932C100.865 58.0401 100.585 58.1171 100.288 58.2242C99.8708 58.3747 99.4865 58.5612 99.1351 58.7838C98.7882 58.9968 98.4898 59.2443 98.2398 59.5263C97.9943 59.7987 97.8055 60.1066 97.6736 60.4499C97.539 60.7862 97.4777 61.148 97.4895 61.5354L99.2494 66.4162C99.3157 66.6001 99.3522 66.7788 99.3588 66.9523C99.3654 67.1258 99.2803 67.2444 99.1034 67.3082C99.0044 67.3439 98.9154 67.352 98.8364 67.3325C98.7645 67.3105 98.7017 67.2692 98.6479 67.2086C98.5941 67.1481 98.5483 67.0767 98.5107 66.9943C98.4704 66.9049 98.4337 66.8143 98.4006 66.7223L95.952 59.9316C95.8933 59.7689 95.8719 59.6208 95.8876 59.4872C95.9009 59.3466 96.01 59.2392 96.2152 59.1653C96.3708 59.1092 96.4902 59.13 96.5735 59.2279C96.6638 59.3232 96.7396 59.4558 96.8008 59.6256L97.2446 60.8564C97.2022 60.3841 97.2705 59.9638 97.4494 59.5955C97.6354 59.2247 97.8727 58.9073 98.1612 58.6434C98.4543 58.3699 98.7722 58.1433 99.1151 57.9637C99.458 57.7841 99.7674 57.6446 100.043 57.5451C100.312 57.4482 100.546 57.3759 100.744 57.3283C100.948 57.271 101.125 57.231 101.277 57.2083C101.426 57.1785 101.559 57.1586 101.675 57.1486C101.791 57.1387 101.904 57.13 102.013 57.1226Z" fill="white"/>
<path d="M126.384 61.2516L126.093 50.9917C126.09 50.879 126.091 50.7737 126.096 50.6757C126.1 50.5703 126.117 50.4796 126.145 50.4035C126.18 50.3198 126.227 50.2545 126.286 50.2077C126.352 50.1532 126.441 50.1243 126.554 50.1211C126.749 50.1156 126.88 50.1984 126.945 50.3696C127.01 50.5332 127.045 50.7316 127.052 50.9646L127.363 61.9461C127.377 62.4271 127.256 62.6713 127 62.6785C126.827 62.6834 126.61 62.573 126.348 62.3472L114.418 51.9094L114.711 62.2369C114.717 62.4549 114.689 62.6438 114.626 62.8035C114.57 62.9555 114.451 63.0341 114.271 63.0392C114.053 63.0454 113.912 62.9742 113.848 62.8256C113.79 62.6692 113.759 62.482 113.753 62.2641L113.44 51.2262C113.433 51.0007 113.47 50.8267 113.549 50.7041C113.628 50.5815 113.739 50.5181 113.882 50.5141C114.07 50.5088 114.291 50.6153 114.546 50.8338L126.384 61.2516Z" fill="white"/>
<path d="M138.128 56.4245C137.446 56.2708 136.827 56.193 136.273 56.1914C135.718 56.1897 135.224 56.2788 134.79 56.4585C134.366 56.6326 134.004 56.9019 133.706 57.2664C133.408 57.6309 133.178 58.1069 133.014 58.6945L141.311 60.5642L141.445 59.9701C141.527 59.6033 141.535 59.2428 141.469 58.8887C141.409 58.5361 141.253 58.2041 141 57.8926C140.746 57.5811 140.386 57.2995 139.918 57.0477C139.451 56.7959 138.854 56.5882 138.128 56.4245ZM135.874 63.7557C136.571 63.9128 137.19 64.006 137.731 64.0353C138.271 64.0647 138.743 64.0591 139.145 64.0188C139.547 63.9784 139.88 63.9186 140.145 63.8395C140.417 63.762 140.629 63.6941 140.78 63.6358C140.828 63.6311 140.859 63.6304 140.873 63.6337C140.954 63.6519 141.018 63.7087 141.066 63.8043C141.123 63.8942 141.142 63.9831 141.122 64.0712C141.103 64.1519 141.052 64.2096 140.967 64.2444C140.886 64.2956 140.72 64.366 140.468 64.4558C140.224 64.5472 139.884 64.6208 139.447 64.6766C139.013 64.7251 138.486 64.7374 137.867 64.7135C137.248 64.6896 136.531 64.5859 135.717 64.4024C134.866 64.2106 134.167 63.9414 133.621 63.5948C133.075 63.2482 132.658 62.842 132.37 62.3762C132.082 61.9104 131.913 61.3908 131.865 60.8173C131.817 60.2438 131.865 59.6379 132.009 58.9998C132.201 58.1488 132.496 57.4716 132.895 56.9679C133.294 56.4642 133.766 56.0966 134.311 55.865C134.866 55.6277 135.478 55.5112 136.147 55.5157C136.824 55.5218 137.533 55.6083 138.274 55.7753C139.8 56.1192 140.874 56.6697 141.498 57.4268C142.13 58.1782 142.324 59.0968 142.079 60.1824C142.056 60.2851 142.023 60.3971 141.98 60.5185C141.937 60.6399 141.888 60.756 141.832 60.8668C141.785 60.9718 141.735 61.0606 141.68 61.133C141.634 61.1998 141.596 61.2298 141.567 61.2232L138.332 60.4941L132.899 59.1541C132.76 59.8396 132.718 60.439 132.772 60.9521C132.834 61.4596 132.99 61.8993 133.237 62.2711C133.494 62.6373 133.841 62.943 134.279 63.1882C134.719 63.426 135.251 63.6152 135.874 63.7557Z" fill="white"/>
<path d="M152.948 69.6414L158.26 64.26C158.387 64.1381 158.506 64.0667 158.617 64.0458C158.728 64.0249 158.827 64.036 158.915 64.0792C159.023 64.1323 159.096 64.2226 159.133 64.3501C159.181 64.4742 159.17 64.6071 159.101 64.7488C159.051 64.85 159.001 64.9176 158.951 64.9516L153.331 70.3451C153.177 70.4874 153.023 70.5792 152.869 70.6205C152.721 70.6652 152.59 70.6593 152.475 70.6029C152.347 70.5398 152.259 70.4462 152.211 70.3221C152.166 70.1913 152.159 70.0114 152.187 69.7825L153.082 62.3667L147.754 67.6019C147.584 67.7611 147.43 67.8613 147.292 67.9026C147.158 67.9371 147.037 67.9278 146.929 67.8746C146.666 67.7452 146.56 67.4668 146.611 67.0394L147.453 59.2959C147.45 59.2354 147.473 59.1546 147.522 59.0534C147.592 58.9117 147.687 58.8203 147.808 58.7791C147.939 58.7346 148.058 58.7388 148.166 58.7919C148.254 58.8351 148.323 58.9069 148.375 59.0075C148.426 59.108 148.442 59.2458 148.423 59.4208L147.402 66.9132L152.644 61.6734C152.945 61.3688 153.24 61.2878 153.53 61.4306C153.659 61.4936 153.757 61.6006 153.825 61.7515C153.903 61.8989 153.928 62.0787 153.899 62.2907L152.948 69.6414Z" fill="white"/>
<path d="M181.075 78.8964C180.966 79.0004 180.862 79.0274 180.762 78.9773C180.667 78.9221 180.563 78.8347 180.448 78.7152L176.088 74.161L168.153 81.7583C168.071 81.8363 167.993 81.9064 167.917 81.9686C167.841 82.0308 167.76 82.0769 167.675 82.1069C167.599 82.1372 167.525 82.1462 167.451 82.134C167.376 82.1217 167.3 82.0748 167.222 81.9934C167.087 81.8522 167.056 81.6999 167.129 81.5366C167.212 81.3736 167.332 81.2166 167.49 81.0658L175.425 73.4685L171.057 68.906C170.943 68.7865 170.855 68.673 170.793 68.5652C170.742 68.4578 170.771 68.352 170.88 68.248C170.961 68.17 171.039 68.1318 171.114 68.1335C171.194 68.1299 171.268 68.1474 171.336 68.1862C171.409 68.2303 171.48 68.2877 171.548 68.3583C171.626 68.4291 171.696 68.4971 171.759 68.5623L180.815 78.0212C180.893 78.1026 180.963 78.1813 181.025 78.2571C181.092 78.3277 181.142 78.3952 181.172 78.4597C181.208 78.5296 181.219 78.6017 181.207 78.6759C181.2 78.7449 181.156 78.8184 181.075 78.8964Z" fill="white"/>
<path d="M184.35 90.7257C184.375 90.8078 184.368 90.8827 184.331 90.9505C184.3 91.0143 184.252 91.0661 184.189 91.106C184.106 91.1578 184.011 91.1769 183.905 91.1634C183.803 91.1562 183.718 91.0985 183.651 90.9901C183.631 90.9582 183.619 90.9391 183.615 90.9327C183.617 90.9224 183.611 90.8992 183.598 90.8634C183.513 90.5709 183.417 90.2979 183.312 90.0445C183.211 89.7974 183.076 89.54 182.909 89.2722C182.674 88.896 182.41 88.5597 182.118 88.2633C181.837 87.9692 181.532 87.7298 181.204 87.5449C180.886 87.3625 180.545 87.243 180.181 87.1864C179.824 87.1259 179.458 87.1424 179.081 87.2357L174.682 89.9865C174.516 90.0901 174.349 90.1635 174.181 90.2065C174.013 90.2496 173.879 90.1915 173.78 90.0321C173.724 89.9428 173.697 89.8575 173.699 89.7762C173.706 89.7013 173.733 89.6312 173.781 89.5658C173.828 89.5004 173.889 89.4406 173.961 89.3864C174.04 89.3282 174.121 89.2732 174.204 89.2214L180.324 85.3942C180.471 85.3025 180.611 85.2503 180.745 85.2375C180.886 85.2208 181.013 85.3048 181.129 85.4897C181.217 85.63 181.222 85.7511 181.144 85.8532C181.069 85.9616 180.956 86.0636 180.803 86.1593L179.693 86.853C180.146 86.7118 180.571 86.6898 180.969 86.787C181.371 86.8905 181.731 87.0554 182.05 87.2817C182.379 87.5104 182.668 87.7734 182.916 88.0706C183.164 88.3679 183.365 88.6408 183.521 88.8895C183.672 89.1317 183.792 89.3449 183.881 89.529C183.98 89.7155 184.056 89.8805 184.111 90.024C184.171 90.1634 184.219 90.289 184.253 90.4005C184.287 90.5121 184.32 90.6205 184.35 90.7257Z" fill="white"/>
<path d="M181.128 97.6931C180.791 97.8226 180.539 98.016 180.372 98.2735C180.208 98.538 180.111 98.8529 180.083 99.2184C180.054 99.5839 180.085 99.9907 180.177 100.439C180.278 100.891 180.426 101.37 180.62 101.876C180.858 102.493 181.11 103.025 181.378 103.469C181.653 103.912 181.925 104.286 182.196 104.593C182.467 104.9 182.727 105.146 182.976 105.332C183.232 105.516 183.464 105.66 183.674 105.765L185.79 104.952C185.619 104.212 185.431 103.451 185.226 102.667C185.029 101.881 184.783 101.106 184.489 100.341C184.282 99.8001 184.064 99.3279 183.836 98.924C183.611 98.5271 183.365 98.211 183.097 97.9755C182.829 97.74 182.533 97.5963 182.207 97.5444C181.887 97.4898 181.528 97.5393 181.128 97.6931ZM188.143 100.133C187.884 99.4589 187.646 98.8901 187.427 98.4262C187.208 97.9624 187.005 97.5694 186.817 97.247C186.631 96.9317 186.462 96.6703 186.31 96.463C186.158 96.2556 186.017 96.0763 185.886 95.9251C185.854 95.8409 185.866 95.7475 185.923 95.645C185.98 95.5424 186.058 95.4722 186.157 95.4345C186.248 95.3994 186.331 95.4159 186.405 95.4839C186.455 95.5293 186.55 95.6416 186.692 95.8209C186.836 96.0072 187.011 96.2742 187.217 96.622C187.433 96.974 187.672 97.4179 187.934 97.9535C188.199 98.4961 188.477 99.1465 188.768 99.9045C188.906 100.263 189.018 100.626 189.103 100.996C189.196 101.363 189.242 101.724 189.241 102.079C189.243 102.441 189.19 102.795 189.082 103.143C188.977 103.498 188.792 103.834 188.528 104.153C188.274 104.477 187.93 104.786 187.495 105.082C187.068 105.375 186.535 105.644 185.897 105.89L182.864 107.055C182.78 107.087 182.695 107.116 182.608 107.141C182.521 107.167 182.432 107.177 182.341 107.171C182.26 107.17 182.184 107.151 182.114 107.114C182.05 107.074 181.999 107.005 181.962 106.906C181.9 106.745 181.93 106.604 182.053 106.485C182.179 106.372 182.354 106.272 182.579 106.186L183.305 105.907C183.076 105.834 182.823 105.721 182.547 105.57C182.272 105.418 181.987 105.201 181.693 104.919C181.407 104.634 181.119 104.274 180.83 103.837C180.549 103.397 180.282 102.851 180.032 102.198C179.797 101.588 179.621 100.995 179.505 100.419C179.391 99.8507 179.356 99.3286 179.399 98.853C179.444 98.3844 179.577 97.975 179.797 97.6247C180.026 97.2787 180.362 97.0207 180.804 96.8508C181.317 96.6539 181.782 96.596 182.199 96.6771C182.627 96.7625 183.015 96.9557 183.365 97.2565C183.721 97.5546 184.038 97.9401 184.317 98.4132C184.598 98.8932 184.852 99.428 185.078 100.018C185.248 100.46 185.4 100.909 185.535 101.364C185.68 101.824 185.797 102.267 185.888 102.691C185.985 103.113 186.052 103.506 186.088 103.871C186.133 104.24 186.139 104.56 186.106 104.831C186.822 104.555 187.361 104.239 187.723 103.883C188.086 103.526 188.326 103.144 188.443 102.736C188.567 102.326 188.588 101.899 188.506 101.455C188.434 101.016 188.313 100.575 188.143 100.133Z" fill="white"/>
<path d="M185.356 121.063C185.259 121.076 185.161 121.083 185.062 121.081C184.963 121.08 184.874 121.066 184.794 121.04C184.715 121.021 184.646 120.985 184.585 120.933C184.532 120.879 184.499 120.808 184.487 120.719C184.471 120.607 184.481 120.518 184.517 120.453C184.562 120.393 184.619 120.343 184.689 120.303C184.76 120.262 184.843 120.232 184.938 120.21C185.035 120.197 185.132 120.183 185.229 120.169L189.093 119.621C189.673 119.538 190.173 119.421 190.592 119.271C191.012 119.128 191.346 118.909 191.593 118.616C191.848 118.329 192.015 117.952 192.093 117.486C192.172 117.026 192.161 116.439 192.059 115.725C191.997 115.285 191.894 114.825 191.75 114.344C191.613 113.863 191.423 113.411 191.181 112.99C190.947 112.567 190.66 112.206 190.321 111.904C189.982 111.603 189.583 111.417 189.125 111.345L184.077 112.062C183.981 112.076 183.883 112.086 183.785 112.092C183.688 112.098 183.599 112.092 183.521 112.073C183.442 112.053 183.372 112.018 183.312 111.966C183.26 111.92 183.227 111.852 183.215 111.763C183.2 111.659 183.21 111.57 183.245 111.497C183.289 111.43 183.345 111.372 183.414 111.324C183.485 111.284 183.567 111.25 183.662 111.221C183.758 111.2 183.854 111.182 183.951 111.168L191.187 110.141C191.313 110.123 191.432 110.133 191.544 110.17C191.663 110.206 191.738 110.329 191.767 110.537C191.794 110.723 191.758 110.846 191.66 110.905C191.571 110.971 191.455 111.014 191.314 111.034L189.907 111.234C190.413 111.375 190.834 111.611 191.169 111.943C191.513 112.274 191.786 112.649 191.99 113.069C192.202 113.494 192.363 113.931 192.472 114.379C192.582 114.834 192.664 115.251 192.718 115.631C192.833 116.435 192.857 117.119 192.793 117.682C192.737 118.252 192.573 118.727 192.301 119.108C192.029 119.496 191.639 119.798 191.131 120.015C190.631 120.237 189.994 120.404 189.219 120.514L185.356 121.063Z" fill="white"/>
<path d="M186.213 134.8C186.61 134.834 186.929 134.717 187.171 134.451C187.412 134.192 187.601 133.835 187.737 133.379C187.881 132.93 187.989 132.411 188.062 131.821C188.142 131.239 188.215 130.642 188.282 130.029C188.356 129.424 188.441 128.827 188.536 128.239C188.638 127.659 188.784 127.143 188.973 126.692C189.169 126.248 189.422 125.896 189.731 125.635C190.047 125.383 190.456 125.278 190.958 125.321C191.474 125.365 191.886 125.539 192.192 125.844C192.498 126.157 192.728 126.55 192.884 127.024C193.04 127.497 193.131 128.026 193.157 128.609C193.183 129.192 193.171 129.784 193.12 130.383C193.036 131.365 192.876 132.272 192.639 133.104C192.41 133.938 192.074 134.702 191.63 135.396C191.586 135.468 191.533 135.512 191.471 135.53C191.416 135.555 191.359 135.569 191.298 135.571C191.201 135.563 191.117 135.526 191.047 135.46C190.977 135.393 190.946 135.323 190.952 135.248C190.956 135.203 190.966 135.173 190.982 135.16C191.358 134.55 191.674 133.849 191.931 133.056C192.193 132.27 192.368 131.376 192.453 130.372C192.496 129.862 192.504 129.365 192.478 128.88C192.458 128.395 192.39 127.959 192.272 127.572C192.161 127.193 191.991 126.88 191.763 126.634C191.542 126.389 191.248 126.251 190.881 126.22C190.507 126.188 190.206 126.302 189.98 126.562C189.754 126.83 189.573 127.188 189.436 127.637C189.307 128.093 189.206 128.613 189.134 129.196C189.061 129.786 188.988 130.383 188.914 130.988C188.839 131.601 188.747 132.196 188.638 132.776C188.535 133.363 188.382 133.878 188.178 134.322C187.981 134.773 187.717 135.124 187.387 135.375C187.063 135.634 186.646 135.742 186.137 135.699C185.68 135.66 185.306 135.485 185.015 135.174C184.725 134.862 184.502 134.462 184.348 133.974C184.2 133.486 184.108 132.927 184.071 132.297C184.041 131.676 184.054 131.036 184.11 130.376C184.144 129.972 184.193 129.534 184.255 129.064C184.31 128.601 184.391 128.136 184.498 127.67C184.613 127.212 184.759 126.771 184.939 126.349C185.125 125.935 185.359 125.577 185.641 125.277C185.732 125.179 185.834 125.135 185.947 125.144C186.044 125.152 186.124 125.186 186.187 125.244C186.257 125.31 186.288 125.384 186.281 125.467C186.276 125.527 186.257 125.57 186.225 125.598C185.981 125.894 185.776 126.216 185.611 126.564C185.445 126.92 185.307 127.297 185.198 127.695C185.088 128.094 185 128.512 184.933 128.952C184.873 129.392 184.822 129.848 184.782 130.32C184.735 130.882 184.715 131.424 184.724 131.945C184.739 132.475 184.797 132.944 184.898 133.352C185.006 133.769 185.163 134.107 185.367 134.366C185.579 134.625 185.861 134.77 186.213 134.8Z" fill="white"/>
<path d="M185.227 140.541C184.883 140.431 184.566 140.424 184.274 140.52C183.981 140.623 183.708 140.808 183.456 141.075C183.205 141.342 182.975 141.678 182.765 142.085C182.56 142.501 182.375 142.967 182.21 143.482C182.008 144.112 181.872 144.685 181.801 145.199C181.738 145.716 181.716 146.179 181.735 146.587C181.754 146.996 181.802 147.351 181.879 147.652C181.963 147.956 182.054 148.214 182.151 148.427L184.31 149.12C184.64 148.436 184.971 147.725 185.303 146.986C185.642 146.25 185.936 145.492 186.187 144.711C186.364 144.16 186.49 143.656 186.566 143.198C186.639 142.748 186.645 142.347 186.584 141.996C186.523 141.645 186.382 141.347 186.161 141.102C185.946 140.859 185.635 140.672 185.227 140.541ZM189.164 146.839C189.385 146.152 189.555 145.559 189.676 145.061C189.796 144.563 189.884 144.129 189.939 143.76C189.992 143.398 190.024 143.088 190.036 142.831C190.047 142.574 190.049 142.346 190.042 142.146C190.07 142.06 190.138 141.995 190.247 141.951C190.356 141.907 190.461 141.901 190.561 141.933C190.654 141.963 190.708 142.028 190.724 142.128C190.734 142.194 190.738 142.342 190.736 142.57C190.731 142.805 190.7 143.123 190.643 143.523C190.59 143.933 190.498 144.429 190.367 145.01C190.233 145.599 190.042 146.28 189.794 147.054C189.677 147.419 189.536 147.772 189.371 148.114C189.213 148.458 189.023 148.768 188.8 149.044C188.575 149.327 188.311 149.571 188.009 149.774C187.705 149.984 187.35 150.131 186.944 150.214C186.543 150.306 186.081 150.332 185.557 150.29C185.041 150.251 184.457 150.126 183.805 149.917L180.712 148.925C180.626 148.897 180.541 148.866 180.458 148.831C180.374 148.796 180.299 148.748 180.232 148.687C180.169 148.636 180.122 148.573 180.09 148.5C180.066 148.429 180.07 148.343 180.102 148.243C180.155 148.078 180.267 147.988 180.438 147.972C180.606 147.963 180.805 147.995 181.034 148.068L181.775 148.306C181.642 148.106 181.516 147.86 181.396 147.569C181.276 147.277 181.19 146.93 181.138 146.526C181.093 146.125 181.095 145.664 181.144 145.142C181.2 144.623 181.335 144.031 181.549 143.365C181.749 142.742 181.984 142.17 182.254 141.648C182.521 141.134 182.821 140.705 183.152 140.361C183.482 140.025 183.842 139.789 184.232 139.654C184.628 139.528 185.052 139.537 185.503 139.682C186.025 139.85 186.424 140.096 186.699 140.421C186.978 140.756 187.16 141.15 187.243 141.603C187.334 142.059 187.34 142.558 187.26 143.101C187.178 143.651 187.041 144.227 186.848 144.829C186.703 145.28 186.54 145.725 186.36 146.165C186.184 146.614 185.999 147.032 185.803 147.419C185.615 147.809 185.42 148.157 185.219 148.464C185.023 148.78 184.827 149.033 184.632 149.223C185.362 149.457 185.981 149.549 186.486 149.498C186.992 149.447 187.419 149.3 187.766 149.056C188.12 148.814 188.404 148.495 188.618 148.098C188.837 147.71 189.019 147.291 189.164 146.839Z" fill="white"/>
<path d="M182.643 161.11C183.081 160.365 183.393 159.693 183.578 159.096C183.764 158.499 183.82 157.951 183.746 157.454C183.674 156.967 183.474 156.522 183.144 156.119C182.814 155.716 182.354 155.341 181.764 154.994C181.168 154.643 180.613 154.43 180.099 154.355C179.581 154.286 179.092 154.347 178.63 154.538C178.165 154.736 177.722 155.059 177.3 155.509C176.879 155.959 176.464 156.531 176.056 157.225C175.873 157.536 175.711 157.863 175.57 158.208C175.425 158.559 175.299 158.899 175.192 159.229C175.092 159.562 175.011 159.877 174.951 160.173C174.89 160.469 174.853 160.717 174.839 160.919C174.815 161.035 174.791 161.113 174.768 161.151C174.718 161.236 174.654 161.285 174.576 161.3C174.5 161.325 174.426 161.317 174.355 161.275C174.303 161.245 174.258 161.196 174.218 161.129C174.186 161.066 174.171 160.988 174.174 160.894C174.218 160.152 174.36 159.442 174.602 158.764C174.85 158.09 175.141 157.467 175.477 156.897C175.911 156.158 176.366 155.518 176.841 154.978C177.312 154.443 177.821 154.045 178.368 153.782C178.911 153.526 179.5 153.422 180.134 153.472C180.767 153.522 181.463 153.77 182.222 154.216C182.973 154.658 183.534 155.136 183.904 155.65C184.273 156.164 184.483 156.719 184.534 157.316C184.591 157.916 184.502 158.557 184.266 159.239C184.028 159.927 183.678 160.663 183.216 161.448C182.881 162.018 182.476 162.574 182.001 163.114C181.533 163.659 180.985 164.131 180.358 164.529C180.277 164.578 180.198 164.601 180.12 164.599C180.049 164.601 179.988 164.587 179.936 164.556C179.865 164.514 179.819 164.452 179.797 164.37C179.779 164.298 179.794 164.22 179.843 164.136C179.866 164.097 179.923 164.038 180.012 163.96C180.181 163.85 180.381 163.697 180.61 163.5C180.839 163.303 181.071 163.078 181.308 162.825C181.551 162.575 181.79 162.301 182.026 162.004C182.258 161.713 182.464 161.415 182.643 161.11Z" fill="white"/>
<path d="M174.111 172.992C174.037 173.077 173.96 173.121 173.881 173.121C173.801 173.132 173.736 173.116 173.685 173.072C173.634 173.028 173.605 172.963 173.598 172.878C173.593 172.804 173.627 172.724 173.7 172.639L176.143 169.8L172.518 166.681C172.102 166.323 171.729 166.076 171.399 165.941C171.069 165.806 170.771 165.748 170.506 165.768C170.236 165.794 169.992 165.881 169.774 166.031C169.556 166.191 169.352 166.383 169.161 166.605C168.926 166.878 168.743 167.188 168.615 167.534C168.486 167.879 168.366 168.301 168.254 168.8C168.229 168.898 168.19 168.978 168.136 169.041C168.072 169.115 168 169.153 167.92 169.153C167.841 169.165 167.77 169.143 167.708 169.089C167.594 168.991 167.556 168.85 167.596 168.666C167.671 168.314 167.749 168.009 167.831 167.752C167.908 167.501 167.993 167.276 168.085 167.078C168.171 166.884 168.27 166.706 168.381 166.543C168.491 166.381 168.617 166.216 168.76 166.051C169.024 165.743 169.315 165.492 169.631 165.298C169.942 165.109 170.277 164.996 170.637 164.959C170.998 164.932 171.384 164.996 171.795 165.152C172.208 165.318 172.645 165.6 173.106 165.997L176.731 169.116L177.379 168.364C177.447 168.284 177.519 168.242 177.593 168.236C177.673 168.235 177.739 168.257 177.79 168.301C177.841 168.345 177.87 168.405 177.875 168.479C177.887 168.558 177.858 168.637 177.789 168.717L177.142 169.47L179.271 171.301C179.453 171.458 179.535 171.593 179.517 171.707C179.505 171.825 179.464 171.924 179.395 172.004C179.312 172.101 179.218 172.158 179.112 172.177C179.008 172.206 178.864 172.142 178.682 171.985L176.553 170.154L174.111 172.992Z" fill="white"/>
<path d="M164.576 171.445C164.51 171.373 164.45 171.301 164.394 171.23C164.344 171.164 164.307 171.096 164.283 171.025C164.259 170.966 164.256 170.902 164.275 170.834C164.294 170.765 164.345 170.693 164.428 170.617C164.584 170.474 164.721 170.435 164.841 170.499C164.96 170.562 165.094 170.674 165.241 170.835L170.137 176.17C170.264 176.309 170.354 176.446 170.407 176.581C170.46 176.716 170.409 176.855 170.253 176.997C170.115 177.125 169.983 177.153 169.859 177.084C169.728 177.02 169.605 176.924 169.488 176.797L164.576 171.445ZM172.434 178.456C172.551 178.584 172.606 178.727 172.599 178.886C172.597 179.051 172.533 179.192 172.405 179.309C172.278 179.426 172.129 179.481 171.959 179.473C171.794 179.472 171.653 179.407 171.537 179.28C171.42 179.152 171.37 179.009 171.387 178.85C171.405 178.691 171.477 178.553 171.605 178.436C171.732 178.32 171.873 178.262 172.027 178.263C172.182 178.264 172.317 178.329 172.434 178.456Z" fill="white"/>
<path d="M156.297 176.807C157.166 176.24 157.955 175.847 158.664 175.627C159.378 175.413 160.025 175.345 160.606 175.424C161.181 175.507 161.7 175.725 162.164 176.078C162.627 176.431 163.048 176.897 163.426 177.476C163.861 178.144 164.142 178.773 164.267 179.365C164.391 179.967 164.361 180.547 164.178 181.107C163.989 181.67 163.649 182.215 163.157 182.742C162.66 183.273 162.008 183.801 161.202 184.327C160.396 184.853 159.653 185.235 158.972 185.472C158.286 185.713 157.65 185.805 157.064 185.747C156.473 185.693 155.929 185.486 155.434 185.127C154.937 184.778 154.471 184.269 154.036 183.602C153.658 183.022 153.401 182.449 153.264 181.883C153.128 181.316 153.141 180.751 153.303 180.187C153.459 179.628 153.779 179.065 154.262 178.498C154.749 177.938 155.428 177.374 156.297 176.807ZM156.66 177.365C156.087 177.739 155.619 178.102 155.257 178.455C154.899 178.814 154.624 179.164 154.433 179.504C154.236 179.848 154.115 180.179 154.07 180.495C154.019 180.816 154.019 181.126 154.07 181.425C154.119 181.734 154.21 182.025 154.343 182.297C154.473 182.58 154.623 182.85 154.791 183.109C155.173 183.694 155.574 184.143 155.992 184.453C156.41 184.764 156.864 184.944 157.353 184.993C157.843 185.041 158.374 184.96 158.945 184.749C159.521 184.544 160.152 184.218 160.838 183.77C161.531 183.318 162.087 182.87 162.507 182.426C162.924 181.992 163.209 181.541 163.362 181.073C163.515 180.606 163.533 180.118 163.417 179.61C163.301 179.102 163.052 178.555 162.67 177.969C162.502 177.711 162.318 177.463 162.118 177.225C161.916 176.998 161.686 176.798 161.429 176.624C161.17 176.461 160.887 176.336 160.579 176.25C160.265 176.167 159.914 176.145 159.525 176.183C159.131 176.225 158.697 176.337 158.224 176.52C157.754 176.709 157.233 176.991 156.66 177.365Z" fill="white"/>
<path d="M139.054 185.799C139.021 185.708 138.995 185.613 138.976 185.516C138.957 185.419 138.952 185.329 138.962 185.245C138.964 185.164 138.985 185.089 139.024 185.019C139.065 184.956 139.128 184.909 139.213 184.878C139.319 184.84 139.408 184.832 139.48 184.854C139.547 184.885 139.608 184.931 139.662 184.992C139.716 185.052 139.763 185.127 139.803 185.217C139.836 185.308 139.87 185.4 139.903 185.492L141.231 189.162C141.431 189.713 141.647 190.179 141.881 190.558C142.107 190.94 142.389 191.222 142.727 191.403C143.06 191.595 143.463 191.681 143.936 191.661C144.401 191.645 144.974 191.514 145.652 191.268C146.07 191.117 146.499 190.922 146.94 190.682C147.383 190.449 147.787 190.171 148.149 189.848C148.515 189.532 148.81 189.177 149.035 188.784C149.261 188.39 149.362 187.962 149.338 187.499L147.603 182.705C147.569 182.613 147.54 182.52 147.513 182.425C147.487 182.331 147.475 182.243 147.478 182.162C147.481 182.081 147.501 182.006 147.54 181.936C147.574 181.875 147.634 181.83 147.718 181.799C147.817 181.763 147.906 181.755 147.985 181.775C148.06 181.804 148.128 181.847 148.189 181.905C148.242 181.965 148.293 182.039 148.341 182.126C148.381 182.215 148.418 182.306 148.451 182.398L150.939 189.27C150.982 189.39 150.997 189.509 150.984 189.626C150.973 189.75 150.868 189.848 150.67 189.919C150.493 189.983 150.366 189.973 150.288 189.89C150.205 189.816 150.139 189.712 150.09 189.577L149.607 188.241C149.573 188.765 149.427 189.226 149.171 189.622C148.917 190.026 148.606 190.37 148.238 190.656C147.865 190.951 147.47 191.198 147.054 191.396C146.631 191.597 146.24 191.763 145.879 191.894C145.115 192.17 144.451 192.335 143.886 192.387C143.317 192.449 142.818 192.386 142.39 192.197C141.955 192.011 141.579 191.691 141.263 191.238C140.942 190.794 140.649 190.204 140.383 189.469L139.054 185.799Z" fill="white"/>
<path d="M125.784 189.452C125.832 189.848 126.011 190.136 126.321 190.318C126.624 190.501 127.013 190.613 127.487 190.653C127.955 190.702 128.485 190.702 129.078 190.652C129.664 190.611 130.264 190.56 130.877 190.5C131.485 190.449 132.086 190.41 132.681 190.382C133.27 190.363 133.804 190.4 134.285 190.493C134.76 190.594 135.156 190.769 135.474 191.018C135.786 191.276 135.973 191.654 136.034 192.155C136.097 192.67 136.01 193.108 135.774 193.47C135.53 193.833 135.193 194.14 134.761 194.389C134.33 194.639 133.831 194.836 133.265 194.981C132.7 195.126 132.119 195.235 131.521 195.308C130.544 195.427 129.623 195.456 128.759 195.395C127.897 195.341 127.08 195.168 126.31 194.876C126.231 194.848 126.176 194.805 126.147 194.748C126.11 194.7 126.085 194.646 126.07 194.587C126.058 194.49 126.078 194.401 126.128 194.319C126.179 194.237 126.241 194.191 126.316 194.182C126.361 194.177 126.392 194.181 126.408 194.194C127.082 194.437 127.833 194.603 128.662 194.691C129.484 194.788 130.396 194.775 131.396 194.653C131.903 194.591 132.392 194.497 132.861 194.371C133.332 194.253 133.745 194.097 134.1 193.902C134.448 193.716 134.719 193.485 134.913 193.212C135.108 192.946 135.183 192.63 135.138 192.264C135.092 191.891 134.919 191.62 134.618 191.452C134.31 191.286 133.923 191.181 133.455 191.14C132.982 191.107 132.452 191.115 131.867 191.163C131.275 191.213 130.675 191.264 130.068 191.315C129.453 191.367 128.851 191.399 128.261 191.411C127.665 191.43 127.13 191.386 126.654 191.277C126.172 191.177 125.775 190.991 125.461 190.719C125.141 190.455 124.95 190.069 124.888 189.562C124.832 189.106 124.927 188.704 125.173 188.356C125.418 188.008 125.764 187.708 126.21 187.457C126.658 187.213 127.186 187.008 127.794 186.843C128.397 186.686 129.026 186.568 129.683 186.487C130.086 186.438 130.524 186.396 130.997 186.361C131.461 186.319 131.933 186.303 132.411 186.313C132.883 186.331 133.344 186.385 133.794 186.474C134.238 186.571 134.636 186.727 134.988 186.942C135.102 187.011 135.167 187.102 135.18 187.214C135.192 187.311 135.176 187.396 135.132 187.469C135.081 187.551 135.015 187.597 134.933 187.607C134.873 187.615 134.827 187.605 134.793 187.579C134.453 187.401 134.096 187.266 133.721 187.176C133.339 187.086 132.942 187.029 132.53 187.003C132.118 186.978 131.689 186.977 131.245 187.001C130.802 187.032 130.346 187.077 129.875 187.134C129.316 187.203 128.781 187.294 128.273 187.41C127.758 187.533 127.31 187.686 126.931 187.869C126.545 188.06 126.247 188.282 126.035 188.535C125.825 188.796 125.741 189.101 125.784 189.452Z" fill="white"/>
</svg>
