<svg width="103" height="148" viewBox="0 0 103 148" fill="none" xmlns="http://www.w3.org/2000/svg">
<path id="Vector" d="M83.4406 125.23C90.3351 124.007 94.0164 115.925 102.552 118.734C101.346 120.247 100.744 121.34 99.8612 122.058C89.9925 129.903 80.1234 137.765 70.1147 145.415C68.482 146.661 65.7403 147.995 64.132 147.461C61.1706 146.463 61.7844 143.461 62.4542 140.813C64.5655 132.63 66.5653 124.413 68.6303 116.15C71.6656 117.662 72.7063 123.162 71.7526 132.649C90.3676 114.109 88.1175 85.3558 66.6508 71.2627C65.3654 73.4635 64.1594 75.6982 62.811 77.8495C58.833 84.1604 53.5147 88.7403 46.1836 90.8197C40.7903 92.3496 35.8481 91.6757 32.0136 87.4492C28.0696 83.0919 28.5697 78.0335 30.6744 72.9635C35.2234 61.9968 45.1275 56.8314 56.8635 59.2962C58.3165 59.602 59.8067 59.684 61.7907 59.9216C63.2862 44.9549 60.678 31.2424 51.9637 19.3645C38.5347 1.04222 19.2594 4.87155 6.29441 14.1227C4.69597 15.2736 3.29979 16.7018 0.893375 18.813C1.50423 13.8212 4.12639 11.3941 6.69827 9.0621C16.7908 -0.158111 33.6151 -2.03771 45.6087 4.62036C53.2769 8.88583 58.9442 15.0632 62.614 23.008C67.9956 34.6978 70.3971 46.9134 68.7245 59.7905C68.5675 61.0544 68.4741 62.3357 68.3236 64.0169C77.7869 71.179 86.0884 79.3414 89.1317 91.5556C92.1174 103.48 87.2389 114.118 83.457 125.214L83.4406 125.23ZM60.2567 67.4112C49.2441 62.0589 39.1885 65.4241 35.8654 75.3918C35.0739 77.7482 35.2848 81.1703 36.4885 83.2673C38.2017 86.2423 41.6588 85.9037 44.781 84.7715C52.8697 81.8269 57.4344 75.8181 60.2727 67.4116L60.2567 67.4112Z" fill="#97A3F5"/>
</svg>
