<svg width="31" height="30" viewBox="0 0 31 30" fill="none" xmlns="http://www.w3.org/2000/svg">
<path id="Vector" d="M9.39019 0H21.9902C26.7902 0 30.6902 3.9 30.6902 8.7V21.3C30.6902 23.6074 29.7736 25.8203 28.142 27.4518C26.5104 29.0834 24.2976 30 21.9902 30H9.39019C4.59019 30 0.690186 26.1 0.690186 21.3V8.7C0.690186 6.39262 1.60679 4.17974 3.23836 2.54817C4.86992 0.916605 7.0828 0 9.39019 0ZM9.09019 3C7.65802 3 6.28451 3.56893 5.27181 4.58162C4.25911 5.59432 3.69019 6.96783 3.69019 8.4V21.6C3.69019 24.585 6.10519 27 9.09019 27H22.2902C23.7224 27 25.0959 26.4311 26.1086 25.4184C27.1213 24.4057 27.6902 23.0322 27.6902 21.6V8.4C27.6902 5.415 25.2752 3 22.2902 3H9.09019ZM23.5652 5.25C24.0625 5.25 24.5394 5.44754 24.891 5.79917C25.2426 6.15081 25.4402 6.62772 25.4402 7.125C25.4402 7.62228 25.2426 8.09919 24.891 8.45082C24.5394 8.80246 24.0625 9 23.5652 9C23.0679 9 22.591 8.80246 22.2394 8.45082C21.8877 8.09919 21.6902 7.62228 21.6902 7.125C21.6902 6.62772 21.8877 6.15081 22.2394 5.79917C22.591 5.44754 23.0679 5.25 23.5652 5.25ZM15.6902 7.5C17.6793 7.5 19.587 8.29018 20.9935 9.6967C22.4 11.1032 23.1902 13.0109 23.1902 15C23.1902 16.9891 22.4 18.8968 20.9935 20.3033C19.587 21.7098 17.6793 22.5 15.6902 22.5C13.7011 22.5 11.7934 21.7098 10.3869 20.3033C8.98036 18.8968 8.19019 16.9891 8.19019 15C8.19019 13.0109 8.98036 11.1032 10.3869 9.6967C11.7934 8.29018 13.7011 7.5 15.6902 7.5ZM15.6902 10.5C14.4967 10.5 13.3521 10.9741 12.5082 11.818C11.6643 12.6619 11.1902 13.8065 11.1902 15C11.1902 16.1935 11.6643 17.3381 12.5082 18.182C13.3521 19.0259 14.4967 19.5 15.6902 19.5C16.8837 19.5 18.0283 19.0259 18.8722 18.182C19.7161 17.3381 20.1902 16.1935 20.1902 15C20.1902 13.8065 19.7161 12.6619 18.8722 11.818C18.0283 10.9741 16.8837 10.5 15.6902 10.5Z" fill="white"/>
</svg>
