<svg width="24" height="30" viewBox="0 0 24 30" fill="none" xmlns="http://www.w3.org/2000/svg">
<path id="Vector" d="M10.1415 19.8407C9.35252 23.9716 8.39104 27.9315 5.5396 30C4.66062 23.7571 6.83108 19.0697 7.84055 14.0928C6.12009 11.1979 8.04755 5.37503 11.673 6.8105C16.1354 8.57446 7.80906 17.5683 13.3979 18.6932C19.2343 19.8647 21.6163 8.56846 17.9968 4.89504C12.7695 -0.411849 2.77816 4.77054 4.00814 12.3679C4.30663 14.2248 6.22509 14.7873 4.77462 17.3508C1.42819 16.6098 0.429212 13.9698 0.55821 10.4509C0.765205 4.69104 5.7316 0.660628 10.7145 0.10114C17.0159 -0.605345 22.9302 2.41559 23.7477 8.34196C24.6672 15.0333 20.9038 22.2812 14.1644 21.7592C12.3375 21.6167 11.5725 20.7107 10.1415 19.8407Z" fill="white"/>
</svg>
