<svg width="51" height="50" viewBox="0 0 51 50" fill="none" xmlns="http://www.w3.org/2000/svg">
<g id="ph:dots-three-outline-fill">
<path id="Vector" d="M30.9688 25C30.9688 26.0816 30.648 27.1389 30.0471 28.0383C29.4462 28.9376 28.5921 29.6385 27.5928 30.0525C26.5935 30.4664 25.4939 30.5747 24.4331 30.3637C23.3723 30.1527 22.3978 29.6318 21.633 28.867C20.8682 28.1022 20.3473 27.1277 20.1363 26.0669C19.9253 25.0061 20.0336 23.9065 20.4475 22.9072C20.8615 21.9079 21.5624 21.0538 22.4617 20.4529C23.3611 19.852 24.4184 19.5312 25.5 19.5312C26.9488 19.5364 28.3368 20.1142 29.3613 21.1387C30.3858 22.1632 30.9636 23.5512 30.9688 25ZM9.875 19.5312C8.79339 19.5312 7.73606 19.852 6.83673 20.4529C5.9374 21.0538 5.23645 21.9079 4.82254 22.9072C4.40862 23.9065 4.30032 25.0061 4.51133 26.0669C4.72235 27.1277 5.24319 28.1022 6.00801 28.867C6.77283 29.6318 7.74727 30.1527 8.8081 30.3637C9.86894 30.5747 10.9685 30.4664 11.9678 30.0525C12.9671 29.6385 13.8212 28.9376 14.4221 28.0383C15.023 27.1389 15.3438 26.0816 15.3438 25C15.3386 23.5512 14.7608 22.1632 13.7363 21.1387C12.7118 20.1142 11.3238 19.5364 9.875 19.5312ZM41.125 19.5312C40.0434 19.5312 38.9861 19.852 38.0867 20.4529C37.1874 21.0538 36.4865 21.9079 36.0725 22.9072C35.6586 23.9065 35.5503 25.0061 35.7613 26.0669C35.9723 27.1277 36.4932 28.1022 37.258 28.867C38.0228 29.6318 38.9973 30.1527 40.0581 30.3637C41.1189 30.5747 42.2185 30.4664 43.2178 30.0525C44.2171 29.6385 45.0712 28.9376 45.6721 28.0383C46.273 27.1389 46.5938 26.0816 46.5938 25C46.5886 23.5512 46.0108 22.1632 44.9863 21.1387C43.9618 20.1142 42.5738 19.5364 41.125 19.5312Z" fill="white"/>
</g>
</svg>
