<svg width="14" height="14" viewBox="0 0 14 14" fill="none" xmlns="http://www.w3.org/2000/svg">
<g id="icon-wrapper" clip-path="url(#clip0_421_12256)">
<path id="Union" d="M9.625 1.74902C9.625 1.51696 9.71719 1.2944 9.88128 1.1303C10.0454 0.966211 10.2679 0.874023 10.5 0.874023H12.25C12.4821 0.874023 12.7046 0.966211 12.8687 1.1303C13.0328 1.2944 13.125 1.51696 13.125 1.74902V12.249H13.5625C13.6785 12.249 13.7898 12.2951 13.8719 12.3772C13.9539 12.4592 14 12.5705 14 12.6865C14 12.8026 13.9539 12.9138 13.8719 12.9959C13.7898 13.0779 13.6785 13.124 13.5625 13.124H0.4375C0.321468 13.124 0.210188 13.0779 0.128141 12.9959C0.0460936 12.9138 0 12.8026 0 12.6865C0 12.5705 0.0460936 12.4592 0.128141 12.3772C0.210188 12.2951 0.321468 12.249 0.4375 12.249H0.875V9.62402C0.875 9.39196 0.967187 9.1694 1.13128 9.00531C1.29538 8.84121 1.51794 8.74902 1.75 8.74902H3.5C3.73206 8.74902 3.95462 8.84121 4.11872 9.00531C4.28281 9.1694 4.375 9.39196 4.375 9.62402V12.249H5.25V6.12402C5.25 5.89196 5.34219 5.6694 5.50628 5.50531C5.67038 5.34121 5.89294 5.24902 6.125 5.24902H7.875C8.10706 5.24902 8.32962 5.34121 8.49372 5.50531C8.65781 5.6694 8.75 5.89196 8.75 6.12402V12.249H9.625V1.74902ZM10.5 12.249H12.25V1.74902H10.5V12.249ZM7.875 12.249V6.12402H6.125V12.249H7.875ZM3.5 12.249V9.62402H1.75V12.249H3.5Z" fill="#212529"/>
</g>
<defs>
<clipPath id="clip0_421_12256">
<rect width="14" height="14" fill="white"/>
</clipPath>
</defs>
</svg>
