<svg width="144" height="144" viewBox="0 0 144 144" fill="none" xmlns="http://www.w3.org/2000/svg">
<path d="M55.1543 80.168C53.9543 80.168 52.8743 79.912 51.9143 79.4C50.9703 78.888 50.2183 78.184 49.6583 77.288C49.1143 76.392 48.8423 75.368 48.8423 74.216C48.8423 73.32 49.0263 72.416 49.3943 71.504C49.7623 70.592 50.3143 69.656 51.0503 68.696L55.2983 63.2H58.8503L53.8583 69.56L50.7383 72.872C51.0263 71.608 51.6183 70.608 52.5143 69.872C53.4103 69.12 54.4903 68.744 55.7543 68.744C56.8263 68.744 57.7863 68.976 58.6343 69.44C59.4983 69.888 60.1783 70.528 60.6743 71.36C61.1703 72.176 61.4183 73.152 61.4183 74.288C61.4183 75.424 61.1383 76.44 60.5783 77.336C60.0183 78.216 59.2663 78.912 58.3223 79.424C57.3783 79.92 56.3223 80.168 55.1543 80.168ZM52.1303 74.288C52.1303 74.912 52.2503 75.464 52.4903 75.944C52.7303 76.408 53.0743 76.768 53.5223 77.024C53.9703 77.28 54.5143 77.408 55.1543 77.408C55.7943 77.408 56.3303 77.28 56.7623 77.024C57.2103 76.768 57.5543 76.408 57.7943 75.944C58.0343 75.464 58.1543 74.912 58.1543 74.288C58.1543 73.648 58.0343 73.104 57.7943 72.656C57.5543 72.192 57.2103 71.832 56.7623 71.576C56.3303 71.32 55.7943 71.192 55.1543 71.192C54.5143 71.192 53.9703 71.32 53.5223 71.576C53.0743 71.832 52.7303 72.192 52.4903 72.656C52.2503 73.104 52.1303 73.648 52.1303 74.288ZM66.4182 71.096C65.6982 70.76 65.1142 70.296 64.6662 69.704C64.2342 69.096 64.0182 68.336 64.0182 67.424C64.0182 66.624 64.2262 65.896 64.6422 65.24C65.0742 64.568 65.7222 64.032 66.5862 63.632C67.4502 63.232 68.5462 63.032 69.8742 63.032C71.2022 63.032 72.2982 63.232 73.1622 63.632C74.0262 64.032 74.6742 64.568 75.1062 65.24C75.5382 65.896 75.7542 66.624 75.7542 67.424C75.7542 68.288 75.5222 69.04 75.0582 69.68C74.6102 70.304 74.0422 70.776 73.3542 71.096C74.2342 71.448 74.9222 71.976 75.4182 72.68C75.9302 73.384 76.1862 74.224 76.1862 75.2C76.1862 76.24 75.9062 77.128 75.3462 77.864C74.8022 78.6 74.0582 79.168 73.1142 79.568C72.1702 79.968 71.0902 80.168 69.8742 80.168C68.6742 80.168 67.6022 79.968 66.6582 79.568C65.7142 79.168 64.9622 78.6 64.4022 77.864C63.8582 77.128 63.5862 76.24 63.5862 75.2C63.5862 74.224 63.8422 73.384 64.3542 72.68C64.8662 71.96 65.5542 71.432 66.4182 71.096ZM72.4662 67.856C72.4662 67.088 72.2422 66.536 71.7942 66.2C71.3462 65.864 70.7062 65.696 69.8742 65.696C69.0742 65.696 68.4422 65.864 67.9782 66.2C67.5142 66.52 67.2822 67.072 67.2822 67.856C67.2822 68.56 67.5142 69.12 67.9782 69.536C68.4582 69.952 69.0902 70.16 69.8742 70.16C70.6742 70.16 71.3062 69.952 71.7702 69.536C72.2342 69.104 72.4662 68.544 72.4662 67.856ZM69.8742 72.464C69.2822 72.464 68.7622 72.56 68.3142 72.752C67.8662 72.944 67.5142 73.232 67.2582 73.616C67.0022 74 66.8742 74.48 66.8742 75.056C66.8742 75.824 67.1222 76.424 67.6182 76.856C68.1302 77.288 68.8822 77.504 69.8742 77.504C70.8662 77.504 71.6182 77.288 72.1302 76.856C72.6422 76.408 72.8982 75.808 72.8982 75.056C72.8982 74.496 72.7702 74.024 72.5142 73.64C72.2742 73.256 71.9302 72.968 71.4822 72.776C71.0342 72.568 70.4982 72.464 69.8742 72.464ZM78.3473 66.896C78.3473 65.648 78.7073 64.696 79.4273 64.04C80.1473 63.368 81.0513 63.032 82.1393 63.032C83.2113 63.032 84.1073 63.368 84.8273 64.04C85.5473 64.696 85.9073 65.648 85.9073 66.896C85.9073 68.144 85.5473 69.104 84.8273 69.776C84.1073 70.448 83.2113 70.784 82.1393 70.784C81.0513 70.784 80.1473 70.448 79.4273 69.776C78.7073 69.104 78.3473 68.144 78.3473 66.896ZM82.1153 64.976C81.6833 64.976 81.3473 65.128 81.1073 65.432C80.8673 65.72 80.7473 66.208 80.7473 66.896C80.7473 67.568 80.8673 68.064 81.1073 68.384C81.3473 68.688 81.6833 68.84 82.1153 68.84C82.5313 68.84 82.8673 68.688 83.1233 68.384C83.3793 68.064 83.5073 67.568 83.5073 66.896C83.5073 66.208 83.3793 65.72 83.1233 65.432C82.8673 65.128 82.5313 64.976 82.1153 64.976ZM90.4433 63.2H93.6113L84.1553 80H80.9873L90.4433 63.2ZM88.7393 76.28C88.7393 75.032 89.0993 74.08 89.8193 73.424C90.5393 72.752 91.4433 72.416 92.5313 72.416C93.5873 72.416 94.4753 72.752 95.1953 73.424C95.9153 74.08 96.2753 75.032 96.2753 76.28C96.2753 77.544 95.9153 78.512 95.1953 79.184C94.4753 79.84 93.5873 80.168 92.5313 80.168C91.4433 80.168 90.5393 79.84 89.8193 79.184C89.0993 78.512 88.7393 77.544 88.7393 76.28ZM92.5073 74.36C92.0753 74.36 91.7313 74.512 91.4753 74.816C91.2353 75.12 91.1153 75.608 91.1153 76.28C91.1153 76.952 91.2353 77.44 91.4753 77.744C91.7313 78.048 92.0753 78.2 92.5073 78.2C92.9233 78.2 93.2513 78.048 93.4913 77.744C93.7473 77.44 93.8753 76.952 93.8753 76.28C93.8753 75.608 93.7473 75.12 93.4913 74.816C93.2513 74.512 92.9233 74.36 92.5073 74.36Z" fill="#F8F9FA"/>
<path d="M36.3529 35.6491C42.0658 30.0861 49.0186 25.9385 56.6474 23.5427C64.2762 21.1468 72.3662 20.5702 80.2613 21.8595C88.1565 23.1488 95.6345 26.2678 102.089 30.9636C108.543 35.6593 113.793 41.7996 117.411 48.8864C121.029 55.9732 122.914 63.8071 122.914 71.7527C122.913 79.6983 121.027 87.532 117.408 94.6185C113.789 101.705 108.539 107.845 102.085 112.54C95.6296 117.235 88.1512 120.353 80.2559 121.641L77.1214 102.7C82.0193 101.901 86.6585 99.9665 90.6629 97.054C94.6672 94.1414 97.9239 90.3326 100.169 85.9365C102.414 81.5404 103.584 76.6808 103.584 71.7517C103.585 66.8226 102.415 61.9628 100.17 57.5665C97.926 53.1702 94.6696 49.361 90.6656 46.448C86.6616 43.535 82.0226 41.6001 77.1248 40.8003C72.227 40.0005 67.2084 40.3582 62.4758 41.8445C57.7433 43.3307 53.4301 45.9037 49.8861 49.3547L36.3529 35.6491Z" fill="#DDC6FF"/>
<g filter="url(#filter0_d_126_21615)">
<path d="M117.836 93.3789C114.414 100.561 109.334 106.84 103.011 111.709C96.6875 116.577 89.2976 119.897 81.4407 121.399C73.5837 122.901 65.4809 122.543 57.7894 120.354C50.0978 118.165 43.034 114.206 37.1709 108.8C31.3078 103.393 26.8103 96.6901 24.0433 89.2347C21.2763 81.7794 20.3177 73.7813 21.2451 65.8893C22.1725 57.9972 24.9599 50.4333 29.3812 43.8109C33.8025 37.1886 39.7333 31.6942 46.6925 27.7734L56.0114 44.0852C51.6335 46.5517 47.9026 50.0081 45.1212 54.174C42.3399 58.34 40.5864 63.0983 40.003 68.063C39.4196 73.0278 40.0226 78.0592 41.7633 82.7492C43.504 87.4392 46.3332 91.6558 50.0216 95.057C53.7099 98.4583 58.1536 100.948 62.9922 102.325C67.8308 103.702 72.9281 103.928 77.8707 102.983C82.8133 102.038 87.4621 99.9496 91.4401 96.887C95.418 93.8245 98.6132 89.8741 100.766 85.3561L117.836 93.3789Z" fill="white"/>
</g>
<defs>
<filter id="filter0_d_126_21615" x="9.90234" y="16.7734" width="118.934" height="116.537" filterUnits="userSpaceOnUse" color-interpolation-filters="sRGB">
<feFlood flood-opacity="0" result="BackgroundImageFix"/>
<feColorMatrix in="SourceAlpha" type="matrix" values="0 0 0 0 0 0 0 0 0 0 0 0 0 0 0 0 0 0 127 0" result="hardAlpha"/>
<feOffset/>
<feGaussianBlur stdDeviation="5.5"/>
<feComposite in2="hardAlpha" operator="out"/>
<feColorMatrix type="matrix" values="0 0 0 0 0.837903 0 0 0 0 0.495139 0 0 0 0 0.958333 0 0 0 1 0"/>
<feBlend mode="normal" in2="BackgroundImageFix" result="effect1_dropShadow_126_21615"/>
<feBlend mode="normal" in="SourceGraphic" in2="effect1_dropShadow_126_21615" result="shape"/>
</filter>
</defs>
</svg>
