<svg width="14" height="14" viewBox="0 0 14 14" fill="none" xmlns="http://www.w3.org/2000/svg">
<g id="icon-wrapper" clip-path="url(#clip0_421_12222)">
<path id="Union" d="M13.125 12.249C13.125 12.249 14 12.249 14 11.374C14 10.499 13.125 7.87402 9.625 7.87402C6.125 7.87402 5.25 10.499 5.25 11.374C5.25 12.249 6.125 12.249 6.125 12.249H13.125ZM6.14425 11.374C6.13779 11.3731 6.13136 11.372 6.125 11.3705C6.12587 11.1395 6.27113 10.4693 6.79 9.86552C7.273 9.2994 8.12175 8.74902 9.625 8.74902C11.1274 8.74902 11.9761 9.30027 12.46 9.86552C12.9789 10.4693 13.1233 11.1404 13.125 11.3705L13.118 11.3723C13.1139 11.373 13.1098 11.3735 13.1058 11.374H6.14425ZM9.625 6.12402C10.0891 6.12402 10.5342 5.93965 10.8624 5.61146C11.1906 5.28327 11.375 4.83815 11.375 4.37402C11.375 3.90989 11.1906 3.46478 10.8624 3.13659C10.5342 2.8084 10.0891 2.62402 9.625 2.62402C9.16087 2.62402 8.71575 2.8084 8.38756 3.13659C8.05937 3.46478 7.875 3.90989 7.875 4.37402C7.875 4.83815 8.05937 5.28327 8.38756 5.61146C8.71575 5.93965 9.16087 6.12402 9.625 6.12402ZM12.25 4.37402C12.25 4.71874 12.1821 5.06009 12.0502 5.37857C11.9183 5.69705 11.7249 5.98642 11.4812 6.23018C11.2374 6.47393 10.948 6.66729 10.6295 6.79921C10.3111 6.93113 9.96972 6.99902 9.625 6.99902C9.28028 6.99902 8.93894 6.93113 8.62046 6.79921C8.30198 6.66729 8.0126 6.47393 7.76884 6.23018C7.52509 5.98642 7.33173 5.69705 7.19982 5.37857C7.0679 5.06009 7 4.71874 7 4.37402C7 3.67783 7.27656 3.01015 7.76884 2.51787C8.26113 2.02559 8.92881 1.74902 9.625 1.74902C10.3212 1.74902 10.9889 2.02559 11.4812 2.51787C11.9734 3.01015 12.25 3.67783 12.25 4.37402ZM6.069 8.11902C5.71898 8.00881 5.35818 7.93635 4.99275 7.9029C4.78742 7.88337 4.58126 7.87374 4.375 7.87402C0.875 7.87402 0 10.499 0 11.374C0 11.9576 0.291375 12.249 0.875 12.249H4.564C4.43429 11.9759 4.3696 11.6764 4.375 11.374C4.375 10.4903 4.70487 9.58727 5.32875 8.83302C5.54138 8.57577 5.789 8.33515 6.069 8.11902ZM4.305 8.74902C3.78713 9.52714 3.50739 10.4394 3.5 11.374H0.875C0.875 11.1465 1.0185 10.4728 1.54 9.86552C2.01688 9.30902 2.8455 8.76652 4.305 8.7499V8.74902ZM1.3125 4.81152C1.3125 4.11533 1.58906 3.44765 2.08134 2.95537C2.57363 2.46309 3.24131 2.18652 3.9375 2.18652C4.63369 2.18652 5.30137 2.46309 5.79366 2.95537C6.28594 3.44765 6.5625 4.11533 6.5625 4.81152C6.5625 5.50772 6.28594 6.1754 5.79366 6.66768C5.30137 7.15996 4.63369 7.43652 3.9375 7.43652C3.24131 7.43652 2.57363 7.15996 2.08134 6.66768C1.58906 6.1754 1.3125 5.50772 1.3125 4.81152ZM3.9375 3.06152C3.47337 3.06152 3.02825 3.2459 2.70006 3.57409C2.37187 3.90228 2.1875 4.34739 2.1875 4.81152C2.1875 5.27565 2.37187 5.72077 2.70006 6.04896C3.02825 6.37715 3.47337 6.56152 3.9375 6.56152C4.40163 6.56152 4.84675 6.37715 5.17494 6.04896C5.50313 5.72077 5.6875 5.27565 5.6875 4.81152C5.6875 4.34739 5.50313 3.90228 5.17494 3.57409C4.84675 3.2459 4.40163 3.06152 3.9375 3.06152Z" fill="#212529"/>
</g>
<defs>
<clipPath id="clip0_421_12222">
<rect width="14" height="14" fill="white"/>
</clipPath>
</defs>
</svg>
