<svg width="14" height="14" viewBox="0 0 14 14" fill="none" xmlns="http://www.w3.org/2000/svg">
<g id="icon-wrapper" clip-path="url(#clip0_421_12273)">
<path id="Union" d="M12.25 12.249V3.93652L8.3125 -0.000976562H3.5C3.03587 -0.000976562 2.59075 0.183398 2.26256 0.511587C1.93437 0.839775 1.75 1.28489 1.75 1.74902V12.249C1.75 12.7132 1.93437 13.1583 2.26256 13.4865C2.59075 13.8146 3.03587 13.999 3.5 13.999H10.5C10.9641 13.999 11.4092 13.8146 11.7374 13.4865C12.0656 13.1583 12.25 12.7132 12.25 12.249ZM8.3125 2.62402C8.3125 2.97212 8.45078 3.30596 8.69692 3.5521C8.94306 3.79824 9.2769 3.93652 9.625 3.93652H11.375V7.87402H2.625V1.74902C2.625 1.51696 2.71719 1.2944 2.88128 1.1303C3.04538 0.966211 3.26794 0.874023 3.5 0.874023H8.3125V2.62402ZM2.625 10.499V8.74902H4.375V10.499H2.625ZM2.625 11.374H4.375V13.124H3.5C3.26794 13.124 3.04538 13.0318 2.88128 12.8677C2.71719 12.7036 2.625 12.4811 2.625 12.249V11.374ZM5.25 13.124V11.374H11.375V12.249C11.375 12.4811 11.2828 12.7036 11.1187 12.8677C10.9546 13.0318 10.7321 13.124 10.5 13.124H5.25ZM11.375 10.499H5.25V8.74902H11.375V10.499Z" fill="#212529"/>
</g>
<defs>
<clipPath id="clip0_421_12273">
<rect width="14" height="14" fill="white"/>
</clipPath>
</defs>
</svg>
