<svg width="30" height="29" viewBox="0 0 30 29" fill="none" xmlns="http://www.w3.org/2000/svg">
<g clip-path="url(#clip0_421_8355)">
<path d="M29.4997 14.5887C29.4997 6.5303 23.0073 -0.00195312 14.9997 -0.00195312C6.98847 -0.000140625 0.496094 6.5303 0.496094 14.5905C0.496094 21.8713 5.79947 27.9069 12.7305 29.0017V18.8064H9.05109V14.5905H12.7341V11.3733C12.7341 7.71748 14.9 5.69836 18.2115 5.69836C19.7992 5.69836 21.4577 5.98292 21.4577 5.98292V9.57167H19.6288C17.829 9.57167 17.2672 10.6972 17.2672 11.8518V14.5887H21.2873L20.6457 18.8045H17.2653V28.9999C24.1963 27.9051 29.4997 21.8695 29.4997 14.5887Z" fill="#9A55FF"/>
</g>
<defs>
<clipPath id="clip0_421_8355">
<rect width="29" height="29" fill="white" transform="translate(0.5)"/>
</clipPath>
</defs>
</svg>
