<svg width="29" height="29" viewBox="0 0 29 29" fill="none" xmlns="http://www.w3.org/2000/svg">
<rect x="0.375" y="0.375" width="27.75" height="27.75" rx="13.875" fill="#9A55FF"/>
<g clip-path="url(#clip0_51_25150)">
<rect width="12" height="12" transform="translate(8.25 8.25)" fill="white" fill-opacity="0.01"/>
<g clip-path="url(#clip1_51_25150)">
<path fill-rule="evenodd" clip-rule="evenodd" d="M8.25 8.24951H9V19.4995H20.25V20.2495H8.25V8.24951ZM15.75 10.8745C15.75 10.7751 15.7895 10.6797 15.8598 10.6093C15.9302 10.539 16.0255 10.4995 16.125 10.4995H19.125C19.2245 10.4995 19.3198 10.539 19.3902 10.6093C19.4605 10.6797 19.5 10.7751 19.5 10.8745V13.8745C19.5 13.974 19.4605 14.0694 19.3902 14.1397C19.3198 14.21 19.2245 14.2495 19.125 14.2495C19.0255 14.2495 18.9302 14.21 18.8598 14.1397C18.7895 14.0694 18.75 13.974 18.75 13.8745V11.9245L16.0402 15.2373C16.0071 15.2778 15.9658 15.3108 15.9191 15.3344C15.8723 15.358 15.8212 15.3715 15.7689 15.3741C15.7166 15.3768 15.6644 15.3684 15.6155 15.3496C15.5667 15.3308 15.5223 15.302 15.4853 15.265L13.545 13.3248L10.803 17.095C10.743 17.1713 10.6558 17.2213 10.5597 17.2347C10.4636 17.248 10.366 17.2235 10.2876 17.1664C10.2091 17.1093 10.1558 17.024 10.139 16.9285C10.1221 16.8329 10.1429 16.7345 10.197 16.654L13.197 12.529C13.2288 12.4851 13.2698 12.4487 13.3171 12.4222C13.3644 12.3957 13.4168 12.3798 13.4709 12.3755C13.5249 12.3712 13.5792 12.3787 13.6301 12.3974C13.681 12.4162 13.7272 12.4457 13.7655 12.484L15.7222 14.4415L18.3337 11.2495H16.125C16.0255 11.2495 15.9302 11.21 15.8598 11.1397C15.7895 11.0694 15.75 10.974 15.75 10.8745Z" fill="white"/>
</g>
</g>
<rect x="0.375" y="0.375" width="27.75" height="27.75" rx="13.875" stroke="#9A55FF" stroke-width="0.75"/>
<defs>
<clipPath id="clip0_51_25150">
<rect width="12" height="12" fill="white" transform="translate(8.25 8.25)"/>
</clipPath>
<clipPath id="clip1_51_25150">
<rect width="12" height="12" fill="white" transform="translate(8.25 8.25)"/>
</clipPath>
</defs>
</svg>
