<svg width="29" height="29" viewBox="0 0 29 29" fill="none" xmlns="http://www.w3.org/2000/svg">
<rect x="0.375" y="0.375" width="27.75" height="27.75" rx="13.875" fill="#9A55FF"/>
<g clip-path="url(#clip0_51_25023)">
<rect width="12" height="12" transform="translate(8.25 8.25)" fill="white" fill-opacity="0.01"/>
<g clip-path="url(#clip1_51_25023)">
<path fill-rule="evenodd" clip-rule="evenodd" d="M8.25 8.24951H9V19.4995H20.25V20.2495H8.25V8.24951ZM15.75 16.8745C15.75 16.974 15.7895 17.0694 15.8598 17.1397C15.9302 17.21 16.0255 17.2495 16.125 17.2495H19.125C19.2245 17.2495 19.3198 17.21 19.3902 17.1397C19.4605 17.0694 19.5 16.974 19.5 16.8745V13.8745C19.5 13.7751 19.4605 13.6797 19.3902 13.6093C19.3198 13.539 19.2245 13.4995 19.125 13.4995C19.0255 13.4995 18.9302 13.539 18.8598 13.6093C18.7895 13.6797 18.75 13.7751 18.75 13.8745V15.8245L16.0402 12.5118C16.0071 12.4713 15.9658 12.4382 15.9191 12.4146C15.8723 12.391 15.8212 12.3775 15.7689 12.3749C15.7166 12.3723 15.6644 12.3806 15.6155 12.3994C15.5667 12.4182 15.5223 12.447 15.4853 12.484L13.545 14.4243L10.803 10.654C10.743 10.5777 10.6558 10.5277 10.5597 10.5144C10.4636 10.5011 10.366 10.5255 10.2876 10.5826C10.2091 10.6397 10.1558 10.725 10.139 10.8205C10.1221 10.9161 10.1429 11.0145 10.197 11.095L13.197 15.22C13.2288 15.2639 13.2698 15.3003 13.3171 15.3268C13.3644 15.3533 13.4168 15.3693 13.4709 15.3735C13.5249 15.3778 13.5792 15.3703 13.6301 15.3516C13.681 15.3329 13.7272 15.3033 13.7655 15.265L15.7222 13.3075L18.3337 16.4995H16.125C16.0255 16.4995 15.9302 16.539 15.8598 16.6093C15.7895 16.6797 15.75 16.7751 15.75 16.8745Z" fill="white"/>
</g>
</g>
<rect x="0.375" y="0.375" width="27.75" height="27.75" rx="13.875" stroke="#9A55FF" stroke-width="0.75"/>
<defs>
<clipPath id="clip0_51_25023">
<rect width="12" height="12" fill="white" transform="translate(8.25 8.25)"/>
</clipPath>
<clipPath id="clip1_51_25023">
<rect width="12" height="12" fill="white" transform="translate(8.25 8.25)"/>
</clipPath>
</defs>
</svg>
