<svg width="292" height="192" viewBox="0 0 292 192" fill="none" xmlns="http://www.w3.org/2000/svg">
<path d="M10.7185 45.112C10.0558 45.112 9.47245 44.986 8.96845 44.734C8.47379 44.482 8.09112 44.1273 7.82045 43.67C7.54979 43.2127 7.41445 42.6853 7.41445 42.088V41.094C7.41445 41.0007 7.46112 40.954 7.55445 40.954H8.61845C8.71179 40.954 8.75845 41.0007 8.75845 41.094V42.088C8.75845 42.648 8.93579 43.1007 9.29045 43.446C9.64512 43.782 10.1211 43.95 10.7185 43.95C11.2971 43.95 11.7685 43.782 12.1325 43.446C12.4965 43.1007 12.6785 42.648 12.6785 42.088V35.34C12.6785 35.2467 12.7251 35.2 12.8185 35.2H13.8825C13.9758 35.2 14.0225 35.2467 14.0225 35.34V42.088C14.0225 42.6853 13.8825 43.2127 13.6025 43.67C13.3318 44.1273 12.9445 44.482 12.4405 44.734C11.9365 44.986 11.3625 45.112 10.7185 45.112ZM20.3939 38.014C20.3939 37.9207 20.4405 37.874 20.5339 37.874H21.5839C21.6772 37.874 21.7239 37.9207 21.7239 38.014V44.86C21.7239 44.9533 21.6772 45 21.5839 45H20.5339C20.4405 45 20.3939 44.9533 20.3939 44.86V44.342C20.3939 44.3233 20.3845 44.314 20.3659 44.314C20.3565 44.3047 20.3425 44.3093 20.3239 44.328C19.9505 44.8413 19.3765 45.098 18.6019 45.098C18.1445 45.098 17.7199 45.0093 17.3279 44.832C16.9452 44.6547 16.6372 44.3933 16.4039 44.048C16.1705 43.7027 16.0539 43.2827 16.0539 42.788V38.014C16.0539 37.9207 16.1005 37.874 16.1939 37.874H17.2439C17.3372 37.874 17.3839 37.9207 17.3839 38.014V42.368C17.3839 42.8533 17.5099 43.236 17.7619 43.516C18.0232 43.796 18.3872 43.936 18.8539 43.936C19.3205 43.936 19.6939 43.796 19.9739 43.516C20.2539 43.2267 20.3939 42.844 20.3939 42.368V38.014ZM23.8251 45C23.7317 45 23.6851 44.9533 23.6851 44.86V35.34C23.6851 35.2467 23.7317 35.2 23.8251 35.2H24.8891C24.9824 35.2 25.0291 35.2467 25.0291 35.34V44.86C25.0291 44.9533 24.9824 45 24.8891 45H23.8251Z" fill="#6C757D"/>
<path d="M10.4255 90.112C9.76282 90.112 9.17948 89.986 8.67548 89.734C8.18082 89.482 7.79815 89.1273 7.52748 88.67C7.25682 88.2127 7.12148 87.6853 7.12148 87.088V86.094C7.12148 86.0007 7.16815 85.954 7.26148 85.954H8.32548C8.41882 85.954 8.46548 86.0007 8.46548 86.094V87.088C8.46548 87.648 8.64282 88.1007 8.99748 88.446C9.35215 88.782 9.82815 88.95 10.4255 88.95C11.0042 88.95 11.4755 88.782 11.8395 88.446C12.2035 88.1007 12.3855 87.648 12.3855 87.088V80.34C12.3855 80.2467 12.4322 80.2 12.5255 80.2H13.5895C13.6828 80.2 13.7295 80.2467 13.7295 80.34V87.088C13.7295 87.6853 13.5895 88.2127 13.3095 88.67C13.0388 89.1273 12.6515 89.482 12.1475 89.734C11.6435 89.986 11.0695 90.112 10.4255 90.112ZM20.1009 83.014C20.1009 82.9207 20.1476 82.874 20.2409 82.874H21.2909C21.3842 82.874 21.4309 82.9207 21.4309 83.014V89.86C21.4309 89.9533 21.3842 90 21.2909 90H20.2409C20.1476 90 20.1009 89.9533 20.1009 89.86V89.342C20.1009 89.3233 20.0916 89.314 20.0729 89.314C20.0636 89.3047 20.0496 89.3093 20.0309 89.328C19.6576 89.8413 19.0836 90.098 18.3089 90.098C17.8516 90.098 17.4269 90.0093 17.0349 89.832C16.6522 89.6547 16.3442 89.3933 16.1109 89.048C15.8776 88.7027 15.7609 88.2827 15.7609 87.788V83.014C15.7609 82.9207 15.8076 82.874 15.9009 82.874H16.9509C17.0442 82.874 17.0909 82.9207 17.0909 83.014V87.368C17.0909 87.8533 17.2169 88.236 17.4689 88.516C17.7302 88.796 18.0942 88.936 18.5609 88.936C19.0276 88.936 19.4009 88.796 19.6809 88.516C19.9609 88.2267 20.1009 87.844 20.1009 87.368V83.014ZM26.5701 82.776C27.3354 82.776 27.9421 83 28.3901 83.448C28.8381 83.8867 29.0621 84.484 29.0621 85.24V89.86C29.0621 89.9533 29.0154 90 28.9221 90H27.8581C27.7648 90 27.7181 89.9533 27.7181 89.86V85.506C27.7181 85.0393 27.5828 84.6613 27.3121 84.372C27.0414 84.0827 26.6821 83.938 26.2341 83.938C25.7954 83.938 25.4361 84.0827 25.1561 84.372C24.8761 84.6613 24.7361 85.0347 24.7361 85.492V89.86C24.7361 89.9533 24.6894 90 24.5961 90H23.5321C23.4388 90 23.3921 89.9533 23.3921 89.86V83.014C23.3921 82.9207 23.4388 82.874 23.5321 82.874H24.5961C24.6894 82.874 24.7361 82.9207 24.7361 83.014V83.518C24.7361 83.5367 24.7408 83.5507 24.7501 83.56C24.7688 83.5693 24.7828 83.5647 24.7921 83.546C25.1934 83.0327 25.7861 82.776 26.5701 82.776Z" fill="#6C757D"/>
<path d="M13.7146 125.284C13.7613 125.228 13.8173 125.2 13.8826 125.2H14.9466C15.0399 125.2 15.0866 125.247 15.0866 125.34V134.86C15.0866 134.953 15.0399 135 14.9466 135H13.8826C13.7893 135 13.7426 134.953 13.7426 134.86V127.692C13.7426 127.664 13.7333 127.645 13.7146 127.636C13.6959 127.627 13.6819 127.636 13.6726 127.664L11.6706 130.716C11.6333 130.772 11.5773 130.8 11.5026 130.8H10.9706C10.9053 130.8 10.8493 130.772 10.8026 130.716L8.78661 127.692C8.77728 127.664 8.76328 127.655 8.74461 127.664C8.72594 127.673 8.71661 127.692 8.71661 127.72V134.86C8.71661 134.953 8.66994 135 8.57661 135H7.51261C7.41928 135 7.37261 134.953 7.37261 134.86V125.34C7.37261 125.247 7.41928 125.2 7.51261 125.2H8.57661C8.65128 125.2 8.70728 125.228 8.74461 125.284L11.1946 128.952C11.2039 128.961 11.2179 128.966 11.2366 128.966C11.2553 128.966 11.2693 128.961 11.2786 128.952L13.7146 125.284ZM19.8164 127.762C20.3858 127.762 20.8804 127.865 21.3004 128.07C21.7298 128.266 22.0564 128.546 22.2804 128.91C22.5138 129.265 22.6304 129.671 22.6304 130.128V134.86C22.6304 134.953 22.5838 135 22.4904 135H21.4264C21.3331 135 21.2864 134.953 21.2864 134.86V134.356C21.2864 134.309 21.2631 134.3 21.2164 134.328C20.9738 134.58 20.6751 134.776 20.3204 134.916C19.9751 135.047 19.5878 135.112 19.1584 135.112C18.4678 135.112 17.8938 134.939 17.4364 134.594C16.9884 134.239 16.7644 133.707 16.7644 132.998C16.7644 132.27 17.0164 131.701 17.5204 131.29C18.0338 130.87 18.7478 130.66 19.6624 130.66H21.2304C21.2678 130.66 21.2864 130.641 21.2864 130.604V130.226C21.2864 129.815 21.1651 129.498 20.9224 129.274C20.6891 129.041 20.3298 128.924 19.8444 128.924C19.4524 128.924 19.1304 129.003 18.8784 129.162C18.6358 129.311 18.4864 129.517 18.4304 129.778C18.4024 129.871 18.3464 129.913 18.2624 129.904L17.1284 129.75C17.0351 129.731 16.9931 129.694 17.0024 129.638C17.0771 129.087 17.3711 128.639 17.8844 128.294C18.3978 127.939 19.0418 127.762 19.8164 127.762ZM19.4524 133.978C19.9471 133.978 20.3764 133.847 20.7404 133.586C21.1044 133.325 21.2864 132.993 21.2864 132.592V131.766C21.2864 131.729 21.2678 131.71 21.2304 131.71H19.9144C19.3638 131.71 18.9251 131.817 18.5984 132.032C18.2718 132.247 18.1084 132.545 18.1084 132.928C18.1084 133.273 18.2298 133.535 18.4724 133.712C18.7244 133.889 19.0511 133.978 19.4524 133.978ZM24.1118 137.786C24.0465 137.786 24.0138 137.739 24.0138 137.646V136.82C24.0138 136.727 24.0605 136.68 24.1538 136.68H24.1818C24.5551 136.671 24.8491 136.624 25.0638 136.54C25.2785 136.456 25.4558 136.297 25.5958 136.064C25.7358 135.84 25.8711 135.499 26.0018 135.042C26.0111 135.033 26.0111 135.019 26.0018 135C26.0018 134.972 26.0018 134.958 26.0018 134.958L23.6638 128.028L23.6498 127.972C23.6498 127.907 23.6918 127.874 23.7758 127.874H24.9098C24.9938 127.874 25.0498 127.911 25.0778 127.986L26.6598 133.264C26.6691 133.283 26.6831 133.292 26.7018 133.292C26.7205 133.292 26.7345 133.283 26.7438 133.264L28.3118 127.986C28.3398 127.911 28.3958 127.874 28.4798 127.874H29.5858C29.6885 127.874 29.7258 127.925 29.6978 128.028L27.1498 135.49C26.9351 136.134 26.7205 136.61 26.5058 136.918C26.2911 137.235 26.0111 137.459 25.6658 137.59C25.3205 137.721 24.8351 137.786 24.2098 137.786H24.1118Z" fill="#6C757D"/>
<path d="M78.814 183.944C78.806 183.96 78.806 183.976 78.814 183.992C78.822 184 78.834 184.004 78.85 184.004H82.462C82.542 184.004 82.582 184.044 82.582 184.124V184.88C82.582 184.96 82.542 185 82.462 185H77.434C77.354 185 77.314 184.96 77.314 184.88V184.148C77.314 184.092 77.334 184.044 77.374 184.004C77.646 183.692 78.27 182.96 79.246 181.808L80.074 180.812C80.818 179.924 81.19 179.236 81.19 178.748C81.19 178.372 81.062 178.072 80.806 177.848C80.558 177.616 80.226 177.5 79.81 177.5C79.394 177.5 79.062 177.616 78.814 177.848C78.566 178.08 78.446 178.384 78.454 178.76V179.12C78.454 179.2 78.414 179.24 78.334 179.24H77.41C77.33 179.24 77.29 179.2 77.29 179.12V178.604C77.306 178.188 77.422 177.82 77.638 177.5C77.862 177.18 78.162 176.936 78.538 176.768C78.914 176.592 79.338 176.504 79.81 176.504C80.322 176.504 80.77 176.6 81.154 176.792C81.538 176.984 81.834 177.248 82.042 177.584C82.25 177.92 82.354 178.3 82.354 178.724C82.354 179.388 81.994 180.172 81.274 181.076C80.954 181.484 80.574 181.944 80.134 182.456C79.694 182.96 79.254 183.456 78.814 183.944ZM84.1534 185C84.0734 185 84.0334 184.96 84.0334 184.88V176.72C84.0334 176.64 84.0734 176.6 84.1534 176.6H85.0654C85.1454 176.6 85.1854 176.64 85.1854 176.72V181.34C85.1854 181.356 85.1934 181.368 85.2094 181.376C85.2254 181.384 85.2374 181.38 85.2454 181.364L87.4654 178.952C87.4974 178.912 87.5454 178.892 87.6094 178.892H88.6774C88.7254 178.892 88.7534 178.908 88.7614 178.94C88.7774 178.964 88.7694 178.996 88.7374 179.036L87.1894 180.824C87.1734 180.856 87.1694 180.88 87.1774 180.896L89.0134 184.856L89.0254 184.904C89.0254 184.968 88.9894 185 88.9174 185H87.9574C87.8934 185 87.8494 184.968 87.8254 184.904L86.3974 181.64C86.3814 181.6 86.3614 181.596 86.3374 181.628L85.2094 182.876C85.1934 182.908 85.1854 182.928 85.1854 182.936V184.88C85.1854 184.96 85.1454 185 85.0654 185H84.1534Z" fill="#ADB5BD"/>
<path d="M122.147 181.016C122.307 181.408 122.387 181.86 122.387 182.372C122.387 182.796 122.323 183.188 122.195 183.548C122.019 184.044 121.727 184.428 121.319 184.7C120.911 184.964 120.419 185.096 119.843 185.096C119.267 185.096 118.767 184.948 118.343 184.652C117.927 184.356 117.635 183.956 117.467 183.452C117.379 183.228 117.327 182.908 117.311 182.492C117.311 182.412 117.351 182.372 117.431 182.372H118.355C118.435 182.372 118.475 182.412 118.475 182.492C118.491 182.78 118.523 182.992 118.571 183.128C118.651 183.424 118.799 183.66 119.015 183.836C119.239 184.012 119.515 184.1 119.843 184.1C120.451 184.1 120.859 183.824 121.067 183.272C121.171 183.032 121.223 182.72 121.223 182.336C121.223 181.928 121.159 181.564 121.031 181.244C120.807 180.748 120.407 180.5 119.831 180.5C119.695 180.5 119.523 180.56 119.315 180.68C119.283 180.696 119.259 180.704 119.243 180.704C119.203 180.704 119.171 180.684 119.147 180.644L118.691 180.02C118.675 179.988 118.667 179.96 118.667 179.936C118.667 179.912 118.679 179.884 118.703 179.852L120.755 177.656C120.779 177.616 120.771 177.596 120.731 177.596H117.539C117.459 177.596 117.419 177.556 117.419 177.476V176.72C117.419 176.64 117.459 176.6 117.539 176.6H122.195C122.275 176.6 122.315 176.64 122.315 176.72V177.584C122.315 177.624 122.295 177.672 122.255 177.728L120.431 179.72C120.415 179.736 120.411 179.752 120.419 179.768C120.427 179.776 120.443 179.784 120.467 179.792C120.875 179.832 121.219 179.96 121.499 180.176C121.779 180.384 121.995 180.664 122.147 181.016ZM124.036 185C123.956 185 123.916 184.96 123.916 184.88V176.72C123.916 176.64 123.956 176.6 124.036 176.6H124.948C125.028 176.6 125.068 176.64 125.068 176.72V181.34C125.068 181.356 125.076 181.368 125.092 181.376C125.108 181.384 125.12 181.38 125.128 181.364L127.348 178.952C127.38 178.912 127.428 178.892 127.492 178.892H128.56C128.608 178.892 128.636 178.908 128.644 178.94C128.66 178.964 128.652 178.996 128.62 179.036L127.072 180.824C127.056 180.856 127.052 180.88 127.06 180.896L128.896 184.856L128.908 184.904C128.908 184.968 128.872 185 128.8 185H127.84C127.776 185 127.732 184.968 127.708 184.904L126.28 181.64C126.264 181.6 126.244 181.596 126.22 181.628L125.092 182.876C125.076 182.908 125.068 182.928 125.068 182.936V184.88C125.068 184.96 125.028 185 124.948 185H124.036Z" fill="#ADB5BD"/>
<path d="M164.556 181.712C164.636 181.712 164.676 181.752 164.676 181.832V182.624C164.676 182.704 164.636 182.744 164.556 182.744H164.04C164.008 182.744 163.992 182.76 163.992 182.792V184.88C163.992 184.96 163.952 185 163.872 185H162.96C162.88 185 162.84 184.96 162.84 184.88V182.792C162.84 182.76 162.824 182.744 162.792 182.744H159.144C159.064 182.744 159.024 182.704 159.024 182.624V181.976C159.024 181.936 159.036 181.888 159.06 181.832L161.424 176.684C161.448 176.628 161.492 176.6 161.556 176.6H162.516C162.556 176.6 162.584 176.616 162.6 176.648C162.624 176.672 162.628 176.704 162.612 176.744L160.356 181.652C160.348 181.668 160.348 181.684 160.356 181.7C160.364 181.708 160.376 181.712 160.392 181.712H162.792C162.824 181.712 162.84 181.696 162.84 181.664V179.876C162.84 179.796 162.88 179.756 162.96 179.756H163.872C163.952 179.756 163.992 179.796 163.992 179.876V181.664C163.992 181.696 164.008 181.712 164.04 181.712H164.556ZM166.312 185C166.232 185 166.192 184.96 166.192 184.88V176.72C166.192 176.64 166.232 176.6 166.312 176.6H167.224C167.304 176.6 167.344 176.64 167.344 176.72V181.34C167.344 181.356 167.352 181.368 167.368 181.376C167.384 181.384 167.396 181.38 167.404 181.364L169.624 178.952C169.656 178.912 169.704 178.892 169.768 178.892H170.836C170.884 178.892 170.912 178.908 170.92 178.94C170.936 178.964 170.928 178.996 170.896 179.036L169.348 180.824C169.332 180.856 169.328 180.88 169.336 180.896L171.172 184.856L171.184 184.904C171.184 184.968 171.148 185 171.076 185H170.116C170.052 185 170.008 184.968 169.984 184.904L168.556 181.64C168.54 181.6 168.52 181.596 168.496 181.628L167.368 182.876C167.352 182.908 167.344 182.928 167.344 182.936V184.88C167.344 184.96 167.304 185 167.224 185H166.312Z" fill="#ADB5BD"/>
<path d="M206.405 181.28C206.493 181.632 206.537 181.996 206.537 182.372C206.537 182.748 206.489 183.096 206.393 183.416C206.241 183.928 205.949 184.336 205.517 184.64C205.093 184.936 204.585 185.084 203.993 185.084C203.409 185.084 202.909 184.94 202.493 184.652C202.077 184.364 201.785 183.972 201.617 183.476C201.537 183.252 201.493 183.056 201.485 182.888V182.864C201.485 182.8 201.521 182.768 201.593 182.768H202.541C202.613 182.768 202.653 182.804 202.661 182.876C202.669 182.932 202.689 183.016 202.721 183.128C202.809 183.424 202.961 183.66 203.177 183.836C203.401 184.004 203.669 184.088 203.981 184.088C204.309 184.088 204.585 184 204.809 183.824C205.041 183.64 205.197 183.388 205.277 183.068C205.333 182.9 205.361 182.668 205.361 182.372C205.361 182.108 205.337 181.864 205.289 181.64C205.233 181.336 205.089 181.104 204.857 180.944C204.633 180.776 204.353 180.692 204.017 180.692C203.705 180.692 203.425 180.764 203.177 180.908C202.929 181.044 202.769 181.228 202.697 181.46C202.673 181.532 202.629 181.568 202.565 181.568H201.605C201.525 181.568 201.485 181.528 201.485 181.448V176.72C201.485 176.64 201.525 176.6 201.605 176.6H206.093C206.173 176.6 206.213 176.64 206.213 176.72V177.476C206.213 177.556 206.173 177.596 206.093 177.596H202.685C202.653 177.596 202.637 177.612 202.637 177.644L202.625 180.152C202.625 180.2 202.645 180.212 202.685 180.188C202.877 180.02 203.097 179.896 203.345 179.816C203.601 179.728 203.869 179.684 204.149 179.684C204.709 179.684 205.189 179.824 205.589 180.104C205.997 180.384 206.269 180.776 206.405 181.28ZM208.03 185C207.95 185 207.91 184.96 207.91 184.88V176.72C207.91 176.64 207.95 176.6 208.03 176.6H208.942C209.022 176.6 209.062 176.64 209.062 176.72V181.34C209.062 181.356 209.07 181.368 209.086 181.376C209.102 181.384 209.114 181.38 209.122 181.364L211.342 178.952C211.374 178.912 211.422 178.892 211.486 178.892H212.554C212.602 178.892 212.63 178.908 212.638 178.94C212.654 178.964 212.646 178.996 212.614 179.036L211.066 180.824C211.05 180.856 211.046 180.88 211.054 180.896L212.89 184.856L212.902 184.904C212.902 184.968 212.866 185 212.794 185H211.834C211.77 185 211.726 184.968 211.702 184.904L210.274 181.64C210.258 181.6 210.238 181.596 210.214 181.628L209.086 182.876C209.07 182.908 209.062 182.928 209.062 182.936V184.88C209.062 184.96 209.022 185 208.942 185H208.03Z" fill="#ADB5BD"/>
<path d="M248.201 180.86C248.425 181.284 248.537 181.792 248.537 182.384C248.537 182.872 248.457 183.3 248.297 183.668C248.113 184.124 247.825 184.476 247.433 184.724C247.049 184.964 246.581 185.084 246.029 185.084C245.437 185.084 244.933 184.948 244.517 184.676C244.109 184.404 243.821 184.02 243.653 183.524C243.533 183.188 243.473 182.8 243.473 182.36V178.664C243.473 178.008 243.701 177.484 244.157 177.092C244.613 176.7 245.209 176.504 245.945 176.504C246.417 176.504 246.833 176.592 247.193 176.768C247.561 176.944 247.845 177.192 248.045 177.512C248.245 177.824 248.345 178.184 248.345 178.592V178.832C248.345 178.912 248.305 178.952 248.225 178.952H247.313C247.233 178.952 247.193 178.912 247.193 178.832V178.724C247.193 178.364 247.077 178.072 246.845 177.848C246.613 177.624 246.313 177.512 245.945 177.512C245.553 177.512 245.233 177.628 244.985 177.86C244.745 178.092 244.625 178.4 244.625 178.784V180.296C244.625 180.312 244.629 180.324 244.637 180.332C244.653 180.332 244.669 180.324 244.685 180.308C245.029 179.924 245.529 179.732 246.185 179.732C247.129 179.732 247.801 180.108 248.201 180.86ZM247.205 183.308C247.325 183.052 247.385 182.744 247.385 182.384C247.385 181.976 247.313 181.648 247.169 181.4C246.937 180.936 246.545 180.704 245.993 180.704C245.713 180.704 245.473 180.768 245.273 180.896C245.073 181.016 244.921 181.192 244.817 181.424C244.689 181.688 244.625 182.028 244.625 182.444C244.625 182.78 244.677 183.064 244.781 183.296C244.885 183.552 245.041 183.748 245.249 183.884C245.457 184.012 245.709 184.076 246.005 184.076C246.589 184.076 246.989 183.82 247.205 183.308ZM250.03 185C249.95 185 249.91 184.96 249.91 184.88V176.72C249.91 176.64 249.95 176.6 250.03 176.6H250.942C251.022 176.6 251.062 176.64 251.062 176.72V181.34C251.062 181.356 251.07 181.368 251.086 181.376C251.102 181.384 251.114 181.38 251.122 181.364L253.342 178.952C253.374 178.912 253.422 178.892 253.486 178.892H254.554C254.602 178.892 254.63 178.908 254.638 178.94C254.654 178.964 254.646 178.996 254.614 179.036L253.066 180.824C253.05 180.856 253.046 180.88 253.054 180.896L254.89 184.856L254.902 184.904C254.902 184.968 254.866 185 254.794 185H253.834C253.77 185 253.726 184.968 253.702 184.904L252.274 181.64C252.258 181.6 252.238 181.596 252.214 181.628L251.086 182.876C251.07 182.908 251.062 182.928 251.062 182.936V184.88C251.062 184.96 251.022 185 250.942 185H250.03Z" fill="#ADB5BD"/>
<rect x="40.0938" y="0.5" width="251.407" height="164" stroke="#ECECEC"/>
<path d="M82.0547 0L82.0547 165" stroke="#ECECEC"/>
<path d="M123.729 0L123.729 165" stroke="#ECECEC"/>
<path d="M165.404 0L165.404 165" stroke="#ECECEC"/>
<path d="M207.078 0L207.078 165" stroke="#ECECEC"/>
<path d="M248.753 0L248.753 165" stroke="#ECECEC"/>
<rect x="40" y="24" width="230.631" height="25.1946" fill="#9A55FF"/>
<rect x="40" y="70.0449" width="167.281" height="26.0633" fill="#41A5FF"/>
<rect x="40" y="116.959" width="125.708" height="25.1946" fill="#ED4D5C"/>
</svg>
