<svg width="160" height="240" viewBox="0 0 160 240" fill="none" xmlns="http://www.w3.org/2000/svg">
<rect width="160" height="240" rx="10.5" fill="url(#paint0_linear_51_90923)"/>
<path d="M63.1543 99.168C61.9543 99.168 60.8743 98.912 59.9143 98.4C58.9703 97.888 58.2183 97.184 57.6583 96.288C57.1143 95.392 56.8423 94.368 56.8423 93.216C56.8423 92.32 57.0263 91.416 57.3943 90.504C57.7623 89.592 58.3143 88.656 59.0503 87.696L63.2983 82.2H66.8503L61.8583 88.56L58.7383 91.872C59.0263 90.608 59.6183 89.608 60.5143 88.872C61.4103 88.12 62.4903 87.744 63.7543 87.744C64.8263 87.744 65.7863 87.976 66.6343 88.44C67.4983 88.888 68.1783 89.528 68.6743 90.36C69.1703 91.176 69.4183 92.152 69.4183 93.288C69.4183 94.424 69.1383 95.44 68.5783 96.336C68.0183 97.216 67.2663 97.912 66.3223 98.424C65.3783 98.92 64.3223 99.168 63.1543 99.168ZM60.1303 93.288C60.1303 93.912 60.2503 94.464 60.4903 94.944C60.7303 95.408 61.0743 95.768 61.5223 96.024C61.9703 96.28 62.5143 96.408 63.1543 96.408C63.7943 96.408 64.3303 96.28 64.7623 96.024C65.2103 95.768 65.5543 95.408 65.7943 94.944C66.0343 94.464 66.1543 93.912 66.1543 93.288C66.1543 92.648 66.0343 92.104 65.7943 91.656C65.5543 91.192 65.2103 90.832 64.7623 90.576C64.3303 90.32 63.7943 90.192 63.1543 90.192C62.5143 90.192 61.9703 90.32 61.5223 90.576C61.0743 90.832 60.7303 91.192 60.4903 91.656C60.2503 92.104 60.1303 92.648 60.1303 93.288ZM74.4182 90.096C73.6982 89.76 73.1142 89.296 72.6662 88.704C72.2342 88.096 72.0182 87.336 72.0182 86.424C72.0182 85.624 72.2262 84.896 72.6422 84.24C73.0742 83.568 73.7222 83.032 74.5862 82.632C75.4502 82.232 76.5462 82.032 77.8742 82.032C79.2022 82.032 80.2982 82.232 81.1622 82.632C82.0262 83.032 82.6742 83.568 83.1062 84.24C83.5382 84.896 83.7542 85.624 83.7542 86.424C83.7542 87.288 83.5222 88.04 83.0582 88.68C82.6102 89.304 82.0422 89.776 81.3542 90.096C82.2342 90.448 82.9222 90.976 83.4182 91.68C83.9302 92.384 84.1862 93.224 84.1862 94.2C84.1862 95.24 83.9062 96.128 83.3462 96.864C82.8022 97.6 82.0582 98.168 81.1142 98.568C80.1702 98.968 79.0902 99.168 77.8742 99.168C76.6742 99.168 75.6022 98.968 74.6582 98.568C73.7142 98.168 72.9622 97.6 72.4022 96.864C71.8582 96.128 71.5862 95.24 71.5862 94.2C71.5862 93.224 71.8422 92.384 72.3542 91.68C72.8662 90.96 73.5542 90.432 74.4182 90.096ZM80.4662 86.856C80.4662 86.088 80.2422 85.536 79.7942 85.2C79.3462 84.864 78.7062 84.696 77.8742 84.696C77.0742 84.696 76.4422 84.864 75.9782 85.2C75.5142 85.52 75.2822 86.072 75.2822 86.856C75.2822 87.56 75.5142 88.12 75.9782 88.536C76.4582 88.952 77.0902 89.16 77.8742 89.16C78.6742 89.16 79.3062 88.952 79.7702 88.536C80.2342 88.104 80.4662 87.544 80.4662 86.856ZM77.8742 91.464C77.2822 91.464 76.7622 91.56 76.3142 91.752C75.8662 91.944 75.5142 92.232 75.2582 92.616C75.0022 93 74.8742 93.48 74.8742 94.056C74.8742 94.824 75.1222 95.424 75.6182 95.856C76.1302 96.288 76.8822 96.504 77.8742 96.504C78.8662 96.504 79.6182 96.288 80.1302 95.856C80.6422 95.408 80.8982 94.808 80.8982 94.056C80.8982 93.496 80.7702 93.024 80.5142 92.64C80.2742 92.256 79.9302 91.968 79.4822 91.776C79.0342 91.568 78.4982 91.464 77.8742 91.464ZM86.3473 85.896C86.3473 84.648 86.7073 83.696 87.4273 83.04C88.1473 82.368 89.0513 82.032 90.1393 82.032C91.2113 82.032 92.1073 82.368 92.8273 83.04C93.5473 83.696 93.9073 84.648 93.9073 85.896C93.9073 87.144 93.5473 88.104 92.8273 88.776C92.1073 89.448 91.2113 89.784 90.1393 89.784C89.0513 89.784 88.1473 89.448 87.4273 88.776C86.7073 88.104 86.3473 87.144 86.3473 85.896ZM90.1153 83.976C89.6833 83.976 89.3473 84.128 89.1073 84.432C88.8673 84.72 88.7473 85.208 88.7473 85.896C88.7473 86.568 88.8673 87.064 89.1073 87.384C89.3473 87.688 89.6833 87.84 90.1153 87.84C90.5313 87.84 90.8673 87.688 91.1233 87.384C91.3793 87.064 91.5073 86.568 91.5073 85.896C91.5073 85.208 91.3793 84.72 91.1233 84.432C90.8673 84.128 90.5313 83.976 90.1153 83.976ZM98.4433 82.2H101.611L92.1553 99H88.9873L98.4433 82.2ZM96.7393 95.28C96.7393 94.032 97.0993 93.08 97.8193 92.424C98.5393 91.752 99.4433 91.416 100.531 91.416C101.587 91.416 102.475 91.752 103.195 92.424C103.915 93.08 104.275 94.032 104.275 95.28C104.275 96.544 103.915 97.512 103.195 98.184C102.475 98.84 101.587 99.168 100.531 99.168C99.4433 99.168 98.5393 98.84 97.8193 98.184C97.0993 97.512 96.7393 96.544 96.7393 95.28ZM100.507 93.36C100.075 93.36 99.7313 93.512 99.4753 93.816C99.2353 94.12 99.1153 94.608 99.1153 95.28C99.1153 95.952 99.2353 96.44 99.4753 96.744C99.7313 97.048 100.075 97.2 100.507 97.2C100.923 97.2 101.251 97.048 101.491 96.744C101.747 96.44 101.875 95.952 101.875 95.28C101.875 94.608 101.747 94.12 101.491 93.816C101.251 93.512 100.923 93.36 100.507 93.36Z" fill="#F8F9FA"/>
<path d="M44.3529 54.6491C50.0658 49.0861 57.0186 44.9385 64.6474 42.5427C72.2762 40.1468 80.3662 39.5702 88.2613 40.8595C96.1565 42.1488 103.635 45.2678 110.089 49.9636C116.543 54.6593 121.793 60.7996 125.411 67.8864C129.029 74.9732 130.914 82.8071 130.914 90.7527C130.913 98.6983 129.027 106.532 125.408 113.618C121.789 120.705 116.539 126.845 110.085 131.54C103.63 136.235 96.1512 139.353 88.2559 140.641L85.1214 121.7C90.0193 120.901 94.6585 118.967 98.6629 116.054C102.667 113.141 105.924 109.333 108.169 104.937C110.414 100.54 111.584 95.6808 111.584 90.7517C111.585 85.8226 110.415 80.9628 108.17 76.5665C105.926 72.1702 102.67 68.361 98.6656 65.448C94.6616 62.535 90.0226 60.6001 85.1248 59.8003C80.227 59.0005 75.2084 59.3582 70.4758 60.8445C65.7433 62.3307 61.4301 64.9037 57.8861 68.3547L44.3529 54.6491Z" fill="#DDC6FF"/>
<g filter="url(#filter0_d_51_90923)">
<path d="M125.836 112.379C122.414 119.561 117.334 125.84 111.011 130.709C104.687 135.577 97.2976 138.897 89.4407 140.399C81.5837 141.901 73.4809 141.543 65.7894 139.354C58.0978 137.165 51.034 133.206 45.1709 127.8C39.3078 122.393 34.8103 115.69 32.0433 108.235C29.2763 100.779 28.3177 92.7813 29.2451 84.8893C30.1725 76.9972 32.9599 69.4333 37.3812 62.8109C41.8025 56.1886 47.7333 50.6942 54.6925 46.7734L64.0114 63.0852C59.6335 65.5517 55.9026 69.0081 53.1212 73.174C50.3399 77.34 48.5864 82.0983 48.003 87.063C47.4196 92.0278 48.0226 97.0592 49.7633 101.749C51.504 106.439 54.3332 110.656 58.0216 114.057C61.7099 117.458 66.1536 119.948 70.9922 121.325C75.8308 122.702 80.9281 122.928 85.8707 121.983C90.8133 121.038 95.4621 118.95 99.4401 115.887C103.418 112.825 106.613 108.874 108.766 104.356L125.836 112.379Z" fill="white"/>
</g>
<path d="M20.2882 188.898L24.9682 184.506C25.8322 183.69 26.5122 183.002 27.0082 182.442C27.5202 181.882 27.8882 181.37 28.1122 180.906C28.3362 180.426 28.4482 179.922 28.4482 179.394C28.4482 178.706 28.2562 178.146 27.8722 177.714C27.4882 177.266 26.8562 177.042 25.9762 177.042C25.4482 177.042 24.9922 177.17 24.6082 177.426C24.2242 177.666 23.9282 178.018 23.7202 178.482C23.5122 178.946 23.4002 179.498 23.3842 180.138H20.2642C20.2962 178.794 20.5762 177.69 21.1042 176.826C21.6322 175.962 22.3282 175.322 23.1922 174.906C24.0562 174.49 25.0162 174.282 26.0722 174.282C27.3042 174.282 28.3442 174.506 29.1922 174.954C30.0402 175.386 30.6722 175.978 31.0882 176.73C31.5202 177.482 31.7362 178.346 31.7362 179.322C31.7362 180.042 31.6082 180.738 31.3522 181.41C31.1122 182.066 30.6882 182.762 30.0802 183.498C29.4882 184.218 28.6722 185.058 27.6322 186.018L24.8482 188.538H32.1202V191.25H20.2882V188.898ZM35.6913 187.77H39.0033L36.1953 194.538H34.1073L35.6913 187.77ZM41.5265 182.85C41.5265 181.586 41.6305 180.434 41.8385 179.394C42.0625 178.338 42.4145 177.434 42.8945 176.682C43.3905 175.914 44.0545 175.322 44.8865 174.906C45.7185 174.49 46.7425 174.282 47.9585 174.282C49.2065 174.282 50.2385 174.49 51.0545 174.906C51.8865 175.322 52.5425 175.914 53.0225 176.682C53.5185 177.434 53.8705 178.338 54.0785 179.394C54.2865 180.434 54.3905 181.586 54.3905 182.85C54.3905 184.13 54.2865 185.298 54.0785 186.354C53.8705 187.41 53.5185 188.314 53.0225 189.066C52.5425 189.818 51.8865 190.402 51.0545 190.818C50.2385 191.218 49.2065 191.418 47.9585 191.418C46.7425 191.418 45.7185 191.218 44.8865 190.818C44.0545 190.402 43.3905 189.818 42.8945 189.066C42.4145 188.314 42.0625 187.41 41.8385 186.354C41.6305 185.298 41.5265 184.13 41.5265 182.85ZM51.1025 182.85C51.1025 182.082 51.0705 181.354 51.0065 180.666C50.9585 179.978 50.8305 179.362 50.6225 178.818C50.4145 178.258 50.1025 177.826 49.6865 177.522C49.2705 177.202 48.6945 177.042 47.9585 177.042C47.2385 177.042 46.6705 177.202 46.2545 177.522C45.8385 177.826 45.5265 178.258 45.3185 178.818C45.1105 179.362 44.9745 179.978 44.9105 180.666C44.8625 181.354 44.8385 182.082 44.8385 182.85C44.8385 183.65 44.8625 184.402 44.9105 185.106C44.9745 185.81 45.1105 186.426 45.3185 186.954C45.5265 187.482 45.8385 187.898 46.2545 188.202C46.6705 188.506 47.2385 188.658 47.9585 188.658C48.6945 188.658 49.2705 188.506 49.6865 188.202C50.1025 187.898 50.4145 187.482 50.6225 186.954C50.8305 186.426 50.9585 185.81 51.0065 185.106C51.0705 184.402 51.1025 183.65 51.1025 182.85ZM64.9632 187.698H56.5152V185.25L64.3872 174.45H68.2032V184.986H70.3152V187.698H68.2032V191.25H64.9632V187.698ZM65.1072 184.986V177.906L60.0912 184.986H65.1072ZM72.6983 182.85C72.6983 181.586 72.8023 180.434 73.0103 179.394C73.2343 178.338 73.5863 177.434 74.0663 176.682C74.5623 175.914 75.2263 175.322 76.0583 174.906C76.8903 174.49 77.9143 174.282 79.1303 174.282C80.3783 174.282 81.4103 174.49 82.2263 174.906C83.0583 175.322 83.7143 175.914 84.1943 176.682C84.6903 177.434 85.0423 178.338 85.2503 179.394C85.4583 180.434 85.5623 181.586 85.5623 182.85C85.5623 184.13 85.4583 185.298 85.2503 186.354C85.0423 187.41 84.6903 188.314 84.1943 189.066C83.7143 189.818 83.0583 190.402 82.2263 190.818C81.4103 191.218 80.3783 191.418 79.1303 191.418C77.9143 191.418 76.8903 191.218 76.0583 190.818C75.2263 190.402 74.5623 189.818 74.0663 189.066C73.5863 188.314 73.2343 187.41 73.0103 186.354C72.8023 185.298 72.6983 184.13 72.6983 182.85ZM82.2743 182.85C82.2743 182.082 82.2423 181.354 82.1783 180.666C82.1303 179.978 82.0023 179.362 81.7943 178.818C81.5863 178.258 81.2743 177.826 80.8583 177.522C80.4423 177.202 79.8663 177.042 79.1303 177.042C78.4103 177.042 77.8423 177.202 77.4263 177.522C77.0103 177.826 76.6983 178.258 76.4903 178.818C76.2823 179.362 76.1463 179.978 76.0823 180.666C76.0343 181.354 76.0103 182.082 76.0103 182.85C76.0103 183.65 76.0343 184.402 76.0823 185.106C76.1463 185.81 76.2823 186.426 76.4903 186.954C76.6983 187.482 77.0103 187.898 77.4263 188.202C77.8423 188.506 78.4103 188.658 79.1303 188.658C79.8663 188.658 80.4423 188.506 80.8583 188.202C81.2743 187.898 81.5863 187.482 81.7943 186.954C82.0023 186.426 82.1303 185.81 82.1783 185.106C82.2423 184.402 82.2743 183.65 82.2743 182.85ZM92.6311 172.05H95.8231L90.0391 193.65H86.8711L92.6311 172.05ZM96.7042 183.218C96.7362 182.503 96.9176 181.906 97.2482 181.426C97.5896 180.935 98.0429 180.567 98.6082 180.322C99.1842 180.066 99.8456 179.938 100.592 179.938C101.371 179.938 102.032 180.082 102.576 180.37C103.12 180.658 103.531 181.042 103.808 181.522C104.096 182.002 104.24 182.53 104.24 183.106C104.24 183.543 104.155 183.927 103.984 184.258C103.814 184.578 103.59 184.845 103.312 185.058C103.035 185.261 102.758 185.415 102.48 185.522V185.586C102.875 185.703 103.216 185.874 103.504 186.098C103.803 186.322 104.032 186.605 104.192 186.946C104.363 187.287 104.448 187.703 104.448 188.194C104.448 188.823 104.299 189.378 104 189.858C103.712 190.327 103.286 190.695 102.72 190.962C102.166 191.229 101.483 191.362 100.672 191.362C99.8722 191.362 99.1682 191.245 98.5602 191.01C97.9522 190.775 97.4722 190.402 97.1202 189.89C96.7682 189.367 96.5762 188.679 96.5442 187.826H98.6562C98.6776 188.402 98.8429 188.829 99.1522 189.106C99.4616 189.383 99.9522 189.522 100.624 189.522C101.008 189.522 101.323 189.463 101.568 189.346C101.814 189.229 101.995 189.058 102.112 188.834C102.23 188.61 102.288 188.338 102.288 188.018C102.288 187.399 102.086 186.989 101.68 186.786C101.286 186.583 100.662 186.482 99.8082 186.482H99.3602V184.754H99.8242C100.272 184.743 100.667 184.701 101.008 184.626C101.35 184.541 101.611 184.402 101.792 184.21C101.984 184.007 102.08 183.73 102.08 183.378C102.08 182.919 101.952 182.541 101.696 182.242C101.44 181.933 101.051 181.778 100.528 181.778C100.144 181.778 99.8296 181.847 99.5842 181.986C99.3496 182.125 99.1682 182.301 99.0402 182.514C98.9122 182.727 98.8376 182.962 98.8162 183.218H96.7042ZM106.876 188.93H109.084L107.212 193.442H105.82L106.876 188.93ZM110.766 185.65C110.766 184.807 110.836 184.039 110.974 183.346C111.124 182.642 111.358 182.039 111.678 181.538C112.009 181.026 112.452 180.631 113.006 180.354C113.561 180.077 114.244 179.938 115.054 179.938C115.886 179.938 116.574 180.077 117.118 180.354C117.673 180.631 118.11 181.026 118.43 181.538C118.761 182.039 118.996 182.642 119.134 183.346C119.273 184.039 119.342 184.807 119.342 185.65C119.342 186.503 119.273 187.282 119.134 187.986C118.996 188.69 118.761 189.293 118.43 189.794C118.11 190.295 117.673 190.685 117.118 190.962C116.574 191.229 115.886 191.362 115.054 191.362C114.244 191.362 113.561 191.229 113.006 190.962C112.452 190.685 112.009 190.295 111.678 189.794C111.358 189.293 111.124 188.69 110.974 187.986C110.836 187.282 110.766 186.503 110.766 185.65ZM117.15 185.65C117.15 185.138 117.129 184.653 117.086 184.194C117.054 183.735 116.969 183.325 116.83 182.962C116.692 182.589 116.484 182.301 116.206 182.098C115.929 181.885 115.545 181.778 115.054 181.778C114.574 181.778 114.196 181.885 113.918 182.098C113.641 182.301 113.433 182.589 113.294 182.962C113.156 183.325 113.065 183.735 113.022 184.194C112.99 184.653 112.974 185.138 112.974 185.65C112.974 186.183 112.99 186.685 113.022 187.154C113.065 187.623 113.156 188.034 113.294 188.386C113.433 188.738 113.641 189.015 113.918 189.218C114.196 189.421 114.574 189.522 115.054 189.522C115.545 189.522 115.929 189.421 116.206 189.218C116.484 189.015 116.692 188.738 116.83 188.386C116.969 188.034 117.054 187.623 117.086 187.154C117.129 186.685 117.15 186.183 117.15 185.65ZM121.079 185.65C121.079 184.807 121.148 184.039 121.287 183.346C121.436 182.642 121.671 182.039 121.991 181.538C122.322 181.026 122.764 180.631 123.319 180.354C123.874 180.077 124.556 179.938 125.367 179.938C126.199 179.938 126.887 180.077 127.431 180.354C127.986 180.631 128.423 181.026 128.743 181.538C129.074 182.039 129.308 182.642 129.447 183.346C129.586 184.039 129.655 184.807 129.655 185.65C129.655 186.503 129.586 187.282 129.447 187.986C129.308 188.69 129.074 189.293 128.743 189.794C128.423 190.295 127.986 190.685 127.431 190.962C126.887 191.229 126.199 191.362 125.367 191.362C124.556 191.362 123.874 191.229 123.319 190.962C122.764 190.685 122.322 190.295 121.991 189.794C121.671 189.293 121.436 188.69 121.287 187.986C121.148 187.282 121.079 186.503 121.079 185.65ZM127.463 185.65C127.463 185.138 127.442 184.653 127.399 184.194C127.367 183.735 127.282 183.325 127.143 182.962C127.004 182.589 126.796 182.301 126.519 182.098C126.242 181.885 125.858 181.778 125.367 181.778C124.887 181.778 124.508 181.885 124.231 182.098C123.954 182.301 123.746 182.589 123.607 182.962C123.468 183.325 123.378 183.735 123.335 184.194C123.303 184.653 123.287 185.138 123.287 185.65C123.287 186.183 123.303 186.685 123.335 187.154C123.378 187.623 123.468 188.034 123.607 188.386C123.746 188.738 123.954 189.015 124.231 189.218C124.508 189.421 124.887 189.522 125.367 189.522C125.858 189.522 126.242 189.421 126.519 189.218C126.796 189.015 127.004 188.738 127.143 188.386C127.282 188.034 127.367 187.623 127.399 187.154C127.442 186.685 127.463 186.183 127.463 185.65ZM131.391 185.65C131.391 184.807 131.461 184.039 131.599 183.346C131.749 182.642 131.983 182.039 132.303 181.538C132.634 181.026 133.077 180.631 133.631 180.354C134.186 180.077 134.869 179.938 135.679 179.938C136.511 179.938 137.199 180.077 137.743 180.354C138.298 180.631 138.735 181.026 139.055 181.538C139.386 182.039 139.621 182.642 139.759 183.346C139.898 184.039 139.967 184.807 139.967 185.65C139.967 186.503 139.898 187.282 139.759 187.986C139.621 188.69 139.386 189.293 139.055 189.794C138.735 190.295 138.298 190.685 137.743 190.962C137.199 191.229 136.511 191.362 135.679 191.362C134.869 191.362 134.186 191.229 133.631 190.962C133.077 190.685 132.634 190.295 132.303 189.794C131.983 189.293 131.749 188.69 131.599 187.986C131.461 187.282 131.391 186.503 131.391 185.65ZM137.775 185.65C137.775 185.138 137.754 184.653 137.711 184.194C137.679 183.735 137.594 183.325 137.455 182.962C137.317 182.589 137.109 182.301 136.831 182.098C136.554 181.885 136.17 181.778 135.679 181.778C135.199 181.778 134.821 181.885 134.543 182.098C134.266 182.301 134.058 182.589 133.919 182.962C133.781 183.325 133.69 183.735 133.647 184.194C133.615 184.653 133.599 185.138 133.599 185.65C133.599 186.183 133.615 186.685 133.647 187.154C133.69 187.623 133.781 188.034 133.919 188.386C134.058 188.738 134.266 189.015 134.543 189.218C134.821 189.421 135.199 189.522 135.679 189.522C136.17 189.522 136.554 189.421 136.831 189.218C137.109 189.015 137.317 188.738 137.455 188.386C137.594 188.034 137.679 187.623 137.711 187.154C137.754 186.685 137.775 186.183 137.775 185.65Z" fill="white"/>
<path d="M50.1851 208.35C50.2251 208.35 50.2571 208.366 50.2811 208.398C50.3131 208.422 50.3291 208.454 50.3291 208.494V209.418C50.3291 209.458 50.3131 209.494 50.2811 209.526C50.2571 209.55 50.2251 209.562 50.1851 209.562H47.9771C47.9371 209.562 47.9171 209.582 47.9171 209.622V216.606C47.9171 216.646 47.9011 216.682 47.8691 216.714C47.8451 216.738 47.8131 216.75 47.7731 216.75H46.6691C46.6291 216.75 46.5931 216.738 46.5611 216.714C46.5371 216.682 46.5251 216.646 46.5251 216.606V209.622C46.5251 209.582 46.5051 209.562 46.4651 209.562H44.3411C44.3011 209.562 44.2651 209.55 44.2331 209.526C44.2091 209.494 44.1971 209.458 44.1971 209.418V208.494C44.1971 208.454 44.2091 208.422 44.2331 208.398C44.2651 208.366 44.3011 208.35 44.3411 208.35H50.1851ZM53.4824 210.522C53.9864 210.522 54.4304 210.61 54.8144 210.786C55.1984 210.962 55.4944 211.206 55.7024 211.518C55.9104 211.822 56.0144 212.17 56.0144 212.562V216.606C56.0144 216.646 55.9984 216.682 55.9664 216.714C55.9424 216.738 55.9104 216.75 55.8704 216.75H54.7664C54.7264 216.75 54.6904 216.738 54.6584 216.714C54.6344 216.682 54.6224 216.646 54.6224 216.606V216.222C54.6224 216.198 54.6144 216.186 54.5984 216.186C54.5824 216.178 54.5664 216.182 54.5504 216.198C54.1584 216.63 53.5904 216.846 52.8464 216.846C52.2464 216.846 51.7504 216.694 51.3584 216.39C50.9744 216.086 50.7824 215.634 50.7824 215.034C50.7824 214.41 50.9984 213.926 51.4304 213.582C51.8704 213.23 52.4864 213.054 53.2784 213.054H54.5624C54.6024 213.054 54.6224 213.034 54.6224 212.994V212.706C54.6224 212.394 54.5304 212.154 54.3464 211.986C54.1624 211.81 53.8864 211.722 53.5184 211.722C53.2144 211.722 52.9664 211.778 52.7744 211.89C52.5904 211.994 52.4744 212.142 52.4264 212.334C52.4024 212.43 52.3464 212.47 52.2584 212.454L51.0944 212.31C51.0544 212.302 51.0184 212.29 50.9864 212.274C50.9624 212.25 50.9544 212.222 50.9624 212.19C51.0264 211.702 51.2864 211.302 51.7424 210.99C52.2064 210.678 52.7864 210.522 53.4824 210.522ZM53.1944 215.742C53.5864 215.742 53.9224 215.638 54.2024 215.43C54.4824 215.222 54.6224 214.958 54.6224 214.638V214.074C54.6224 214.034 54.6024 214.014 54.5624 214.014H53.5544C53.1304 214.014 52.7944 214.094 52.5464 214.254C52.3064 214.414 52.1864 214.642 52.1864 214.938C52.1864 215.194 52.2784 215.394 52.4624 215.538C52.6544 215.674 52.8984 215.742 53.1944 215.742ZM60.268 210.546C60.524 210.546 60.748 210.598 60.94 210.702C61.004 210.734 61.028 210.794 61.012 210.882L60.808 211.962C60.8 212.058 60.744 212.086 60.64 212.046C60.52 212.006 60.38 211.986 60.22 211.986C60.116 211.986 60.036 211.99 59.98 211.998C59.644 212.014 59.364 212.134 59.14 212.358C58.916 212.574 58.804 212.858 58.804 213.21V216.606C58.804 216.646 58.788 216.682 58.756 216.714C58.732 216.738 58.7 216.75 58.66 216.75H57.556C57.516 216.75 57.48 216.738 57.448 216.714C57.424 216.682 57.412 216.646 57.412 216.606V210.762C57.412 210.722 57.424 210.69 57.448 210.666C57.48 210.634 57.516 210.618 57.556 210.618H58.66C58.7 210.618 58.732 210.634 58.756 210.666C58.788 210.69 58.804 210.722 58.804 210.762V211.302C58.804 211.334 58.808 211.354 58.816 211.362C58.832 211.362 58.848 211.35 58.864 211.326C59.2 210.806 59.668 210.546 60.268 210.546ZM65.457 210.762C65.457 210.722 65.469 210.69 65.493 210.666C65.525 210.634 65.561 210.618 65.601 210.618H66.705C66.745 210.618 66.777 210.634 66.801 210.666C66.833 210.69 66.849 210.722 66.849 210.762V216.342C66.849 217.342 66.561 218.054 65.985 218.478C65.417 218.91 64.669 219.126 63.741 219.126C63.493 219.126 63.249 219.114 63.009 219.09C62.921 219.082 62.877 219.03 62.877 218.934L62.913 217.95C62.913 217.862 62.969 217.818 63.081 217.818C63.313 217.842 63.521 217.854 63.705 217.854C64.305 217.854 64.745 217.734 65.025 217.494C65.313 217.262 65.457 216.866 65.457 216.306V216.21C65.457 216.186 65.449 216.174 65.433 216.174C65.417 216.166 65.401 216.17 65.385 216.186C65.057 216.538 64.593 216.714 63.993 216.714C63.473 216.714 62.997 216.582 62.565 216.318C62.133 216.054 61.833 215.65 61.665 215.106C61.561 214.73 61.509 214.246 61.509 213.654C61.509 212.99 61.573 212.482 61.701 212.13C61.861 211.642 62.137 211.254 62.529 210.966C62.921 210.67 63.381 210.522 63.909 210.522C64.541 210.522 65.033 210.706 65.385 211.074C65.401 211.098 65.417 211.106 65.433 211.098C65.449 211.09 65.457 211.074 65.457 211.05V210.762ZM65.373 214.71C65.405 214.59 65.425 214.462 65.433 214.326C65.449 214.182 65.457 213.954 65.457 213.642C65.457 213.338 65.449 213.122 65.433 212.994C65.425 212.858 65.401 212.726 65.361 212.598C65.297 212.334 65.165 212.122 64.965 211.962C64.773 211.802 64.525 211.722 64.221 211.722C63.933 211.722 63.689 211.802 63.489 211.962C63.289 212.122 63.145 212.334 63.057 212.598C62.961 212.822 62.913 213.174 62.913 213.654C62.913 214.15 62.953 214.498 63.033 214.698C63.113 214.954 63.257 215.166 63.465 215.334C63.681 215.494 63.937 215.574 64.233 215.574C64.545 215.574 64.797 215.494 64.989 215.334C65.181 215.174 65.309 214.966 65.373 214.71ZM73.459 212.994C73.491 213.194 73.507 213.418 73.507 213.666L73.495 214.038C73.495 214.134 73.447 214.182 73.351 214.182H69.595C69.555 214.182 69.535 214.202 69.535 214.242C69.559 214.506 69.595 214.686 69.643 214.782C69.835 215.358 70.303 215.65 71.047 215.658C71.591 215.658 72.023 215.434 72.343 214.986C72.375 214.938 72.415 214.914 72.463 214.914C72.495 214.914 72.523 214.926 72.547 214.95L73.291 215.562C73.363 215.618 73.375 215.682 73.327 215.754C73.079 216.106 72.747 216.378 72.331 216.57C71.923 216.762 71.467 216.858 70.963 216.858C70.339 216.858 69.807 216.718 69.367 216.438C68.935 216.158 68.619 215.766 68.419 215.262C68.235 214.83 68.143 214.23 68.143 213.462C68.143 212.998 68.191 212.622 68.287 212.334C68.447 211.774 68.747 211.334 69.187 211.014C69.635 210.686 70.171 210.522 70.795 210.522C72.371 210.522 73.259 211.346 73.459 212.994ZM70.795 211.722C70.499 211.722 70.251 211.798 70.051 211.95C69.859 212.094 69.723 212.298 69.643 212.562C69.595 212.698 69.563 212.874 69.547 213.09C69.531 213.13 69.547 213.15 69.595 213.15H72.031C72.071 213.15 72.091 213.13 72.091 213.09C72.075 212.89 72.051 212.738 72.019 212.634C71.947 212.346 71.803 212.122 71.587 211.962C71.379 211.802 71.115 211.722 70.795 211.722ZM77.914 211.602C77.914 211.642 77.898 211.678 77.866 211.71C77.842 211.734 77.81 211.746 77.77 211.746H76.546C76.506 211.746 76.486 211.766 76.486 211.806V214.698C76.486 215.002 76.55 215.222 76.678 215.358C76.814 215.494 77.026 215.562 77.314 215.562H77.674C77.714 215.562 77.746 215.578 77.77 215.61C77.802 215.634 77.818 215.666 77.818 215.706V216.606C77.818 216.694 77.77 216.746 77.674 216.762L77.05 216.774C76.418 216.774 75.946 216.666 75.634 216.45C75.322 216.234 75.162 215.826 75.154 215.226V211.806C75.154 211.766 75.134 211.746 75.094 211.746H74.41C74.37 211.746 74.334 211.734 74.302 211.71C74.278 211.678 74.266 211.642 74.266 211.602V210.762C74.266 210.722 74.278 210.69 74.302 210.666C74.334 210.634 74.37 210.618 74.41 210.618H75.094C75.134 210.618 75.154 210.598 75.154 210.558V209.154C75.154 209.114 75.166 209.082 75.19 209.058C75.222 209.026 75.258 209.01 75.298 209.01H76.342C76.382 209.01 76.414 209.026 76.438 209.058C76.47 209.082 76.486 209.114 76.486 209.154V210.558C76.486 210.598 76.506 210.618 76.546 210.618H77.77C77.81 210.618 77.842 210.634 77.866 210.666C77.898 210.69 77.914 210.722 77.914 210.762V211.602ZM84.5286 216.87C83.9286 216.87 83.3966 216.75 82.9326 216.51C82.4686 216.262 82.1086 215.914 81.8526 215.466C81.6046 215.018 81.4806 214.502 81.4806 213.918V211.182C81.4806 210.606 81.6086 210.098 81.8646 209.658C82.1206 209.21 82.4766 208.866 82.9326 208.626C83.3966 208.378 83.9286 208.254 84.5286 208.254C85.1366 208.254 85.6686 208.378 86.1246 208.626C86.5886 208.866 86.9486 209.21 87.2046 209.658C87.4606 210.098 87.5886 210.606 87.5886 211.182V213.918C87.5886 214.502 87.4606 215.018 87.2046 215.466C86.9486 215.914 86.5886 216.262 86.1246 216.51C85.6686 216.75 85.1366 216.87 84.5286 216.87ZM84.5286 215.67C85.0326 215.67 85.4366 215.514 85.7406 215.202C86.0446 214.89 86.1966 214.478 86.1966 213.966V211.17C86.1966 210.65 86.0446 210.234 85.7406 209.922C85.4366 209.61 85.0326 209.454 84.5286 209.454C84.0326 209.454 83.6326 209.61 83.3286 209.922C83.0246 210.234 82.8726 210.65 82.8726 211.17V213.966C82.8726 214.478 83.0246 214.89 83.3286 215.202C83.6326 215.514 84.0326 215.67 84.5286 215.67ZM91.8617 210.546C92.1177 210.546 92.3417 210.598 92.5337 210.702C92.5977 210.734 92.6217 210.794 92.6057 210.882L92.4017 211.962C92.3937 212.058 92.3377 212.086 92.2337 212.046C92.1137 212.006 91.9737 211.986 91.8137 211.986C91.7097 211.986 91.6297 211.99 91.5737 211.998C91.2377 212.014 90.9577 212.134 90.7337 212.358C90.5097 212.574 90.3977 212.858 90.3977 213.21V216.606C90.3977 216.646 90.3817 216.682 90.3497 216.714C90.3257 216.738 90.2937 216.75 90.2537 216.75H89.1497C89.1097 216.75 89.0737 216.738 89.0417 216.714C89.0177 216.682 89.0057 216.646 89.0057 216.606V210.762C89.0057 210.722 89.0177 210.69 89.0417 210.666C89.0737 210.634 89.1097 210.618 89.1497 210.618H90.2537C90.2937 210.618 90.3257 210.634 90.3497 210.666C90.3817 210.69 90.3977 210.722 90.3977 210.762V211.302C90.3977 211.334 90.4017 211.354 90.4097 211.362C90.4257 211.362 90.4417 211.35 90.4577 211.326C90.7937 210.806 91.2617 210.546 91.8617 210.546ZM97.2043 208.494C97.2043 208.454 97.2163 208.422 97.2403 208.398C97.2723 208.366 97.3083 208.35 97.3483 208.35H98.4523C98.4923 208.35 98.5243 208.366 98.5483 208.398C98.5803 208.422 98.5963 208.454 98.5963 208.494V216.606C98.5963 216.646 98.5803 216.682 98.5483 216.714C98.5243 216.738 98.4923 216.75 98.4523 216.75H97.3483C97.3083 216.75 97.2723 216.738 97.2403 216.714C97.2163 216.682 97.2043 216.646 97.2043 216.606V216.246C97.2043 216.222 97.1963 216.206 97.1803 216.198C97.1643 216.19 97.1483 216.198 97.1323 216.222C96.7803 216.638 96.3203 216.846 95.7523 216.846C95.1843 216.846 94.7043 216.698 94.3123 216.402C93.9203 216.106 93.6363 215.694 93.4603 215.166C93.3163 214.718 93.2443 214.218 93.2443 213.666C93.2443 213.098 93.3123 212.61 93.4482 212.202C93.6243 211.674 93.9083 211.262 94.3003 210.966C94.6923 210.67 95.1843 210.522 95.7763 210.522C96.3283 210.522 96.7803 210.722 97.1323 211.122C97.1483 211.138 97.1643 211.146 97.1803 211.146C97.1963 211.138 97.2043 211.122 97.2043 211.098V208.494ZM96.9163 215.07C97.1003 214.742 97.1923 214.278 97.1923 213.678C97.1923 213.054 97.0923 212.578 96.8923 212.25C96.6763 211.898 96.3723 211.722 95.9803 211.722C95.5723 211.722 95.2523 211.89 95.0203 212.226C94.7803 212.578 94.6603 213.066 94.6603 213.69C94.6603 214.25 94.7563 214.71 94.9483 215.07C95.1723 215.454 95.5123 215.646 95.9683 215.646C96.3763 215.646 96.6923 215.454 96.9163 215.07ZM105.275 212.994C105.307 213.194 105.323 213.418 105.323 213.666L105.311 214.038C105.311 214.134 105.263 214.182 105.167 214.182H101.411C101.371 214.182 101.351 214.202 101.351 214.242C101.375 214.506 101.411 214.686 101.459 214.782C101.651 215.358 102.119 215.65 102.863 215.658C103.407 215.658 103.839 215.434 104.159 214.986C104.191 214.938 104.231 214.914 104.279 214.914C104.311 214.914 104.339 214.926 104.363 214.95L105.107 215.562C105.179 215.618 105.191 215.682 105.143 215.754C104.895 216.106 104.563 216.378 104.147 216.57C103.739 216.762 103.283 216.858 102.779 216.858C102.155 216.858 101.623 216.718 101.183 216.438C100.751 216.158 100.435 215.766 100.235 215.262C100.051 214.83 99.9594 214.23 99.9594 213.462C99.9594 212.998 100.007 212.622 100.103 212.334C100.263 211.774 100.563 211.334 101.003 211.014C101.451 210.686 101.987 210.522 102.611 210.522C104.187 210.522 105.075 211.346 105.275 212.994ZM102.611 211.722C102.315 211.722 102.067 211.798 101.867 211.95C101.675 212.094 101.539 212.298 101.459 212.562C101.411 212.698 101.379 212.874 101.363 213.09C101.347 213.13 101.363 213.15 101.411 213.15H103.847C103.887 213.15 103.907 213.13 103.907 213.09C103.891 212.89 103.867 212.738 103.835 212.634C103.763 212.346 103.619 212.122 103.403 211.962C103.195 211.802 102.931 211.722 102.611 211.722ZM109.452 210.546C109.708 210.546 109.932 210.598 110.124 210.702C110.188 210.734 110.212 210.794 110.196 210.882L109.992 211.962C109.984 212.058 109.928 212.086 109.824 212.046C109.704 212.006 109.564 211.986 109.404 211.986C109.3 211.986 109.22 211.99 109.164 211.998C108.828 212.014 108.548 212.134 108.324 212.358C108.1 212.574 107.988 212.858 107.988 213.21V216.606C107.988 216.646 107.972 216.682 107.94 216.714C107.916 216.738 107.884 216.75 107.844 216.75H106.74C106.7 216.75 106.664 216.738 106.632 216.714C106.608 216.682 106.596 216.646 106.596 216.606V210.762C106.596 210.722 106.608 210.69 106.632 210.666C106.664 210.634 106.7 210.618 106.74 210.618H107.844C107.884 210.618 107.916 210.634 107.94 210.666C107.972 210.69 107.988 210.722 107.988 210.762V211.302C107.988 211.334 107.992 211.354 108 211.362C108.016 211.362 108.032 211.35 108.048 211.326C108.384 210.806 108.852 210.546 109.452 210.546ZM113.317 216.822C112.813 216.822 112.369 216.75 111.985 216.606C111.609 216.454 111.317 216.25 111.109 215.994C110.901 215.73 110.797 215.438 110.797 215.118V215.01C110.797 214.97 110.809 214.938 110.833 214.914C110.865 214.882 110.901 214.866 110.941 214.866H111.997C112.037 214.866 112.069 214.882 112.093 214.914C112.125 214.938 112.141 214.97 112.141 215.01V215.034C112.141 215.234 112.249 215.41 112.465 215.562C112.689 215.706 112.969 215.778 113.305 215.778C113.625 215.778 113.885 215.714 114.085 215.586C114.285 215.45 114.385 215.282 114.385 215.082C114.385 214.898 114.301 214.762 114.133 214.674C113.973 214.578 113.709 214.478 113.341 214.374L112.885 214.23C112.477 214.11 112.133 213.982 111.853 213.846C111.573 213.71 111.337 213.526 111.145 213.294C110.953 213.054 110.857 212.75 110.857 212.382C110.857 211.822 111.077 211.378 111.517 211.05C111.957 210.714 112.537 210.546 113.257 210.546C113.745 210.546 114.173 210.626 114.541 210.786C114.909 210.938 115.193 211.154 115.393 211.434C115.593 211.706 115.693 212.018 115.693 212.37C115.693 212.41 115.677 212.446 115.645 212.478C115.621 212.502 115.589 212.514 115.549 212.514H114.529C114.489 212.514 114.453 212.502 114.421 212.478C114.397 212.446 114.385 212.41 114.385 212.37C114.385 212.162 114.281 211.99 114.073 211.854C113.873 211.71 113.597 211.638 113.245 211.638C112.933 211.638 112.677 211.698 112.477 211.818C112.285 211.93 112.189 212.09 112.189 212.298C112.189 212.49 112.281 212.638 112.465 212.742C112.657 212.838 112.973 212.946 113.413 213.066L113.677 213.138C114.101 213.266 114.457 213.398 114.745 213.534C115.033 213.662 115.277 213.846 115.477 214.086C115.677 214.318 115.777 214.622 115.777 214.998C115.777 215.566 115.553 216.014 115.105 216.342C114.657 216.662 114.061 216.822 113.317 216.822Z" fill="#F8F9FA"/>
<defs>
<filter id="filter0_d_51_90923" x="17.9023" y="35.7734" width="118.934" height="116.537" filterUnits="userSpaceOnUse" color-interpolation-filters="sRGB">
<feFlood flood-opacity="0" result="BackgroundImageFix"/>
<feColorMatrix in="SourceAlpha" type="matrix" values="0 0 0 0 0 0 0 0 0 0 0 0 0 0 0 0 0 0 127 0" result="hardAlpha"/>
<feOffset/>
<feGaussianBlur stdDeviation="5.5"/>
<feComposite in2="hardAlpha" operator="out"/>
<feColorMatrix type="matrix" values="0 0 0 0 0.837903 0 0 0 0 0.495139 0 0 0 0 0.958333 0 0 0 1 0"/>
<feBlend mode="normal" in2="BackgroundImageFix" result="effect1_dropShadow_51_90923"/>
<feBlend mode="normal" in="SourceGraphic" in2="effect1_dropShadow_51_90923" result="shape"/>
</filter>
<linearGradient id="paint0_linear_51_90923" x1="160" y1="240" x2="68" y2="101" gradientUnits="userSpaceOnUse">
<stop stop-color="#D355FF"/>
<stop offset="1" stop-color="#9A55FF"/>
</linearGradient>
</defs>
</svg>
