<svg width="14" height="14" viewBox="0 0 14 14" fill="none" xmlns="http://www.w3.org/2000/svg">
<g id="icon-wrapper" clip-path="url(#clip0_421_12205)">
<path id="Union" d="M7 13.9988C7.46413 13.9988 7.90925 13.8144 8.23744 13.4862C8.56563 13.1581 8.75 12.7129 8.75 12.2488H5.25C5.25 12.7129 5.43437 13.1581 5.76256 13.4862C6.09075 13.8144 6.53587 13.9988 7 13.9988ZM7 1.67706L6.30263 1.81794C5.51159 1.97911 4.80054 2.40865 4.28982 3.03386C3.7791 3.65906 3.50009 4.44152 3.5 5.24881C3.5 5.79831 3.38275 7.17119 3.09837 8.52306C2.95837 9.19419 2.76937 9.89331 2.51825 10.4988H11.4817C11.2306 9.89331 11.0425 9.19506 10.9016 8.52306C10.6172 7.17119 10.5 5.79831 10.5 5.24881C10.4997 4.44168 10.2206 3.65942 9.7099 3.03439C9.1992 2.40937 8.48826 1.97996 7.69737 1.81881L7 1.67619V1.67706ZM12.4425 10.4988C12.6376 10.8899 12.8634 11.1997 13.125 11.3738H0.875C1.13662 11.1997 1.36237 10.8899 1.5575 10.4988C2.345 8.92381 2.625 6.01881 2.625 5.24881C2.625 3.13131 4.13 1.36381 6.12937 0.960437C6.11716 0.838772 6.13059 0.715898 6.16878 0.599739C6.20697 0.48358 6.26909 0.376716 6.35112 0.286038C6.43315 0.195361 6.53328 0.122883 6.64504 0.0732789C6.7568 0.0236752 6.87772 -0.00195312 7 -0.00195312C7.12228 -0.00195313 7.2432 0.0236752 7.35496 0.0732789C7.46672 0.122883 7.56685 0.195361 7.64888 0.286038C7.73091 0.376716 7.79303 0.48358 7.83122 0.599739C7.86941 0.715898 7.88284 0.838772 7.87063 0.960437C8.85962 1.1616 9.74871 1.69838 10.3873 2.47988C11.026 3.26137 11.3749 4.23957 11.375 5.24881C11.375 6.01881 11.655 8.92381 12.4425 10.4988Z" fill="#212529"/>
</g>
<defs>
<clipPath id="clip0_421_12205">
<rect width="14" height="14" fill="white"/>
</clipPath>
</defs>
</svg>
