<svg width="14" height="14" viewBox="0 0 14 14" fill="none" xmlns="http://www.w3.org/2000/svg">
<g id="icon-wrapper" clip-path="url(#clip0_421_12239)">
<path id="Union" d="M0 2.18652C0 2.07049 0.0460936 1.95921 0.128141 1.87716C0.210188 1.79512 0.321468 1.74902 0.4375 1.74902H1.75C1.84759 1.74905 1.94237 1.78171 2.01926 1.8418C2.09616 1.90188 2.15076 1.98596 2.17437 2.08065L2.52875 3.49902H12.6875C12.754 3.49904 12.8195 3.5142 12.8793 3.54334C12.939 3.57249 12.9913 3.61486 13.0322 3.66723C13.0731 3.71961 13.1015 3.78061 13.1153 3.84562C13.1291 3.91062 13.128 3.97792 13.1119 4.0424L11.7994 9.2924C11.7758 9.38709 11.7212 9.47116 11.6443 9.53125C11.5674 9.59134 11.4726 9.624 11.375 9.62402H3.5C3.40241 9.624 3.30763 9.59134 3.23074 9.53125C3.15384 9.47116 3.09924 9.38709 3.07563 9.2924L1.40875 2.62402H0.4375C0.321468 2.62402 0.210188 2.57793 0.128141 2.49588C0.0460936 2.41384 0 2.30256 0 2.18652ZM2.7475 4.37402L3.84125 8.74902H11.0337L12.1275 4.37402H2.7475ZM4.375 11.374C4.14294 11.374 3.92038 11.4662 3.75628 11.6303C3.59219 11.7944 3.5 12.017 3.5 12.249C3.5 12.4811 3.59219 12.7036 3.75628 12.8677C3.92038 13.0318 4.14294 13.124 4.375 13.124C4.60706 13.124 4.82962 13.0318 4.99372 12.8677C5.15781 12.7036 5.25 12.4811 5.25 12.249C5.25 12.017 5.15781 11.7944 4.99372 11.6303C4.82962 11.4662 4.60706 11.374 4.375 11.374ZM2.625 12.249C2.625 11.7849 2.80937 11.3398 3.13756 11.0116C3.46575 10.6834 3.91087 10.499 4.375 10.499C4.83913 10.499 5.28425 10.6834 5.61244 11.0116C5.94063 11.3398 6.125 11.7849 6.125 12.249C6.125 12.7132 5.94063 13.1583 5.61244 13.4865C5.28425 13.8146 4.83913 13.999 4.375 13.999C3.91087 13.999 3.46575 13.8146 3.13756 13.4865C2.80937 13.1583 2.625 12.7132 2.625 12.249ZM10.5 11.374C10.2679 11.374 10.0454 11.4662 9.88128 11.6303C9.71719 11.7944 9.625 12.017 9.625 12.249C9.625 12.4811 9.71719 12.7036 9.88128 12.8677C10.0454 13.0318 10.2679 13.124 10.5 13.124C10.7321 13.124 10.9546 13.0318 11.1187 12.8677C11.2828 12.7036 11.375 12.4811 11.375 12.249C11.375 12.017 11.2828 11.7944 11.1187 11.6303C10.9546 11.4662 10.7321 11.374 10.5 11.374ZM8.75 12.249C8.75 11.7849 8.93437 11.3398 9.26256 11.0116C9.59075 10.6834 10.0359 10.499 10.5 10.499C10.9641 10.499 11.4092 10.6834 11.7374 11.0116C12.0656 11.3398 12.25 11.7849 12.25 12.249C12.25 12.7132 12.0656 13.1583 11.7374 13.4865C11.4092 13.8146 10.9641 13.999 10.5 13.999C10.0359 13.999 9.59075 13.8146 9.26256 13.4865C8.93437 13.1583 8.75 12.7132 8.75 12.249Z" fill="#212529"/>
</g>
<defs>
<clipPath id="clip0_421_12239">
<rect width="14" height="14" fill="white"/>
</clipPath>
</defs>
</svg>
