<svg width="9" height="9" viewBox="0 0 9 9" fill="none" xmlns="http://www.w3.org/2000/svg">
<g id="icon-wrapper">
<path id="Union" fill-rule="evenodd" clip-rule="evenodd" d="M4.50036 2.25C4.57495 2.25 4.64648 2.27963 4.69923 2.33238C4.75197 2.38512 4.78161 2.45666 4.78161 2.53125V5.78981L5.98873 4.58212C6.01488 4.55598 6.04592 4.53523 6.08009 4.52108C6.11426 4.50693 6.15087 4.49964 6.18786 4.49964C6.22484 4.49964 6.26145 4.50693 6.29562 4.52108C6.32979 4.53523 6.36083 4.55598 6.38698 4.58212C6.41313 4.60827 6.43387 4.63932 6.44802 4.67348C6.46218 4.70765 6.46946 4.74427 6.46946 4.78125C6.46946 4.81823 6.46218 4.85485 6.44802 4.88902C6.43387 4.92318 6.41313 4.95423 6.38698 4.98038L4.69948 6.66788C4.67335 6.69407 4.64232 6.71485 4.60815 6.72903C4.57398 6.7432 4.53735 6.7505 4.50036 6.7505C4.46336 6.7505 4.42673 6.7432 4.39256 6.72903C4.35839 6.71485 4.32736 6.69407 4.30123 6.66788L2.61373 4.98038C2.58758 4.95423 2.56684 4.92318 2.55269 4.88902C2.53853 4.85485 2.53125 4.81823 2.53125 4.78125C2.53125 4.74427 2.53853 4.70765 2.55269 4.67348C2.56684 4.63932 2.58758 4.60827 2.61373 4.58212C2.66654 4.52931 2.73817 4.49964 2.81286 4.49964C2.84984 4.49964 2.88646 4.50693 2.92062 4.52108C2.95479 4.53523 2.98583 4.55598 3.01198 4.58212L4.21911 5.78981V2.53125C4.21911 2.45666 4.24874 2.38512 4.30148 2.33238C4.35423 2.27963 4.42576 2.25 4.50036 2.25Z" fill="#ED4D5C"/>
</g>
</svg>
