<svg width="340" height="196" viewBox="0 0 340 196" fill="none" xmlns="http://www.w3.org/2000/svg">
<rect width="340" height="196" rx="8.59026" fill="url(#paint0_linear_136_4713)"/>
<path d="M87.4879 105.137C86.5062 105.137 85.6226 104.928 84.8372 104.509C84.0649 104.09 83.4497 103.514 82.9915 102.781C82.5465 102.048 82.324 101.21 82.324 100.268C82.324 99.535 82.4745 98.7954 82.7756 98.0493C83.0766 97.3031 83.5282 96.5374 84.1304 95.752L87.6057 91.2556H90.5117L86.4276 96.4588L83.8751 99.1684C84.1107 98.1343 84.5951 97.3162 85.3281 96.7141C86.0611 96.0989 86.9447 95.7912 87.9788 95.7912C88.8558 95.7912 89.6412 95.981 90.335 96.3607C91.0418 96.7272 91.5982 97.2508 92.0039 97.9314C92.4097 98.599 92.6126 99.3975 92.6126 100.327C92.6126 101.256 92.3836 102.087 91.9254 102.821C91.4673 103.54 90.852 104.11 90.0797 104.529C89.3074 104.935 88.4435 105.137 87.4879 105.137ZM85.0139 100.327C85.0139 100.837 85.1121 101.289 85.3085 101.682C85.5048 102.061 85.7862 102.356 86.1528 102.565C86.5193 102.775 86.9643 102.879 87.4879 102.879C88.0115 102.879 88.45 102.775 88.8035 102.565C89.17 102.356 89.4514 102.061 89.6478 101.682C89.8441 101.289 89.9423 100.837 89.9423 100.327C89.9423 99.8033 89.8441 99.3582 89.6478 98.9917C89.4514 98.6121 89.17 98.3176 88.8035 98.1082C88.45 97.8987 88.0115 97.794 87.4879 97.794C86.9643 97.794 86.5193 97.8987 86.1528 98.1082C85.7862 98.3176 85.5048 98.6121 85.3085 98.9917C85.1121 99.3582 85.0139 99.8033 85.0139 100.327ZM96.7031 97.7155C96.1141 97.4406 95.6363 97.061 95.2698 96.5766C94.9164 96.0792 94.7396 95.4574 94.7396 94.7113C94.7396 94.0568 94.9098 93.4612 95.2501 92.9246C95.6036 92.3748 96.1337 91.9363 96.8406 91.609C97.5474 91.2818 98.4441 91.1181 99.5305 91.1181C100.617 91.1181 101.514 91.2818 102.221 91.609C102.927 91.9363 103.458 92.3748 103.811 92.9246C104.164 93.4612 104.341 94.0568 104.341 94.7113C104.341 95.4182 104.151 96.0334 103.772 96.557C103.405 97.0675 102.94 97.4537 102.378 97.7155C103.098 98.0034 103.66 98.4354 104.066 99.0114C104.485 99.5873 104.695 100.275 104.695 101.073C104.695 101.924 104.465 102.65 104.007 103.252C103.562 103.855 102.954 104.319 102.181 104.647C101.409 104.974 100.525 105.137 99.5305 105.137C98.5488 105.137 97.6718 104.974 96.8995 104.647C96.1272 104.319 95.5119 103.855 95.0538 103.252C94.6087 102.65 94.3862 101.924 94.3862 101.073C94.3862 100.275 94.5957 99.5873 95.0145 99.0114C95.4334 98.4223 95.9963 97.9903 96.7031 97.7155ZM101.651 95.0648C101.651 94.4364 101.468 93.9848 101.101 93.7099C100.735 93.4351 100.211 93.2976 99.5305 93.2976C98.8761 93.2976 98.359 93.4351 97.9794 93.7099C97.5998 93.9717 97.41 94.4233 97.41 95.0648C97.41 95.6407 97.5998 96.0989 97.9794 96.4392C98.3721 96.7795 98.8891 96.9497 99.5305 96.9497C100.185 96.9497 100.702 96.7795 101.082 96.4392C101.461 96.0858 101.651 95.6276 101.651 95.0648ZM99.5305 98.8346C99.0462 98.8346 98.6208 98.9132 98.2543 99.0703C97.8878 99.2273 97.5998 99.463 97.3903 99.7771C97.1809 100.091 97.0762 100.484 97.0762 100.955C97.0762 101.584 97.2791 102.074 97.6849 102.428C98.1037 102.781 98.719 102.958 99.5305 102.958C100.342 102.958 100.957 102.781 101.376 102.428C101.795 102.061 102.005 101.57 102.005 100.955C102.005 100.497 101.9 100.111 101.69 99.7968C101.494 99.4826 101.213 99.247 100.846 99.0899C100.48 98.9197 100.041 98.8346 99.5305 98.8346ZM106.463 94.2794C106.463 93.2583 106.757 92.4795 107.346 91.9428C107.935 91.393 108.675 91.1181 109.565 91.1181C110.442 91.1181 111.175 91.393 111.764 91.9428C112.353 92.4795 112.648 93.2583 112.648 94.2794C112.648 95.3004 112.353 96.0858 111.764 96.6355C111.175 97.1853 110.442 97.4602 109.565 97.4602C108.675 97.4602 107.935 97.1853 107.346 96.6355C106.757 96.0858 106.463 95.3004 106.463 94.2794ZM109.545 92.7086C109.192 92.7086 108.917 92.8329 108.721 93.0816C108.524 93.3172 108.426 93.7165 108.426 94.2794C108.426 94.8291 108.524 95.2349 108.721 95.4967C108.917 95.7454 109.192 95.8698 109.545 95.8698C109.886 95.8698 110.16 95.7454 110.37 95.4967C110.579 95.2349 110.684 94.8291 110.684 94.2794C110.684 93.7165 110.579 93.3172 110.37 93.0816C110.16 92.8329 109.886 92.7086 109.545 92.7086ZM116.359 91.2556H118.95L111.214 105H108.622L116.359 91.2556ZM114.964 101.957C114.964 100.936 115.259 100.157 115.848 99.62C116.437 99.0703 117.177 98.7954 118.067 98.7954C118.931 98.7954 119.657 99.0703 120.246 99.62C120.835 100.157 121.13 100.936 121.13 101.957C121.13 102.991 120.835 103.783 120.246 104.332C119.657 104.869 118.931 105.137 118.067 105.137C117.177 105.137 116.437 104.869 115.848 104.332C115.259 103.783 114.964 102.991 114.964 101.957ZM118.047 100.386C117.694 100.386 117.412 100.51 117.203 100.759C117.007 101.008 116.908 101.407 116.908 101.957C116.908 102.506 117.007 102.906 117.203 103.154C117.412 103.403 117.694 103.527 118.047 103.527C118.387 103.527 118.656 103.403 118.852 103.154C119.062 102.906 119.166 102.506 119.166 101.957C119.166 101.407 119.062 101.008 118.852 100.759C118.656 100.51 118.387 100.386 118.047 100.386Z" fill="#F8F9FA"/>
<path d="M56.5228 51.801C63.8624 44.6819 72.7948 39.3741 82.5957 36.3081C92.3965 33.2421 102.79 32.5042 112.933 34.1541C123.076 35.8041 132.683 39.7956 140.975 45.8048C149.268 51.814 156.011 59.6718 160.66 68.741C165.308 77.8101 167.73 87.8353 167.729 98.0035C167.729 108.172 165.306 118.197 160.656 127.265C156.007 136.334 149.263 144.191 140.97 150.199C132.677 156.208 123.069 160.198 112.926 161.847L108.899 137.608C115.191 136.585 121.152 134.109 126.296 130.382C131.441 126.655 135.625 121.781 138.509 116.155C141.393 110.529 142.896 104.31 142.897 98.0022C142.897 91.6943 141.394 85.4751 138.511 79.8491C135.627 74.223 131.444 69.3484 126.3 65.6206C121.156 61.8927 115.196 59.4166 108.903 58.393C102.611 57.3695 96.1635 57.8273 90.0835 59.7293C84.0035 61.6313 78.4623 64.924 73.9092 69.3403L56.5228 51.801Z" fill="#DDC6FF"/>
<g filter="url(#filter0_d_136_4713)">
<path d="M161.205 125.679C156.808 134.87 150.283 142.907 142.159 149.137C134.035 155.367 124.541 159.615 114.447 161.537C104.353 163.459 93.9431 163.001 84.0616 160.2C74.18 157.398 65.1051 152.333 57.5726 145.414C50.0401 138.495 44.2621 129.917 40.7073 120.376C37.1525 110.835 35.9208 100.6 37.1123 90.5005C38.3038 80.4008 41.8848 70.7211 47.565 62.2464C53.2451 53.7716 60.8645 46.7404 69.8052 41.7229L81.7773 62.5974C76.153 65.7538 71.3598 70.177 67.7865 75.5083C64.2133 80.8396 61.9605 86.9288 61.211 93.2823C60.4615 99.6358 61.2362 106.075 63.4725 112.076C65.7088 118.078 69.3435 123.474 74.0821 127.827C78.8206 132.18 84.5295 135.366 90.7457 137.129C96.962 138.891 103.511 139.179 109.86 137.97C116.21 136.761 122.183 134.088 127.293 130.169C132.404 126.25 136.509 121.194 139.275 115.413L161.205 125.679Z" fill="white"/>
</g>
<path d="M216.921 92.4186L220.75 88.8254C221.457 88.1578 222.013 87.5949 222.419 87.1368C222.838 86.6786 223.139 86.2597 223.322 85.8801C223.506 85.4874 223.597 85.0751 223.597 84.6431C223.597 84.0803 223.44 83.6221 223.126 83.2687C222.812 82.9022 222.295 82.7189 221.575 82.7189C221.143 82.7189 220.77 82.8236 220.456 83.0331C220.141 83.2294 219.899 83.5174 219.729 83.897C219.559 84.2766 219.467 84.7282 219.454 85.2518H216.902C216.928 84.1523 217.157 83.2491 217.589 82.5422C218.021 81.8354 218.59 81.3118 219.297 80.9714C220.004 80.6311 220.789 80.4609 221.653 80.4609C222.661 80.4609 223.512 80.6442 224.206 81.0107C224.9 81.3641 225.417 81.8484 225.757 82.4637C226.11 83.0789 226.287 83.7858 226.287 84.5842C226.287 85.1733 226.182 85.7427 225.973 86.2925C225.777 86.8292 225.43 87.3986 224.932 88.0007C224.448 88.5898 223.78 89.277 222.93 90.0624L220.652 92.124H226.601V94.3428H216.921V92.4186ZM229.523 91.4957H232.233L229.935 97.0328H228.227L229.523 91.4957ZM234.297 87.4706C234.297 86.4365 234.382 85.494 234.552 84.6431C234.735 83.7792 235.023 83.0396 235.416 82.4244C235.822 81.7961 236.365 81.3118 237.046 80.9714C237.726 80.6311 238.564 80.4609 239.559 80.4609C240.58 80.4609 241.424 80.6311 242.092 80.9714C242.773 81.3118 243.309 81.7961 243.702 82.4244C244.108 83.0396 244.396 83.7792 244.566 84.6431C244.736 85.494 244.821 86.4365 244.821 87.4706C244.821 88.5178 244.736 89.4733 244.566 90.3373C244.396 91.2012 244.108 91.9408 243.702 92.556C243.309 93.1712 242.773 93.649 242.092 93.9893C241.424 94.3166 240.58 94.4802 239.559 94.4802C238.564 94.4802 237.726 94.3166 237.046 93.9893C236.365 93.649 235.822 93.1712 235.416 92.556C235.023 91.9408 234.735 91.2012 234.552 90.3373C234.382 89.4733 234.297 88.5178 234.297 87.4706ZM242.131 87.4706C242.131 86.8423 242.105 86.2467 242.053 85.6838C242.013 85.1209 241.909 84.617 241.738 84.1719C241.568 83.7138 241.313 83.3603 240.973 83.1116C240.632 82.8498 240.161 82.7189 239.559 82.7189C238.97 82.7189 238.505 82.8498 238.165 83.1116C237.825 83.3603 237.569 83.7138 237.399 84.1719C237.229 84.617 237.118 85.1209 237.065 85.6838C237.026 86.2467 237.006 86.8423 237.006 87.4706C237.006 88.1251 237.026 88.7403 237.065 89.3162C237.118 89.8922 237.229 90.3962 237.399 90.8281C237.569 91.2601 237.825 91.6004 238.165 91.8491C238.505 92.0979 238.97 92.2222 239.559 92.2222C240.161 92.2222 240.632 92.0979 240.973 91.8491C241.313 91.6004 241.568 91.2601 241.738 90.8281C241.909 90.3962 242.013 89.8922 242.053 89.3162C242.105 88.7403 242.131 88.1251 242.131 87.4706ZM253.471 91.4368H246.559V89.4341L253 80.5984H256.122V89.2181H257.849V91.4368H256.122V94.3428H253.471V91.4368ZM253.589 89.2181V83.4258L249.485 89.2181H253.589ZM259.799 87.4706C259.799 86.4365 259.884 85.494 260.054 84.6431C260.238 83.7792 260.526 83.0396 260.918 82.4244C261.324 81.7961 261.867 81.3118 262.548 80.9714C263.229 80.6311 264.066 80.4609 265.061 80.4609C266.082 80.4609 266.927 80.6311 267.594 80.9714C268.275 81.3118 268.812 81.7961 269.204 82.4244C269.61 83.0396 269.898 83.7792 270.068 84.6431C270.238 85.494 270.323 86.4365 270.323 87.4706C270.323 88.5178 270.238 89.4733 270.068 90.3373C269.898 91.2012 269.61 91.9408 269.204 92.556C268.812 93.1712 268.275 93.649 267.594 93.9893C266.927 94.3166 266.082 94.4802 265.061 94.4802C264.066 94.4802 263.229 94.3166 262.548 93.9893C261.867 93.649 261.324 93.1712 260.918 92.556C260.526 91.9408 260.238 91.2012 260.054 90.3373C259.884 89.4733 259.799 88.5178 259.799 87.4706ZM267.633 87.4706C267.633 86.8423 267.607 86.2467 267.555 85.6838C267.516 85.1209 267.411 84.617 267.241 84.1719C267.071 83.7138 266.815 83.3603 266.475 83.1116C266.135 82.8498 265.663 82.7189 265.061 82.7189C264.472 82.7189 264.008 82.8498 263.667 83.1116C263.327 83.3603 263.072 83.7138 262.901 84.1719C262.731 84.617 262.62 85.1209 262.568 85.6838C262.528 86.2467 262.509 86.8423 262.509 87.4706C262.509 88.1251 262.528 88.7403 262.568 89.3162C262.62 89.8922 262.731 90.3962 262.901 90.8281C263.072 91.2601 263.327 91.6004 263.667 91.8491C264.008 92.0979 264.472 92.2222 265.061 92.2222C265.663 92.2222 266.135 92.0979 266.475 91.8491C266.815 91.6004 267.071 91.2601 267.241 90.8281C267.411 90.3962 267.516 89.8922 267.555 89.3162C267.607 88.7403 267.633 88.1251 267.633 87.4706ZM276.107 78.6349H278.718L273.986 96.3063H271.394L276.107 78.6349ZM279.439 87.7716C279.465 87.187 279.613 86.6983 279.884 86.3056C280.163 85.9041 280.534 85.6031 280.997 85.4024C281.468 85.1929 282.009 85.0882 282.62 85.0882C283.257 85.0882 283.798 85.206 284.243 85.4416C284.688 85.6772 285.024 85.9914 285.251 86.3841C285.486 86.7768 285.604 87.2088 285.604 87.68C285.604 88.0378 285.534 88.352 285.395 88.6225C285.255 88.8843 285.072 89.1024 284.845 89.277C284.618 89.4428 284.391 89.5693 284.164 89.6566V89.7089C284.487 89.8049 284.766 89.9446 285.002 90.1278C285.246 90.3111 285.434 90.5423 285.565 90.8216C285.705 91.1008 285.774 91.4412 285.774 91.8426C285.774 92.3575 285.652 92.8113 285.408 93.204C285.172 93.5879 284.823 93.889 284.361 94.1072C283.907 94.3253 283.348 94.4344 282.685 94.4344C282.031 94.4344 281.455 94.3384 280.957 94.1464C280.46 93.9544 280.067 93.649 279.779 93.2301C279.491 92.8025 279.334 92.2397 279.308 91.5415H281.036C281.053 92.0128 281.189 92.3618 281.442 92.5887C281.695 92.8156 282.096 92.9291 282.646 92.9291C282.96 92.9291 283.217 92.8811 283.418 92.7851C283.619 92.6891 283.767 92.5495 283.863 92.3662C283.959 92.1829 284.007 91.9604 284.007 91.6986C284.007 91.1925 283.841 90.8565 283.51 90.6907C283.187 90.5249 282.676 90.442 281.978 90.442H281.612V89.0283H281.991C282.358 89.0195 282.681 88.9846 282.96 88.9235C283.239 88.8537 283.453 88.7403 283.601 88.5832C283.759 88.4174 283.837 88.1905 283.837 87.9025C283.837 87.5273 283.732 87.2175 283.523 86.9731C283.313 86.7201 282.995 86.5935 282.567 86.5935C282.253 86.5935 281.996 86.6503 281.795 86.7637C281.603 86.8772 281.455 87.0211 281.35 87.1957C281.245 87.3702 281.184 87.5622 281.167 87.7716H279.439ZM287.761 92.4447H289.567L288.036 96.1361H286.897L287.761 92.4447ZM290.943 89.7613C290.943 89.0719 291 88.4436 291.114 87.8764C291.236 87.3004 291.428 86.8073 291.689 86.3972C291.96 85.9783 292.322 85.6554 292.776 85.4285C293.23 85.2016 293.788 85.0882 294.451 85.0882C295.132 85.0882 295.695 85.2016 296.14 85.4285C296.594 85.6554 296.952 85.9783 297.213 86.3972C297.484 86.8073 297.676 87.3004 297.789 87.8764C297.903 88.4436 297.96 89.0719 297.96 89.7613C297.96 90.4594 297.903 91.0965 297.789 91.6724C297.676 92.2484 297.484 92.7414 297.213 93.1516C296.952 93.5617 296.594 93.8803 296.14 94.1072C295.695 94.3253 295.132 94.4344 294.451 94.4344C293.788 94.4344 293.23 94.3253 292.776 94.1072C292.322 93.8803 291.96 93.5617 291.689 93.1516C291.428 92.7414 291.236 92.2484 291.114 91.6724C291 91.0965 290.943 90.4594 290.943 89.7613ZM296.166 89.7613C296.166 89.3424 296.149 88.9454 296.114 88.5701C296.088 88.1949 296.018 87.8589 295.904 87.5622C295.791 87.2568 295.621 87.0211 295.394 86.8553C295.167 86.6808 294.853 86.5935 294.451 86.5935C294.059 86.5935 293.749 86.6808 293.522 86.8553C293.295 87.0211 293.125 87.2568 293.012 87.5622C292.898 87.8589 292.824 88.1949 292.789 88.5701C292.763 88.9454 292.75 89.3424 292.75 89.7613C292.75 90.1976 292.763 90.6078 292.789 90.9918C292.824 91.3757 292.898 91.7117 293.012 91.9997C293.125 92.2877 293.295 92.5145 293.522 92.6804C293.749 92.8462 294.059 92.9291 294.451 92.9291C294.853 92.9291 295.167 92.8462 295.394 92.6804C295.621 92.5145 295.791 92.2877 295.904 91.9997C296.018 91.7117 296.088 91.3757 296.114 90.9918C296.149 90.6078 296.166 90.1976 296.166 89.7613ZM299.38 89.7613C299.38 89.0719 299.437 88.4436 299.55 87.8764C299.673 87.3004 299.865 86.8073 300.126 86.3972C300.397 85.9783 300.759 85.6554 301.213 85.4285C301.667 85.2016 302.225 85.0882 302.888 85.0882C303.569 85.0882 304.132 85.2016 304.577 85.4285C305.031 85.6554 305.388 85.9783 305.65 86.3972C305.921 86.8073 306.113 87.3004 306.226 87.8764C306.34 88.4436 306.396 89.0719 306.396 89.7613C306.396 90.4594 306.34 91.0965 306.226 91.6724C306.113 92.2484 305.921 92.7414 305.65 93.1516C305.388 93.5617 305.031 93.8803 304.577 94.1072C304.132 94.3253 303.569 94.4344 302.888 94.4344C302.225 94.4344 301.667 94.3253 301.213 94.1072C300.759 93.8803 300.397 93.5617 300.126 93.1516C299.865 92.7414 299.673 92.2484 299.55 91.6724C299.437 91.0965 299.38 90.4594 299.38 89.7613ZM304.603 89.7613C304.603 89.3424 304.586 88.9454 304.551 88.5701C304.525 88.1949 304.455 87.8589 304.341 87.5622C304.228 87.2568 304.058 87.0211 303.831 86.8553C303.604 86.6808 303.29 86.5935 302.888 86.5935C302.496 86.5935 302.186 86.6808 301.959 86.8553C301.732 87.0211 301.562 87.2568 301.448 87.5622C301.335 87.8589 301.261 88.1949 301.226 88.5701C301.2 88.9454 301.187 89.3424 301.187 89.7613C301.187 90.1976 301.2 90.6078 301.226 90.9918C301.261 91.3757 301.335 91.7117 301.448 91.9997C301.562 92.2877 301.732 92.5145 301.959 92.6804C302.186 92.8462 302.496 92.9291 302.888 92.9291C303.29 92.9291 303.604 92.8462 303.831 92.6804C304.058 92.5145 304.228 92.2877 304.341 91.9997C304.455 91.7117 304.525 91.3757 304.551 90.9918C304.586 90.6078 304.603 90.1976 304.603 89.7613ZM307.817 89.7613C307.817 89.0719 307.874 88.4436 307.987 87.8764C308.109 87.3004 308.301 86.8073 308.563 86.3972C308.834 85.9783 309.196 85.6554 309.65 85.4285C310.103 85.2016 310.662 85.0882 311.325 85.0882C312.006 85.0882 312.569 85.2016 313.014 85.4285C313.468 85.6554 313.825 85.9783 314.087 86.3972C314.358 86.8073 314.55 87.3004 314.663 87.8764C314.777 88.4436 314.833 89.0719 314.833 89.7613C314.833 90.4594 314.777 91.0965 314.663 91.6724C314.55 92.2484 314.358 92.7414 314.087 93.1516C313.825 93.5617 313.468 93.8803 313.014 94.1072C312.569 94.3253 312.006 94.4344 311.325 94.4344C310.662 94.4344 310.103 94.3253 309.65 94.1072C309.196 93.8803 308.834 93.5617 308.563 93.1516C308.301 92.7414 308.109 92.2484 307.987 91.6724C307.874 91.0965 307.817 90.4594 307.817 89.7613ZM313.04 89.7613C313.04 89.3424 313.022 88.9454 312.988 88.5701C312.961 88.1949 312.892 87.8589 312.778 87.5622C312.665 87.2568 312.495 87.0211 312.268 86.8553C312.041 86.6808 311.727 86.5935 311.325 86.5935C310.932 86.5935 310.623 86.6808 310.396 86.8553C310.169 87.0211 309.999 87.2568 309.885 87.5622C309.772 87.8589 309.698 88.1949 309.663 88.5701C309.637 88.9454 309.623 89.3424 309.623 89.7613C309.623 90.1976 309.637 90.6078 309.663 90.9918C309.698 91.3757 309.772 91.7117 309.885 91.9997C309.999 92.2877 310.169 92.5145 310.396 92.6804C310.623 92.8462 310.932 92.9291 311.325 92.9291C311.727 92.9291 312.041 92.8462 312.268 92.6804C312.495 92.5145 312.665 92.2877 312.778 91.9997C312.892 91.7117 312.961 91.3757 312.988 90.9918C313.022 90.6078 313.04 90.1976 313.04 89.7613Z" fill="white"/>
<path d="M235.957 108.35C235.997 108.35 236.029 108.366 236.053 108.398C236.085 108.422 236.101 108.454 236.101 108.494V109.418C236.101 109.458 236.085 109.494 236.053 109.526C236.029 109.55 235.997 109.562 235.957 109.562H233.749C233.709 109.562 233.689 109.582 233.689 109.622V116.606C233.689 116.646 233.673 116.682 233.641 116.714C233.617 116.738 233.585 116.75 233.545 116.75H232.441C232.401 116.75 232.365 116.738 232.333 116.714C232.309 116.682 232.297 116.646 232.297 116.606V109.622C232.297 109.582 232.277 109.562 232.237 109.562H230.113C230.073 109.562 230.037 109.55 230.005 109.526C229.981 109.494 229.969 109.458 229.969 109.418V108.494C229.969 108.454 229.981 108.422 230.005 108.398C230.037 108.366 230.073 108.35 230.113 108.35H235.957ZM239.255 110.522C239.759 110.522 240.203 110.61 240.587 110.786C240.971 110.962 241.267 111.206 241.475 111.518C241.683 111.822 241.787 112.17 241.787 112.562V116.606C241.787 116.646 241.771 116.682 241.739 116.714C241.715 116.738 241.683 116.75 241.643 116.75H240.539C240.499 116.75 240.463 116.738 240.431 116.714C240.407 116.682 240.395 116.646 240.395 116.606V116.222C240.395 116.198 240.387 116.186 240.371 116.186C240.355 116.178 240.339 116.182 240.323 116.198C239.931 116.63 239.363 116.846 238.619 116.846C238.019 116.846 237.523 116.694 237.131 116.39C236.747 116.086 236.555 115.634 236.555 115.034C236.555 114.41 236.771 113.926 237.203 113.582C237.643 113.23 238.259 113.054 239.051 113.054H240.335C240.375 113.054 240.395 113.034 240.395 112.994V112.706C240.395 112.394 240.303 112.154 240.119 111.986C239.935 111.81 239.659 111.722 239.291 111.722C238.987 111.722 238.739 111.778 238.547 111.89C238.363 111.994 238.247 112.142 238.199 112.334C238.175 112.43 238.119 112.47 238.031 112.454L236.867 112.31C236.827 112.302 236.791 112.29 236.759 112.274C236.735 112.25 236.727 112.222 236.735 112.19C236.799 111.702 237.059 111.302 237.515 110.99C237.979 110.678 238.559 110.522 239.255 110.522ZM238.967 115.742C239.359 115.742 239.695 115.638 239.975 115.43C240.255 115.222 240.395 114.958 240.395 114.638V114.074C240.395 114.034 240.375 114.014 240.335 114.014H239.327C238.903 114.014 238.567 114.094 238.319 114.254C238.079 114.414 237.959 114.642 237.959 114.938C237.959 115.194 238.051 115.394 238.235 115.538C238.427 115.674 238.671 115.742 238.967 115.742ZM246.04 110.546C246.296 110.546 246.52 110.598 246.712 110.702C246.776 110.734 246.8 110.794 246.784 110.882L246.58 111.962C246.572 112.058 246.516 112.086 246.412 112.046C246.292 112.006 246.152 111.986 245.992 111.986C245.888 111.986 245.808 111.99 245.752 111.998C245.416 112.014 245.136 112.134 244.912 112.358C244.688 112.574 244.576 112.858 244.576 113.21V116.606C244.576 116.646 244.56 116.682 244.528 116.714C244.504 116.738 244.472 116.75 244.432 116.75H243.328C243.288 116.75 243.252 116.738 243.22 116.714C243.196 116.682 243.184 116.646 243.184 116.606V110.762C243.184 110.722 243.196 110.69 243.22 110.666C243.252 110.634 243.288 110.618 243.328 110.618H244.432C244.472 110.618 244.504 110.634 244.528 110.666C244.56 110.69 244.576 110.722 244.576 110.762V111.302C244.576 111.334 244.58 111.354 244.588 111.362C244.604 111.362 244.62 111.35 244.636 111.326C244.972 110.806 245.44 110.546 246.04 110.546ZM251.229 110.762C251.229 110.722 251.241 110.69 251.265 110.666C251.297 110.634 251.333 110.618 251.373 110.618H252.477C252.517 110.618 252.549 110.634 252.573 110.666C252.605 110.69 252.621 110.722 252.621 110.762V116.342C252.621 117.342 252.333 118.054 251.757 118.478C251.189 118.91 250.441 119.126 249.513 119.126C249.265 119.126 249.021 119.114 248.781 119.09C248.693 119.082 248.649 119.03 248.649 118.934L248.685 117.95C248.685 117.862 248.741 117.818 248.853 117.818C249.085 117.842 249.293 117.854 249.477 117.854C250.077 117.854 250.517 117.734 250.797 117.494C251.085 117.262 251.229 116.866 251.229 116.306V116.21C251.229 116.186 251.221 116.174 251.205 116.174C251.189 116.166 251.173 116.17 251.157 116.186C250.829 116.538 250.365 116.714 249.765 116.714C249.245 116.714 248.769 116.582 248.337 116.318C247.905 116.054 247.605 115.65 247.437 115.106C247.333 114.73 247.281 114.246 247.281 113.654C247.281 112.99 247.345 112.482 247.473 112.13C247.633 111.642 247.909 111.254 248.301 110.966C248.693 110.67 249.153 110.522 249.681 110.522C250.313 110.522 250.805 110.706 251.157 111.074C251.173 111.098 251.189 111.106 251.205 111.098C251.221 111.09 251.229 111.074 251.229 111.05V110.762ZM251.145 114.71C251.177 114.59 251.197 114.462 251.205 114.326C251.221 114.182 251.229 113.954 251.229 113.642C251.229 113.338 251.221 113.122 251.205 112.994C251.197 112.858 251.173 112.726 251.133 112.598C251.069 112.334 250.937 112.122 250.737 111.962C250.545 111.802 250.297 111.722 249.993 111.722C249.705 111.722 249.461 111.802 249.261 111.962C249.061 112.122 248.917 112.334 248.829 112.598C248.733 112.822 248.685 113.174 248.685 113.654C248.685 114.15 248.725 114.498 248.805 114.698C248.885 114.954 249.029 115.166 249.237 115.334C249.453 115.494 249.709 115.574 250.005 115.574C250.317 115.574 250.569 115.494 250.761 115.334C250.953 115.174 251.081 114.966 251.145 114.71ZM259.231 112.994C259.263 113.194 259.279 113.418 259.279 113.666L259.267 114.038C259.267 114.134 259.219 114.182 259.123 114.182H255.367C255.327 114.182 255.307 114.202 255.307 114.242C255.331 114.506 255.367 114.686 255.415 114.782C255.607 115.358 256.075 115.65 256.819 115.658C257.363 115.658 257.795 115.434 258.115 114.986C258.147 114.938 258.187 114.914 258.235 114.914C258.267 114.914 258.295 114.926 258.319 114.95L259.063 115.562C259.135 115.618 259.147 115.682 259.099 115.754C258.851 116.106 258.519 116.378 258.103 116.57C257.695 116.762 257.239 116.858 256.735 116.858C256.111 116.858 255.579 116.718 255.139 116.438C254.707 116.158 254.391 115.766 254.191 115.262C254.007 114.83 253.915 114.23 253.915 113.462C253.915 112.998 253.963 112.622 254.059 112.334C254.219 111.774 254.519 111.334 254.959 111.014C255.407 110.686 255.943 110.522 256.567 110.522C258.143 110.522 259.031 111.346 259.231 112.994ZM256.567 111.722C256.271 111.722 256.023 111.798 255.823 111.95C255.631 112.094 255.495 112.298 255.415 112.562C255.367 112.698 255.335 112.874 255.319 113.09C255.303 113.13 255.319 113.15 255.367 113.15H257.803C257.843 113.15 257.863 113.13 257.863 113.09C257.847 112.89 257.823 112.738 257.791 112.634C257.719 112.346 257.575 112.122 257.359 111.962C257.151 111.802 256.887 111.722 256.567 111.722ZM263.686 111.602C263.686 111.642 263.67 111.678 263.638 111.71C263.614 111.734 263.582 111.746 263.542 111.746H262.318C262.278 111.746 262.258 111.766 262.258 111.806V114.698C262.258 115.002 262.322 115.222 262.45 115.358C262.586 115.494 262.798 115.562 263.086 115.562H263.446C263.486 115.562 263.518 115.578 263.542 115.61C263.574 115.634 263.59 115.666 263.59 115.706V116.606C263.59 116.694 263.542 116.746 263.446 116.762L262.822 116.774C262.19 116.774 261.718 116.666 261.406 116.45C261.094 116.234 260.934 115.826 260.926 115.226V111.806C260.926 111.766 260.906 111.746 260.866 111.746H260.182C260.142 111.746 260.106 111.734 260.074 111.71C260.05 111.678 260.038 111.642 260.038 111.602V110.762C260.038 110.722 260.05 110.69 260.074 110.666C260.106 110.634 260.142 110.618 260.182 110.618H260.866C260.906 110.618 260.926 110.598 260.926 110.558V109.154C260.926 109.114 260.938 109.082 260.962 109.058C260.994 109.026 261.03 109.01 261.07 109.01H262.114C262.154 109.01 262.186 109.026 262.21 109.058C262.242 109.082 262.258 109.114 262.258 109.154V110.558C262.258 110.598 262.278 110.618 262.318 110.618H263.542C263.582 110.618 263.614 110.634 263.638 110.666C263.67 110.69 263.686 110.722 263.686 110.762V111.602ZM270.301 116.87C269.701 116.87 269.169 116.75 268.705 116.51C268.241 116.262 267.881 115.914 267.625 115.466C267.377 115.018 267.253 114.502 267.253 113.918V111.182C267.253 110.606 267.381 110.098 267.637 109.658C267.893 109.21 268.249 108.866 268.705 108.626C269.169 108.378 269.701 108.254 270.301 108.254C270.909 108.254 271.441 108.378 271.897 108.626C272.361 108.866 272.721 109.21 272.977 109.658C273.233 110.098 273.361 110.606 273.361 111.182V113.918C273.361 114.502 273.233 115.018 272.977 115.466C272.721 115.914 272.361 116.262 271.897 116.51C271.441 116.75 270.909 116.87 270.301 116.87ZM270.301 115.67C270.805 115.67 271.209 115.514 271.513 115.202C271.817 114.89 271.969 114.478 271.969 113.966V111.17C271.969 110.65 271.817 110.234 271.513 109.922C271.209 109.61 270.805 109.454 270.301 109.454C269.805 109.454 269.405 109.61 269.101 109.922C268.797 110.234 268.645 110.65 268.645 111.17V113.966C268.645 114.478 268.797 114.89 269.101 115.202C269.405 115.514 269.805 115.67 270.301 115.67ZM277.634 110.546C277.89 110.546 278.114 110.598 278.306 110.702C278.37 110.734 278.394 110.794 278.378 110.882L278.174 111.962C278.166 112.058 278.11 112.086 278.006 112.046C277.886 112.006 277.746 111.986 277.586 111.986C277.482 111.986 277.402 111.99 277.346 111.998C277.01 112.014 276.73 112.134 276.506 112.358C276.282 112.574 276.17 112.858 276.17 113.21V116.606C276.17 116.646 276.154 116.682 276.122 116.714C276.098 116.738 276.066 116.75 276.026 116.75H274.922C274.882 116.75 274.846 116.738 274.814 116.714C274.79 116.682 274.778 116.646 274.778 116.606V110.762C274.778 110.722 274.79 110.69 274.814 110.666C274.846 110.634 274.882 110.618 274.922 110.618H276.026C276.066 110.618 276.098 110.634 276.122 110.666C276.154 110.69 276.17 110.722 276.17 110.762V111.302C276.17 111.334 276.174 111.354 276.182 111.362C276.198 111.362 276.214 111.35 276.23 111.326C276.566 110.806 277.034 110.546 277.634 110.546ZM282.977 108.494C282.977 108.454 282.989 108.422 283.013 108.398C283.045 108.366 283.081 108.35 283.121 108.35H284.225C284.265 108.35 284.297 108.366 284.321 108.398C284.353 108.422 284.369 108.454 284.369 108.494V116.606C284.369 116.646 284.353 116.682 284.321 116.714C284.297 116.738 284.265 116.75 284.225 116.75H283.121C283.081 116.75 283.045 116.738 283.013 116.714C282.989 116.682 282.977 116.646 282.977 116.606V116.246C282.977 116.222 282.969 116.206 282.953 116.198C282.937 116.19 282.921 116.198 282.905 116.222C282.553 116.638 282.093 116.846 281.525 116.846C280.957 116.846 280.477 116.698 280.085 116.402C279.693 116.106 279.409 115.694 279.233 115.166C279.089 114.718 279.017 114.218 279.017 113.666C279.017 113.098 279.085 112.61 279.221 112.202C279.397 111.674 279.681 111.262 280.073 110.966C280.465 110.67 280.957 110.522 281.549 110.522C282.101 110.522 282.553 110.722 282.905 111.122C282.921 111.138 282.937 111.146 282.953 111.146C282.969 111.138 282.977 111.122 282.977 111.098V108.494ZM282.689 115.07C282.873 114.742 282.965 114.278 282.965 113.678C282.965 113.054 282.865 112.578 282.665 112.25C282.449 111.898 282.145 111.722 281.753 111.722C281.345 111.722 281.025 111.89 280.793 112.226C280.553 112.578 280.433 113.066 280.433 113.69C280.433 114.25 280.529 114.71 280.721 115.07C280.945 115.454 281.285 115.646 281.741 115.646C282.149 115.646 282.465 115.454 282.689 115.07ZM291.048 112.994C291.08 113.194 291.096 113.418 291.096 113.666L291.084 114.038C291.084 114.134 291.036 114.182 290.94 114.182H287.184C287.144 114.182 287.124 114.202 287.124 114.242C287.148 114.506 287.184 114.686 287.232 114.782C287.424 115.358 287.892 115.65 288.636 115.658C289.18 115.658 289.612 115.434 289.932 114.986C289.964 114.938 290.004 114.914 290.052 114.914C290.084 114.914 290.112 114.926 290.136 114.95L290.88 115.562C290.952 115.618 290.964 115.682 290.916 115.754C290.668 116.106 290.336 116.378 289.92 116.57C289.512 116.762 289.056 116.858 288.552 116.858C287.928 116.858 287.396 116.718 286.956 116.438C286.524 116.158 286.208 115.766 286.008 115.262C285.824 114.83 285.732 114.23 285.732 113.462C285.732 112.998 285.78 112.622 285.876 112.334C286.036 111.774 286.336 111.334 286.776 111.014C287.224 110.686 287.76 110.522 288.384 110.522C289.96 110.522 290.848 111.346 291.048 112.994ZM288.384 111.722C288.088 111.722 287.84 111.798 287.64 111.95C287.448 112.094 287.312 112.298 287.232 112.562C287.184 112.698 287.152 112.874 287.136 113.09C287.12 113.13 287.136 113.15 287.184 113.15H289.62C289.66 113.15 289.68 113.13 289.68 113.09C289.664 112.89 289.64 112.738 289.608 112.634C289.536 112.346 289.392 112.122 289.176 111.962C288.968 111.802 288.704 111.722 288.384 111.722ZM295.224 110.546C295.48 110.546 295.704 110.598 295.896 110.702C295.96 110.734 295.984 110.794 295.968 110.882L295.764 111.962C295.756 112.058 295.7 112.086 295.596 112.046C295.476 112.006 295.336 111.986 295.176 111.986C295.072 111.986 294.992 111.99 294.936 111.998C294.6 112.014 294.32 112.134 294.096 112.358C293.872 112.574 293.76 112.858 293.76 113.21V116.606C293.76 116.646 293.744 116.682 293.712 116.714C293.688 116.738 293.656 116.75 293.616 116.75H292.512C292.472 116.75 292.436 116.738 292.404 116.714C292.38 116.682 292.368 116.646 292.368 116.606V110.762C292.368 110.722 292.38 110.69 292.404 110.666C292.436 110.634 292.472 110.618 292.512 110.618H293.616C293.656 110.618 293.688 110.634 293.712 110.666C293.744 110.69 293.76 110.722 293.76 110.762V111.302C293.76 111.334 293.764 111.354 293.772 111.362C293.788 111.362 293.804 111.35 293.82 111.326C294.156 110.806 294.624 110.546 295.224 110.546ZM299.089 116.822C298.585 116.822 298.141 116.75 297.757 116.606C297.381 116.454 297.089 116.25 296.881 115.994C296.673 115.73 296.569 115.438 296.569 115.118V115.01C296.569 114.97 296.581 114.938 296.605 114.914C296.637 114.882 296.673 114.866 296.713 114.866H297.769C297.809 114.866 297.841 114.882 297.865 114.914C297.897 114.938 297.913 114.97 297.913 115.01V115.034C297.913 115.234 298.021 115.41 298.237 115.562C298.461 115.706 298.741 115.778 299.077 115.778C299.397 115.778 299.657 115.714 299.857 115.586C300.057 115.45 300.157 115.282 300.157 115.082C300.157 114.898 300.073 114.762 299.905 114.674C299.745 114.578 299.481 114.478 299.113 114.374L298.657 114.23C298.249 114.11 297.905 113.982 297.625 113.846C297.345 113.71 297.109 113.526 296.917 113.294C296.725 113.054 296.629 112.75 296.629 112.382C296.629 111.822 296.849 111.378 297.289 111.05C297.729 110.714 298.309 110.546 299.029 110.546C299.517 110.546 299.945 110.626 300.313 110.786C300.681 110.938 300.965 111.154 301.165 111.434C301.365 111.706 301.465 112.018 301.465 112.37C301.465 112.41 301.449 112.446 301.417 112.478C301.393 112.502 301.361 112.514 301.321 112.514H300.301C300.261 112.514 300.225 112.502 300.193 112.478C300.169 112.446 300.157 112.41 300.157 112.37C300.157 112.162 300.053 111.99 299.845 111.854C299.645 111.71 299.369 111.638 299.017 111.638C298.705 111.638 298.449 111.698 298.249 111.818C298.057 111.93 297.961 112.09 297.961 112.298C297.961 112.49 298.053 112.638 298.237 112.742C298.429 112.838 298.745 112.946 299.185 113.066L299.449 113.138C299.873 113.266 300.229 113.398 300.517 113.534C300.805 113.662 301.049 113.846 301.249 114.086C301.449 114.318 301.549 114.622 301.549 114.998C301.549 115.566 301.325 116.014 300.877 116.342C300.429 116.662 299.833 116.822 299.089 116.822Z" fill="#F8F9FA"/>
<defs>
<filter id="filter0_d_136_4713" x="27.6726" y="32.7233" width="142.532" height="138.98" filterUnits="userSpaceOnUse" color-interpolation-filters="sRGB">
<feFlood flood-opacity="0" result="BackgroundImageFix"/>
<feColorMatrix in="SourceAlpha" type="matrix" values="0 0 0 0 0 0 0 0 0 0 0 0 0 0 0 0 0 0 127 0" result="hardAlpha"/>
<feOffset/>
<feGaussianBlur stdDeviation="4.49966"/>
<feComposite in2="hardAlpha" operator="out"/>
<feColorMatrix type="matrix" values="0 0 0 0 0.837903 0 0 0 0 0.495139 0 0 0 0 0.958333 0 0 0 1 0"/>
<feBlend mode="normal" in2="BackgroundImageFix" result="effect1_dropShadow_136_4713"/>
<feBlend mode="normal" in="SourceGraphic" in2="effect1_dropShadow_136_4713" result="shape"/>
</filter>
<linearGradient id="paint0_linear_136_4713" x1="340" y1="196" x2="300.999" y2="42.6752" gradientUnits="userSpaceOnUse">
<stop stop-color="#D355FF"/>
<stop offset="1" stop-color="#9A55FF"/>
</linearGradient>
</defs>
</svg>
